<?xml version="1.0" encoding="UTF-8"?><svg id="Layer_1" xmlns="http://www.w3.org/2000/svg" xmlns:xlink="http://www.w3.org/1999/xlink" width="518.47" height="611.067"><defs><style>.cls-1{fill:#93a5aa;}.cls-1,.cls-2,.cls-3,.cls-4,.cls-5,.cls-6,.cls-7,.cls-8,.cls-9,.cls-10{stroke-width:0px;}.cls-2{fill:#123f4a;}.cls-3{fill:#175f61;}.cls-4{fill:#dbe7ed;}.cls-5{fill:none;}.cls-6{fill:#74888e;}.cls-7{fill:#bfe4de;}.cls-11{opacity:.8;}.cls-8{fill:#5b6d71;}.cls-12{clip-path:url(#clippath);}.cls-9{fill:#66a2a3;}.cls-10{fill:#becace;}</style><clipPath id="clippath"><path class="cls-5" d="m24.837,462.63h120.255c4.315,0,7.818,3.503,7.818,7.818v140.816H17.019v-140.816c0-4.315,3.503-7.818,7.818-7.818Z"/></clipPath></defs><path class="cls-4" d="m481.873,485.774v117.57c0,3.63-2.28,6.72-5.49,7.92h-112.27v-133.94h109.31c4.67,0,8.45,3.78,8.45,8.45Z"/><rect class="cls-4" x="189.963" y="477.324" width="67.92" height="133.68"/><rect class="cls-4" x="259.543" y="477.324" width="67.92" height="133.94"/><path class="cls-2" d="m0,614.067v-245.962c0-5.965,4.854-10.818,10.818-10.818h496.834c5.965,0,10.817,4.853,10.817,10.818v245.962H0Z"/><path class="cls-9" d="m10.818,360.287h496.834c4.315,0,7.818,3.503,7.818,7.818v242.962H3v-242.962c0-4.315,3.503-7.818,7.818-7.818Z"/><path class="cls-4" d="m197.778,462.375h52.291c4.315,0,7.818,3.503,7.818,7.818v140.816h-67.926v-140.816c0-4.315,3.503-7.818,7.818-7.818Z"/><path class="cls-4" d="m267.359,462.63h52.291c4.315,0,7.818,3.503,7.818,7.818v140.816h-67.926v-140.816c0-4.315,3.503-7.818,7.818-7.818Z"/><path class="cls-4" d="m371.932,462.63h120.255c4.315,0,7.818,3.503,7.818,7.818v140.816h-135.89v-140.816c0-4.315,3.503-7.818,7.818-7.818Z"/><rect class="cls-7" x="17.019" y="373.298" width="482.985" height="61.533" rx="11.282" ry="11.282"/><rect class="cls-1" x="426.774" y="485.677" width="40.34" height="125.587"/><rect class="cls-1" x="379.284" y="507.13" width="27.064" height="104.134"/><g class="cls-12"><path class="cls-10" d="m24.837,462.63h120.255c4.315,0,7.818,3.503,7.818,7.818v140.816H17.019v-140.816c0-4.315,3.503-7.818,7.818-7.818Z"/><path class="cls-4" d="m152.913,477.324v133.94H42.093c-3.21-1.2-5.5-4.29-5.5-7.92v-117.57c0-4.67,3.79-8.45,8.45-8.45h107.87Z"/><rect class="cls-1" x="12.135" y="485.677" width="49.021" height="125.39"/><rect class="cls-1" x="45.327" y="528.389" width="76.596" height="82.875"/><rect class="cls-1" x="105.582" y="504.389" width="47.327" height="108.766"/></g><rect class="cls-1" x="364.114" y="528.389" width="135.89" height="82.678"/><rect class="cls-1" x="189.96" y="528.134" width="67.926" height="82.678"/><rect class="cls-1" x="259.542" y="528.134" width="67.926" height="82.678"/><path class="cls-10" d="m257.883,470.194v7.13h-67.92v-7.13c0-4.32,3.5-7.82,7.81-7.82h52.3c4.31,0,7.81,3.5,7.81,7.82Z"/><path class="cls-10" d="m327.463,470.444v6.88h-67.92v-6.88c0-4.31,3.5-7.81,7.82-7.81h52.29c4.31,0,7.81,3.5,7.81,7.81Z"/><path class="cls-10" d="m500.003,470.444v140.82h-23.62c3.21-1.2,5.49-4.29,5.49-7.92v-117.57c0-4.67-3.78-8.45-8.45-8.45h-109.31v-6.88c0-4.31,3.5-7.81,7.82-7.81h120.25c4.32,0,7.82,3.5,7.82,7.81Z"/><rect class="cls-6" x="364.114" y="548.471" width="135.89" height="62.596"/><rect class="cls-6" x="189.96" y="559.197" width="67.926" height="51.615"/><rect class="cls-6" x="259.542" y="569.473" width="67.926" height="41.594"/><rect class="cls-6" x="17.019" y="544.985" width="54.35" height="66.082"/><rect class="cls-6" x="71.369" y="560.304" width="81.54" height="50.763"/><rect class="cls-8" x="17.019" y="585.004" width="135.89" height="26.063"/><rect class="cls-8" x="189.96" y="598.036" width="67.926" height="12.973"/><rect class="cls-8" x="364.114" y="592.049" width="135.89" height="19.018"/><rect class="cls-8" x="396.135" y="571.283" width="56.17" height="39.784"/><rect class="cls-8" x="276.306" y="581.155" width="35.064" height="30.638"/><rect class="cls-8" x="259.542" y="587.283" width="67.926" height="24.511"/><g class="cls-11"><path class="cls-3" d="m24.837,462.63h120.255c4.315,0,7.818,3.503,7.818,7.818v140.816H17.019v-140.816c0-4.315,3.503-7.818,7.818-7.818Z"/><path class="cls-3" d="m197.778,462.375h52.291c4.315,0,7.818,3.503,7.818,7.818v140.816h-67.926v-140.816c0-4.315,3.503-7.818,7.818-7.818Z"/><path class="cls-3" d="m267.359,462.63h52.291c4.315,0,7.818,3.503,7.818,7.818v140.816h-67.926v-140.816c0-4.315,3.503-7.818,7.818-7.818Z"/><path class="cls-3" d="m371.932,462.63h120.255c4.315,0,7.818,3.503,7.818,7.818v140.816h-135.89v-140.816c0-4.315,3.503-7.818,7.818-7.818Z"/></g></svg>