<?xml version="1.0" encoding="UTF-8"?><svg id="Layer_1" xmlns="http://www.w3.org/2000/svg" xmlns:xlink="http://www.w3.org/1999/xlink" width="1940.26" height="548.31"><defs><style>.cls-1{fill:url(#linear-gradient);}.cls-1,.cls-2,.cls-3{stroke-width:0px;}.cls-2{fill:none;}.cls-3{fill:#afceb3;opacity:.5;}</style><linearGradient id="linear-gradient" x1="970.13" y1="548.31" x2="970.13" y2="0" gradientUnits="userSpaceOnUse"><stop offset="0" stop-color="#c8d693"/><stop offset=".111" stop-color="#acc08d"/><stop offset=".261" stop-color="#8da986"/><stop offset=".419" stop-color="#769781"/><stop offset=".587" stop-color="#658a7d"/><stop offset=".77" stop-color="#5b827b"/><stop offset=".997" stop-color="#58807b"/></linearGradient></defs><path class="cls-1" d="m1940.26.12v548.19H0V0c55.12,0,101.97,35.38,119.09,84.66,9.35-9.84,22.56-15.98,37.21-15.98,28.35,0,51.33,22.98,51.33,51.33,0,3.61-.38,7.13-1.08,10.53,8.57-4.68,18.39-7.33,28.84-7.33,33.34,0,60.36,27.02,60.36,60.36v.1c9.39-8.62,21.91-13.89,35.67-13.89,6.09,0,11.92,1.05,17.36,2.94-.15-2.01-.26-4.04-.26-6.09,0-42.68,34.6-77.27,77.27-77.27,38.75,0,70.83,28.52,76.41,65.72,2.47-.4,4.99-.62,7.57-.62,7.47,0,14.52,1.75,20.79,4.85,9.78-19.71,30.09-33.27,53.58-33.27,31.46,0,57.23,24.31,59.59,55.17,8.17-5.07,17.52-8.41,27.56-9.48-.15-2.16-.23-4.33-.23-6.52,0-52.37,42.45-94.82,94.82-94.82s94.81,42.45,94.81,94.82c0,13.66-2.89,26.64-8.1,38.38h5.85c11.44-16.86,30.75-27.93,52.66-27.93,16.3,0,31.16,6.13,42.42,16.22,15.62-34.89,50.64-59.2,91.33-59.2,21.41,0,41.23,6.72,57.5,18.17,11.82-10.83,27.04-18.01,43.87-19.73,6.75-36.16,38.45-63.53,76.57-63.53,43.02,0,77.9,34.88,77.9,77.9,0,12.84-3.12,24.94-8.62,35.61,12.77-3.54,26.23-5.44,40.13-5.44,27.28,0,52.85,7.3,74.88,20.04,19.5-25.09,49.96-41.24,84.2-41.24,33.76,0,63.85,15.7,83.38,40.19,10.38-10.25,24.15-17.09,39.48-18.65-.44-2.97-.68-6.01-.68-9.1,0-33.62,27.26-60.87,60.88-60.87,24.57,0,45.73,14.57,55.34,35.53,13.6-13.61,31.15-23.28,50.77-27.16,5.27-21.85,21.48-39.43,42.52-46.61,21.04-40.29,63.2-67.79,111.8-67.79,1.84,0,3.67.04,5.49.12Z"/><path class="cls-3" d="m1940.26.12v548.19H0V0c55.12,0,101.97,35.38,119.09,84.66,9.35-9.84,22.56-15.98,37.21-15.98,28.35,0,51.33,22.98,51.33,51.33,0,3.61-.38,7.13-1.08,10.53,8.57-4.68,18.39-7.33,28.84-7.33,33.34,0,60.36,27.02,60.36,60.36v.1c9.39-8.62,21.91-13.89,35.67-13.89,6.09,0,11.92,1.05,17.36,2.94-.15-2.01-.26-4.04-.26-6.09,0-42.68,34.6-77.27,77.27-77.27,38.75,0,70.83,28.52,76.41,65.72,2.47-.4,4.99-.62,7.57-.62,7.47,0,14.52,1.75,20.79,4.85,9.78-19.71,30.09-33.27,53.58-33.27,31.46,0,57.23,24.31,59.59,55.17,8.17-5.07,17.52-8.41,27.56-9.48-.15-2.16-.23-4.33-.23-6.52,0-52.37,42.45-94.82,94.82-94.82s94.81,42.45,94.81,94.82c0,13.66-2.89,26.64-8.1,38.38h5.85c11.44-16.86,30.75-27.93,52.66-27.93,16.3,0,31.16,6.13,42.42,16.22,15.62-34.89,50.64-59.2,91.33-59.2,21.41,0,41.23,6.72,57.5,18.17,11.82-10.83,27.04-18.01,43.87-19.73,6.75-36.16,38.45-63.53,76.57-63.53,43.02,0,77.9,34.88,77.9,77.9,0,12.84-3.12,24.94-8.62,35.61,12.77-3.54,26.23-5.44,40.13-5.44,27.28,0,52.85,7.3,74.88,20.04,19.5-25.09,49.96-41.24,84.2-41.24,33.76,0,63.85,15.7,83.38,40.19,10.38-10.25,24.15-17.09,39.48-18.65-.44-2.97-.68-6.01-.68-9.1,0-33.62,27.26-60.87,60.88-60.87,24.57,0,45.73,14.57,55.34,35.53,13.6-13.61,31.15-23.28,50.77-27.16,5.27-21.85,21.48-39.43,42.52-46.61,21.04-40.29,63.2-67.79,111.8-67.79,1.84,0,3.67.04,5.49.12Z"/><rect class="cls-2" width="1940.26" height="765.01"/></svg>