<?xml version="1.0" encoding="UTF-8"?><svg id="Layer_1" xmlns="http://www.w3.org/2000/svg" width="518.47" height="611.067"><defs><style>.cls-1{fill:#395a54;}.cls-1,.cls-2,.cls-3,.cls-4,.cls-5,.cls-6,.cls-7,.cls-8,.cls-9{stroke-width:0px;}.cls-2{fill:#123f4a;}.cls-3{fill:#5a918f;}.cls-4{fill:#114d4d;}.cls-10{fill:none;stroke:#114d4d;stroke-miterlimit:10;stroke-width:2px;}.cls-5{fill:#83bd9c;}.cls-6{fill:#6ca38c;}.cls-7{fill:#4a8080;}.cls-8{fill:#75aeaf;}.cls-9{fill:#86c4c5;}</style></defs><path class="cls-4" d="m506.862,611.067h-5v-100.747c0-2.198-1.788-3.986-3.986-3.986H20.595c-2.198,0-3.987,1.788-3.987,3.986v100.747h-5v-100.747c0-4.955,4.031-8.986,8.987-8.986h477.281c4.955,0,8.986,4.031,8.986,8.986v100.747Z"/><line class="cls-10" x1="17.83" y1="611.067" x2="16.61" y2="608.717"/><polyline class="cls-10" points="28.8 506.337 23.54 516.477 18.05 527.037 16.61 529.817"/><polyline class="cls-10" points="16.61 587.587 18.05 590.367 23.54 600.927 28.8 611.067"/><polyline class="cls-10" points="39.76 506.337 34.5 516.477 29.02 527.027 23.53 537.587 18.05 548.147 16.61 550.917"/><polyline class="cls-10" points="16.61 566.487 18.05 569.257 23.53 579.817 29.02 590.377 34.5 600.927 39.76 611.067"/><polyline class="cls-10" points="50.72 506.337 45.46 516.477 39.98 527.027 34.5 537.587 29.01 548.147 23.53 558.707 18.05 569.257 16.61 572.027"/><polyline class="cls-10" points="16.61 545.377 18.05 548.147 23.53 558.707 29.01 569.257 34.5 579.817 39.98 590.377 45.46 600.927 50.72 611.067"/><polyline class="cls-10" points="61.68 506.337 56.42 516.467 50.94 527.037 45.46 537.587 39.98 548.147 34.5 558.697 34.5 558.707 29.01 569.257 29.01 569.267 23.53 579.817 18.05 590.367 18.05 590.377 16.61 593.157"/><polyline class="cls-10" points="16.61 524.247 18.05 527.037 23.53 537.587 29.01 548.147 34.5 558.707 39.98 569.257 45.46 579.817 50.94 590.367 56.42 600.937 61.68 611.067"/><line class="cls-10" x1="18.269" y1="611.067" x2="72.647" y2="506.333"/><line class="cls-10" x1="72.647" y1="611.067" x2="18.269" y2="506.333"/><line class="cls-10" x1="29.232" y1="611.067" x2="83.61" y2="506.333"/><line class="cls-10" x1="83.61" y1="611.067" x2="29.232" y2="506.333"/><line class="cls-10" x1="40.195" y1="611.067" x2="94.573" y2="506.333"/><line class="cls-10" x1="94.573" y1="611.067" x2="40.195" y2="506.333"/><line class="cls-10" x1="51.158" y1="611.067" x2="105.536" y2="506.333"/><line class="cls-10" x1="105.536" y1="611.067" x2="51.158" y2="506.333"/><line class="cls-10" x1="62.121" y1="611.067" x2="116.499" y2="506.333"/><line class="cls-10" x1="116.499" y1="611.067" x2="62.121" y2="506.333"/><line class="cls-10" x1="73.084" y1="611.067" x2="127.462" y2="506.333"/><line class="cls-10" x1="127.462" y1="611.067" x2="73.084" y2="506.333"/><line class="cls-10" x1="84.047" y1="611.067" x2="138.425" y2="506.333"/><line class="cls-10" x1="138.425" y1="611.067" x2="84.047" y2="506.333"/><line class="cls-10" x1="95.01" y1="611.067" x2="149.388" y2="506.333"/><line class="cls-10" x1="149.388" y1="611.067" x2="95.01" y2="506.333"/><line class="cls-10" x1="105.972" y1="611.067" x2="160.351" y2="506.333"/><line class="cls-10" x1="160.351" y1="611.067" x2="105.972" y2="506.333"/><line class="cls-10" x1="116.935" y1="611.067" x2="171.313" y2="506.333"/><line class="cls-10" x1="171.313" y1="611.067" x2="116.935" y2="506.333"/><line class="cls-10" x1="127.898" y1="611.067" x2="182.276" y2="506.333"/><line class="cls-10" x1="182.276" y1="611.067" x2="127.898" y2="506.333"/><line class="cls-10" x1="138.861" y1="611.067" x2="193.239" y2="506.333"/><line class="cls-10" x1="193.239" y1="611.067" x2="138.861" y2="506.333"/><line class="cls-10" x1="149.824" y1="611.067" x2="204.202" y2="506.333"/><line class="cls-10" x1="204.202" y1="611.067" x2="149.824" y2="506.333"/><line class="cls-10" x1="160.787" y1="611.067" x2="215.165" y2="506.333"/><line class="cls-10" x1="215.165" y1="611.067" x2="160.787" y2="506.333"/><line class="cls-10" x1="171.75" y1="611.067" x2="226.128" y2="506.333"/><line class="cls-10" x1="226.128" y1="611.067" x2="171.75" y2="506.333"/><line class="cls-10" x1="182.713" y1="611.067" x2="237.091" y2="506.333"/><line class="cls-10" x1="237.091" y1="611.067" x2="182.713" y2="506.333"/><line class="cls-10" x1="193.676" y1="611.067" x2="248.054" y2="506.333"/><line class="cls-10" x1="248.054" y1="611.067" x2="193.676" y2="506.333"/><line class="cls-10" x1="204.639" y1="611.067" x2="259.017" y2="506.333"/><line class="cls-10" x1="259.017" y1="611.067" x2="204.639" y2="506.333"/><line class="cls-10" x1="215.601" y1="611.067" x2="269.98" y2="506.333"/><line class="cls-10" x1="269.98" y1="611.067" x2="215.601" y2="506.333"/><line class="cls-10" x1="226.564" y1="611.067" x2="280.942" y2="506.333"/><line class="cls-10" x1="280.942" y1="611.067" x2="226.564" y2="506.333"/><line class="cls-10" x1="237.527" y1="611.067" x2="291.905" y2="506.333"/><line class="cls-10" x1="291.905" y1="611.067" x2="237.527" y2="506.333"/><line class="cls-10" x1="248.49" y1="611.067" x2="302.868" y2="506.333"/><line class="cls-10" x1="302.868" y1="611.067" x2="248.49" y2="506.333"/><line class="cls-10" x1="259.453" y1="611.067" x2="313.831" y2="506.333"/><line class="cls-10" x1="313.831" y1="611.067" x2="259.453" y2="506.333"/><line class="cls-10" x1="270.416" y1="611.067" x2="324.794" y2="506.333"/><line class="cls-10" x1="324.794" y1="611.067" x2="270.416" y2="506.333"/><line class="cls-10" x1="281.379" y1="611.067" x2="335.757" y2="506.333"/><line class="cls-10" x1="335.757" y1="611.067" x2="281.379" y2="506.333"/><line class="cls-10" x1="292.342" y1="611.067" x2="346.72" y2="506.333"/><line class="cls-10" x1="346.72" y1="611.067" x2="292.342" y2="506.333"/><line class="cls-10" x1="303.305" y1="611.067" x2="357.683" y2="506.333"/><line class="cls-10" x1="357.683" y1="611.067" x2="303.305" y2="506.333"/><line class="cls-10" x1="314.268" y1="611.067" x2="368.646" y2="506.333"/><line class="cls-10" x1="368.646" y1="611.067" x2="314.268" y2="506.333"/><line class="cls-10" x1="325.23" y1="611.067" x2="379.609" y2="506.333"/><line class="cls-10" x1="379.609" y1="611.067" x2="325.23" y2="506.333"/><line class="cls-10" x1="336.193" y1="611.067" x2="390.571" y2="506.333"/><line class="cls-10" x1="390.571" y1="611.067" x2="336.193" y2="506.333"/><line class="cls-10" x1="347.156" y1="611.067" x2="401.534" y2="506.333"/><line class="cls-10" x1="401.534" y1="611.067" x2="347.156" y2="506.333"/><line class="cls-10" x1="358.119" y1="611.067" x2="412.497" y2="506.333"/><line class="cls-10" x1="412.497" y1="611.067" x2="358.119" y2="506.333"/><line class="cls-10" x1="369.082" y1="611.067" x2="423.46" y2="506.333"/><line class="cls-10" x1="423.46" y1="611.067" x2="369.082" y2="506.333"/><line class="cls-10" x1="380.045" y1="611.067" x2="434.423" y2="506.333"/><line class="cls-10" x1="434.423" y1="611.067" x2="380.045" y2="506.333"/><line class="cls-10" x1="391.008" y1="611.067" x2="445.386" y2="506.333"/><line class="cls-10" x1="445.386" y1="611.067" x2="391.008" y2="506.333"/><line class="cls-10" x1="401.971" y1="611.067" x2="456.349" y2="506.333"/><line class="cls-10" x1="456.349" y1="611.067" x2="401.971" y2="506.333"/><line class="cls-10" x1="412.934" y1="611.067" x2="467.312" y2="506.333"/><line class="cls-10" x1="467.312" y1="611.067" x2="412.934" y2="506.333"/><line class="cls-10" x1="423.897" y1="611.067" x2="478.275" y2="506.333"/><line class="cls-10" x1="478.275" y1="611.067" x2="423.897" y2="506.333"/><line class="cls-10" x1="434.859" y1="611.067" x2="489.237" y2="506.333"/><line class="cls-10" x1="489.237" y1="611.067" x2="434.859" y2="506.333"/><line class="cls-10" x1="445.822" y1="611.067" x2="500.2" y2="506.333"/><line class="cls-10" x1="500.2" y1="611.067" x2="445.822" y2="506.333"/><polyline class="cls-10" points="501.86 524.247 500.42 527.027 494.94 537.577 494.94 537.587 489.46 548.137 483.97 558.707 478.49 569.257 473.01 579.807 467.53 590.367 462.05 600.927 456.78 611.067"/><polyline class="cls-10" points="501.86 593.157 500.42 590.377 500.42 590.367 494.94 579.817 489.46 569.267 489.46 569.257 483.97 558.707 478.49 548.147 473.01 537.597 467.53 527.037 467.53 527.027 462.05 516.477 456.78 506.337"/><polyline class="cls-10" points="501.86 545.377 500.42 548.147 494.94 558.707 489.46 569.257 489.46 569.267 483.98 579.817 478.5 590.377 473.01 600.937 467.75 611.067"/><polyline class="cls-10" points="467.75 506.337 473.01 516.467 478.5 527.027 483.98 537.587 489.46 548.137 494.94 558.707 500.42 569.257 501.86 572.027"/><polyline class="cls-10" points="501.86 566.487 500.42 569.257 494.94 579.817 489.46 590.377 483.98 600.927 478.71 611.067"/><polyline class="cls-10" points="478.71 506.337 483.98 516.477 489.46 527.027 494.94 537.587 500.42 548.147 501.86 550.917"/><polyline class="cls-10" points="501.86 587.587 500.42 590.367 500.42 590.377 494.94 600.927 489.67 611.067"/><polyline class="cls-10" points="489.67 506.337 494.94 516.477 500.42 527.027 501.86 529.817"/><line class="cls-10" x1="501.86" y1="608.717" x2="500.64" y2="611.067"/><ellipse class="cls-5" cx="117.54" cy="551.158" rx="18.823" ry="19.86"/><ellipse class="cls-5" cx="154.743" cy="559.791" rx="22.822" ry="21.38"/><circle class="cls-5" cx="190.571" cy="571.859" r="20.701"/><ellipse class="cls-5" cx="229.588" cy="561.533" rx="29.05" ry="27.419"/><ellipse class="cls-5" cx="336.694" cy="551.158" rx="18.823" ry="19.86"/><ellipse class="cls-5" cx="373.898" cy="559.791" rx="22.822" ry="21.38"/><circle class="cls-5" cx="409.725" cy="571.859" r="20.701"/><ellipse class="cls-5" cx="448.742" cy="561.533" rx="29.05" ry="27.419"/><ellipse class="cls-5" cx="480.682" cy="558.346" rx="16.377" ry="18.452"/><circle class="cls-5" cx="305.026" cy="567.264" r="27.37"/><circle class="cls-5" cx="273.914" cy="554.085" r="19.972"/><circle class="cls-5" cx="48.33" cy="576.056" r="20.234"/><circle class="cls-5" cx="487.666" cy="578.295" r="15.315"/><ellipse class="cls-5" cx="261.528" cy="558.346" rx="16.377" ry="18.452"/><circle class="cls-5" cx="85.872" cy="567.264" r="27.37"/><circle class="cls-5" cx="54.759" cy="554.085" r="19.972"/><rect class="cls-5" x="51.075" y="562.98" width="437.935" height="35.96"/><ellipse class="cls-6" cx="111.236" cy="581.171" rx="14.702" ry="15.513"/><ellipse class="cls-6" cx="136.363" cy="587.63" rx="17.826" ry="16.699"/><circle class="cls-6" cx="160.095" cy="578.222" r="16.169"/><ellipse class="cls-6" cx="185.884" cy="591.091" rx="22.69" ry="21.417"/><ellipse class="cls-6" cx="278.257" cy="577.049" rx="14.702" ry="15.513"/><ellipse class="cls-6" cx="307.316" cy="583.793" rx="17.826" ry="16.699"/><circle class="cls-6" cx="335.3" cy="593.219" r="16.169"/><ellipse class="cls-6" cx="365.775" cy="585.153" rx="22.69" ry="21.417"/><ellipse class="cls-6" cx="390.723" cy="582.664" rx="12.792" ry="14.413"/><circle class="cls-6" cx="253.522" cy="589.629" r="21.378"/><circle class="cls-6" cx="229.22" cy="579.336" r="15.599"/><ellipse class="cls-6" cx="471.549" cy="579.73" rx="14.702" ry="15.513"/><circle class="cls-6" cx="446.814" cy="592.309" r="21.378"/><circle class="cls-6" cx="422.513" cy="582.016" r="15.599"/><circle class="cls-6" cx="58.861" cy="583.635" r="15.804"/><circle class="cls-6" cx="402.016" cy="585.383" r="11.962"/><ellipse class="cls-6" cx="208.574" cy="586.272" rx="12.792" ry="14.413"/><circle class="cls-6" cx="88.184" cy="584.673" r="21.378"/><circle class="cls-6" cx="63.883" cy="566.474" r="15.599"/><rect class="cls-6" x="54.759" y="591.091" width="393.983" height="14.96"/><rect class="cls-6" x="267.488" y="585.153" width="33.71" height="11.531"/><rect class="cls-1" x="24.262" y="591.091" width="482.553" height="19.976"/><path class="cls-2" d="m475.605,614.067c-1.657,0-3-1.343-3-3v-8.999c0-.805-.681-1.485-1.485-1.485h-13.163c-.818,0-1.484.666-1.484,1.485v8.999c0,1.657-1.343,3-3,3h-6.919c-1.657,0-3-1.343-3-3v-8.999c0-.819-.68-1.485-1.515-1.485h-50.999v10.484c0,1.657-1.343,3-3,3h-6.918c-1.657,0-3-1.343-3-3v-8.999c0-.819-.68-1.485-1.516-1.485h-15.214c-.805,0-1.485.681-1.485,1.485v8.999c0,1.657-1.343,3-3,3h-6.918c-1.657,0-3-1.343-3-3v-26.395c0-1.657,1.343-3,3-3h22.508l2.342-36.301c.103-1.578,1.412-2.807,2.994-2.807h101.352c.829,0,1.621.343,2.188.948.567.604.858,1.417.806,2.245l-2.317,35.914h2.663c1.657,0,3,1.343,3,3v26.395c0,1.657-1.343,3-3,3h-6.919Z"/><path class="cls-3" d="m388.04,589.843v21.224h-6.919v-9c0-2.463-2.023-4.485-4.515-4.485h-15.215c-2.462,0-4.485,2.023-4.485,4.485v9h-6.918v-21.224h38.051Z"/><rect class="cls-7" x="349.989" y="584.673" width="132.535" height="5.17"/><polygon class="cls-7" points="476.661 584.673 471.614 584.673 474.137 545.565 479.184 545.565 476.661 584.673"/><polygon class="cls-8" points="375.31 584.673 471.614 584.673 474.137 545.565 377.833 545.565 375.31 584.673"/><path class="cls-9" d="m482.524,589.843v21.224h-6.919v-9c0-2.463-2.023-4.485-4.485-4.485h-13.163c-2.491,0-4.485,2.023-4.485,4.485v9h-6.919v-9c0-2.463-2.023-4.485-4.515-4.485h-80.647c-2.462,0-4.485,2.023-4.485,4.485v9h-6.918v-21.224h132.535Z"/><path class="cls-2" d="m161.562,614.067c-1.657,0-3-1.343-3-3v-8.999c0-.805-.68-1.485-1.484-1.485h-13.163c-.819,0-1.485.666-1.485,1.485v8.999c0,1.657-1.343,3-3,3h-6.919c-1.657,0-3-1.343-3-3v-8.999c0-.819-.68-1.485-1.515-1.485h-50.998v10.484c0,1.657-1.343,3-3,3h-6.919c-1.657,0-3-1.343-3-3v-8.999c0-.819-.68-1.485-1.515-1.485h-15.215c-.805,0-1.485.681-1.485,1.485v8.999c0,1.657-1.343,3-3,3h-6.918c-1.657,0-3-1.343-3-3v-26.395c0-1.657,1.343-3,3-3h22.509l2.341-36.301c.103-1.578,1.412-2.807,2.994-2.807h101.352c.829,0,1.621.343,2.188.948.567.604.858,1.417.806,2.245l-2.317,35.914h2.663c1.657,0,3,1.343,3,3v26.395c0,1.657-1.343,3-3,3h-6.919Z"/><path class="cls-3" d="m73.998,589.843v21.224h-6.919v-9c0-2.463-2.023-4.485-4.515-4.485h-15.215c-2.462,0-4.485,2.023-4.485,4.485v9h-6.918v-21.224h38.051Z"/><rect class="cls-7" x="35.946" y="584.673" width="132.535" height="5.17"/><polygon class="cls-7" points="162.618 584.673 157.572 584.673 160.095 545.565 165.142 545.565 162.618 584.673"/><polygon class="cls-8" points="61.267 584.673 157.572 584.673 160.095 545.565 63.791 545.565 61.267 584.673"/><path class="cls-9" d="m168.481,589.843v21.224h-6.919v-9c0-2.463-2.023-4.485-4.485-4.485h-13.163c-2.491,0-4.485,2.023-4.485,4.485v9h-6.919v-9c0-2.463-2.023-4.485-4.515-4.485H47.35c-2.462,0-4.485,2.023-4.485,4.485v9h-6.918v-21.224h132.535Z"/></svg>