<?xml version="1.0" encoding="UTF-8"?><svg id="Layer_1" xmlns="http://www.w3.org/2000/svg" width="518.47" height="611.067"><defs><style>.cls-1{fill:#5e5121;}.cls-1,.cls-2{opacity:.8;}.cls-1,.cls-2,.cls-3,.cls-4,.cls-5,.cls-6{stroke-width:0px;}.cls-2{fill:#175f61;}.cls-3{fill:#123f4a;}.cls-4{fill:#dbe7ed;}.cls-5{fill:#74888e;}.cls-6{fill:#74a78c;}</style></defs><polygon class="cls-3" points="0 614.067 0 393.377 259.229 188.04 518.47 393.377 518.47 614.067 0 614.067"/><polygon class="cls-6" points="515.47 394.827 515.47 611.067 3 611.067 3 394.827 259.229 191.867 515.47 394.827"/><path class="cls-4" d="m233.086,280.816h52.291c4.315,0,7.818,3.503,7.818,7.818v91.107c0,2.549-2.07,4.619-4.619,4.619h-58.688c-2.549,0-4.619-2.07-4.619-4.619v-91.107c0-4.315,3.503-7.818,7.818-7.818Z"/><path class="cls-2" d="m233.086,280.816h52.291c4.315,0,7.818,3.503,7.818,7.818v91.107c0,2.549-2.07,4.619-4.619,4.619h-58.688c-2.549,0-4.619-2.07-4.619-4.619v-91.107c0-4.315,3.503-7.818,7.818-7.818Z"/><path class="cls-4" d="m233.086,457.052h52.291c4.315,0,7.818,3.503,7.818,7.818v91.107c0,2.549-2.07,4.619-4.619,4.619h-58.688c-2.549,0-4.619-2.07-4.619-4.619v-91.107c0-4.315,3.503-7.818,7.818-7.818Z"/><path class="cls-4" d="m90.117,457.052h52.291c4.315,0,7.818,3.503,7.818,7.818v91.107c0,2.549-2.07,4.619-4.619,4.619h-58.688c-2.549,0-4.619-2.07-4.619-4.619v-91.107c0-4.315,3.503-7.818,7.818-7.818Z"/><path class="cls-4" d="m376.055,457.052h52.291c4.315,0,7.818,3.503,7.818,7.818v146.194h-67.926v-146.194c0-4.315,3.503-7.818,7.818-7.818Z"/><path class="cls-5" d="m225.269,516.426h67.926v39.551c0,2.549-2.07,4.619-4.619,4.619h-58.688c-2.549,0-4.619-2.07-4.619-4.619v-39.551h0Z"/><path class="cls-5" d="m82.3,516.426h67.926v39.551c0,2.549-2.07,4.619-4.619,4.619h-58.688c-2.549,0-4.619-2.07-4.619-4.619v-39.551h0Z"/><rect class="cls-5" x="368.238" y="516.426" width="67.926" height="94.638"/><path class="cls-2" d="m233.086,457.052h52.291c4.315,0,7.818,3.503,7.818,7.818v91.107c0,2.549-2.07,4.619-4.619,4.619h-58.688c-2.549,0-4.619-2.07-4.619-4.619v-91.107c0-4.315,3.503-7.818,7.818-7.818Z"/><path class="cls-2" d="m90.117,457.052h52.291c4.315,0,7.818,3.503,7.818,7.818v91.107c0,2.549-2.07,4.619-4.619,4.619h-58.688c-2.549,0-4.619-2.07-4.619-4.619v-91.107c0-4.315,3.503-7.818,7.818-7.818Z"/><path class="cls-1" d="m376.055,457.052h52.291c4.315,0,7.818,3.503,7.818,7.818v146.194h-67.926v-146.194c0-4.315,3.503-7.818,7.818-7.818Z"/></svg>