<?xml version="1.0" encoding="UTF-8"?><svg id="Layer_1" xmlns="http://www.w3.org/2000/svg" 
width="3055.51" height="349.87"><defs><style>.cls-1{fill:#638d86;}.cls-1,.cls-2{stroke-width:0px;}.cls-2{fill:#4a6b66;}</style></defs><path class="cls-2" d="m2997.124,75.774V20C2997.124,8.954,2988.17,0,2977.124,0h-77.534c-11.046,0-20,8.954-20,20v145.413c0,11.046-8.954,20-20,20h-195.068c-11.046,0-20-8.954-20-20v-49.64c0-11.046-8.954-20-20-20h-77.534c-11.046,0-20-8.954-20-20V20C2526.987,8.954,2518.033,0,2506.987,0h-77.534c-11.046,0-20,8.954-20,20v93.915c0,11.046-8.954,20-20,20h-77.534c-11.046,0-20-8.954-20-20V20C2291.919,8.954,2282.964,0,2271.919,0h-77.534c-11.046,0-20,8.954-20,20v22.88c0,11.046-8.954,20-20,20h-195.069c-11.046,0-20-8.954-20-20v-22.88C1939.316,8.954,1930.361,0,1919.316,0h-77.534c-11.046,0-20,8.954-20,20v125.833c0,11.046-8.954,20-20,20h-77.534c-11.046,0-20-8.954-20-20v-34.19c0-11.046-8.954-20-20-20h-77.534c-11.046,0-20-8.954-20-20V20C1586.713,8.954,1577.759,0,1566.713,0h-77.534c-11.046,0-20,8.954-20,20v145.413c0,11.046-8.954,20-20,20h-195.069c-11.046,0-20-8.954-20-20v-49.64c0-11.046-8.954-20-20-20h-77.534c-11.046,0-20-8.954-20-20V20C1116.576,8.954,1107.621,0,1096.576,0h-77.534c-11.046,0-20,8.954-20,20v93.915c0,11.046-8.954,20-20,20h-77.534c-11.046,0-20-8.954-20-20V20C881.507,8.954,872.553,0,861.507,0h-77.534c-11.046,0-20,8.954-20,20v22.88c0,11.046-8.954,20-20,20h-195.069c-11.046,0-20-8.954-20-20v-22.88C528.904,8.954,519.95,0,508.904,0h-77.534C420.324,0,411.37,8.954,411.37,20v125.833c0,11.046-8.954,20-20,20h-77.534c-11.046,0-20-8.954-20-20v-34.19c0-11.046-8.954-20-20-20h-77.534c-11.046,0-20-8.954-20-20V20C176.301,8.954,167.347,0,156.301,0h-77.534C67.721,0,58.767,8.954,58.767,20v55.774c0,11.046-8.954,20-20,20H0v254.093h3055.513V95.774h-38.389c-11.046,0-20-8.954-20-20Z"/><rect class="cls-1" x="83.664" y="53.206" width="31.119" height="32.246" rx="10" ry="10"/><rect class="cls-1" x="122.484" y="142.776" width="31.119" height="32.246" rx="10" ry="10"/><rect class="cls-1" x="199.504" y="142.776" width="31.119" height="32.246" rx="10" ry="10"/><rect class="cls-1" x="240.736" y="142.776" width="31.119" height="32.246" rx="10" ry="10"/><rect class="cls-1" x="1020.347" y="142.776" width="31.119" height="32.246" rx="10" ry="10"/><rect class="cls-1" x="359.068" y="194.281" width="31.119" height="32.246" rx="10" ry="10"/><rect class="cls-1" x="1130.819" y="194.281" width="31.119" height="32.246" rx="10" ry="10"/><rect class="cls-1" x="951.885" y="194.281" width="31.119" height="32.246" rx="10" ry="10"/><rect class="cls-1" x="313.282" y="255.066" width="31.119" height="32.246" rx="10" ry="10"/><rect class="cls-1" x="905.206" y="255.066" width="31.119" height="32.246" rx="10" ry="10"/><rect class="cls-1" x="1070.137" y="255.066" width="31.119" height="32.246" rx="10" ry="10"/><rect class="cls-1" x="1259.963" y="255.066" width="31.119" height="32.246" rx="10" ry="10"/><rect class="cls-1" x="1374.587" y="255.066" width="31.119" height="32.246" rx="10" ry="10"/><rect class="cls-1" x="835.188" y="255.066" width="31.119" height="32.246" rx="10" ry="10"/><rect class="cls-1" x="480.432" y="255.066" width="31.119" height="32.246" rx="10" ry="10"/><rect class="cls-1" x="432.598" y="29.941" width="31.119" height="32.246" rx="10" ry="10"/><rect class="cls-1" x="1538.478" y="29.941" width="31.119" height="32.246" rx="10" ry="10"/><rect class="cls-1" x="828.965" y="29.941" width="31.119" height="32.246" rx="10" ry="10"/><rect class="cls-1" x="1020.347" y="29.941" width="31.119" height="32.246" rx="10" ry="10"/><rect class="cls-1" x="481.395" y="130.41" width="31.119" height="32.246" rx="10" ry="10"/><rect class="cls-1" x="1487.132" y="130.41" width="31.119" height="32.246" rx="10" ry="10"/><rect class="cls-1" x="552.005" y="93.513" width="31.119" height="32.246" rx="10" ry="10"/><rect class="cls-1" x="776.062" y="93.513" width="31.119" height="32.246" rx="10" ry="10"/><rect class="cls-1" x="1070.137" y="93.513" width="31.119" height="32.246" rx="10" ry="10"/><rect class="cls-1" x="598.556" y="133.952" width="31.119" height="32.246" rx="10" ry="10"/><rect class="cls-1" x="665.31" y="133.952" width="31.119" height="32.246" rx="10" ry="10"/><rect class="cls-1" x="717.155" y="227.169" width="31.119" height="32.246" rx="10" ry="10"/><rect class="cls-1" x="1303.53" y="227.169" width="31.119" height="32.246" rx="10" ry="10"/><rect class="cls-1" x="552.005" y="227.169" width="31.119" height="32.246" rx="10" ry="10"/><rect class="cls-1" x="1609.915" y="142.776" width="31.119" height="32.246" rx="10" ry="10"/><rect class="cls-1" x="1651.148" y="142.776" width="31.119" height="32.246" rx="10" ry="10"/><rect class="cls-1" x="2430.758" y="142.776" width="31.119" height="32.246" rx="10" ry="10"/><rect class="cls-1" x="1769.479" y="194.281" width="31.119" height="32.246" rx="10" ry="10"/><rect class="cls-1" x="2541.23" y="194.281" width="31.119" height="32.246" rx="10" ry="10"/><rect class="cls-1" x="2362.296" y="194.281" width="31.119" height="32.246" rx="10" ry="10"/><rect class="cls-1" x="1723.694" y="255.066" width="31.119" height="32.246" rx="10" ry="10"/><rect class="cls-1" x="2315.618" y="255.066" width="31.119" height="32.246" rx="10" ry="10"/><rect class="cls-1" x="2480.548" y="255.066" width="31.119" height="32.246" rx="10" ry="10"/><rect class="cls-1" x="2670.374" y="255.066" width="31.119" height="32.246" rx="10" ry="10"/><rect class="cls-1" x="2784.998" y="255.066" width="31.119" height="32.246" rx="10" ry="10"/><rect class="cls-1" x="2245.6" y="255.066" width="31.119" height="32.246" rx="10" ry="10"/><rect class="cls-1" x="1890.843" y="255.066" width="31.119" height="32.246" rx="10" ry="10"/><rect class="cls-1" x="1843.01" y="29.941" width="31.119" height="32.246" rx="10" ry="10"/><rect class="cls-1" x="2948.89" y="29.941" width="31.119" height="32.246" rx="10" ry="10"/><rect class="cls-1" x="2239.376" y="29.941" width="31.119" height="32.246" rx="10" ry="10"/><rect class="cls-1" x="2430.758" y="29.941" width="31.119" height="32.246" rx="10" ry="10"/><rect class="cls-1" x="1891.806" y="130.41" width="31.119" height="32.246" rx="10" ry="10"/><rect class="cls-1" x="2897.543" y="130.41" width="31.119" height="32.246" rx="10" ry="10"/><rect class="cls-1" x="1962.417" y="93.513" width="31.119" height="32.246" rx="10" ry="10"/><rect class="cls-1" x="2186.474" y="93.513" width="31.119" height="32.246" rx="10" ry="10"/><rect class="cls-1" x="2480.548" y="93.513" width="31.119" height="32.246" rx="10" ry="10"/><rect class="cls-1" x="2008.968" y="133.952" width="31.119" height="32.246" rx="10" ry="10"/><rect class="cls-1" x="2075.722" y="133.952" width="31.119" height="32.246" rx="10" ry="10"/><rect class="cls-1" x="2127.566" y="227.169" width="31.119" height="32.246" rx="10" ry="10"/><rect class="cls-1" x="2713.941" y="227.169" width="31.119" height="32.246" rx="10" ry="10"/><rect class="cls-1" x="1962.417" y="227.169" width="31.119" height="32.246" rx="10" ry="10"/></svg>