<?xml version="1.0" encoding="UTF-8"?><svg id="Layer_1" xmlns="http://www.w3.org/2000/svg" width="518.47" height="611.067"><defs><style>.cls-1{fill:#49807f;}.cls-1,.cls-2,.cls-3{stroke:#bfe4de;stroke-miterlimit:10;}.cls-2{fill:#619997;}.cls-3{fill:#548989;}</style></defs><rect class="cls-3" x="3" y="439.554" width="26.972" height="12.251"/><rect class="cls-2" x="16.486" y="451.805" width="26.972" height="12.251"/><rect class="cls-3" x="3" y="464.056" width="26.972" height="12.251"/><rect class="cls-1" x="16.486" y="476.307" width="26.972" height="12.251"/><rect class="cls-3" x="3" y="488.558" width="26.972" height="12.251"/><rect class="cls-3" x="16.486" y="500.809" width="26.972" height="12.251"/><rect class="cls-3" x="3" y="513.06" width="26.972" height="12.251"/><rect class="cls-3" x="16.486" y="525.31" width="26.972" height="12.251"/><rect class="cls-1" x="3" y="537.561" width="26.972" height="12.251"/><rect class="cls-3" x="16.486" y="549.812" width="26.972" height="12.251"/><rect class="cls-1" x="3" y="562.063" width="26.972" height="12.251"/><rect class="cls-2" x="16.486" y="574.314" width="26.972" height="12.251"/><rect class="cls-3" x="3" y="586.565" width="26.972" height="12.251"/><rect class="cls-3" x="16.486" y="598.816" width="26.972" height="12.251"/><rect class="cls-3" x="29.972" y="439.554" width="26.972" height="12.251"/><rect class="cls-3" x="43.458" y="451.805" width="26.972" height="12.251"/><rect class="cls-3" x="29.972" y="464.056" width="26.972" height="12.251"/><rect class="cls-3" x="43.458" y="476.307" width="26.972" height="12.251"/><rect class="cls-3" x="29.972" y="488.558" width="26.972" height="12.251"/><rect class="cls-1" x="43.458" y="500.809" width="26.972" height="12.251"/><rect class="cls-1" x="29.972" y="513.06" width="26.972" height="12.251"/><rect class="cls-2" x="43.458" y="525.31" width="26.972" height="12.251"/><rect class="cls-3" x="29.972" y="537.561" width="26.972" height="12.251"/><rect class="cls-3" x="43.458" y="549.812" width="26.972" height="12.251"/><rect class="cls-3" x="29.972" y="562.063" width="26.972" height="12.251"/><rect class="cls-3" x="43.458" y="574.314" width="26.972" height="12.251"/><rect class="cls-1" x="29.972" y="586.565" width="26.972" height="12.251"/><rect class="cls-1" x="43.458" y="598.816" width="26.972" height="12.251"/><rect class="cls-3" x="56.944" y="439.554" width="26.972" height="12.251"/><rect class="cls-2" x="70.43" y="451.805" width="26.972" height="12.251"/><rect class="cls-3" x="56.944" y="464.056" width="26.972" height="12.251"/><rect class="cls-1" x="70.43" y="476.307" width="26.972" height="12.251"/><rect class="cls-3" x="56.944" y="488.558" width="26.972" height="12.251"/><rect class="cls-2" x="70.43" y="500.809" width="26.972" height="12.251"/><rect class="cls-3" x="56.944" y="513.06" width="26.972" height="12.251"/><rect class="cls-1" x="70.43" y="525.31" width="26.972" height="12.251"/><rect class="cls-3" x="56.944" y="537.561" width="26.972" height="12.251"/><rect class="cls-3" x="70.43" y="549.812" width="26.972" height="12.251"/><rect class="cls-2" x="56.944" y="562.063" width="26.972" height="12.251"/><rect class="cls-1" x="70.43" y="574.314" width="26.972" height="12.251"/><rect class="cls-3" x="56.944" y="586.565" width="26.972" height="12.251"/><rect class="cls-3" x="70.43" y="598.816" width="26.972" height="12.251"/><rect class="cls-3" x="83.916" y="439.554" width="26.972" height="12.251"/><rect class="cls-3" x="97.402" y="451.805" width="26.972" height="12.251"/><rect class="cls-3" x="83.916" y="464.056" width="26.972" height="12.251"/><rect class="cls-3" x="97.402" y="476.307" width="26.972" height="12.251"/><rect class="cls-3" x="83.916" y="488.558" width="26.972" height="12.251"/><rect class="cls-3" x="97.402" y="500.809" width="26.972" height="12.251"/><rect class="cls-3" x="83.916" y="513.06" width="26.972" height="12.251"/><rect class="cls-3" x="97.402" y="525.31" width="26.972" height="12.251"/><rect class="cls-3" x="83.916" y="537.561" width="26.972" height="12.251"/><rect class="cls-3" x="97.402" y="549.812" width="26.972" height="12.251"/><rect class="cls-3" x="83.916" y="562.063" width="26.972" height="12.251"/><rect class="cls-3" x="97.402" y="574.314" width="26.972" height="12.251"/><rect class="cls-3" x="83.916" y="586.565" width="26.972" height="12.251"/><rect class="cls-3" x="97.402" y="598.816" width="26.972" height="12.251"/><rect class="cls-3" x="110.888" y="439.554" width="26.972" height="12.251"/><rect class="cls-3" x="124.374" y="451.805" width="26.972" height="12.251"/><rect class="cls-2" x="110.888" y="464.056" width="26.972" height="12.251"/><rect class="cls-3" x="124.374" y="476.307" width="26.972" height="12.251"/><rect class="cls-2" x="110.888" y="488.558" width="26.972" height="12.251"/><rect class="cls-3" x="124.374" y="500.809" width="26.972" height="12.251"/><rect class="cls-3" x="110.888" y="513.06" width="26.972" height="12.251"/><rect class="cls-3" x="124.374" y="525.31" width="26.972" height="12.251"/><rect class="cls-3" x="110.888" y="537.561" width="26.972" height="12.251"/><rect class="cls-3" x="124.374" y="549.812" width="26.972" height="12.251"/><rect class="cls-3" x="110.888" y="562.063" width="26.972" height="12.251"/><rect class="cls-3" x="124.374" y="574.314" width="26.972" height="12.251"/><rect class="cls-3" x="110.888" y="586.565" width="26.972" height="12.251"/><rect class="cls-3" x="124.374" y="598.816" width="26.972" height="12.251"/><rect class="cls-3" x="137.861" y="439.554" width="26.972" height="12.251"/><rect class="cls-2" x="151.347" y="451.805" width="26.972" height="12.251"/><rect class="cls-1" x="137.861" y="464.056" width="26.972" height="12.251"/><rect class="cls-3" x="151.347" y="476.307" width="26.972" height="12.251"/><rect class="cls-3" x="137.861" y="488.558" width="26.972" height="12.251"/><rect class="cls-2" x="151.347" y="500.809" width="26.972" height="12.251"/><rect class="cls-1" x="137.861" y="513.06" width="26.972" height="12.251"/><rect class="cls-3" x="151.347" y="525.31" width="26.972" height="12.251"/><rect class="cls-3" x="137.861" y="537.561" width="26.972" height="12.251"/><rect class="cls-3" x="151.347" y="549.812" width="26.972" height="12.251"/><rect class="cls-1" x="137.861" y="562.063" width="26.972" height="12.251"/><rect class="cls-3" x="151.347" y="574.314" width="26.972" height="12.251"/><rect class="cls-3" x="137.861" y="586.565" width="26.972" height="12.251"/><rect class="cls-1" x="151.347" y="598.816" width="26.972" height="12.251"/><rect class="cls-1" x="164.833" y="439.554" width="26.972" height="12.251"/><rect class="cls-3" x="178.319" y="451.805" width="26.972" height="12.251"/><rect class="cls-3" x="164.833" y="464.056" width="26.972" height="12.251"/><rect class="cls-2" x="178.319" y="476.307" width="26.972" height="12.251"/><rect class="cls-3" x="164.833" y="488.558" width="26.972" height="12.251"/><rect class="cls-3" x="178.319" y="500.809" width="26.972" height="12.251"/><rect class="cls-1" x="164.833" y="513.06" width="26.972" height="12.251"/><rect class="cls-3" x="178.319" y="525.31" width="26.972" height="12.251"/><rect class="cls-1" x="164.833" y="537.561" width="26.972" height="12.251"/><rect class="cls-3" x="178.319" y="549.812" width="26.972" height="12.251"/><rect class="cls-3" x="164.833" y="562.063" width="26.972" height="12.251"/><rect class="cls-2" x="178.319" y="574.314" width="26.972" height="12.251"/><rect class="cls-3" x="164.833" y="586.565" width="26.972" height="12.251"/><rect class="cls-3" x="178.319" y="598.816" width="26.972" height="12.251"/><rect class="cls-3" x="191.805" y="439.554" width="26.972" height="12.251"/><rect class="cls-3" x="205.291" y="451.805" width="26.972" height="12.251"/><rect class="cls-3" x="191.805" y="464.056" width="26.972" height="12.251"/><rect class="cls-3" x="205.291" y="476.307" width="26.972" height="12.251"/><rect class="cls-1" x="191.805" y="488.558" width="26.972" height="12.251"/><rect class="cls-3" x="205.291" y="500.809" width="26.972" height="12.251"/><rect class="cls-2" x="191.805" y="513.06" width="26.972" height="12.251"/><rect class="cls-3" x="205.291" y="525.31" width="26.972" height="12.251"/><rect class="cls-2" x="191.805" y="537.561" width="26.972" height="12.251"/><rect class="cls-3" x="205.291" y="549.812" width="26.972" height="12.251"/><rect class="cls-3" x="191.805" y="562.063" width="26.972" height="12.251"/><rect class="cls-3" x="205.291" y="574.314" width="26.972" height="12.251"/><rect class="cls-2" x="191.805" y="586.565" width="26.972" height="12.251"/><rect class="cls-3" x="205.291" y="598.816" width="26.972" height="12.251"/><rect class="cls-3" x="218.777" y="439.554" width="26.972" height="12.251"/><rect class="cls-3" x="232.263" y="451.805" width="26.972" height="12.251"/><rect class="cls-3" x="218.777" y="464.056" width="26.972" height="12.251"/><rect class="cls-3" x="232.263" y="476.307" width="26.972" height="12.251"/><rect class="cls-3" x="218.777" y="488.558" width="26.972" height="12.251"/><rect class="cls-3" x="232.263" y="500.809" width="26.972" height="12.251"/><rect class="cls-3" x="218.777" y="513.06" width="26.972" height="12.251"/><rect class="cls-1" x="232.263" y="525.31" width="26.972" height="12.251"/><rect class="cls-3" x="218.777" y="537.561" width="26.972" height="12.251"/><rect class="cls-3" x="232.263" y="549.812" width="26.972" height="12.251"/><rect class="cls-3" x="218.777" y="562.063" width="26.972" height="12.251"/><rect class="cls-3" x="232.263" y="574.314" width="26.972" height="12.251"/><rect class="cls-3" x="218.777" y="586.565" width="26.972" height="12.251"/><rect class="cls-2" x="232.263" y="598.816" width="26.972" height="12.251"/><rect class="cls-1" x="245.749" y="439.554" width="26.972" height="12.251"/><rect class="cls-3" x="259.235" y="451.805" width="26.972" height="12.251"/><rect class="cls-3" x="245.749" y="464.056" width="26.972" height="12.251"/><rect class="cls-3" x="259.235" y="476.307" width="26.972" height="12.251"/><rect class="cls-3" x="245.749" y="488.558" width="26.972" height="12.251"/><rect class="cls-3" x="259.235" y="500.809" width="26.972" height="12.251"/><rect class="cls-2" x="245.749" y="513.06" width="26.972" height="12.251"/><rect class="cls-3" x="259.235" y="525.31" width="26.972" height="12.251"/><rect class="cls-3" x="245.749" y="537.561" width="26.972" height="12.251"/><rect class="cls-2" x="259.235" y="549.812" width="26.972" height="12.251"/><rect class="cls-1" x="245.749" y="562.063" width="26.972" height="12.251"/><rect class="cls-2" x="259.235" y="574.314" width="26.972" height="12.251"/><rect class="cls-3" x="245.749" y="586.565" width="26.972" height="12.251"/><rect class="cls-1" x="259.235" y="598.816" width="26.972" height="12.251"/><rect class="cls-3" x="272.721" y="439.554" width="26.972" height="12.251"/><rect class="cls-3" x="286.207" y="451.805" width="26.972" height="12.251"/><rect class="cls-1" x="272.721" y="464.056" width="26.972" height="12.251"/><rect class="cls-2" x="286.207" y="476.307" width="26.972" height="12.251"/><rect class="cls-3" x="272.721" y="488.558" width="26.972" height="12.251"/><rect class="cls-1" x="286.207" y="500.809" width="26.972" height="12.251"/><rect class="cls-3" x="272.721" y="513.06" width="26.972" height="12.251"/><rect class="cls-3" x="286.207" y="525.31" width="26.972" height="12.251"/><rect class="cls-3" x="272.721" y="537.561" width="26.972" height="12.251"/><rect class="cls-3" x="286.207" y="549.812" width="26.972" height="12.251"/><rect class="cls-3" x="272.721" y="562.063" width="26.972" height="12.251"/><rect class="cls-3" x="286.207" y="574.314" width="26.972" height="12.251"/><rect class="cls-3" x="272.721" y="586.565" width="26.972" height="12.251"/><rect class="cls-3" x="286.207" y="598.816" width="26.972" height="12.251"/><rect class="cls-3" x="299.693" y="439.554" width="26.972" height="12.251"/><rect class="cls-3" x="313.179" y="451.805" width="26.972" height="12.251"/><rect class="cls-3" x="299.693" y="464.056" width="26.972" height="12.251"/><rect class="cls-3" x="313.179" y="476.307" width="26.972" height="12.251"/><rect class="cls-3" x="299.693" y="488.558" width="26.972" height="12.251"/><rect class="cls-3" x="313.179" y="500.809" width="26.972" height="12.251"/><rect class="cls-3" x="299.693" y="513.06" width="26.972" height="12.251"/><rect class="cls-3" x="313.179" y="525.31" width="26.972" height="12.251"/><rect class="cls-3" x="299.693" y="537.561" width="26.972" height="12.251"/><rect class="cls-2" x="313.179" y="549.812" width="26.972" height="12.251"/><rect class="cls-2" x="299.693" y="562.063" width="26.972" height="12.251"/><rect class="cls-3" x="313.179" y="574.314" width="26.972" height="12.251"/><rect class="cls-3" x="299.693" y="586.565" width="26.972" height="12.251"/><rect class="cls-1" x="313.179" y="598.816" width="26.972" height="12.251"/><rect class="cls-3" x="326.665" y="439.554" width="26.972" height="12.251"/><rect class="cls-3" x="340.151" y="451.805" width="26.972" height="12.251"/><rect class="cls-2" x="326.665" y="464.056" width="26.972" height="12.251"/><rect class="cls-1" x="340.151" y="476.307" width="26.972" height="12.251"/><rect class="cls-3" x="326.665" y="488.558" width="26.972" height="12.251"/><rect class="cls-3" x="340.151" y="500.809" width="26.972" height="12.251"/><rect class="cls-3" x="326.665" y="513.06" width="26.972" height="12.251"/><rect class="cls-1" x="340.151" y="525.31" width="26.972" height="12.251"/><rect class="cls-3" x="326.665" y="537.561" width="26.972" height="12.251"/><rect class="cls-3" x="340.151" y="549.812" width="26.972" height="12.251"/><rect class="cls-3" x="326.665" y="562.063" width="26.972" height="12.251"/><rect class="cls-3" x="340.151" y="574.314" width="26.972" height="12.251"/><rect class="cls-3" x="326.665" y="586.565" width="26.972" height="12.251"/><rect class="cls-3" x="340.151" y="598.816" width="26.972" height="12.251"/><rect class="cls-3" x="353.637" y="439.554" width="26.972" height="12.251"/><rect class="cls-1" x="367.123" y="451.805" width="26.972" height="12.251"/><rect class="cls-3" x="353.637" y="464.056" width="26.972" height="12.251"/><rect class="cls-3" x="367.123" y="476.307" width="26.972" height="12.251"/><rect class="cls-3" x="353.637" y="488.558" width="26.972" height="12.251"/><rect class="cls-1" x="367.123" y="500.809" width="26.972" height="12.251"/><rect class="cls-3" x="353.637" y="513.06" width="26.972" height="12.251"/><rect class="cls-3" x="367.123" y="525.31" width="26.972" height="12.251"/><rect class="cls-3" x="353.637" y="537.561" width="26.972" height="12.251"/><rect class="cls-3" x="367.123" y="549.812" width="26.972" height="12.251"/><rect class="cls-3" x="353.637" y="562.063" width="26.972" height="12.251"/><rect class="cls-3" x="367.123" y="574.314" width="26.972" height="12.251"/><rect class="cls-3" x="353.637" y="586.565" width="26.972" height="12.251"/><rect class="cls-3" x="367.123" y="598.816" width="26.972" height="12.251"/><rect class="cls-3" x="380.609" y="439.554" width="26.972" height="12.251"/><rect class="cls-1" x="394.095" y="451.805" width="26.972" height="12.251"/><rect class="cls-2" x="380.609" y="464.056" width="26.972" height="12.251"/><rect class="cls-3" x="394.095" y="476.307" width="26.972" height="12.251"/><rect class="cls-2" x="380.609" y="488.558" width="26.972" height="12.251"/><rect class="cls-3" x="394.095" y="500.809" width="26.972" height="12.251"/><rect class="cls-3" x="380.609" y="513.06" width="26.972" height="12.251"/><rect class="cls-2" x="394.095" y="525.31" width="26.972" height="12.251"/><rect class="cls-1" x="380.609" y="537.561" width="26.972" height="12.251"/><rect class="cls-3" x="394.095" y="549.812" width="26.972" height="12.251"/><rect class="cls-3" x="380.609" y="562.063" width="26.972" height="12.251"/><rect class="cls-3" x="394.095" y="574.314" width="26.972" height="12.251"/><rect class="cls-1" x="380.609" y="586.565" width="26.972" height="12.251"/><rect class="cls-3" x="394.095" y="598.816" width="26.972" height="12.251"/><rect class="cls-3" x="407.581" y="439.554" width="26.972" height="12.251"/><rect class="cls-3" x="421.067" y="451.805" width="26.972" height="12.251"/><rect class="cls-3" x="407.581" y="464.056" width="26.972" height="12.251"/><rect class="cls-3" x="421.067" y="476.307" width="26.972" height="12.251"/><rect class="cls-1" x="407.581" y="488.558" width="26.972" height="12.251"/><rect class="cls-2" x="421.067" y="500.809" width="26.972" height="12.251"/><rect class="cls-3" x="407.581" y="513.06" width="26.972" height="12.251"/><rect class="cls-3" x="421.067" y="525.31" width="26.972" height="12.251"/><rect class="cls-3" x="407.581" y="537.561" width="26.972" height="12.251"/><rect class="cls-3" x="421.067" y="549.812" width="26.972" height="12.251"/><rect class="cls-1" x="407.581" y="562.063" width="26.972" height="12.251"/><rect class="cls-3" x="421.067" y="574.314" width="26.972" height="12.251"/><rect class="cls-3" x="407.581" y="586.565" width="26.972" height="12.251"/><rect class="cls-3" x="421.067" y="598.816" width="26.972" height="12.251"/><rect class="cls-3" x="434.553" y="439.554" width="26.972" height="12.251"/><rect class="cls-3" x="448.039" y="451.805" width="26.972" height="12.251"/><rect class="cls-1" x="434.553" y="464.056" width="26.972" height="12.251"/><rect class="cls-3" x="448.039" y="476.307" width="26.972" height="12.251"/><rect class="cls-3" x="434.553" y="488.558" width="26.972" height="12.251"/><rect class="cls-1" x="448.039" y="500.809" width="26.972" height="12.251"/><rect class="cls-1" x="434.553" y="513.06" width="26.972" height="12.251"/><rect class="cls-3" x="448.039" y="525.31" width="26.972" height="12.251"/><rect class="cls-2" x="434.553" y="537.561" width="26.972" height="12.251"/><rect class="cls-3" x="448.039" y="549.812" width="26.972" height="12.251"/><rect class="cls-2" x="434.553" y="562.063" width="26.972" height="12.251"/><rect class="cls-1" x="448.039" y="574.314" width="26.972" height="12.251"/><rect class="cls-3" x="434.553" y="586.565" width="26.972" height="12.251"/><rect class="cls-2" x="448.039" y="598.816" width="26.972" height="12.251"/><rect class="cls-3" x="461.525" y="439.554" width="26.972" height="12.251"/><rect class="cls-3" x="475.011" y="451.805" width="26.972" height="12.251"/><rect class="cls-3" x="461.525" y="464.056" width="26.972" height="12.251"/><rect class="cls-3" x="475.011" y="476.307" width="26.972" height="12.251"/><rect class="cls-3" x="461.525" y="488.558" width="26.972" height="12.251"/><rect class="cls-3" x="475.011" y="500.809" width="26.972" height="12.251"/><rect class="cls-3" x="461.525" y="513.06" width="26.972" height="12.251"/><rect class="cls-3" x="475.011" y="525.31" width="26.972" height="12.251"/><rect class="cls-2" x="461.525" y="537.561" width="26.972" height="12.251"/><rect class="cls-3" x="475.011" y="549.812" width="26.972" height="12.251"/><rect class="cls-3" x="461.525" y="562.063" width="26.972" height="12.251"/><rect class="cls-3" x="475.011" y="574.314" width="26.972" height="12.251"/><rect class="cls-3" x="461.525" y="586.565" width="26.972" height="12.251"/><rect class="cls-1" x="475.011" y="598.816" width="26.972" height="12.251"/><rect class="cls-3" x="488.498" y="439.554" width="26.972" height="12.251"/><rect class="cls-1" x="488.498" y="464.056" width="26.972" height="12.251"/><rect class="cls-1" x="488.498" y="488.558" width="26.972" height="12.251"/><rect class="cls-3" x="488.498" y="513.06" width="26.972" height="12.251"/><rect class="cls-1" x="488.498" y="537.561" width="26.972" height="12.251"/><rect class="cls-3" x="488.498" y="562.063" width="26.972" height="12.251"/><rect class="cls-2" x="488.498" y="586.565" width="26.972" height="12.251"/><rect class="cls-3" x="3" y="451.805" width="13.486" height="12.251"/><rect class="cls-3" x="3" y="476.307" width="13.486" height="12.251"/><rect class="cls-1" x="3" y="500.809" width="13.486" height="12.251"/><rect class="cls-3" x="3" y="525.31" width="13.486" height="12.251"/><rect class="cls-3" x="3" y="549.812" width="13.486" height="12.251"/><rect class="cls-3" x="3" y="574.314" width="13.486" height="12.251"/><rect class="cls-2" x="3" y="598.816" width="13.486" height="12.251"/><rect class="cls-3" x="501.984" y="451.805" width="13.486" height="12.251"/><rect class="cls-3" x="501.984" y="476.307" width="13.486" height="12.251"/><rect class="cls-1" x="501.984" y="500.809" width="13.486" height="12.251"/><rect class="cls-3" x="501.984" y="525.31" width="13.486" height="12.251"/><rect class="cls-3" x="501.984" y="549.812" width="13.486" height="12.251"/><rect class="cls-3" x="501.984" y="574.314" width="13.486" height="12.251"/><rect class="cls-2" x="501.984" y="598.816" width="13.486" height="12.251"/></svg>