<?xml version="1.0" encoding="UTF-8"?><svg id="Layer_1" xmlns="http://www.w3.org/2000/svg" width="518.47" height="611.067"><defs><style>.cls-1{fill:#465747;}.cls-1,.cls-2,.cls-3,.cls-4,.cls-5,.cls-6,.cls-7,.cls-8,.cls-9,.cls-10{stroke-width:0px;}.cls-2{fill:#395a54;}.cls-3{fill:#123f4a;}.cls-4{fill:#5a918f;}.cls-5{fill:#114d4d;}.cls-6{fill:#5f8d6f;}.cls-11{fill:none;stroke:#114d4d;stroke-miterlimit:10;stroke-width:2px;}.cls-7{fill:#83bd9c;}.cls-8{fill:#4a8080;}.cls-9{fill:#75aeaf;}.cls-10{fill:#86c4c5;}</style></defs><path class="cls-5" d="m506.862,611.067h-5v-100.747c0-2.198-1.788-3.986-3.986-3.986H20.595c-2.198,0-3.987,1.788-3.987,3.986v100.747h-5v-100.747c0-4.955,4.031-8.986,8.987-8.986h477.281c4.955,0,8.986,4.031,8.986,8.986v100.747Z"/><line class="cls-11" x1="17.83" y1="611.067" x2="16.61" y2="608.717"/><polyline class="cls-11" points="28.8 506.337 23.54 516.477 18.05 527.037 16.61 529.817"/><polyline class="cls-11" points="16.61 587.587 18.05 590.367 23.54 600.927 28.8 611.067"/><polyline class="cls-11" points="39.76 506.337 34.5 516.477 29.02 527.027 23.53 537.587 18.05 548.147 16.61 550.917"/><polyline class="cls-11" points="16.61 566.487 18.05 569.257 23.53 579.817 29.02 590.377 34.5 600.927 39.76 611.067"/><polyline class="cls-11" points="50.72 506.337 45.46 516.477 39.98 527.027 34.5 537.587 29.01 548.147 23.53 558.707 18.05 569.257 16.61 572.027"/><polyline class="cls-11" points="16.61 545.377 18.05 548.147 23.53 558.707 29.01 569.257 34.5 579.817 39.98 590.377 45.46 600.927 50.72 611.067"/><polyline class="cls-11" points="61.68 506.337 56.42 516.467 50.94 527.037 45.46 537.587 39.98 548.147 34.5 558.697 34.5 558.707 29.01 569.257 29.01 569.267 23.53 579.817 18.05 590.367 18.05 590.377 16.61 593.157"/><polyline class="cls-11" points="16.61 524.247 18.05 527.037 23.53 537.587 29.01 548.147 34.5 558.707 39.98 569.257 45.46 579.817 50.94 590.367 56.42 600.937 61.68 611.067"/><line class="cls-11" x1="18.269" y1="611.067" x2="72.647" y2="506.333"/><line class="cls-11" x1="72.647" y1="611.067" x2="18.269" y2="506.333"/><line class="cls-11" x1="29.232" y1="611.067" x2="83.61" y2="506.333"/><line class="cls-11" x1="83.61" y1="611.067" x2="29.232" y2="506.333"/><line class="cls-11" x1="40.195" y1="611.067" x2="94.573" y2="506.333"/><line class="cls-11" x1="94.573" y1="611.067" x2="40.195" y2="506.333"/><line class="cls-11" x1="51.158" y1="611.067" x2="105.536" y2="506.333"/><line class="cls-11" x1="105.536" y1="611.067" x2="51.158" y2="506.333"/><line class="cls-11" x1="62.121" y1="611.067" x2="116.499" y2="506.333"/><line class="cls-11" x1="116.499" y1="611.067" x2="62.121" y2="506.333"/><line class="cls-11" x1="73.084" y1="611.067" x2="127.462" y2="506.333"/><line class="cls-11" x1="127.462" y1="611.067" x2="73.084" y2="506.333"/><line class="cls-11" x1="84.047" y1="611.067" x2="138.425" y2="506.333"/><line class="cls-11" x1="138.425" y1="611.067" x2="84.047" y2="506.333"/><line class="cls-11" x1="95.01" y1="611.067" x2="149.388" y2="506.333"/><line class="cls-11" x1="149.388" y1="611.067" x2="95.01" y2="506.333"/><line class="cls-11" x1="105.972" y1="611.067" x2="160.351" y2="506.333"/><line class="cls-11" x1="160.351" y1="611.067" x2="105.972" y2="506.333"/><line class="cls-11" x1="116.935" y1="611.067" x2="171.313" y2="506.333"/><line class="cls-11" x1="171.313" y1="611.067" x2="116.935" y2="506.333"/><line class="cls-11" x1="127.898" y1="611.067" x2="182.276" y2="506.333"/><line class="cls-11" x1="182.276" y1="611.067" x2="127.898" y2="506.333"/><line class="cls-11" x1="138.861" y1="611.067" x2="193.239" y2="506.333"/><line class="cls-11" x1="193.239" y1="611.067" x2="138.861" y2="506.333"/><line class="cls-11" x1="149.824" y1="611.067" x2="204.202" y2="506.333"/><line class="cls-11" x1="204.202" y1="611.067" x2="149.824" y2="506.333"/><line class="cls-11" x1="160.787" y1="611.067" x2="215.165" y2="506.333"/><line class="cls-11" x1="215.165" y1="611.067" x2="160.787" y2="506.333"/><line class="cls-11" x1="171.75" y1="611.067" x2="226.128" y2="506.333"/><line class="cls-11" x1="226.128" y1="611.067" x2="171.75" y2="506.333"/><line class="cls-11" x1="182.713" y1="611.067" x2="237.091" y2="506.333"/><line class="cls-11" x1="237.091" y1="611.067" x2="182.713" y2="506.333"/><line class="cls-11" x1="193.676" y1="611.067" x2="248.054" y2="506.333"/><line class="cls-11" x1="248.054" y1="611.067" x2="193.676" y2="506.333"/><line class="cls-11" x1="204.639" y1="611.067" x2="259.017" y2="506.333"/><line class="cls-11" x1="259.017" y1="611.067" x2="204.639" y2="506.333"/><line class="cls-11" x1="215.601" y1="611.067" x2="269.98" y2="506.333"/><line class="cls-11" x1="269.98" y1="611.067" x2="215.601" y2="506.333"/><line class="cls-11" x1="226.564" y1="611.067" x2="280.942" y2="506.333"/><line class="cls-11" x1="280.942" y1="611.067" x2="226.564" y2="506.333"/><line class="cls-11" x1="237.527" y1="611.067" x2="291.905" y2="506.333"/><line class="cls-11" x1="291.905" y1="611.067" x2="237.527" y2="506.333"/><line class="cls-11" x1="248.49" y1="611.067" x2="302.868" y2="506.333"/><line class="cls-11" x1="302.868" y1="611.067" x2="248.49" y2="506.333"/><line class="cls-11" x1="259.453" y1="611.067" x2="313.831" y2="506.333"/><line class="cls-11" x1="313.831" y1="611.067" x2="259.453" y2="506.333"/><line class="cls-11" x1="270.416" y1="611.067" x2="324.794" y2="506.333"/><line class="cls-11" x1="324.794" y1="611.067" x2="270.416" y2="506.333"/><line class="cls-11" x1="281.379" y1="611.067" x2="335.757" y2="506.333"/><line class="cls-11" x1="335.757" y1="611.067" x2="281.379" y2="506.333"/><line class="cls-11" x1="292.342" y1="611.067" x2="346.72" y2="506.333"/><line class="cls-11" x1="346.72" y1="611.067" x2="292.342" y2="506.333"/><line class="cls-11" x1="303.305" y1="611.067" x2="357.683" y2="506.333"/><line class="cls-11" x1="357.683" y1="611.067" x2="303.305" y2="506.333"/><line class="cls-11" x1="314.268" y1="611.067" x2="368.646" y2="506.333"/><line class="cls-11" x1="368.646" y1="611.067" x2="314.268" y2="506.333"/><line class="cls-11" x1="325.23" y1="611.067" x2="379.609" y2="506.333"/><line class="cls-11" x1="379.609" y1="611.067" x2="325.23" y2="506.333"/><line class="cls-11" x1="336.193" y1="611.067" x2="390.571" y2="506.333"/><line class="cls-11" x1="390.571" y1="611.067" x2="336.193" y2="506.333"/><line class="cls-11" x1="347.156" y1="611.067" x2="401.534" y2="506.333"/><line class="cls-11" x1="401.534" y1="611.067" x2="347.156" y2="506.333"/><line class="cls-11" x1="358.119" y1="611.067" x2="412.497" y2="506.333"/><line class="cls-11" x1="412.497" y1="611.067" x2="358.119" y2="506.333"/><line class="cls-11" x1="369.082" y1="611.067" x2="423.46" y2="506.333"/><line class="cls-11" x1="423.46" y1="611.067" x2="369.082" y2="506.333"/><line class="cls-11" x1="380.045" y1="611.067" x2="434.423" y2="506.333"/><line class="cls-11" x1="434.423" y1="611.067" x2="380.045" y2="506.333"/><line class="cls-11" x1="391.008" y1="611.067" x2="445.386" y2="506.333"/><line class="cls-11" x1="445.386" y1="611.067" x2="391.008" y2="506.333"/><line class="cls-11" x1="401.971" y1="611.067" x2="456.349" y2="506.333"/><line class="cls-11" x1="456.349" y1="611.067" x2="401.971" y2="506.333"/><line class="cls-11" x1="412.934" y1="611.067" x2="467.312" y2="506.333"/><line class="cls-11" x1="467.312" y1="611.067" x2="412.934" y2="506.333"/><line class="cls-11" x1="423.897" y1="611.067" x2="478.275" y2="506.333"/><line class="cls-11" x1="478.275" y1="611.067" x2="423.897" y2="506.333"/><line class="cls-11" x1="434.859" y1="611.067" x2="489.237" y2="506.333"/><line class="cls-11" x1="489.237" y1="611.067" x2="434.859" y2="506.333"/><line class="cls-11" x1="445.822" y1="611.067" x2="500.2" y2="506.333"/><line class="cls-11" x1="500.2" y1="611.067" x2="445.822" y2="506.333"/><polyline class="cls-11" points="501.86 524.247 500.42 527.027 494.94 537.577 494.94 537.587 489.46 548.137 483.97 558.707 478.49 569.257 473.01 579.807 467.53 590.367 462.05 600.927 456.78 611.067"/><polyline class="cls-11" points="501.86 593.157 500.42 590.377 500.42 590.367 494.94 579.817 489.46 569.267 489.46 569.257 483.97 558.707 478.49 548.147 473.01 537.597 467.53 527.037 467.53 527.027 462.05 516.477 456.78 506.337"/><polyline class="cls-11" points="501.86 545.377 500.42 548.147 494.94 558.707 489.46 569.257 489.46 569.267 483.98 579.817 478.5 590.377 473.01 600.937 467.75 611.067"/><polyline class="cls-11" points="467.75 506.337 473.01 516.467 478.5 527.027 483.98 537.587 489.46 548.137 494.94 558.707 500.42 569.257 501.86 572.027"/><polyline class="cls-11" points="501.86 566.487 500.42 569.257 494.94 579.817 489.46 590.377 483.98 600.927 478.71 611.067"/><polyline class="cls-11" points="478.71 506.337 483.98 516.477 489.46 527.027 494.94 537.587 500.42 548.147 501.86 550.917"/><polyline class="cls-11" points="501.86 587.587 500.42 590.367 500.42 590.377 494.94 600.927 489.67 611.067"/><polyline class="cls-11" points="489.67 506.337 494.94 516.477 500.42 527.027 501.86 529.817"/><line class="cls-11" x1="501.86" y1="608.717" x2="500.64" y2="611.067"/><path class="cls-1" d="m268.309,444.561s-3.515,74.251-2.494,85.145c1.021,10.894-.237,20.399.98,34.213,1.238,14.057,6.778,15.841,8.884,21.617,2.106,5.776,7.838,7.149,12.604,9.532,4.766,2.383-58.354,0-58.354,0,0,0,9.631-9.362,12.861-22.809,3.629-15.108,4.379-42.707,4.379-59.199,0-36.753-3.823-58.93-3.823-58.93l24.962-9.569Z"/><circle class="cls-7" cx="264.491" cy="342.563" r="36.987"/><circle class="cls-7" cx="306.642" cy="355.55" r="26.278"/><ellipse class="cls-7" cx="340.21" cy="368.613" rx="22.177" ry="24.151"/><ellipse class="cls-7" cx="357.375" cy="390.031" rx="12.607" ry="15.19"/><circle class="cls-7" cx="346.21" cy="415.321" r="20.734"/><ellipse class="cls-7" cx="324.11" cy="444.561" rx="20.658" ry="14.43"/><ellipse class="cls-7" cx="306.49" cy="458.232" rx="20.354" ry="16.557"/><ellipse class="cls-7" cx="280.516" cy="445.928" rx="18.987" ry="15.797"/><ellipse class="cls-7" cx="254.617" cy="456.181" rx="25.898" ry="20.126"/><circle class="cls-7" cx="214.441" cy="454.13" r="20.658"/><ellipse class="cls-7" cx="237.377" cy="346.589" rx="22.936" ry="28.253"/><path class="cls-7" d="m239.046,356.61c0,2.63-.61,5.15-1.73,7.48-.36.74-.77,1.46-1.229,2.16-1.47,2.27-3.45,4.31-5.83,6.03-.34.25-.69.49-1.04.72-3.41,2.24-7.52,3.86-12.04,4.64-2,.36-4.09.54-6.23.54-2.05,0-4.04-.17-5.96-.49-10.24-1.69-18.39-7.66-21.14-15.36-.1-.28-.2-.57-.28-.87-.09-.26-.16-.52-.22-.79-.33-1.31-.5-2.67-.5-4.06,0-5.06,2.26-9.71,6.06-13.38,5.15-4.99,13.11-8.19,22.04-8.19,1.83,0,3.63.13,5.36.4,4.19.61,8.05,1.95,11.35,3.82,6.91,3.94,11.39,10.24,11.39,17.35Z"/><ellipse class="cls-7" cx="194.239" cy="377.727" rx="22.936" ry="18.379"/><ellipse class="cls-7" cx="170.012" cy="391.967" rx="24.227" ry="23.354"/><ellipse class="cls-7" cx="180.872" cy="417.676" rx="19.898" ry="19.746"/><circle class="cls-7" cx="175.556" cy="446.839" r="18.227"/><ellipse class="cls-7" cx="200.922" cy="435.144" rx="25.367" ry="29.923"/><ellipse class="cls-7" cx="269.161" cy="407.322" rx="82.898" ry="46.809"/><path class="cls-6" d="m363.216,403.48c2.35,3.36,3.73,7.44,3.73,11.84,0,11.45-9.28,20.73-20.74,20.73-2.38,0-4.66-.42-6.8-1.16,3.32,2.56,5.36,5.95,5.36,9.67,0,7.33-7.83,13.37-17.96,14.29-.41,8.86-9.33,15.94-20.32,15.94-10.1,0-18.47-6-20.06-13.86-1.86.51-3.84.8-5.91.8-.33,0-.66-.03-.99-.05-3.08,8.44-13.06,14.63-24.91,14.63-9.97,0-18.61-4.38-22.94-10.8-3.7,5.59-10.03,9.28-17.23,9.28-7.57,0-14.17-4.08-17.76-10.15-3.32-.66-6.41-2.07-9.15-4.08-3.21,2.8-7.39,4.51-11.98,4.51-10.07,0-18.23-8.16-18.23-18.23,0-6.7,3.63-12.54,9.01-15.71-3.32-3.53-5.36-8.25-5.36-13.45,0-1.34.14-2.64.39-3.9-9.11-3.35-15.58-11.85-15.58-21.81,0-7.93,4.1-14.93,10.36-19.15-1.63,3.17-2.54,6.74-2.54,10.51,0,11.76,8.88,21.53,20.6,23.59-.45,1.62-.69,3.33-.69,5.08,0,5.58,2.41,10.63,6.31,14.3-3.48,3.17-5.63,7.53-5.63,12.35,0,9.68,8.69,17.53,19.41,17.53,1.88,0,3.69-.25,5.41-.7.99,5.4,7.95,9.59,16.41,9.59,9.14,0,16.54-4.89,16.54-10.92,0-.14-.02-.28-.03-.43,2.8.92,5.83,1.43,9,1.43,8.12,0,15.35-3.31,20.02-8.47,1.23.1,2.48.16,3.74.16,7.18,0,13.85-1.72,19.38-4.66,3.39,5.72,10.15,9.63,17.95,9.63,10.74,0,19.5-7.39,20.19-16.72,7.66-.44,14.01-5.72,16.03-12.85,2.03,2.04,4.73,3.3,7.71,3.3,6.3,0,11.42-5.61,11.42-12.52,0-2.96-.95-5.68-2.52-7.82,1.61-3.58,2.52-7.63,2.52-11.93,0-1.36-.09-2.69-.26-3.99.75.22,1.54.35,2.37.35,4.49,0,8.16-3.52,8.41-7.96,1.32,2.4,2.09,5.27,2.09,8.36,0,5.85-2.75,10.91-6.77,13.45Z"/><rect class="cls-2" x="200.436" y="591.091" width="117.598" height="19.976"/><path class="cls-3" d="m475.605,614.067c-1.657,0-3-1.343-3-3v-8.999c0-.805-.681-1.485-1.485-1.485h-13.163c-.818,0-1.484.666-1.484,1.485v8.999c0,1.657-1.343,3-3,3h-6.919c-1.657,0-3-1.343-3-3v-8.999c0-.819-.68-1.485-1.515-1.485h-50.999v10.484c0,1.657-1.343,3-3,3h-6.919c-1.657,0-3-1.343-3-3v-8.999c0-.819-.68-1.485-1.515-1.485h-15.214c-.805,0-1.485.681-1.485,1.485v8.999c0,1.657-1.343,3-3,3h-6.919c-1.657,0-3-1.343-3-3v-26.395c0-1.657,1.343-3,3-3h22.509l2.342-36.301c.103-1.578,1.412-2.807,2.994-2.807h101.351c.829,0,1.621.343,2.188.948.567.604.858,1.417.806,2.245l-2.316,35.914h2.662c1.657,0,3,1.343,3,3v26.395c0,1.657-1.343,3-3,3h-6.918Z"/><path class="cls-4" d="m388.04,589.843v21.224h-6.919v-9c0-2.463-2.023-4.485-4.515-4.485h-15.215c-2.462,0-4.485,2.023-4.485,4.485v9h-6.918v-21.224h38.051Z"/><rect class="cls-8" x="349.989" y="584.673" width="132.535" height="5.17"/><polygon class="cls-8" points="476.661 584.673 471.614 584.673 474.137 545.565 479.184 545.565 476.661 584.673"/><polygon class="cls-9" points="375.309 584.673 471.614 584.673 474.137 545.565 377.833 545.565 375.309 584.673"/><path class="cls-10" d="m482.524,589.843v21.224h-6.919v-9c0-2.463-2.023-4.485-4.485-4.485h-13.163c-2.491,0-4.485,2.023-4.485,4.485v9h-6.919v-9c0-2.463-2.023-4.485-4.515-4.485h-80.647c-2.462,0-4.485,2.023-4.485,4.485v9h-6.918v-21.224h132.535Z"/><path class="cls-3" d="m161.562,614.067c-1.657,0-3-1.343-3-3v-8.999c0-.805-.68-1.485-1.484-1.485h-13.163c-.819,0-1.485.666-1.485,1.485v8.999c0,1.657-1.343,3-3,3h-6.919c-1.657,0-3-1.343-3-3v-8.999c0-.819-.68-1.485-1.515-1.485h-50.998v10.484c0,1.657-1.343,3-3,3h-6.919c-1.657,0-3-1.343-3-3v-8.999c0-.819-.68-1.485-1.515-1.485h-15.215c-.805,0-1.485.681-1.485,1.485v8.999c0,1.657-1.343,3-3,3h-6.918c-1.657,0-3-1.343-3-3v-26.395c0-1.657,1.343-3,3-3h22.509l2.341-36.301c.103-1.578,1.412-2.807,2.994-2.807h101.352c.829,0,1.621.343,2.188.948.567.604.858,1.417.806,2.245l-2.317,35.914h2.663c1.657,0,3,1.343,3,3v26.395c0,1.657-1.343,3-3,3h-6.919Z"/><path class="cls-4" d="m73.997,589.843v21.224h-6.919v-9c0-2.463-2.023-4.485-4.515-4.485h-15.215c-2.462,0-4.485,2.023-4.485,4.485v9h-6.918v-21.224h38.051Z"/><rect class="cls-8" x="35.946" y="584.673" width="132.535" height="5.17"/><polygon class="cls-8" points="162.618 584.673 157.571 584.673 160.095 545.565 165.141 545.565 162.618 584.673"/><polygon class="cls-9" points="61.267 584.673 157.571 584.673 160.095 545.565 63.79 545.565 61.267 584.673"/><path class="cls-10" d="m168.481,589.843v21.224h-6.919v-9c0-2.463-2.023-4.485-4.485-4.485h-13.163c-2.491,0-4.485,2.023-4.485,4.485v9h-6.919v-9c0-2.463-2.023-4.485-4.515-4.485H47.349c-2.462,0-4.485,2.023-4.485,4.485v9h-6.918v-21.224h132.535Z"/></svg>