<?xml version="1.0" encoding="UTF-8"?><svg id="Layer_1" xmlns="http://www.w3.org/2000/svg" width="518.47" height="611.067"><defs><style>.cls-1{fill:#8ea095;}.cls-1,.cls-2,.cls-3,.cls-4,.cls-5,.cls-6,.cls-7,.cls-8,.cls-9,.cls-10{stroke-width:0px;}.cls-2{fill:#5e5121;}.cls-2,.cls-3{opacity:.8;}.cls-3{fill:#175f61;}.cls-4{fill:#123f4a;}.cls-5{fill:#dbe7ed;}.cls-6{fill:#74888e;}.cls-7{fill:#bfe4de;}.cls-8{fill:#416e6e;}.cls-9{fill:#66a2a3;}.cls-10{fill:#b0d1be;}</style></defs><rect class="cls-4" x="84.887" y="215.679" width="23.361" height="39.449"/><rect class="cls-4" x="292.802" y="215.679" width="23.361" height="39.449"/><rect class="cls-8" x="87.887" y="218.679" width="17.362" height="33.449"/><rect class="cls-8" x="295.801" y="218.679" width="17.362" height="33.449"/><rect class="cls-4" x="47.524" y="15.679" width="306" height="206" rx="11.188" ry="11.188"/><rect class="cls-7" x="50.525" y="18.679" width="300" height="200" rx="8.188" ry="8.188"/><path class="cls-4" d="m0,614.067v-354.122c0-5.965,4.854-10.818,10.818-10.818h496.834c5.965,0,10.817,4.853,10.817,10.818v354.122H0Z"/><path class="cls-9" d="m10.818,252.128h496.834c4.315,0,7.818,3.503,7.818,7.818v351.122H3v-351.122c0-4.315,3.503-7.818,7.818-7.818Z"/><path class="cls-5" d="m233.09,280.819h52.291c4.315,0,7.818,3.503,7.818,7.818v91.107c0,2.549-2.07,4.619-4.619,4.619h-58.688c-2.549,0-4.619-2.07-4.619-4.619v-91.107c0-4.315,3.503-7.818,7.818-7.818Z"/><path class="cls-5" d="m90.121,280.819h52.291c4.315,0,7.818,3.503,7.818,7.818v91.107c0,2.549-2.07,4.619-4.619,4.619h-58.688c-2.549,0-4.619-2.07-4.619-4.619v-91.107c0-4.315,3.503-7.818,7.818-7.818Z"/><path class="cls-5" d="m376.059,280.819h52.291c4.315,0,7.818,3.503,7.818,7.818v91.107c0,2.549-2.07,4.619-4.619,4.619h-58.688c-2.549,0-4.619-2.07-4.619-4.619v-91.107c0-4.315,3.503-7.818,7.818-7.818Z"/><path class="cls-6" d="m225.272,340.193h67.926v39.551c0,2.549-2.07,4.619-4.619,4.619h-58.688c-2.549,0-4.619-2.07-4.619-4.619v-39.551h0Z"/><path class="cls-6" d="m82.303,340.193h67.926v39.551c0,2.549-2.07,4.619-4.619,4.619h-58.688c-2.549,0-4.619-2.07-4.619-4.619v-39.551h0Z"/><path class="cls-6" d="m368.241,340.193h67.926v39.551c0,2.549-2.07,4.619-4.619,4.619h-58.688c-2.549,0-4.619-2.07-4.619-4.619v-39.551h0Z"/><path class="cls-3" d="m233.09,280.819h52.291c4.315,0,7.818,3.503,7.818,7.818v91.107c0,2.549-2.07,4.619-4.619,4.619h-58.688c-2.549,0-4.619-2.07-4.619-4.619v-91.107c0-4.315,3.503-7.818,7.818-7.818Z"/><path class="cls-3" d="m90.121,280.819h52.291c4.315,0,7.818,3.503,7.818,7.818v91.107c0,2.549-2.07,4.619-4.619,4.619h-58.688c-2.549,0-4.619-2.07-4.619-4.619v-91.107c0-4.315,3.503-7.818,7.818-7.818Z"/><path class="cls-3" d="m376.059,280.819h52.291c4.315,0,7.818,3.503,7.818,7.818v91.107c0,2.549-2.07,4.619-4.619,4.619h-58.688c-2.549,0-4.619-2.07-4.619-4.619v-91.107c0-4.315,3.503-7.818,7.818-7.818Z"/><rect class="cls-10" x="79.242" y="387.853" width="74.048" height="46.979"/><circle class="cls-1" cx="131.627" cy="411.172" r="16.34"/><rect class="cls-10" x="365.18" y="387.853" width="74.048" height="46.979"/><circle class="cls-1" cx="417.565" cy="411.172" r="16.34"/><path class="cls-5" d="m233.09,457.055h52.291c4.315,0,7.818,3.503,7.818,7.818v91.107c0,2.549-2.07,4.619-4.619,4.619h-58.688c-2.549,0-4.619-2.07-4.619-4.619v-91.107c0-4.315,3.503-7.818,7.818-7.818Z"/><path class="cls-5" d="m90.121,457.055h52.291c4.315,0,7.818,3.503,7.818,7.818v91.107c0,2.549-2.07,4.619-4.619,4.619h-58.688c-2.549,0-4.619-2.07-4.619-4.619v-91.107c0-4.315,3.503-7.818,7.818-7.818Z"/><path class="cls-5" d="m376.059,457.055h52.291c4.315,0,7.818,3.503,7.818,7.818v146.194h-67.926v-146.194c0-4.315,3.503-7.818,7.818-7.818Z"/><path class="cls-6" d="m225.272,516.429h67.926v39.551c0,2.549-2.07,4.619-4.619,4.619h-58.688c-2.549,0-4.619-2.07-4.619-4.619v-39.551h0Z"/><path class="cls-6" d="m82.303,516.429h67.926v39.551c0,2.549-2.07,4.619-4.619,4.619h-58.688c-2.549,0-4.619-2.07-4.619-4.619v-39.551h0Z"/><rect class="cls-6" x="368.241" y="516.429" width="67.926" height="94.638"/><path class="cls-3" d="m233.09,457.055h52.291c4.315,0,7.818,3.503,7.818,7.818v91.107c0,2.549-2.07,4.619-4.619,4.619h-58.688c-2.549,0-4.619-2.07-4.619-4.619v-91.107c0-4.315,3.503-7.818,7.818-7.818Z"/><path class="cls-3" d="m90.121,457.055h52.291c4.315,0,7.818,3.503,7.818,7.818v91.107c0,2.549-2.07,4.619-4.619,4.619h-58.688c-2.549,0-4.619-2.07-4.619-4.619v-91.107c0-4.315,3.503-7.818,7.818-7.818Z"/><path class="cls-2" d="m376.059,457.055h52.291c4.315,0,7.818,3.503,7.818,7.818v146.194h-67.926v-146.194c0-4.315,3.503-7.818,7.818-7.818Z"/></svg>