<?xml version="1.0" encoding="UTF-8"?><svg id="Layer_1" xmlns="http://www.w3.org/2000/svg" width="240" height="60"><defs><style>.cls-1{fill:#5a205e;}.cls-1,.cls-2,.cls-3,.cls-4,.cls-5{stroke-width:0px;}.cls-2,.cls-3,.cls-4{fill:#95c93d;}.cls-3{opacity:.5;}.cls-4{opacity:.25;}.cls-5{fill:#273a1b;}</style></defs><circle class="cls-4" cx="210" cy="30" r="24.675"/><circle class="cls-4" cx="210" cy="30" r="21.289"/><circle class="cls-3" cx="210" cy="30" r="18.566"/><circle class="cls-4" cx="30" cy="30" r="28.532"/><circle class="cls-4" cx="30" cy="30" r="24.617"/><circle class="cls-3" cx="30" cy="30" r="21.468"/><circle class="cls-4" cx="90" cy="30" r="24.617"/><circle class="cls-4" cx="90" cy="30" r="21.239"/><circle class="cls-3" cx="90" cy="30" r="18.522"/><circle class="cls-4" cx="150" cy="30" r="21.468"/><circle class="cls-4" cx="150" cy="30" r="18.522"/><circle class="cls-3" cx="150" cy="30" r="16.153"/><path class="cls-5" d="m36.502,8.819h0c1.141,3.128,4.495,4.852,7.702,3.961h0c5.577-1.549,10.17,4.53,7.155,9.471h0c-1.734,2.842-.991,6.54,1.706,8.492h0c4.688,3.394,2.799,10.775-2.943,11.499h0c-3.303.416-5.731,3.302-5.576,6.628h0c.27,5.782-6.679,8.907-10.826,4.869h0c-2.385-2.323-6.155-2.421-8.658-.227h0c-4.352,3.816-11.128.331-10.556-5.428h0c.329-3.313-1.944-6.322-5.221-6.911h0c-5.697-1.024-7.197-8.494-2.337-11.638h0c2.795-1.808,3.73-5.462,2.148-8.391h0c-2.752-5.092,2.153-10.923,7.641-9.083h0c3.157,1.058,6.596-.489,7.899-3.552h0c2.266-5.326,9.882-5.127,11.866.311Z"/><path class="cls-5" d="m91.273,7.818h0c1.808,2.795,5.462,3.73,8.391,2.148h0c5.092-2.752,10.923,2.153,9.083,7.641h0c-1.058,3.157.489,6.596,3.552,7.899h0c5.326,2.266,5.127,9.882-.311,11.866h0c-3.128,1.141-4.852,4.495-3.961,7.702h0c1.549,5.577-4.53,10.17-9.471,7.155h0c-2.842-1.734-6.539-.991-8.492,1.706h0c-3.394,4.688-10.775,2.799-11.499-2.943h0c-.416-3.303-3.302-5.731-6.628-5.576h0c-5.782.27-8.907-6.679-4.868-10.826h0c2.323-2.385,2.421-6.155.227-8.658h0c-3.816-4.352-.331-11.128,5.428-10.556h0c3.313.329,6.322-1.944,6.911-5.221h0c1.024-5.697,8.494-7.197,11.638-2.338Z"/><path class="cls-2" d="m35.652,9.69h0c1.164,2.949,4.4,4.508,7.432,3.579h0c5.271-1.614,9.795,4.059,7.048,8.838h0c-1.58,2.749-.781,6.251,1.836,8.042h0c4.548,3.114,2.934,10.189-2.516,11.021h0c-3.134.479-5.374,3.287-5.143,6.449h0c.401,5.498-6.137,8.646-10.185,4.905h0c-2.329-2.152-5.92-2.152-8.249,0h0c-4.048,3.741-10.586.593-10.185-4.905h0c.231-3.162-2.009-5.97-5.143-6.449h0c-5.449-.833-7.064-7.907-2.516-11.021h0c2.616-1.791,3.415-5.293,1.836-8.042h0c-2.747-4.779,1.778-10.453,7.048-8.838h0c3.032.928,6.268-.63,7.432-3.579h0c2.024-5.127,9.281-5.127,11.305,0Z"/><path class="cls-5" d="m146.533,8.369h0c2.385,2.323,6.155,2.421,8.658.226h0c4.352-3.816,11.128-.332,10.557,5.427h0c-.329,3.313,1.945,6.322,5.222,6.91h0c5.697,1.023,7.198,8.493,2.339,11.637h0c-2.795,1.809-3.73,5.462-2.147,8.391h0c2.752,5.092-2.152,10.923-7.64,9.084h0c-3.157-1.058-6.596.49-7.899,3.553h0c-2.265,5.326-9.882,5.128-11.866-.31h0c-1.141-3.127-4.495-4.852-7.703-3.96h0c-5.577,1.55-10.17-4.529-7.156-9.47h0c1.734-2.842.99-6.54-1.706-8.492h0c-4.689-3.393-2.8-10.775,2.942-11.5h0c3.303-.417,5.73-3.303,5.575-6.629h0c-.27-5.782,6.678-8.907,10.825-4.87Z"/><path class="cls-2" d="m90.706,8.921h0c1.791,2.616,5.293,3.415,8.042,1.836h0c4.779-2.747,10.453,1.778,8.838,7.048h0c-.928,3.032.63,6.268,3.579,7.432h0c5.127,2.024,5.127,9.281,0,11.305h0c-2.949,1.164-4.508,4.4-3.579,7.432h0c1.614,5.271-4.059,9.795-8.838,7.048h0c-2.749-1.58-6.251-.781-8.042,1.836h0c-3.114,4.548-10.189,2.934-11.021-2.516h0c-.479-3.134-3.287-5.374-6.449-5.143h0c-5.498.401-8.646-6.137-4.905-10.185h0c2.152-2.329,2.152-5.92,0-8.249h0c-3.741-4.048-.593-10.586,4.905-10.185h0c3.162.231,5.97-2.009,6.449-5.143h0c.833-5.449,7.907-7.064,11.021-2.516Z"/><path class="cls-2" d="m146.144,9.64h0c2.329,2.152,5.92,2.151,8.249,0h0c4.048-3.742,10.586-.594,10.186,4.904h0c-.23,3.162,2.009,5.97,5.144,6.449h0c5.449.832,7.065,7.906,2.517,11.021h0c-2.616,1.792-3.415,5.293-1.835,8.042h0c2.747,4.779-1.777,10.453-7.048,8.839h0c-3.032-.928-6.268.631-7.432,3.58h0c-2.024,5.127-9.28,5.128-11.305.001h0c-1.165-2.949-4.401-4.507-7.432-3.578h0c-5.271,1.615-9.795-4.058-7.049-8.838h0c1.58-2.749.78-6.251-1.836-8.042h0c-4.549-3.114-2.935-10.189,2.514-11.022h0c3.134-.479,5.373-3.287,5.142-6.45h0c-.401-5.498,6.136-8.647,10.185-4.906Z"/><path class="cls-5" d="m202.756,9.282h0c2.842,1.733,6.54.99,8.491-1.707h0c3.393-4.689,10.775-2.801,11.5,2.942h0c.417,3.303,3.303,5.73,6.629,5.575h0c5.782-.271,8.908,6.678,4.87,10.825h0c-2.322,2.385-2.421,6.155-.225,8.658h0c3.816,4.352.333,11.128-5.427,10.557h0c-3.313-.328-6.322,1.945-6.91,5.222h0c-1.023,5.697-8.493,7.198-11.637,2.339h0c-1.809-2.795-5.462-3.73-8.391-2.146h0c-5.092,2.752-10.923-2.152-9.085-7.64h0c1.057-3.157-.49-6.596-3.554-7.899h0c-5.326-2.265-5.128-9.881.309-11.866h0c3.127-1.141,4.852-4.496,3.96-7.703h0c-1.55-5.576,4.528-10.17,9.47-7.157Z"/><path class="cls-2" d="m202.623,10.488h0c2.749,1.579,6.251.78,8.042-1.837h0c3.114-4.549,10.188-2.935,11.022,2.514h0c.479,3.134,3.288,5.373,6.45,5.142h0c5.498-.402,8.647,6.136,4.906,10.185h0c-2.152,2.329-2.151,5.921.001,8.249h0c3.742,4.048.594,10.586-4.903,10.186h0c-3.162-.23-5.97,2.01-6.448,5.144h0c-.832,5.449-7.906,7.065-11.021,2.517h0c-1.792-2.616-5.293-3.415-8.042-1.834h0c-4.779,2.747-10.453-1.776-8.839-7.047h0c.928-3.032-.631-6.268-3.58-7.431h0c-5.128-2.023-5.129-9.28-.002-11.305h0c2.949-1.165,4.507-4.401,3.578-7.432h0c-1.615-5.27,4.058-9.796,8.837-7.05Z"/><path class="cls-1" d="m25.188,25.461c-.439.489-.979.753-1.623.791-.644.038-1.211-.167-1.7-.618-.49-.451-.76-.998-.811-1.642l-.039-1.042c-.052-1.133.296-2.421,1.043-3.863.901-1.725,2.859-2.858,5.872-3.399,1.082-.232,2.163-.348,3.245-.348s2.022.193,2.82.579c1.107.541,2.06,1.236,2.858,2.086.824.875,1.403,1.764,1.738,2.665.309.902.438,1.854.386,2.858-.077,1.03-.322,1.945-.734,2.742-.386.748-.85,1.404-1.391,1.97-.489.515-1.146,1.031-1.97,1.545-.541.335-.94.632-1.198.888-.206.206-.425.515-.657.927-.207.387-.335.67-.386.85-.077.335-.129.657-.155.966-.026.258-.026.425,0,.501l.038.387c.077.644-.09,1.23-.502,1.758-.412.528-.934.83-1.565.908-.631.077-1.211-.09-1.738-.502-.528-.411-.83-.94-.908-1.584l-.038-.386c-.052-.411-.052-.914,0-1.507.025-.488.103-1.004.232-1.545.129-.67.425-1.404.888-2.202.464-.798.966-1.455,1.507-1.97.464-.464,1.095-.952,1.893-1.468.515-.335.901-.631,1.159-.888.206-.232.386-.502.541-.812.128-.232.206-.515.232-.85.025-.386-.014-.721-.116-1.004-.103-.283-.335-.605-.695-.966-.412-.438-.914-.798-1.507-1.082-.052-.025-.193-.045-.425-.058-.232-.013-.605,0-1.12.038-.515.038-1.056.11-1.622.212-.541.078-1.024.2-1.449.367-.425.168-.695.29-.811.367-.116.078-.187.142-.212.193-.335.645-.502,1.108-.502,1.391l.039,1.043c.025.644-.181,1.211-.618,1.7Zm3.902,16.707c0-.657.232-1.217.695-1.68.464-.464,1.024-.695,1.68-.695s1.217.232,1.68.695l.116.115c.463.464.695,1.024.695,1.681s-.232,1.217-.695,1.68c-.464.464-1.024.695-1.68.695s-1.217-.232-1.68-.695l-.116-.116c-.463-.463-.695-1.023-.695-1.68Z"/><path class="cls-1" d="m85.749,25.336c-.448.435-.978.649-1.59.643-.613-.006-1.136-.238-1.57-.698-.434-.46-.654-.996-.66-1.61l.032-.99c.026-1.077.441-2.275,1.245-3.592.968-1.575,2.899-2.519,5.79-2.832,1.04-.149,2.073-.186,3.098-.114s1.903.317,2.634.736c1.013.586,1.87,1.308,2.571,2.166.723.884,1.213,1.765,1.471,2.641.233.875.292,1.786.177,2.734-.142.971-.434,1.822-.877,2.55-.415.683-.899,1.274-1.449,1.775-.498.456-1.155.901-1.969,1.334-.535.282-.933.536-1.194.763-.209.182-.437.46-.684.835-.221.353-.362.613-.422.78-.096.313-.166.614-.211.905-.042.243-.053.401-.033.475l.011.369c.031.615-.167,1.16-.592,1.632-.426.473-.94.725-1.543.757-.603.031-1.142-.166-1.614-.591-.473-.425-.725-.946-.755-1.561l-.011-.368c-.022-.393.011-.869.1-1.428.056-.461.164-.944.322-1.448.167-.626.496-1.302.988-2.028.492-.725,1.012-1.314,1.558-1.767.47-.409,1.1-.83,1.891-1.265.51-.283.896-.538,1.157-.765.21-.207.399-.45.566-.733.137-.211.229-.474.276-.79.05-.364.035-.684-.044-.959-.079-.275-.277-.596-.595-.962-.361-.442-.814-.816-1.356-1.125-.047-.027-.18-.055-.399-.083-.219-.028-.574-.04-1.064-.038-.491.002-1.008.034-1.551.094-.518.038-.984.122-1.397.252-.413.131-.678.229-.793.294-.115.066-.187.123-.214.169-.36.589-.549,1.016-.568,1.285l-.032.991c-.019.612-.252,1.135-.698,1.57Zm2.59,16.091c.044-.623.3-1.138.77-1.546.47-.409,1.016-.591,1.639-.548s1.138.3,1.546.77l.102.117c.408.47.591,1.016.547,1.639s-.3,1.138-.77,1.546c-.47.409-1.016.591-1.639.548s-1.138-.3-1.546-.77l-.102-.118c-.409-.47-.591-1.016-.547-1.638Z"/><path class="cls-1" d="m146.411,25.182c-.465.365-.986.514-1.562.448-.577-.067-1.047-.337-1.41-.813-.364-.476-.518-1.003-.462-1.582l.128-.93c.131-1.012.641-2.099,1.528-3.261,1.068-1.388,2.981-2.087,5.736-2.095.995-.037,1.972.03,2.93.199s1.762.487,2.409.954c.897.652,1.633,1.418,2.207,2.296.593.905.968,1.783,1.124,2.634.133.847.098,1.711-.104,2.594-.229.901-.59,1.673-1.079,2.316-.459.602-.973,1.111-1.541,1.529-.514.38-1.177.735-1.988,1.062-.532.213-.932.413-1.2.6-.215.151-.457.39-.727.719-.244.311-.402.542-.475.693-.121.285-.217.562-.288.832-.063.224-.089.372-.078.444l-.026.349c-.032.583-.272,1.076-.72,1.479-.448.403-.957.59-1.529.56-.571-.031-1.059-.269-1.462-.717-.404-.447-.589-.963-.557-1.546l.026-.348c.018-.373.097-.818.236-1.336.099-.429.248-.874.447-1.333.219-.574.596-1.178,1.132-1.813.536-.634,1.083-1.138,1.643-1.511.484-.339,1.119-.673,1.907-1.005.508-.216.897-.418,1.166-.606.219-.174.421-.385.606-.635.15-.185.263-.424.338-.717.083-.338.101-.641.054-.908-.047-.267-.202-.589-.465-.965-.297-.452-.686-.85-1.166-1.194-.042-.031-.164-.07-.367-.117-.204-.048-.537-.095-.999-.141-.463-.046-.953-.068-1.471-.065-.491-.016-.939.017-1.342.099-.403.082-.662.148-.776.198-.115.051-.188.097-.218.138-.398.519-.618.903-.663,1.154l-.129.931c-.078.575-.35,1.045-.814,1.41Zm.847,15.417c.103-.582.395-1.042.879-1.38.484-.339,1.016-.456,1.598-.354s1.042.395,1.381.879l.085.12c.338.484.456,1.016.353,1.598s-.395,1.042-.879,1.38c-.484.339-1.016.456-1.598.354s-1.042-.395-1.381-.879l-.085-.121c-.338-.483-.456-1.015-.353-1.598Z"/><path class="cls-1" d="m205.821,25.274c-.456.427-.989.632-1.601.615-.613-.017-1.132-.258-1.557-.725-.426-.467-.637-1.007-.632-1.621l.05-.99c.045-1.077.481-2.266,1.307-3.57.996-1.558,2.942-2.468,5.839-2.731,1.043-.13,2.076-.15,3.099-.06s1.897.35,2.621.782c1.003.603,1.847,1.34,2.532,2.211.707.897,1.182,1.785,1.425,2.666.218.879.261,1.791.129,2.737-.158.968-.466,1.814-.922,2.534-.427.676-.921,1.258-1.479,1.749-.506.447-1.17.881-1.992,1.299-.54.273-.942.52-1.207.742-.212.178-.444.453-.698.823-.228.349-.373.606-.436.772-.101.311-.177.611-.226.902-.046.242-.06.4-.042.475l.004.369c.02.616-.187,1.157-.621,1.622-.434.465-.953.708-1.556.729-.604.02-1.138-.185-1.604-.619-.466-.433-.708-.958-.728-1.574l-.004-.369c-.015-.394.026-.869.125-1.426.064-.46.18-.941.347-1.443.177-.623.518-1.293,1.023-2.011.505-.716,1.034-1.297,1.589-1.74.477-.401,1.115-.811,1.913-1.232.515-.274.905-.522,1.17-.745.214-.203.407-.443.579-.723.141-.208.237-.47.29-.785.056-.363.047-.683-.027-.96-.074-.276-.267-.601-.578-.972-.354-.448-.799-.831-1.336-1.148-.047-.028-.179-.058-.397-.09-.218-.032-.573-.05-1.064-.056-.491-.006-1.009.017-1.553.067-.518.029-.986.105-1.402.227-.416.124-.682.217-.798.28-.116.064-.189.119-.217.165-.37.582-.567,1.007-.591,1.275l-.05.99c-.029.611-.271,1.131-.726,1.558Zm2.309,16.134c.054-.622.32-1.133.797-1.532.477-.401,1.027-.573,1.648-.519s1.133.32,1.533.797l.1.119c.4.477.573,1.027.519,1.648s-.32,1.133-.797,1.532c-.477.401-1.027.573-1.648.519s-1.133-.32-1.533-.797l-.1-.12c-.4-.477-.573-1.026-.519-1.647Z"/></svg>