<?xml version="1.0" encoding="UTF-8"?><svg xmlns="http://www.w3.org/2000/svg" width="240" height="60"><defs><style>.cls-1{fill:#f68b1f;}.cls-1,.cls-2,.cls-3,.cls-4,.cls-5,.cls-6,.cls-7,.cls-8,.cls-9{stroke-width:0px;}.cls-2{opacity:.4;}.cls-2,.cls-5,.cls-6,.cls-7{fill:gold;}.cls-3{fill:#5a205e;}.cls-4{fill:#97ac3b;}.cls-10{isolation:isolate;}.cls-6{opacity:.05;}.cls-7{opacity:.15;}.cls-8{fill:#fff;}.cls-9{fill:#f89a23;}.cls-11{mix-blend-mode:screen;opacity:.5;}</style></defs><g class="cls-10"><g id="Layer_1"><circle class="cls-6" cx="30" cy="30" r="28.532"/><circle class="cls-7" cx="30" cy="30" r="25.723"/><circle class="cls-2" cx="30" cy="30" r="22.404"/><circle class="cls-5" cx="30" cy="30" r="20.234"/><path class="cls-3" d="m39.665,45.489c-1.715,0-3.369-.677-4.833-1.97-1.464,1.292-3.118,1.97-4.833,1.97s-3.369-.677-4.833-1.97c-1.464,1.292-3.118,1.97-4.833,1.97-5.49,0-9.791-6.736-9.791-15.334s4.301-15.335,9.791-15.335c.271,0,.541.017.808.05-.119-.387.006-.823.343-1.084,1.658-1.287,3.352-1.939,5.033-1.939h.042l-3.171-1.576c-.264-.131-.457-.373-.526-.659-.07-.287-.009-.589.165-.827l3.731-5.099c.194-.265.497-.41.808-.41.148,0,.298.033.438.102l7.033,3.437c.269.131.465.376.534.667.069.291.005.598-.176.836l-1.716,2.262.947.381c.297.12.519.374.597.685.447-.102.921-.162,1.418-.162,1.064,0,2.103.277,3.085.825.453.252.638.808.427,1.281-.025.058-.267.586-.738,1.236.083-.003.165-.005.248-.005,5.49,0,9.791,6.736,9.791,15.335s-4.301,15.334-9.791,15.334ZM28.957,8.679c.122-.139.283-.245.47-.3l1.232-.362-2.155-.984-.858,1.12,1.311.527Z"/><path class="cls-4" d="m27.015,16.668l3.36-4.041-6.54-3.251,3.732-5.099,7.032,3.436-1.934,2.549-2.957-.924,2.55-.75.222-.839-4.286-1.958-2.143,2.797,8.202,3.299-2.324,2.734s3.396-3.621,7.312-1.441c0,0-2.143,4.803-6.577,2.808l.628,1.219-6.279-.54Z"/><ellipse class="cls-1" cx="39.665" cy="30.155" rx="8.791" ry="14.335"/><g class="cls-11"><path class="cls-8" d="m46.189,26.208c-.27,0-.515-.187-.576-.462-.998-4.452-3.444-7.561-5.948-7.561-.326,0-.591-.265-.591-.591s.265-.591.591-.591c3.11,0,5.964,3.41,7.102,8.485.072.319-.129.635-.447.706-.044.01-.087.014-.13.014Z"/></g><ellipse class="cls-1" cx="20.335" cy="30.155" rx="8.791" ry="14.335"/><ellipse class="cls-9" cx="30" cy="30.155" rx="8.791" ry="14.335"/><path class="cls-4" d="m30.375,14.426s-3.38-3.651-8.276.15c0,0,3.495,5.081,8.276-.15Z"/><polygon class="cls-5" points="27.835 31.73 31.856 31.73 29.846 28.579 27.835 31.73"/><polygon class="cls-3" points="29.846 29.256 31.424 31.73 31.856 31.73 29.846 28.579 27.835 31.73 28.267 31.73 29.846 29.256"/><ellipse class="cls-5" cx="25.092" cy="28.628" rx="2.669" ry="3.186"/><path class="cls-3" d="m25.092,26.596c1.309,0,2.395,1.125,2.623,2.609.029-.188.046-.38.046-.577,0-1.76-1.195-3.186-2.669-3.186s-2.669,1.427-2.669,3.186c0,.197.017.39.046.577.228-1.484,1.314-2.609,2.623-2.609Z"/><ellipse class="cls-5" cx="34.599" cy="28.628" rx="2.669" ry="3.186"/><path class="cls-3" d="m34.599,26.596c1.309,0,2.395,1.125,2.623,2.609.029-.188.046-.38.046-.577,0-1.76-1.195-3.186-2.669-3.186s-2.669,1.427-2.669,3.186c0,.197.017.39.046.577.228-1.484,1.314-2.609,2.623-2.609Z"/><path class="cls-5" d="m38.716,31.051s.347,1.677-1.877,2.907l-.109,2.039-1.87-1.286c-1.245.319-2.885.524-5.048.524-2.105,0-3.726-.206-4.976-.528l-1.876,1.29-.109-2.037c-2.446-1.308-2.186-3.153-2.186-3.153,0,0-1.022,6.01,4.078,8.412l1.931-1.649s.792,1.5,1.348,2.529c.556.063,1.149.098,1.79.098.667,0,1.284-.036,1.858-.101.556-1.029,1.346-2.526,1.346-2.526l1.918,1.638c4.947-2.364,3.783-8.157,3.783-8.157Z"/><path class="cls-3" d="m22.551,34.72l.114,2.126,1.958-1.347c1.305.336,2.997.551,5.194.551,2.258,0,3.969-.214,5.269-.547l1.952,1.342.114-2.129c.898-.497,1.392-1.063,1.663-1.571.077-1.214-.099-2.095-.099-2.095,0,0,.347,1.677-1.877,2.907l-.109,2.039-1.87-1.286c-1.245.319-2.885.524-5.048.524-2.105,0-3.726-.206-4.976-.528l-1.876,1.29-.109-2.037c-2.446-1.308-2.186-3.153-2.186-3.153,0,0-.149.884-.047,2.108.309.581.877,1.24,1.933,1.805Z"/><circle class="cls-6" cx="90" cy="30" r="25.723"/><circle class="cls-7" cx="90" cy="30" r="23.191"/><circle class="cls-2" cx="90" cy="30" r="20.199"/><circle class="cls-5" cx="90" cy="30" r="18.242"/><path class="cls-3" d="m99.665,45.489c-1.715,0-3.369-.677-4.833-1.97-1.464,1.292-3.118,1.97-4.833,1.97s-3.369-.677-4.833-1.97c-1.464,1.292-3.118,1.97-4.833,1.97-5.49,0-9.791-6.736-9.791-15.334s4.301-15.335,9.791-15.335c.271,0,.541.017.808.05-.119-.387.006-.823.343-1.084,1.658-1.287,3.352-1.939,5.033-1.939h.042l-3.171-1.576c-.264-.131-.457-.373-.526-.659-.07-.287-.009-.589.165-.827l3.731-5.099c.194-.265.497-.41.808-.41.148,0,.298.033.438.102l7.033,3.437c.269.131.465.376.534.667.069.291.005.598-.176.836l-1.716,2.262.947.381c.297.12.519.374.597.685.447-.102.921-.162,1.418-.162,1.064,0,2.103.277,3.085.825.453.252.638.808.427,1.281-.025.058-.267.586-.738,1.236.083-.003.165-.005.248-.005,5.49,0,9.791,6.736,9.791,15.335s-4.301,15.334-9.791,15.334Zm-10.708-36.81c.122-.139.283-.245.47-.3l1.232-.362-2.155-.984-.858,1.12,1.311.527Z"/><path class="cls-4" d="m87.015,16.668l3.36-4.041-6.54-3.251,3.732-5.099,7.032,3.436-1.934,2.549-2.957-.924,2.55-.75.222-.839-4.286-1.958-2.143,2.797,8.202,3.299-2.324,2.734s3.396-3.621,7.312-1.441c0,0-2.143,4.803-6.577,2.808l.628,1.219-6.279-.54Z"/><ellipse class="cls-1" cx="99.665" cy="30.155" rx="8.791" ry="14.335"/><g class="cls-11"><path class="cls-8" d="m106.189,26.208c-.27,0-.515-.187-.576-.462-.998-4.452-3.444-7.561-5.948-7.561-.326,0-.591-.265-.591-.591s.265-.591.591-.591c3.11,0,5.964,3.41,7.102,8.485.072.319-.129.635-.447.706-.044.01-.087.014-.13.014Z"/></g><ellipse class="cls-1" cx="80.335" cy="30.155" rx="8.791" ry="14.335"/><ellipse class="cls-9" cx="90" cy="30.155" rx="8.791" ry="14.335"/><path class="cls-4" d="m90.375,14.426s-3.38-3.651-8.276.15c0,0,3.495,5.081,8.276-.15Z"/><polygon class="cls-5" points="87.835 31.73 91.856 31.73 89.846 28.579 87.835 31.73"/><polygon class="cls-3" points="89.846 29.256 91.424 31.73 91.856 31.73 89.846 28.579 87.835 31.73 88.267 31.73 89.846 29.256"/><ellipse class="cls-5" cx="85.092" cy="28.628" rx="2.669" ry="3.186"/><path class="cls-3" d="m85.092,26.596c1.309,0,2.395,1.125,2.623,2.609.029-.188.046-.38.046-.577,0-1.76-1.195-3.186-2.669-3.186s-2.669,1.427-2.669,3.186c0,.197.017.39.046.577.228-1.484,1.314-2.609,2.623-2.609Z"/><ellipse class="cls-5" cx="94.599" cy="28.628" rx="2.669" ry="3.186"/><path class="cls-3" d="m94.599,26.596c1.309,0,2.395,1.125,2.623,2.609.029-.188.046-.38.046-.577,0-1.76-1.195-3.186-2.669-3.186s-2.669,1.427-2.669,3.186c0,.197.017.39.046.577.228-1.484,1.314-2.609,2.623-2.609Z"/><path class="cls-5" d="m98.716,31.051s.347,1.677-1.877,2.907l-.109,2.039-1.87-1.286c-1.245.319-2.885.524-5.048.524-2.105,0-3.726-.206-4.976-.528l-1.876,1.29-.109-2.037c-2.446-1.308-2.186-3.153-2.186-3.153,0,0-1.022,6.01,4.078,8.412l1.931-1.649s.792,1.5,1.348,2.529c.556.063,1.149.098,1.79.098.667,0,1.284-.036,1.858-.101.556-1.029,1.346-2.526,1.346-2.526l1.918,1.638c4.947-2.364,3.783-8.157,3.783-8.157Z"/><path class="cls-3" d="m82.551,34.72l.114,2.126,1.958-1.347c1.305.336,2.997.551,5.194.551,2.258,0,3.969-.214,5.269-.547l1.952,1.342.114-2.129c.898-.497,1.392-1.063,1.663-1.571.077-1.214-.099-2.095-.099-2.095,0,0,.347,1.677-1.877,2.907l-.109,2.039-1.87-1.286c-1.245.319-2.885.524-5.048.524-2.105,0-3.726-.206-4.976-.528l-1.876,1.29-.109-2.037c-2.446-1.308-2.186-3.153-2.186-3.153,0,0-.149.884-.047,2.108.309.581.877,1.24,1.933,1.805Z"/><circle class="cls-6" cx="150" cy="30" r="22.404"/><circle class="cls-7" cx="150" cy="30" r="20.199"/><circle class="cls-2" cx="150" cy="30" r="17.593"/><circle class="cls-5" cx="150" cy="30" r="15.888"/><path class="cls-3" d="m159.665,45.489c-1.715,0-3.369-.678-4.832-1.97-1.464,1.292-3.118,1.97-4.833,1.97s-3.369-.678-4.833-1.97c-1.463,1.292-3.117,1.97-4.832,1.97-5.49,0-9.791-6.736-9.791-15.334s4.301-15.335,9.791-15.335c.271,0,.54.017.808.05-.119-.387.007-.823.343-1.084,1.658-1.287,3.352-1.939,5.033-1.939h.042l-3.171-1.576c-.264-.131-.456-.373-.526-.659-.069-.287-.01-.589.165-.827l3.731-5.099c.193-.265.496-.41.808-.41.147,0,.298.033.438.102l7.033,3.437c.269.131.464.376.533.667s.005.598-.176.836l-1.717,2.262.947.381c.298.12.52.374.597.685.448-.102.923-.162,1.419-.162,1.065,0,2.104.277,3.086.825.453.252.638.808.427,1.281-.025.058-.267.586-.737,1.236.082-.003.164-.005.247-.005,5.49,0,9.791,6.736,9.791,15.335s-4.301,15.334-9.791,15.334Zm-10.708-36.81c.122-.139.283-.245.47-.3l1.231-.362-2.154-.984-.858,1.12,1.312.527Z"/><path class="cls-4" d="m147.015,16.668l3.36-4.041-6.54-3.251,3.732-5.099,7.032,3.436-1.934,2.549-2.957-.924,2.55-.75.222-.839-4.286-1.958-2.143,2.797,8.202,3.299-2.324,2.734s3.396-3.621,7.312-1.441c0,0-2.143,4.803-6.577,2.808l.628,1.219-6.279-.54Z"/><ellipse class="cls-1" cx="159.665" cy="30.155" rx="8.791" ry="14.335"/><g class="cls-11"><path class="cls-8" d="m166.189,26.208c-.27,0-.515-.187-.576-.462-.998-4.452-3.444-7.561-5.948-7.561-.326,0-.591-.265-.591-.591s.265-.591.591-.591c3.11,0,5.964,3.41,7.102,8.485.072.319-.129.635-.447.706-.044.01-.087.014-.13.014Z"/></g><ellipse class="cls-1" cx="140.335" cy="30.155" rx="8.791" ry="14.335"/><ellipse class="cls-9" cx="150" cy="30.155" rx="8.791" ry="14.335"/><path class="cls-4" d="m150.375,14.426s-3.38-3.651-8.276.15c0,0,3.495,5.081,8.276-.15Z"/><polygon class="cls-5" points="147.835 31.73 151.856 31.73 149.846 28.579 147.835 31.73"/><polygon class="cls-3" points="149.846 29.256 151.424 31.73 151.856 31.73 149.846 28.579 147.835 31.73 148.267 31.73 149.846 29.256"/><ellipse class="cls-5" cx="145.092" cy="28.628" rx="2.669" ry="3.186"/><path class="cls-3" d="m145.092,26.596c1.309,0,2.395,1.125,2.623,2.609.029-.188.046-.38.046-.577,0-1.76-1.195-3.186-2.669-3.186s-2.669,1.427-2.669,3.186c0,.197.017.39.046.577.228-1.484,1.314-2.609,2.623-2.609Z"/><ellipse class="cls-5" cx="154.599" cy="28.628" rx="2.669" ry="3.186"/><path class="cls-3" d="m154.599,26.596c1.309,0,2.395,1.125,2.623,2.609.029-.188.046-.38.046-.577,0-1.76-1.195-3.186-2.669-3.186s-2.669,1.427-2.669,3.186c0,.197.017.39.046.577.228-1.484,1.314-2.609,2.623-2.609Z"/><path class="cls-5" d="m158.716,31.051s.347,1.677-1.877,2.907l-.109,2.039-1.87-1.286c-1.245.319-2.885.524-5.048.524-2.105,0-3.726-.206-4.976-.528l-1.876,1.29-.109-2.037c-2.446-1.308-2.186-3.153-2.186-3.153,0,0-1.022,6.01,4.078,8.412l1.931-1.649s.792,1.5,1.348,2.529c.556.063,1.149.098,1.79.098.667,0,1.284-.036,1.858-.101.556-1.029,1.346-2.526,1.346-2.526l1.918,1.638c4.947-2.364,3.783-8.157,3.783-8.157Z"/><path class="cls-3" d="m142.551,34.72l.114,2.126,1.958-1.347c1.305.336,2.997.551,5.194.551,2.258,0,3.969-.214,5.269-.547l1.952,1.342.114-2.129c.898-.497,1.392-1.063,1.663-1.571.077-1.214-.099-2.095-.099-2.095,0,0,.347,1.677-1.877,2.907l-.109,2.039-1.87-1.286c-1.245.319-2.885.524-5.048.524-2.105,0-3.726-.206-4.976-.528l-1.876,1.29-.109-2.037c-2.446-1.308-2.186-3.153-2.186-3.153,0,0-.149.884-.047,2.108.309.581.877,1.24,1.933,1.805Z"/><circle class="cls-6" cx="210" cy="30" r="25.723"/><circle class="cls-7" cx="210" cy="30" r="23.191"/><circle class="cls-2" cx="210" cy="30" r="20.199"/><circle class="cls-5" cx="210" cy="30" r="18.242"/><path class="cls-3" d="m219.665,45.489c-1.715,0-3.369-.678-4.832-1.97-1.464,1.292-3.118,1.97-4.833,1.97s-3.369-.678-4.833-1.97c-1.463,1.292-3.117,1.97-4.832,1.97-5.49,0-9.791-6.736-9.791-15.334s4.301-15.335,9.791-15.335c.271,0,.54.017.808.05-.119-.387.007-.823.343-1.084,1.658-1.287,3.352-1.939,5.033-1.939h.042l-3.171-1.576c-.264-.131-.456-.373-.526-.659-.069-.287-.01-.589.165-.827l3.731-5.099c.193-.265.496-.41.808-.41.147,0,.298.033.438.102l7.033,3.437c.269.131.464.376.533.667s.005.598-.176.836l-1.717,2.262.947.381c.298.12.52.374.597.685.448-.102.923-.162,1.419-.162,1.065,0,2.104.277,3.086.825.453.252.638.808.427,1.281-.025.058-.267.586-.737,1.236.082-.003.164-.005.247-.005,5.49,0,9.791,6.736,9.791,15.335s-4.301,15.334-9.791,15.334Zm-10.708-36.81c.122-.139.283-.245.47-.3l1.231-.362-2.154-.984-.858,1.12,1.312.527Z"/><path class="cls-4" d="m207.015,16.668l3.36-4.041-6.54-3.251,3.732-5.099,7.032,3.436-1.934,2.549-2.957-.924,2.55-.75.222-.839-4.286-1.958-2.143,2.797,8.202,3.299-2.324,2.734s3.396-3.621,7.312-1.441c0,0-2.143,4.803-6.577,2.808l.628,1.219-6.279-.54Z"/><ellipse class="cls-1" cx="219.665" cy="30.155" rx="8.791" ry="14.335"/><g class="cls-11"><path class="cls-8" d="m226.189,26.208c-.27,0-.515-.187-.576-.462-.998-4.452-3.444-7.561-5.948-7.561-.326,0-.591-.265-.591-.591s.265-.591.591-.591c3.11,0,5.964,3.41,7.102,8.485.072.319-.129.635-.447.706-.044.01-.087.014-.13.014Z"/></g><ellipse class="cls-1" cx="200.335" cy="30.155" rx="8.791" ry="14.335"/><ellipse class="cls-9" cx="210" cy="30.155" rx="8.791" ry="14.335"/><path class="cls-4" d="m210.375,14.426s-3.38-3.651-8.276.15c0,0,3.495,5.081,8.276-.15Z"/><polygon class="cls-5" points="207.835 31.73 211.856 31.73 209.846 28.579 207.835 31.73"/><polygon class="cls-3" points="209.846 29.256 211.424 31.73 211.856 31.73 209.846 28.579 207.835 31.73 208.267 31.73 209.846 29.256"/><ellipse class="cls-5" cx="205.092" cy="28.628" rx="2.669" ry="3.186"/><path class="cls-3" d="m205.092,26.596c1.309,0,2.395,1.125,2.623,2.609.029-.188.046-.38.046-.577,0-1.76-1.195-3.186-2.669-3.186s-2.669,1.427-2.669,3.186c0,.197.017.39.046.577.228-1.484,1.314-2.609,2.623-2.609Z"/><ellipse class="cls-5" cx="214.599" cy="28.628" rx="2.669" ry="3.186"/><path class="cls-3" d="m214.599,26.596c1.309,0,2.395,1.125,2.623,2.609.029-.188.046-.38.046-.577,0-1.76-1.195-3.186-2.669-3.186s-2.669,1.427-2.669,3.186c0,.197.017.39.046.577.228-1.484,1.314-2.609,2.623-2.609Z"/><path class="cls-5" d="m218.716,31.051s.347,1.677-1.877,2.907l-.109,2.039-1.87-1.286c-1.245.319-2.885.524-5.048.524-2.105,0-3.726-.206-4.976-.528l-1.876,1.29-.109-2.037c-2.446-1.308-2.186-3.153-2.186-3.153,0,0-1.022,6.01,4.078,8.412l1.931-1.649s.792,1.5,1.348,2.529c.556.063,1.149.098,1.79.098.667,0,1.284-.036,1.858-.101.556-1.029,1.346-2.526,1.346-2.526l1.918,1.638c4.947-2.364,3.783-8.157,3.783-8.157Z"/><path class="cls-3" d="m202.551,34.72l.114,2.126,1.958-1.347c1.305.336,2.997.551,5.194.551,2.258,0,3.969-.214,5.269-.547l1.952,1.342.114-2.129c.898-.497,1.392-1.063,1.663-1.571.077-1.214-.099-2.095-.099-2.095,0,0,.347,1.677-1.877,2.907l-.109,2.039-1.87-1.286c-1.245.319-2.885.524-5.048.524-2.105,0-3.726-.206-4.976-.528l-1.876,1.29-.109-2.037c-2.446-1.308-2.186-3.153-2.186-3.153,0,0-.149.884-.047,2.108.309.581.877,1.24,1.933,1.805Z"/></g></g></svg>