<?xml version="1.0" encoding="UTF-8"?><svg id="Layer_1" xmlns="http://www.w3.org/2000/svg" width="240" height="60"><defs><style>.cls-1{fill:#5a205e;}.cls-1,.cls-2{stroke-width:0px;}.cls-2{fill:gold;}</style></defs><path class="cls-1" d="m10.537,41.689c-1.36,0-2.569-.504-3.497-1.457-.913-.935-1.396-2.139-1.396-3.479v-.468h-.51c-1.37,0-2.578-.51-3.493-1.474-.888-.935-1.357-2.117-1.357-3.419,0-1.34.476-2.537,1.376-3.46.912-.938,2.113-1.434,3.474-1.434h.51v-.51c0-1.35.489-2.552,1.416-3.478.927-.926,2.129-1.415,3.478-1.415,1.311,0,2.5.482,3.438,1.396.952.928,1.456,2.137,1.456,3.496v.51h.467c1.339,0,2.543.483,3.481,1.398.951.928,1.454,2.136,1.454,3.495,0,1.32-.497,2.516-1.436,3.456-.941.94-2.151,1.437-3.5,1.437h-.467v.468c0,1.351-.497,2.561-1.438,3.499-.937.939-2.133,1.437-3.455,1.437Z"/><path class="cls-1" d="m24.618,46.156c-1.333,0-2.52-.496-3.433-1.436-.899-.922-1.375-2.088-1.375-3.372,0-1.311.476-2.492,1.375-3.417.915-.938,2.101-1.434,3.433-1.434h.936v-5.716c-.534.206-1.113.313-1.723.313-1.308,0-2.496-.497-3.435-1.437-.927-.88-1.437-2.058-1.437-3.371,0-1.292.496-2.473,1.435-3.413l6.548-6.591c.038-.037.077-.073.117-.108.952-.815,2.093-1.247,3.301-1.247s2.351.432,3.302,1.248c.039.032.075.066.111.103.591.59.995,1.279,1.2,2.047.158.597.238,1.199.238,1.793v16.379h.893c1.321,0,2.509.489,3.435,1.415.926.927,1.416,2.114,1.416,3.436,0,1.294-.49,2.467-1.416,3.393-.923.925-2.112,1.415-3.434,1.415h-11.487Z"/><path class="cls-1" d="m49.166,46.156c-1.465,0-2.859-.286-4.143-.85-1.25-.547-2.369-1.299-3.321-2.233-.965-.946-1.728-2.073-2.269-3.348-.542-1.276-.818-2.663-.818-4.12v-10.083c0-1.458.276-2.845.819-4.123.538-1.266,1.296-2.395,2.255-3.354.957-.958,2.086-1.717,3.355-2.257,1.282-.543,2.668-.818,4.122-.818s2.838.275,4.12.817c1.277.543,2.403,1.307,3.349,2.271.932.95,1.684,2.067,2.233,3.32.563,1.286.849,2.68.849,4.144v10.083c0,1.463-.286,2.856-.849,4.142-.553,1.261-1.309,2.375-2.247,3.313-.941.94-2.056,1.696-3.313,2.247-1.284.563-2.678.849-4.142.849Zm0-21.569c-.337,0-.511.105-.669.265-.16.159-.266.334-.266.671v10.083c0,.336.105.51.264.668.161.161.335.267.672.267.326,0,.483-.094.63-.245.159-.163.263-.341.263-.689v-10.083c0-.349-.104-.527-.262-.688-.148-.152-.306-.247-.631-.247Z"/><path class="cls-2" d="m17.982,29.33c.567.553.851,1.241.851,2.063,0,.794-.284,1.475-.851,2.042-.568.567-1.263.851-2.085.851h-2.467v2.468c0,.822-.284,1.518-.851,2.084-.567.568-1.248.852-2.042.852-.823,0-1.51-.283-2.063-.852-.553-.566-.83-1.262-.83-2.084v-2.468h-2.51c-.823,0-1.504-.283-2.042-.851-.539-.567-.808-1.248-.808-2.042,0-.822.269-1.511.808-2.063.539-.554,1.219-.83,2.042-.83h2.51v-2.51c0-.822.277-1.511.83-2.063.553-.553,1.241-.829,2.063-.829.794,0,1.475.276,2.042.829s.851,1.241.851,2.063v2.51h2.467c.822,0,1.517.276,2.085.83Z"/><path class="cls-2" d="m32.361,17.694c.34.34.567.723.681,1.148.113.426.17.851.17,1.276v18.379h2.893c.793,0,1.468.276,2.021.829.553.554.83,1.228.83,2.021,0,.766-.276,1.425-.83,1.978-.553.554-1.227.83-2.021.83h-11.487c-.794,0-1.461-.276-2-.83-.539-.553-.809-1.212-.809-1.978,0-.794.27-1.468.809-2.021.539-.553,1.205-.829,2-.829h2.936v-11.997l-1.744,1.744c-.54.567-1.199.851-1.979.851s-1.454-.283-2.021-.851c-.567-.539-.851-1.191-.851-1.957s.283-1.432.851-2l6.552-6.594c.596-.511,1.262-.766,2-.766s1.404.255,2,.766Z"/><path class="cls-2" d="m49.166,16.971c1.191,0,2.304.221,3.34.659,1.035.44,1.936,1.05,2.702,1.83.766.78,1.375,1.688,1.829,2.723.454,1.035.681,2.148.681,3.34v10.083c0,1.19-.227,2.304-.681,3.339-.454,1.036-1.063,1.937-1.829,2.702-.766.766-1.667,1.376-2.702,1.829-1.036.454-2.148.681-3.34.681s-2.305-.227-3.339-.681c-1.036-.453-1.943-1.063-2.723-1.829-.78-.766-1.39-1.666-1.829-2.702-.44-1.035-.66-2.148-.66-3.339v-10.083c0-1.191.219-2.305.66-3.34.439-1.035,1.049-1.942,1.829-2.723.78-.78,1.687-1.39,2.723-1.83,1.035-.438,2.148-.659,3.339-.659Zm2.893,8.552c0-.822-.276-1.518-.83-2.085s-1.241-.851-2.063-.851-1.518.283-2.084.851c-.568.567-.851,1.263-.851,2.085v10.083c0,.822.283,1.518.851,2.084.567.568,1.262.851,2.084.851s1.51-.282,2.063-.851c.553-.566.83-1.262.83-2.084v-10.083Z"/></svg>