<?xml version="1.0" encoding="UTF-8"?><svg id="Layer_1" xmlns="http://www.w3.org/2000/svg" width="240" height="60"><defs><style>.cls-1{fill:#f68b1f;}.cls-1,.cls-2,.cls-3{stroke-width:0px;}.cls-2{fill:gold;}.cls-3{fill:#fff;}</style></defs><circle class="cls-3" cx="30" cy="30" r="5.128"/><rect class="cls-3" x="84.872" y="2.66" width="10.255" height="32.468" rx="5.128" ry="5.128"/><rect class="cls-3" x="95.979" y="13.766" width="10.255" height="32.468" rx="5.128" ry="5.128" transform="translate(131.106 -71.106) rotate(90)"/><rect class="cls-3" x="73.766" y="13.766" width="10.255" height="32.468" rx="5.128" ry="5.128" transform="translate(108.894 -48.894) rotate(90)"/><rect class="cls-3" x="84.872" y="24.872" width="10.255" height="32.468" rx="5.128" ry="5.128" transform="translate(180 82.212) rotate(-180)"/><rect class="cls-3" x="77.211" y="5.992" width="10.255" height="32.468" rx="5.128" ry="5.128" transform="translate(8.4 64.732) rotate(-45)"/><rect class="cls-3" x="92.917" y="5.992" width="10.255" height="32.468" rx="5.128" ry="5.128" transform="translate(44.433 -62.818) rotate(45)"/><rect class="cls-3" x="77.211" y="21.699" width="10.255" height="32.468" rx="5.128" ry="5.128" transform="translate(50.939 -47.112) rotate(45)"/><rect class="cls-3" x="92.917" y="21.699" width="10.255" height="32.468" rx="5.128" ry="5.128" transform="translate(194.195 -4.573) rotate(135)"/><rect class="cls-3" x="144.872" y="2.66" width="10.255" height="16.234" rx="5.128" ry="5.128"/><rect class="cls-3" x="131.28" y="8.29" width="10.255" height="16.234" rx="5.128" ry="5.128" transform="translate(28.351 101.26) rotate(-45)"/><rect class="cls-3" x="125.649" y="21.883" width="10.255" height="16.234" rx="5.128" ry="5.128" transform="translate(100.777 160.777) rotate(-90)"/><rect class="cls-3" x="131.28" y="35.476" width="10.255" height="16.234" rx="5.128" ry="5.128" transform="translate(202.037 170.872) rotate(-135)"/><rect class="cls-3" x="144.872" y="41.106" width="10.255" height="16.234" rx="5.128" ry="5.128" transform="translate(300 98.446) rotate(180)"/><rect class="cls-3" x="158.465" y="35.476" width="10.255" height="16.234" rx="5.128" ry="5.128" transform="translate(310.095 -41.26) rotate(135)"/><rect class="cls-3" x="164.095" y="21.883" width="10.255" height="16.234" rx="5.128" ry="5.128" transform="translate(199.223 -139.223) rotate(90)"/><rect class="cls-3" x="158.465" y="8.29" width="10.255" height="16.234" rx="5.128" ry="5.128" transform="translate(59.517 -110.872) rotate(45)"/><rect class="cls-3" x="204.872" y="2.66" width="10.255" height="10.255" rx="5.128" ry="5.128"/><rect class="cls-3" x="189.166" y="9.166" width="10.255" height="10.255" rx="5.128" ry="5.128" transform="translate(46.8 141.573) rotate(-45)"/><rect class="cls-3" x="182.66" y="24.872" width="10.255" height="10.255" rx="5.128" ry="5.128" transform="translate(157.788 217.788) rotate(-90)"/><rect class="cls-3" x="189.166" y="40.579" width="10.255" height="10.255" rx="5.128" ry="5.128" transform="translate(299.36 215.412) rotate(-135)"/><rect class="cls-3" x="204.872" y="47.085" width="10.255" height="10.255" rx="5.128" ry="5.128" transform="translate(420 104.425) rotate(180)"/><rect class="cls-3" x="220.579" y="40.579" width="10.255" height="10.255" rx="5.128" ry="5.128" transform="translate(417.624 -81.573) rotate(135)"/><rect class="cls-3" x="227.085" y="24.872" width="10.255" height="10.255" rx="5.128" ry="5.128" transform="translate(262.212 -202.212) rotate(90)"/><rect class="cls-3" x="220.579" y="9.166" width="10.255" height="10.255" rx="5.128" ry="5.128" transform="translate(76.215 -155.412) rotate(45)"/><circle class="cls-1" cx="30" cy="30" r="3.128"/><path class="cls-1" d="m90,33.128c-1.725,0-3.127-1.403-3.127-3.128V7.788c0-1.725,1.403-3.128,3.127-3.128s3.127,1.403,3.127,3.128v22.212c0,1.725-1.403,3.128-3.127,3.128Z"/><path class="cls-1" d="m90,33.128c-1.725,0-3.127-1.403-3.127-3.128s1.403-3.128,3.127-3.128h22.212c1.725,0,3.127,1.403,3.127,3.128s-1.403,3.128-3.127,3.128h-22.212Z"/><path class="cls-1" d="m67.788,33.128c-1.725,0-3.127-1.403-3.127-3.128s1.403-3.128,3.127-3.128h22.212c1.725,0,3.127,1.403,3.127,3.128s-1.403,3.128-3.127,3.128h-22.212Z"/><path class="cls-1" d="m90,55.34c-1.725,0-3.127-1.403-3.127-3.128v-22.212c0-1.725,1.403-3.128,3.127-3.128s3.127,1.403,3.127,3.128v22.212c0,1.725-1.403,3.128-3.127,3.128Z"/><path class="cls-1" d="m90.191,33.207c-.835,0-1.621-.325-2.211-.916l-15.707-15.706c-.59-.591-.916-1.377-.916-2.212s.325-1.621.916-2.212,1.376-.916,2.212-.916,1.621.325,2.211.916l15.707,15.706c.59.591.916,1.377.916,2.212s-.325,1.621-.916,2.212-1.376.916-2.212.916Z"/><path class="cls-1" d="m90.191,33.207c-.835,0-1.621-.325-2.212-.916-1.219-1.22-1.219-3.204,0-4.424l15.706-15.706c.591-.591,1.376-.916,2.212-.916s1.621.325,2.211.916c.591.591.917,1.376.917,2.212s-.326,1.621-.917,2.212l-15.706,15.706c-.591.591-1.376.916-2.212.916Z"/><path class="cls-1" d="m74.485,48.913c-.835,0-1.621-.325-2.211-.916-.591-.591-.917-1.376-.917-2.211s.326-1.621.917-2.211l15.706-15.708c.591-.59,1.376-.916,2.212-.916s1.621.326,2.212.916c1.219,1.22,1.219,3.204,0,4.424l-15.706,15.706c-.591.591-1.376.916-2.211.916Z"/><path class="cls-1" d="m105.898,48.913c-.835,0-1.621-.325-2.211-.916l-15.707-15.706c-1.219-1.22-1.219-3.204,0-4.424.59-.59,1.376-.916,2.211-.916s1.621.326,2.212.916l15.707,15.707c.591.591.916,1.376.916,2.212s-.325,1.62-.916,2.211-1.376.916-2.212.916Z"/><path class="cls-1" d="m150,16.894c-1.725,0-3.128-1.402-3.128-3.127v-5.979c0-1.725,1.403-3.128,3.128-3.128s3.128,1.403,3.128,3.128v5.979c0,1.725-1.403,3.127-3.128,3.127Z"/><path class="cls-1" d="m138.521,21.648c-.836,0-1.621-.325-2.211-.916l-4.229-4.228c-.591-.591-.916-1.376-.916-2.212s.325-1.62.916-2.21c.591-.592,1.376-.917,2.211-.917s1.621.325,2.211.916l4.229,4.228c.591.591.916,1.376.916,2.212s-.325,1.62-.916,2.21c-.591.592-1.376.917-2.211.917Z"/><path class="cls-1" d="m127.788,33.128c-1.725,0-3.128-1.403-3.128-3.128s1.403-3.128,3.128-3.128h5.979c1.725,0,3.127,1.403,3.127,3.128s-1.402,3.128-3.127,3.128h-5.979Z"/><path class="cls-1" d="m134.293,48.834c-.835,0-1.62-.325-2.21-.916-.592-.591-.917-1.376-.917-2.211s.325-1.621.916-2.211l4.228-4.229c.591-.591,1.376-.916,2.212-.916s1.62.325,2.21.916c.592.591.917,1.376.917,2.211s-.325,1.621-.916,2.211l-4.228,4.229c-.591.591-1.376.916-2.212.916Z"/><path class="cls-1" d="m150,55.34c-1.725,0-3.128-1.403-3.128-3.128v-5.979c0-1.725,1.403-3.127,3.128-3.127s3.128,1.402,3.128,3.127v5.979c0,1.725-1.403,3.128-3.128,3.128Z"/><path class="cls-1" d="m165.707,48.834c-.836,0-1.621-.325-2.211-.916l-4.229-4.228c-.591-.591-.916-1.376-.916-2.212s.325-1.62.916-2.21c.591-.592,1.376-.917,2.211-.917s1.621.325,2.211.916l4.229,4.228c.591.591.916,1.376.916,2.212s-.325,1.62-.916,2.21c-.591.592-1.376.917-2.211.917Z"/><path class="cls-1" d="m166.233,33.128c-1.725,0-3.127-1.403-3.127-3.128s1.402-3.128,3.127-3.128h5.979c1.725,0,3.128,1.403,3.128,3.128s-1.403,3.128-3.128,3.128h-5.979Z"/><path class="cls-1" d="m161.479,21.648c-.835,0-1.62-.325-2.21-.916-.592-.591-.917-1.376-.917-2.211s.325-1.621.916-2.211l4.228-4.229c.591-.591,1.376-.916,2.212-.916s1.62.325,2.21.916c.592.591.917,1.376.917,2.211s-.325,1.621-.916,2.211l-4.228,4.229c-.591.591-1.376.916-2.212.916Z"/><path class="cls-1" d="m210,10.915c-1.725,0-3.128-1.402-3.128-3.127s1.403-3.128,3.128-3.128,3.128,1.403,3.128,3.128-1.403,3.127-3.128,3.127Z"/><path class="cls-1" d="m194.294,17.421c-.836,0-1.621-.325-2.211-.916-.592-.591-.917-1.376-.917-2.211s.325-1.621.916-2.211c.591-.592,1.376-.917,2.212-.917s1.62.325,2.21.916c.592.591.917,1.376.917,2.212s-.325,1.62-.916,2.21c-.591.592-1.376.917-2.211.917Z"/><path class="cls-1" d="m187.788,33.128c-1.725,0-3.128-1.403-3.128-3.128s1.403-3.128,3.128-3.128,3.127,1.403,3.127,3.128-1.402,3.128-3.127,3.128Z"/><path class="cls-1" d="m194.294,48.834c-.836,0-1.621-.325-2.211-.916-.592-.591-.917-1.376-.917-2.212s.325-1.62.916-2.21c.591-.592,1.376-.917,2.212-.917s1.62.325,2.21.916c.592.591.917,1.376.917,2.211s-.325,1.621-.916,2.211c-.591.592-1.376.917-2.211.917Z"/><path class="cls-1" d="m210,55.34c-1.725,0-3.128-1.403-3.128-3.128s1.403-3.127,3.128-3.127,3.128,1.402,3.128,3.127-1.403,3.128-3.128,3.128Z"/><path class="cls-1" d="m225.706,48.834c-.835,0-1.62-.325-2.21-.916-.592-.591-.917-1.376-.917-2.212s.325-1.62.916-2.21c.591-.592,1.376-.917,2.211-.917s1.621.325,2.211.916c.592.591.917,1.376.917,2.211s-.325,1.621-.916,2.211c-.591.592-1.376.917-2.212.917Z"/><path class="cls-1" d="m232.212,33.128c-1.725,0-3.127-1.403-3.127-3.128s1.402-3.128,3.127-3.128,3.128,1.403,3.128,3.128-1.403,3.128-3.128,3.128Z"/><path class="cls-1" d="m225.706,17.421c-.835,0-1.62-.325-2.21-.916-.592-.591-.917-1.376-.917-2.211s.325-1.621.916-2.211c.591-.592,1.376-.917,2.211-.917s1.621.325,2.211.916c.592.591.917,1.376.917,2.212s-.325,1.62-.916,2.21c-.591.592-1.376.917-2.212.917Z"/><circle class="cls-2" cx="30" cy="30" r="2.128"/><path class="cls-2" d="m90,32.128c-1.173,0-2.127-.954-2.127-2.128V7.788c0-1.174.955-2.128,2.127-2.128s2.127.954,2.127,2.128v22.212c0,1.174-.955,2.128-2.127,2.128Z"/><path class="cls-2" d="m90,32.128c-1.173,0-2.127-.954-2.127-2.128s.955-2.128,2.127-2.128h22.212c1.173,0,2.127.954,2.127,2.128s-.955,2.128-2.127,2.128h-22.212Z"/><path class="cls-2" d="m67.788,32.128c-1.173,0-2.127-.954-2.127-2.128s.955-2.128,2.127-2.128h22.212c1.173,0,2.127.954,2.127,2.128s-.955,2.128-2.127,2.128h-22.212Z"/><path class="cls-2" d="m90,54.34c-1.173,0-2.127-.954-2.127-2.128v-22.212c0-1.174.955-2.128,2.127-2.128s2.127.954,2.127,2.128v22.212c0,1.174-.955,2.128-2.127,2.128Z"/><path class="cls-2" d="m90.191,32.207c-.568,0-1.102-.221-1.504-.623l-15.707-15.706c-.401-.402-.623-.937-.623-1.505s.221-1.103.623-1.504c.402-.403.937-.624,1.505-.624s1.102.221,1.504.623l15.707,15.706c.401.402.623.937.623,1.505s-.221,1.103-.623,1.505c-.402.402-.937.623-1.505.623Z"/><path class="cls-2" d="m90.191,32.207c-.568,0-1.103-.221-1.505-.623-.829-.83-.829-2.18,0-3.01l15.706-15.706c.402-.402.937-.623,1.505-.623s1.103.221,1.504.623c.402.402.624.937.624,1.505s-.222,1.103-.624,1.505l-15.706,15.706c-.402.402-.937.623-1.505.623Z"/><path class="cls-2" d="m74.485,47.913c-.568,0-1.103-.221-1.504-.623-.402-.402-.624-.937-.624-1.504s.222-1.103.623-1.504l15.707-15.708c.401-.401.936-.623,1.504-.623s1.103.222,1.505.623c.829.83.829,2.18,0,3.01l-15.706,15.706c-.402.402-.937.623-1.504.623Z"/><path class="cls-2" d="m105.898,47.913c-.568,0-1.103-.221-1.504-.623l-15.707-15.706c-.829-.83-.829-2.18,0-3.01.401-.401.936-.623,1.504-.623s1.103.222,1.505.623l15.706,15.707c.402.402.624.937.624,1.505s-.221,1.102-.623,1.504c-.402.402-.937.623-1.505.623Z"/><path class="cls-2" d="m150,15.894c-1.174,0-2.128-.954-2.128-2.127v-5.979c0-1.174.954-2.128,2.128-2.128s2.128.954,2.128,2.128v5.979c0,1.173-.954,2.127-2.128,2.127Z"/><path class="cls-2" d="m138.521,20.648c-.568,0-1.103-.221-1.504-.623l-4.229-4.228c-.402-.402-.623-.937-.623-1.505s.221-1.102.623-1.503c.402-.403.937-.624,1.504-.624s1.103.221,1.504.623l4.229,4.228c.402.402.623.937.623,1.505s-.221,1.102-.623,1.503c-.402.403-.937.624-1.504.624Z"/><path class="cls-2" d="m127.788,32.128c-1.174,0-2.128-.954-2.128-2.128s.954-2.128,2.128-2.128h5.979c1.173,0,2.127.954,2.127,2.128s-.954,2.128-2.127,2.128h-5.979Z"/><path class="cls-2" d="m134.293,47.834c-.567,0-1.102-.221-1.503-.623-.403-.402-.624-.937-.624-1.504s.221-1.103.623-1.504l4.228-4.229c.402-.402.937-.623,1.505-.623s1.102.221,1.503.623c.403.402.624.937.624,1.504s-.221,1.103-.623,1.504l-4.228,4.229c-.402.402-.937.623-1.505.623Z"/><path class="cls-2" d="m150,54.34c-1.174,0-2.128-.954-2.128-2.128v-5.979c0-1.173.954-2.127,2.128-2.127s2.128.954,2.128,2.127v5.979c0,1.174-.954,2.128-2.128,2.128Z"/><path class="cls-2" d="m165.707,47.834c-.568,0-1.103-.221-1.504-.623l-4.229-4.228c-.402-.402-.623-.937-.623-1.505s.221-1.102.623-1.503c.402-.403.937-.624,1.504-.624s1.103.221,1.504.623l4.229,4.228c.402.402.623.937.623,1.505s-.221,1.102-.623,1.503c-.402.403-.937.624-1.504.624Z"/><path class="cls-2" d="m166.233,32.128c-1.173,0-2.127-.954-2.127-2.128s.954-2.128,2.127-2.128h5.979c1.174,0,2.128.954,2.128,2.128s-.954,2.128-2.128,2.128h-5.979Z"/><path class="cls-2" d="m161.479,20.648c-.567,0-1.102-.221-1.503-.623-.403-.402-.624-.937-.624-1.504s.221-1.103.623-1.504l4.228-4.229c.402-.402.937-.623,1.505-.623s1.102.221,1.503.623c.403.402.624.937.624,1.504s-.221,1.103-.623,1.504l-4.228,4.229c-.402.402-.937.623-1.505.623Z"/><path class="cls-2" d="m210,9.915c-1.174,0-2.128-.954-2.128-2.127s.954-2.128,2.128-2.128,2.128.955,2.128,2.128-.954,2.127-2.128,2.127Z"/><path class="cls-2" d="m194.294,16.421c-.568,0-1.103-.221-1.504-.623-.403-.402-.624-.937-.624-1.504s.221-1.103.623-1.504c.402-.403.937-.624,1.505-.624s1.102.221,1.503.623c.403.402.624.937.624,1.505s-.221,1.102-.623,1.503c-.402.403-.937.624-1.504.624Z"/><path class="cls-2" d="m187.788,32.128c-1.173,0-2.128-.954-2.128-2.128s.955-2.128,2.128-2.128,2.127.954,2.127,2.128-.954,2.128-2.127,2.128Z"/><path class="cls-2" d="m194.294,47.834c-.568,0-1.103-.221-1.504-.623-.403-.402-.624-.937-.624-1.505s.221-1.102.623-1.503c.402-.403.937-.624,1.505-.624s1.102.221,1.503.623c.403.402.624.937.624,1.504s-.221,1.103-.623,1.504c-.402.403-.937.624-1.504.624Z"/><path class="cls-2" d="m210,54.34c-1.174,0-2.128-.955-2.128-2.128s.954-2.127,2.128-2.127,2.128.954,2.128,2.127-.954,2.128-2.128,2.128Z"/><path class="cls-2" d="m225.706,47.834c-.567,0-1.102-.221-1.503-.623-.403-.402-.624-.937-.624-1.505s.221-1.102.623-1.503c.402-.403.937-.624,1.504-.624s1.103.221,1.504.623c.403.402.624.937.624,1.504s-.221,1.103-.623,1.504c-.402.403-.937.624-1.505.624Z"/><path class="cls-2" d="m232.212,32.128c-1.173,0-2.127-.954-2.127-2.128s.954-2.128,2.127-2.128,2.128.954,2.128,2.128-.955,2.128-2.128,2.128Z"/><path class="cls-2" d="m225.706,16.421c-.567,0-1.102-.221-1.503-.623-.403-.402-.624-.937-.624-1.504s.221-1.103.623-1.504c.402-.403.937-.624,1.504-.624s1.103.221,1.504.623c.403.402.624.937.624,1.505s-.221,1.102-.623,1.503c-.402.403-.937.624-1.505.624Z"/></svg>