<?xml version="1.0" encoding="UTF-8"?><svg id="Layer_1" xmlns="http://www.w3.org/2000/svg" xmlns:xlink="http://www.w3.org/1999/xlink" viewBox="0 0 908.543 448.785"><defs><style>.cls-1{fill:#e47d25;}.cls-1,.cls-2,.cls-3{stroke-width:0px;}.cls-2{fill:none;}.cls-4{clip-path:url(#clippath);}.cls-3{fill:#b76328;}</style><clipPath id="clippath"><rect class="cls-2" x="71.966" y="149.221" width="764.612" height="299.565" rx="8.189" ry="8.189"/></clipPath></defs><rect class="cls-3" x="71.966" y="149.221" width="764.612" height="299.565" rx="8.189" ry="8.189"/><g class="cls-4"><rect class="cls-1" x="76.546" y="153.747" width="40.86" height="18.387" rx="3.087" ry="3.087"/><rect class="cls-1" x="119.903" y="153.747" width="40.86" height="18.387" rx="3.087" ry="3.087"/><rect class="cls-1" x="163.259" y="153.747" width="40.86" height="18.387" rx="3.087" ry="3.087"/><rect class="cls-1" x="206.616" y="153.747" width="40.86" height="18.387" rx="3.087" ry="3.087"/><rect class="cls-1" x="249.973" y="153.747" width="40.86" height="18.387" rx="3.087" ry="3.087"/><rect class="cls-1" x="293.33" y="153.747" width="40.86" height="18.387" rx="3.087" ry="3.087"/><rect class="cls-1" x="336.686" y="153.747" width="40.86" height="18.387" rx="3.087" ry="3.087"/><rect class="cls-1" x="380.043" y="153.747" width="40.86" height="18.387" rx="3.087" ry="3.087"/><rect class="cls-1" x="423.4" y="153.747" width="40.86" height="18.387" rx="3.087" ry="3.087"/><rect class="cls-1" x="466.914" y="153.747" width="40.86" height="18.387" rx="3.087" ry="3.087"/><rect class="cls-1" x="510.27" y="153.747" width="40.86" height="18.387" rx="3.087" ry="3.087"/><rect class="cls-1" x="553.627" y="153.747" width="40.86" height="18.387" rx="3.087" ry="3.087"/><rect class="cls-1" x="596.984" y="153.747" width="40.86" height="18.387" rx="3.087" ry="3.087"/><rect class="cls-1" x="640.341" y="153.747" width="40.86" height="18.387" rx="3.087" ry="3.087"/><rect class="cls-1" x="683.697" y="153.747" width="40.86" height="18.387" rx="3.087" ry="3.087"/><rect class="cls-1" x="727.054" y="153.747" width="40.86" height="18.387" rx="3.087" ry="3.087"/><rect class="cls-1" x="770.411" y="153.747" width="40.86" height="18.387" rx="3.087" ry="3.087"/><rect class="cls-1" x="813.768" y="153.747" width="40.86" height="18.387" rx="3.087" ry="3.087"/><rect class="cls-1" x="53.916" y="174.491" width="40.86" height="18.387" rx="3.087" ry="3.087"/><rect class="cls-1" x="97.273" y="174.491" width="40.86" height="18.387" rx="3.087" ry="3.087"/><rect class="cls-1" x="140.629" y="174.491" width="40.86" height="18.387" rx="3.087" ry="3.087"/><rect class="cls-1" x="183.986" y="174.491" width="40.86" height="18.387" rx="3.087" ry="3.087"/><rect class="cls-1" x="227.343" y="174.491" width="40.86" height="18.387" rx="3.087" ry="3.087"/><rect class="cls-1" x="270.7" y="174.491" width="40.86" height="18.387" rx="3.087" ry="3.087"/><rect class="cls-1" x="314.056" y="174.491" width="40.86" height="18.387" rx="3.087" ry="3.087"/><rect class="cls-1" x="357.413" y="174.491" width="40.86" height="18.387" rx="3.087" ry="3.087"/><rect class="cls-1" x="400.77" y="174.491" width="40.86" height="18.387" rx="3.087" ry="3.087"/><rect class="cls-1" x="444.284" y="174.491" width="40.86" height="18.387" rx="3.087" ry="3.087"/><rect class="cls-1" x="487.64" y="174.491" width="40.86" height="18.387" rx="3.087" ry="3.087"/><rect class="cls-1" x="530.997" y="174.491" width="40.86" height="18.387" rx="3.087" ry="3.087"/><rect class="cls-1" x="574.354" y="174.491" width="40.86" height="18.387" rx="3.087" ry="3.087"/><rect class="cls-1" x="617.711" y="174.491" width="40.86" height="18.387" rx="3.087" ry="3.087"/><rect class="cls-1" x="661.067" y="174.491" width="40.86" height="18.387" rx="3.087" ry="3.087"/><rect class="cls-1" x="704.424" y="174.491" width="40.86" height="18.387" rx="3.087" ry="3.087"/><rect class="cls-1" x="747.781" y="174.491" width="40.86" height="18.387" rx="3.087" ry="3.087"/><rect class="cls-1" x="791.138" y="174.491" width="40.86" height="18.387" rx="3.087" ry="3.087"/><rect class="cls-1" x="76.546" y="195.612" width="40.86" height="18.387" rx="3.087" ry="3.087"/><rect class="cls-1" x="119.903" y="195.612" width="40.86" height="18.387" rx="3.087" ry="3.087"/><rect class="cls-1" x="163.259" y="195.612" width="40.86" height="18.387" rx="3.087" ry="3.087"/><rect class="cls-1" x="206.616" y="195.612" width="40.86" height="18.387" rx="3.087" ry="3.087"/><rect class="cls-1" x="249.973" y="195.612" width="40.86" height="18.387" rx="3.087" ry="3.087"/><rect class="cls-1" x="293.33" y="195.612" width="40.86" height="18.387" rx="3.087" ry="3.087"/><rect class="cls-1" x="336.686" y="195.612" width="40.86" height="18.387" rx="3.087" ry="3.087"/><rect class="cls-1" x="380.043" y="195.612" width="40.86" height="18.387" rx="3.087" ry="3.087"/><rect class="cls-1" x="423.4" y="195.612" width="40.86" height="18.387" rx="3.087" ry="3.087"/><rect class="cls-1" x="466.914" y="195.612" width="40.86" height="18.387" rx="3.087" ry="3.087"/><rect class="cls-1" x="510.27" y="195.612" width="40.86" height="18.387" rx="3.087" ry="3.087"/><rect class="cls-1" x="553.627" y="195.612" width="40.86" height="18.387" rx="3.087" ry="3.087"/><rect class="cls-1" x="596.984" y="195.612" width="40.86" height="18.387" rx="3.087" ry="3.087"/><rect class="cls-1" x="640.341" y="195.612" width="40.86" height="18.387" rx="3.087" ry="3.087"/><rect class="cls-1" x="683.697" y="195.612" width="40.86" height="18.387" rx="3.087" ry="3.087"/><rect class="cls-1" x="727.054" y="195.612" width="40.86" height="18.387" rx="3.087" ry="3.087"/><rect class="cls-1" x="770.411" y="195.612" width="40.86" height="18.387" rx="3.087" ry="3.087"/><rect class="cls-1" x="813.768" y="195.612" width="40.86" height="18.387" rx="3.087" ry="3.087"/><rect class="cls-1" x="53.916" y="216.356" width="40.86" height="18.387" rx="3.087" ry="3.087"/><rect class="cls-1" x="97.273" y="216.356" width="40.86" height="18.387" rx="3.087" ry="3.087"/><rect class="cls-1" x="140.629" y="216.356" width="40.86" height="18.387" rx="3.087" ry="3.087"/><rect class="cls-1" x="183.986" y="216.356" width="40.86" height="18.387" rx="3.087" ry="3.087"/><rect class="cls-1" x="227.343" y="216.356" width="40.86" height="18.387" rx="3.087" ry="3.087"/><rect class="cls-1" x="270.7" y="216.356" width="40.86" height="18.387" rx="3.087" ry="3.087"/><rect class="cls-1" x="314.056" y="216.356" width="40.86" height="18.387" rx="3.087" ry="3.087"/><rect class="cls-1" x="357.413" y="216.356" width="40.86" height="18.387" rx="3.087" ry="3.087"/><rect class="cls-1" x="400.77" y="216.356" width="40.86" height="18.387" rx="3.087" ry="3.087"/><rect class="cls-1" x="444.284" y="216.356" width="40.86" height="18.387" rx="3.087" ry="3.087"/><rect class="cls-1" x="487.64" y="216.356" width="40.86" height="18.387" rx="3.087" ry="3.087"/><rect class="cls-1" x="530.997" y="216.356" width="40.86" height="18.387" rx="3.087" ry="3.087"/><rect class="cls-1" x="574.354" y="216.356" width="40.86" height="18.387" rx="3.087" ry="3.087"/><rect class="cls-1" x="617.711" y="216.356" width="40.86" height="18.387" rx="3.087" ry="3.087"/><rect class="cls-1" x="661.067" y="216.356" width="40.86" height="18.387" rx="3.087" ry="3.087"/><rect class="cls-1" x="704.424" y="216.356" width="40.86" height="18.387" rx="3.087" ry="3.087"/><rect class="cls-1" x="747.781" y="216.356" width="40.86" height="18.387" rx="3.087" ry="3.087"/><rect class="cls-1" x="791.138" y="216.356" width="40.86" height="18.387" rx="3.087" ry="3.087"/><rect class="cls-1" x="76.546" y="237.478" width="40.86" height="18.387" rx="3.087" ry="3.087"/><rect class="cls-1" x="119.903" y="237.478" width="40.86" height="18.387" rx="3.087" ry="3.087"/><rect class="cls-1" x="163.259" y="237.478" width="40.86" height="18.387" rx="3.087" ry="3.087"/><rect class="cls-1" x="206.616" y="237.478" width="40.86" height="18.387" rx="3.087" ry="3.087"/><rect class="cls-1" x="249.973" y="237.478" width="40.86" height="18.387" rx="3.087" ry="3.087"/><rect class="cls-1" x="293.33" y="237.478" width="40.86" height="18.387" rx="3.087" ry="3.087"/><rect class="cls-1" x="336.686" y="237.478" width="40.86" height="18.387" rx="3.087" ry="3.087"/><rect class="cls-1" x="380.043" y="237.478" width="40.86" height="18.387" rx="3.087" ry="3.087"/><rect class="cls-1" x="423.4" y="237.478" width="40.86" height="18.387" rx="3.087" ry="3.087"/><rect class="cls-1" x="466.914" y="237.478" width="40.86" height="18.387" rx="3.087" ry="3.087"/><rect class="cls-1" x="510.27" y="237.478" width="40.86" height="18.387" rx="3.087" ry="3.087"/><rect class="cls-1" x="553.627" y="237.478" width="40.86" height="18.387" rx="3.087" ry="3.087"/><rect class="cls-1" x="596.984" y="237.478" width="40.86" height="18.387" rx="3.087" ry="3.087"/><rect class="cls-1" x="640.341" y="237.478" width="40.86" height="18.387" rx="3.087" ry="3.087"/><rect class="cls-1" x="683.697" y="237.478" width="40.86" height="18.387" rx="3.087" ry="3.087"/><rect class="cls-1" x="727.054" y="237.478" width="40.86" height="18.387" rx="3.087" ry="3.087"/><rect class="cls-1" x="770.411" y="237.478" width="40.86" height="18.387" rx="3.087" ry="3.087"/><rect class="cls-1" x="813.768" y="237.478" width="40.86" height="18.387" rx="3.087" ry="3.087"/><rect class="cls-1" x="53.916" y="258.222" width="40.86" height="18.387" rx="3.087" ry="3.087"/><rect class="cls-1" x="97.273" y="258.222" width="40.86" height="18.387" rx="3.087" ry="3.087"/><rect class="cls-1" x="140.629" y="258.222" width="40.86" height="18.387" rx="3.087" ry="3.087"/><rect class="cls-1" x="183.986" y="258.222" width="40.86" height="18.387" rx="3.087" ry="3.087"/><rect class="cls-1" x="227.343" y="258.222" width="40.86" height="18.387" rx="3.087" ry="3.087"/><rect class="cls-1" x="270.7" y="258.222" width="40.86" height="18.387" rx="3.087" ry="3.087"/><rect class="cls-1" x="314.056" y="258.222" width="40.86" height="18.387" rx="3.087" ry="3.087"/><rect class="cls-1" x="357.413" y="258.222" width="40.86" height="18.387" rx="3.087" ry="3.087"/><rect class="cls-1" x="400.77" y="258.222" width="40.86" height="18.387" rx="3.087" ry="3.087"/><rect class="cls-1" x="444.284" y="258.222" width="40.86" height="18.387" rx="3.087" ry="3.087"/><rect class="cls-1" x="487.64" y="258.222" width="40.86" height="18.387" rx="3.087" ry="3.087"/><rect class="cls-1" x="530.997" y="258.222" width="40.86" height="18.387" rx="3.087" ry="3.087"/><rect class="cls-1" x="574.354" y="258.222" width="40.86" height="18.387" rx="3.087" ry="3.087"/><rect class="cls-1" x="617.711" y="258.222" width="40.86" height="18.387" rx="3.087" ry="3.087"/><rect class="cls-1" x="661.067" y="258.222" width="40.86" height="18.387" rx="3.087" ry="3.087"/><rect class="cls-1" x="704.424" y="258.222" width="40.86" height="18.387" rx="3.087" ry="3.087"/><rect class="cls-1" x="747.781" y="258.222" width="40.86" height="18.387" rx="3.087" ry="3.087"/><rect class="cls-1" x="791.138" y="258.222" width="40.86" height="18.387" rx="3.087" ry="3.087"/><rect class="cls-1" x="76.546" y="279.343" width="40.86" height="18.387" rx="3.087" ry="3.087"/><rect class="cls-1" x="119.903" y="279.343" width="40.86" height="18.387" rx="3.087" ry="3.087"/><rect class="cls-1" x="163.259" y="279.343" width="40.86" height="18.387" rx="3.087" ry="3.087"/><rect class="cls-1" x="206.616" y="279.343" width="40.86" height="18.387" rx="3.087" ry="3.087"/><rect class="cls-1" x="249.973" y="279.343" width="40.86" height="18.387" rx="3.087" ry="3.087"/><rect class="cls-1" x="293.33" y="279.343" width="40.86" height="18.387" rx="3.087" ry="3.087"/><rect class="cls-1" x="336.686" y="279.343" width="40.86" height="18.387" rx="3.087" ry="3.087"/><rect class="cls-1" x="380.043" y="279.343" width="40.86" height="18.387" rx="3.087" ry="3.087"/><rect class="cls-1" x="423.4" y="279.343" width="40.86" height="18.387" rx="3.087" ry="3.087"/><rect class="cls-1" x="466.914" y="279.343" width="40.86" height="18.387" rx="3.087" ry="3.087"/><rect class="cls-1" x="510.27" y="279.343" width="40.86" height="18.387" rx="3.087" ry="3.087"/><rect class="cls-1" x="553.627" y="279.343" width="40.86" height="18.387" rx="3.087" ry="3.087"/><rect class="cls-1" x="596.984" y="279.343" width="40.86" height="18.387" rx="3.087" ry="3.087"/><rect class="cls-1" x="640.341" y="279.343" width="40.86" height="18.387" rx="3.087" ry="3.087"/><rect class="cls-1" x="683.697" y="279.343" width="40.86" height="18.387" rx="3.087" ry="3.087"/><rect class="cls-1" x="727.054" y="279.343" width="40.86" height="18.387" rx="3.087" ry="3.087"/><rect class="cls-1" x="770.411" y="279.343" width="40.86" height="18.387" rx="3.087" ry="3.087"/><rect class="cls-1" x="813.768" y="279.343" width="40.86" height="18.387" rx="3.087" ry="3.087"/><rect class="cls-1" x="53.916" y="300.087" width="40.86" height="18.387" rx="3.087" ry="3.087"/><rect class="cls-1" x="97.273" y="300.087" width="40.86" height="18.387" rx="3.087" ry="3.087"/><rect class="cls-1" x="140.629" y="300.087" width="40.86" height="18.387" rx="3.087" ry="3.087"/><rect class="cls-1" x="183.986" y="300.087" width="40.86" height="18.387" rx="3.087" ry="3.087"/><rect class="cls-1" x="227.343" y="300.087" width="40.86" height="18.387" rx="3.087" ry="3.087"/><rect class="cls-1" x="270.7" y="300.087" width="40.86" height="18.387" rx="3.087" ry="3.087"/><rect class="cls-1" x="314.056" y="300.087" width="40.86" height="18.387" rx="3.087" ry="3.087"/><rect class="cls-1" x="357.413" y="300.087" width="40.86" height="18.387" rx="3.087" ry="3.087"/><rect class="cls-1" x="400.77" y="300.087" width="40.86" height="18.387" rx="3.087" ry="3.087"/><rect class="cls-1" x="444.284" y="300.087" width="40.86" height="18.387" rx="3.087" ry="3.087"/><rect class="cls-1" x="487.64" y="300.087" width="40.86" height="18.387" rx="3.087" ry="3.087"/><rect class="cls-1" x="530.997" y="300.087" width="40.86" height="18.387" rx="3.087" ry="3.087"/><rect class="cls-1" x="574.354" y="300.087" width="40.86" height="18.387" rx="3.087" ry="3.087"/><rect class="cls-1" x="617.711" y="300.087" width="40.86" height="18.387" rx="3.087" ry="3.087"/><rect class="cls-1" x="661.067" y="300.087" width="40.86" height="18.387" rx="3.087" ry="3.087"/><rect class="cls-1" x="704.424" y="300.087" width="40.86" height="18.387" rx="3.087" ry="3.087"/><rect class="cls-1" x="747.781" y="300.087" width="40.86" height="18.387" rx="3.087" ry="3.087"/><rect class="cls-1" x="791.138" y="300.087" width="40.86" height="18.387" rx="3.087" ry="3.087"/><rect class="cls-1" x="76.546" y="321.209" width="40.86" height="18.387" rx="3.087" ry="3.087"/><rect class="cls-1" x="119.903" y="321.209" width="40.86" height="18.387" rx="3.087" ry="3.087"/><rect class="cls-1" x="163.259" y="321.209" width="40.86" height="18.387" rx="3.087" ry="3.087"/><rect class="cls-1" x="206.616" y="321.209" width="40.86" height="18.387" rx="3.087" ry="3.087"/><rect class="cls-1" x="249.973" y="321.209" width="40.86" height="18.387" rx="3.087" ry="3.087"/><rect class="cls-1" x="293.33" y="321.209" width="40.86" height="18.387" rx="3.087" ry="3.087"/><rect class="cls-1" x="336.686" y="321.209" width="40.86" height="18.387" rx="3.087" ry="3.087"/><rect class="cls-1" x="380.043" y="321.209" width="40.86" height="18.387" rx="3.087" ry="3.087"/><rect class="cls-1" x="423.4" y="321.209" width="40.86" height="18.387" rx="3.087" ry="3.087"/><rect class="cls-1" x="466.914" y="321.209" width="40.86" height="18.387" rx="3.087" ry="3.087"/><rect class="cls-1" x="510.27" y="321.209" width="40.86" height="18.387" rx="3.087" ry="3.087"/><rect class="cls-1" x="553.627" y="321.209" width="40.86" height="18.387" rx="3.087" ry="3.087"/><rect class="cls-1" x="596.984" y="321.209" width="40.86" height="18.387" rx="3.087" ry="3.087"/><rect class="cls-1" x="640.341" y="321.209" width="40.86" height="18.387" rx="3.087" ry="3.087"/><rect class="cls-1" x="683.697" y="321.209" width="40.86" height="18.387" rx="3.087" ry="3.087"/><rect class="cls-1" x="727.054" y="321.209" width="40.86" height="18.387" rx="3.087" ry="3.087"/><rect class="cls-1" x="770.411" y="321.209" width="40.86" height="18.387" rx="3.087" ry="3.087"/><rect class="cls-1" x="813.768" y="321.209" width="40.86" height="18.387" rx="3.087" ry="3.087"/><rect class="cls-1" x="53.916" y="341.953" width="40.86" height="18.387" rx="3.087" ry="3.087"/><rect class="cls-1" x="97.273" y="341.953" width="40.86" height="18.387" rx="3.087" ry="3.087"/><rect class="cls-1" x="140.629" y="341.953" width="40.86" height="18.387" rx="3.087" ry="3.087"/><rect class="cls-1" x="183.986" y="341.953" width="40.86" height="18.387" rx="3.087" ry="3.087"/><rect class="cls-1" x="227.343" y="341.953" width="40.86" height="18.387" rx="3.087" ry="3.087"/><rect class="cls-1" x="270.7" y="341.953" width="40.86" height="18.387" rx="3.087" ry="3.087"/><rect class="cls-1" x="314.056" y="341.953" width="40.86" height="18.387" rx="3.087" ry="3.087"/><rect class="cls-1" x="357.413" y="341.953" width="40.86" height="18.387" rx="3.087" ry="3.087"/><rect class="cls-1" x="400.77" y="341.953" width="40.86" height="18.387" rx="3.087" ry="3.087"/><rect class="cls-1" x="444.284" y="341.953" width="40.86" height="18.387" rx="3.087" ry="3.087"/><rect class="cls-1" x="487.64" y="341.953" width="40.86" height="18.387" rx="3.087" ry="3.087"/><rect class="cls-1" x="530.997" y="341.953" width="40.86" height="18.387" rx="3.087" ry="3.087"/><rect class="cls-1" x="574.354" y="341.953" width="40.86" height="18.387" rx="3.087" ry="3.087"/><rect class="cls-1" x="617.711" y="341.953" width="40.86" height="18.387" rx="3.087" ry="3.087"/><rect class="cls-1" x="661.067" y="341.953" width="40.86" height="18.387" rx="3.087" ry="3.087"/><rect class="cls-1" x="704.424" y="341.953" width="40.86" height="18.387" rx="3.087" ry="3.087"/><rect class="cls-1" x="747.781" y="341.953" width="40.86" height="18.387" rx="3.087" ry="3.087"/><rect class="cls-1" x="791.138" y="341.953" width="40.86" height="18.387" rx="3.087" ry="3.087"/><rect class="cls-1" x="76.546" y="363.074" width="40.86" height="18.387" rx="3.087" ry="3.087"/><rect class="cls-1" x="119.903" y="363.074" width="40.86" height="18.387" rx="3.087" ry="3.087"/><rect class="cls-1" x="163.259" y="363.074" width="40.86" height="18.387" rx="3.087" ry="3.087"/><rect class="cls-1" x="206.616" y="363.074" width="40.86" height="18.387" rx="3.087" ry="3.087"/><rect class="cls-1" x="249.973" y="363.074" width="40.86" height="18.387" rx="3.087" ry="3.087"/><rect class="cls-1" x="293.33" y="363.074" width="40.86" height="18.387" rx="3.087" ry="3.087"/><rect class="cls-1" x="336.686" y="363.074" width="40.86" height="18.387" rx="3.087" ry="3.087"/><rect class="cls-1" x="380.043" y="363.074" width="40.86" height="18.387" rx="3.087" ry="3.087"/><rect class="cls-1" x="423.4" y="363.074" width="40.86" height="18.387" rx="3.087" ry="3.087"/><rect class="cls-1" x="466.914" y="363.074" width="40.86" height="18.387" rx="3.087" ry="3.087"/><rect class="cls-1" x="510.27" y="363.074" width="40.86" height="18.387" rx="3.087" ry="3.087"/><rect class="cls-1" x="553.627" y="363.074" width="40.86" height="18.387" rx="3.087" ry="3.087"/><rect class="cls-1" x="596.984" y="363.074" width="40.86" height="18.387" rx="3.087" ry="3.087"/><rect class="cls-1" x="640.341" y="363.074" width="40.86" height="18.387" rx="3.087" ry="3.087"/><rect class="cls-1" x="683.697" y="363.074" width="40.86" height="18.387" rx="3.087" ry="3.087"/><rect class="cls-1" x="727.054" y="363.074" width="40.86" height="18.387" rx="3.087" ry="3.087"/><rect class="cls-1" x="770.411" y="363.074" width="40.86" height="18.387" rx="3.087" ry="3.087"/><rect class="cls-1" x="813.768" y="363.074" width="40.86" height="18.387" rx="3.087" ry="3.087"/><rect class="cls-1" x="53.916" y="383.818" width="40.86" height="18.387" rx="3.087" ry="3.087"/><rect class="cls-1" x="97.273" y="383.818" width="40.86" height="18.387" rx="3.087" ry="3.087"/><rect class="cls-1" x="140.629" y="383.818" width="40.86" height="18.387" rx="3.087" ry="3.087"/><rect class="cls-1" x="183.986" y="383.818" width="40.86" height="18.387" rx="3.087" ry="3.087"/><rect class="cls-1" x="227.343" y="383.818" width="40.86" height="18.387" rx="3.087" ry="3.087"/><rect class="cls-1" x="270.7" y="383.818" width="40.86" height="18.387" rx="3.087" ry="3.087"/><rect class="cls-1" x="314.056" y="383.818" width="40.86" height="18.387" rx="3.087" ry="3.087"/><rect class="cls-1" x="357.413" y="383.818" width="40.86" height="18.387" rx="3.087" ry="3.087"/><rect class="cls-1" x="400.77" y="383.818" width="40.86" height="18.387" rx="3.087" ry="3.087"/><rect class="cls-1" x="444.284" y="383.818" width="40.86" height="18.387" rx="3.087" ry="3.087"/><rect class="cls-1" x="487.64" y="383.818" width="40.86" height="18.387" rx="3.087" ry="3.087"/><rect class="cls-1" x="530.997" y="383.818" width="40.86" height="18.387" rx="3.087" ry="3.087"/><rect class="cls-1" x="574.354" y="383.818" width="40.86" height="18.387" rx="3.087" ry="3.087"/><rect class="cls-1" x="617.711" y="383.818" width="40.86" height="18.387" rx="3.087" ry="3.087"/><rect class="cls-1" x="661.067" y="383.818" width="40.86" height="18.387" rx="3.087" ry="3.087"/><rect class="cls-1" x="704.424" y="383.818" width="40.86" height="18.387" rx="3.087" ry="3.087"/><rect class="cls-1" x="747.781" y="383.818" width="40.86" height="18.387" rx="3.087" ry="3.087"/><rect class="cls-1" x="791.138" y="383.818" width="40.86" height="18.387" rx="3.087" ry="3.087"/><rect class="cls-1" x="76.546" y="404.94" width="40.86" height="18.387" rx="3.087" ry="3.087"/><rect class="cls-1" x="119.903" y="404.94" width="40.86" height="18.387" rx="3.087" ry="3.087"/><rect class="cls-1" x="163.259" y="404.94" width="40.86" height="18.387" rx="3.087" ry="3.087"/><rect class="cls-1" x="206.616" y="404.94" width="40.86" height="18.387" rx="3.087" ry="3.087"/><rect class="cls-1" x="249.973" y="404.94" width="40.86" height="18.387" rx="3.087" ry="3.087"/><rect class="cls-1" x="293.33" y="404.94" width="40.86" height="18.387" rx="3.087" ry="3.087"/><rect class="cls-1" x="336.686" y="404.94" width="40.86" height="18.387" rx="3.087" ry="3.087"/><rect class="cls-1" x="380.043" y="404.94" width="40.86" height="18.387" rx="3.087" ry="3.087"/><rect class="cls-1" x="423.4" y="404.94" width="40.86" height="18.387" rx="3.087" ry="3.087"/><rect class="cls-1" x="466.914" y="404.94" width="40.86" height="18.387" rx="3.087" ry="3.087"/><rect class="cls-1" x="510.27" y="404.94" width="40.86" height="18.387" rx="3.087" ry="3.087"/><rect class="cls-1" x="553.627" y="404.94" width="40.86" height="18.387" rx="3.087" ry="3.087"/><rect class="cls-1" x="596.984" y="404.94" width="40.86" height="18.387" rx="3.087" ry="3.087"/><rect class="cls-1" x="640.341" y="404.94" width="40.86" height="18.387" rx="3.087" ry="3.087"/><rect class="cls-1" x="683.697" y="404.94" width="40.86" height="18.387" rx="3.087" ry="3.087"/><rect class="cls-1" x="727.054" y="404.94" width="40.86" height="18.387" rx="3.087" ry="3.087"/><rect class="cls-1" x="770.411" y="404.94" width="40.86" height="18.387" rx="3.087" ry="3.087"/><rect class="cls-1" x="813.768" y="404.94" width="40.86" height="18.387" rx="3.087" ry="3.087"/><rect class="cls-1" x="53.916" y="425.684" width="40.86" height="18.387" rx="3.087" ry="3.087"/><rect class="cls-1" x="97.273" y="425.684" width="40.86" height="18.387" rx="3.087" ry="3.087"/><rect class="cls-1" x="140.629" y="425.684" width="40.86" height="18.387" rx="3.087" ry="3.087"/><rect class="cls-1" x="183.986" y="425.684" width="40.86" height="18.387" rx="3.087" ry="3.087"/><rect class="cls-1" x="227.343" y="425.684" width="40.86" height="18.387" rx="3.087" ry="3.087"/><rect class="cls-1" x="270.7" y="425.684" width="40.86" height="18.387" rx="3.087" ry="3.087"/><rect class="cls-1" x="314.056" y="425.684" width="40.86" height="18.387" rx="3.087" ry="3.087"/><rect class="cls-1" x="357.413" y="425.684" width="40.86" height="18.387" rx="3.087" ry="3.087"/><rect class="cls-1" x="400.77" y="425.684" width="40.86" height="18.387" rx="3.087" ry="3.087"/><rect class="cls-1" x="444.284" y="425.684" width="40.86" height="18.387" rx="3.087" ry="3.087"/><rect class="cls-1" x="487.64" y="425.684" width="40.86" height="18.387" rx="3.087" ry="3.087"/><rect class="cls-1" x="530.997" y="425.684" width="40.86" height="18.387" rx="3.087" ry="3.087"/><rect class="cls-1" x="574.354" y="425.684" width="40.86" height="18.387" rx="3.087" ry="3.087"/><rect class="cls-1" x="617.711" y="425.684" width="40.86" height="18.387" rx="3.087" ry="3.087"/><rect class="cls-1" x="661.067" y="425.684" width="40.86" height="18.387" rx="3.087" ry="3.087"/><rect class="cls-1" x="704.424" y="425.684" width="40.86" height="18.387" rx="3.087" ry="3.087"/><rect class="cls-1" x="747.781" y="425.684" width="40.86" height="18.387" rx="3.087" ry="3.087"/><rect class="cls-1" x="791.138" y="425.684" width="40.86" height="18.387" rx="3.087" ry="3.087"/></g></svg>