<?xml version="1.0" encoding="UTF-8"?><svg id="Layer_1" xmlns="http://www.w3.org/2000/svg" viewBox="0 0 908.543 448.785"><defs><style>.cls-1{fill:#cc4f51;}.cls-1,.cls-2,.cls-3,.cls-4{stroke-width:0px;}.cls-2{fill:#eeedee;}.cls-3{fill:#f69898;}.cls-4{fill:#c0d2ec;}</style></defs><rect class="cls-2" x="86.978" y="88.996" width="734.655" height="359.507" rx="7.818" ry="7.818"/><rect class="cls-4" x="107.074" y="235.711" width="194.806" height="213.075" rx="7.818" ry="7.818"/><rect class="cls-4" x="354.996" y="235.711" width="97.376" height="213.075" rx="7.818" ry="7.818"/><rect class="cls-4" x="454.745" y="235.711" width="97.376" height="213.075" rx="7.818" ry="7.818"/><rect class="cls-4" x="604.656" y="235.711" width="194.806" height="213.075" rx="7.818" ry="7.818"/><path class="cls-1" d="m86.911,193.598h40.817v40.179c0,11.264-9.145,20.408-20.408,20.408h0c-11.264,0-20.408-9.145-20.408-20.408v-40.179h0Z"/><path class="cls-3" d="m127.727,193.598h40.817v40.179c0,11.264-9.145,20.408-20.408,20.408h0c-11.264,0-20.408-9.145-20.408-20.408v-40.179h0Z"/><path class="cls-1" d="m168.544,193.598h40.817v40.179c0,11.264-9.145,20.408-20.408,20.408h0c-11.264,0-20.408-9.145-20.408-20.408v-40.179h0Z"/><path class="cls-3" d="m209.361,193.598h40.817v40.179c0,11.264-9.145,20.408-20.408,20.408h0c-11.264,0-20.408-9.145-20.408-20.408v-40.179h0Z"/><path class="cls-1" d="m250.177,193.598h40.817v40.179c0,11.264-9.145,20.408-20.408,20.408h0c-11.264,0-20.408-9.145-20.408-20.408v-40.179h0Z"/><path class="cls-3" d="m290.994,193.598h40.817v40.179c0,11.264-9.145,20.408-20.408,20.408h0c-11.264,0-20.408-9.145-20.408-20.408v-40.179h0Z"/><path class="cls-1" d="m331.811,193.598h40.817v40.179c0,11.264-9.145,20.408-20.408,20.408h0c-11.264,0-20.408-9.145-20.408-20.408v-40.179h0Z"/><path class="cls-3" d="m372.627,193.598h40.817v40.179c0,11.264-9.145,20.408-20.408,20.408h0c-11.264,0-20.408-9.145-20.408-20.408v-40.179h0Z"/><path class="cls-1" d="m413.444,193.598h40.817v40.179c0,11.264-9.145,20.408-20.408,20.408h0c-11.264,0-20.408-9.145-20.408-20.408v-40.179h0Z"/><path class="cls-3" d="m454.261,193.598h40.817v40.179c0,11.264-9.145,20.408-20.408,20.408h0c-11.264,0-20.408-9.145-20.408-20.408v-40.179h0Z"/><path class="cls-1" d="m495.077,193.598h40.817v40.179c0,11.264-9.145,20.408-20.408,20.408h0c-11.264,0-20.408-9.145-20.408-20.408v-40.179h0Z"/><path class="cls-3" d="m535.894,193.598h40.817v40.179c0,11.264-9.145,20.408-20.408,20.408h0c-11.264,0-20.408-9.145-20.408-20.408v-40.179h0Z"/><path class="cls-1" d="m576.711,193.598h40.817v40.179c0,11.264-9.145,20.408-20.408,20.408h0c-11.264,0-20.408-9.145-20.408-20.408v-40.179h0Z"/><path class="cls-3" d="m617.527,193.598h40.817v40.179c0,11.264-9.145,20.408-20.408,20.408h0c-11.264,0-20.408-9.145-20.408-20.408v-40.179h0Z"/><path class="cls-1" d="m658.344,193.598h40.817v40.179c0,11.264-9.145,20.408-20.408,20.408h0c-11.264,0-20.408-9.145-20.408-20.408v-40.179h0Z"/><path class="cls-3" d="m699.161,193.598h40.817v40.179c0,11.264-9.145,20.408-20.408,20.408h0c-11.264,0-20.408-9.145-20.408-20.408v-40.179h0Z"/><path class="cls-1" d="m739.977,193.598h40.817v40.179c0,11.264-9.145,20.408-20.408,20.408h0c-11.264,0-20.408-9.145-20.408-20.408v-40.179h0Z"/><path class="cls-3" d="m780.794,193.598h40.817v40.179c0,11.264-9.145,20.408-20.408,20.408h0c-11.264,0-20.408-9.145-20.408-20.408v-40.179h0Z"/><rect class="cls-1" x="278.458" y="97.399" width="332.87" height="88.211" rx="14.558" ry="14.558"/></svg>