<?xml version="1.0" encoding="UTF-8"?><svg id="Layer_1" xmlns="http://www.w3.org/2000/svg" viewBox="0 0 908.543 448.785"><defs><style>.cls-1{fill:#d32836;}.cls-1,.cls-2,.cls-3,.cls-4,.cls-5,.cls-6{stroke-width:0px;}.cls-2{fill:#fff;}.cls-3{fill:#eeedee;}.cls-4{fill:#ffce26;}.cls-5{fill:#1776b3;}.cls-6{fill:#c0d2ec;}</style></defs><path class="cls-2" d="m0,448.504V7.5C0,3.358,3.358,0,7.5,0s7.5,3.358,7.5,7.5v441.004H0Z"/><rect class="cls-3" x="132.592" y="89.854" width="732.902" height="358.65" rx="7.818" ry="7.818"/><rect class="cls-3" x="89.543" y="140.82" width="819" height="82.012" rx="7.818" ry="7.818"/><rect class="cls-1" x="96.286" y="148.885" width="805.516" height="19.889" rx="7.818" ry="7.818"/><rect class="cls-5" x="96.286" y="171.882" width="805.516" height="19.889" rx="7.818" ry="7.818"/><rect class="cls-4" x="96.286" y="194.879" width="805.516" height="19.889" rx="7.818" ry="7.818"/><rect class="cls-6" x="152.641" y="236.219" width="194.341" height="212.567" rx="7.818" ry="7.818"/><rect class="cls-6" x="399.971" y="236.219" width="97.144" height="212.567" rx="7.818" ry="7.818"/><rect class="cls-6" x="499.482" y="236.219" width="97.144" height="212.567" rx="7.818" ry="7.818"/><rect class="cls-6" x="649.035" y="236.219" width="194.341" height="212.567" rx="7.818" ry="7.818"/><path class="cls-3" d="m7.5,7.5h207.14c4.315,0,7.818,3.503,7.818,7.818v66.376c0,4.315-3.503,7.818-7.818,7.818H7.5V7.5h0Z"/><path class="cls-5" d="m7.5,94.516h207.14c4.315,0,7.818,3.503,7.818,7.818v11.48c0,4.315-3.503,7.818-7.818,7.818H7.5v-27.115h0Z"/><rect class="cls-1" x="15.166" y="15.564" width="199.627" height="19.889" rx="7.818" ry="7.818"/><rect class="cls-5" x="15.166" y="38.561" width="199.627" height="19.889" rx="7.818" ry="7.818"/><rect class="cls-4" x="15.166" y="61.558" width="199.627" height="19.889" rx="7.818" ry="7.818"/></svg>