<?xml version="1.0" encoding="UTF-8"?><svg id="Layer_1" xmlns="http://www.w3.org/2000/svg" width="840" height="210"><defs><style>.cls-1{fill:#fec33f;}.cls-1,.cls-2{stroke-width:0px;}.cls-2{fill:#ae272d;}</style></defs><path class="cls-2" d="m105,178.596c-4.34,0-8.185-2.8-9.517-6.93l-7.267-22.529-20.049,12.587c-1.634,1.026-3.479,1.531-5.316,1.531-2.297,0-4.582-.79-6.429-2.34-3.325-2.789-4.471-7.405-2.836-11.426l8.915-21.93-23.449-3.245c-4.299-.595-7.724-3.895-8.478-8.169-.753-4.274,1.336-8.546,5.172-10.576l20.925-11.069-15.877-17.559c-2.911-3.219-3.413-7.948-1.243-11.707,1.812-3.137,5.14-5,8.658-5,.697,0,1.4.073,2.102.224l23.145,4.971-.876-23.656c-.161-4.337,2.495-8.283,6.573-9.767,1.119-.407,2.275-.604,3.418-.604,3.024,0,5.961,1.375,7.895,3.861l14.535,18.685,14.534-18.685c1.934-2.486,4.871-3.861,7.895-3.861,1.144,0,2.299.196,3.418.604,4.078,1.484,6.733,5.43,6.573,9.767l-.876,23.656,23.145-4.971c.701-.151,1.406-.224,2.102-.224,3.519,0,6.847,1.863,8.658,5,2.17,3.759,1.668,8.488-1.243,11.707l-15.877,17.559,20.925,11.069c3.836,2.03,5.926,6.301,5.172,10.576-.754,4.274-4.178,7.574-8.478,8.169l-23.449,3.245,8.915,21.93c1.635,4.021.489,8.637-2.836,11.426-1.847,1.55-4.133,2.34-6.429,2.34-1.838,0-3.682-.505-5.316-1.531l-20.048-12.587-7.267,22.529c-1.333,4.13-5.177,6.93-9.517,6.93Z"/><polygon class="cls-1" points="105 70.236 127.428 41.403 126.075 77.906 161.789 70.236 137.289 97.329 169.578 114.409 133.394 119.416 147.15 153.255 116.214 133.832 105 168.597 93.786 133.832 62.85 153.255 76.606 119.416 40.422 114.409 72.711 97.329 48.211 70.236 83.925 77.906 82.572 41.403 105 70.236"/><path class="cls-2" d="m315,206.906c-4.34,0-8.185-2.8-9.517-6.93l-12.259-38.005-33.82,21.233c-1.634,1.026-3.479,1.531-5.316,1.531-2.297,0-4.582-.789-6.429-2.34-3.325-2.789-4.471-7.405-2.836-11.426l15.038-36.993-39.555-5.474c-4.299-.595-7.724-3.895-8.478-8.169-.753-4.274,1.336-8.546,5.172-10.576l35.298-18.672-26.783-29.619c-2.911-3.219-3.413-7.948-1.243-11.707,1.811-3.137,5.14-5,8.658-5,.697,0,1.4.073,2.102.224l39.042,8.385-1.479-39.905c-.161-4.337,2.495-8.283,6.573-9.767,1.119-.407,2.275-.604,3.418-.604,3.024,0,5.961,1.375,7.895,3.861l24.518,31.52,24.517-31.52c1.934-2.486,4.871-3.861,7.896-3.861,1.144,0,2.299.196,3.418.604,4.078,1.484,6.733,5.43,6.573,9.767l-1.479,39.905,39.043-8.385c.701-.151,1.405-.224,2.102-.224,3.519,0,6.847,1.863,8.658,5,2.17,3.759,1.668,8.488-1.243,11.707l-26.783,29.619,35.298,18.672c3.837,2.03,5.926,6.302,5.172,10.576-.753,4.274-4.178,7.574-8.477,8.169l-39.556,5.474,15.037,36.993c1.635,4.021.489,8.637-2.836,11.426-1.847,1.55-4.133,2.34-6.43,2.34-1.837,0-3.682-.505-5.315-1.531l-33.819-21.233-12.259,38.005c-1.332,4.13-5.177,6.93-9.517,6.93Z"/><polygon class="cls-1" points="315 54.761 347.411 13.094 345.456 65.846 397.068 54.761 361.662 93.915 408.324 118.598 356.034 125.833 375.913 174.736 331.206 146.667 315 196.906 298.794 146.667 254.087 174.736 273.966 125.833 221.676 118.598 268.338 93.915 232.932 54.761 284.544 65.846 282.589 13.094 315 54.761"/><path class="cls-2" d="m483.965,135.839c-.456,0-.914-.031-1.372-.095l-52.29-7.24c-4.3-.595-7.724-3.896-8.478-8.169-.753-4.274,1.337-8.547,5.173-10.576l46.66-24.68c1.461-.772,3.068-1.16,4.676-1.16,1.503,0,3.006.338,4.394,1.017,2.872,1.405,4.899,4.098,5.454,7.247l5.63,31.92c.556,3.149-.428,6.374-2.647,8.677-1.897,1.969-4.503,3.061-7.199,3.061Z"/><path class="cls-2" d="m478.333,103.918c-2.811,0-5.511-1.185-7.417-3.294l-35.399-39.16c-2.911-3.22-3.412-7.949-1.241-11.707,1.812-3.137,5.139-5,8.657-5,.697,0,1.401.073,2.103.224l51.609,11.09c3.126.672,5.742,2.798,7.04,5.72,1.297,2.922,1.118,6.289-.48,9.058l-16.21,28.07c-1.6,2.769-4.426,4.606-7.605,4.943-.353.037-.705.056-1.056.056Z"/><path class="cls-2" d="m464.086,184.738c-2.297,0-4.583-.79-6.43-2.34-3.325-2.79-4.471-7.405-2.836-11.427l19.88-48.899c1.204-2.961,3.751-5.169,6.854-5.938.797-.198,1.605-.295,2.409-.295,2.325,0,4.606.812,6.427,2.339l24.83,20.829c2.45,2.055,3.77,5.157,3.55,8.348-.22,3.189-1.951,6.082-4.659,7.782l-44.71,28.07c-1.634,1.026-3.479,1.531-5.315,1.531Z"/><path class="cls-2" d="m494.545,75.848c-1.964,0-3.912-.578-5.584-1.704-2.653-1.785-4.292-4.731-4.41-7.927l-1.95-52.75c-.16-4.337,2.495-8.282,6.573-9.767,1.118-.407,2.274-.604,3.418-.604,3.024,0,5.961,1.375,7.895,3.86l32.41,41.66c1.964,2.523,2.602,5.833,1.718,8.906-.885,3.073-3.185,5.537-6.189,6.631l-30.46,11.09c-1.11.404-2.269.604-3.42.604Z"/><path class="cls-2" d="m525.005,206.908c-4.34,0-8.186-2.799-9.518-6.93l-16.21-50.24c-.982-3.043-.449-6.372,1.433-8.956,1.882-2.585,4.887-4.114,8.084-4.114h32.41c3.197,0,6.201,1.528,8.084,4.113,1.882,2.584,2.415,5.913,1.434,8.956l-16.2,50.24c-1.332,4.13-5.177,6.931-9.517,6.931Z"/><path class="cls-2" d="m555.453,75.848c-1.152,0-2.31-.199-3.421-.604l-30.45-11.09c-3.004-1.094-5.304-3.559-6.188-6.631-.884-3.072-.245-6.382,1.718-8.905l32.41-41.66c1.934-2.486,4.871-3.86,7.895-3.86,1.144,0,2.3.196,3.419.604,4.078,1.485,6.733,5.431,6.572,9.768l-1.96,52.75c-.119,3.195-1.759,6.141-4.411,7.926-1.672,1.125-3.619,1.703-5.583,1.703Z"/><path class="cls-2" d="m585.912,184.738c-1.837,0-3.682-.505-5.315-1.531l-44.71-28.07c-2.708-1.7-4.439-4.593-4.659-7.782-.22-3.19,1.1-6.293,3.55-8.348l24.83-20.829c1.82-1.527,4.102-2.339,6.427-2.339.804,0,1.612.097,2.409.295,3.104.77,5.65,2.978,6.854,5.938l19.88,48.899c1.635,4.021.489,8.637-2.836,11.427-1.847,1.55-4.133,2.34-6.43,2.34Z"/><path class="cls-2" d="m571.665,103.918c-.351,0-.703-.019-1.056-.056-3.18-.337-6.006-2.175-7.605-4.943l-16.21-28.07c-1.599-2.769-1.777-6.135-.48-9.058,1.298-2.922,3.914-5.048,7.04-5.72l51.61-11.09c.701-.151,1.406-.224,2.103-.224,3.519,0,6.846,1.862,8.657,5,2.171,3.758,1.67,8.487-1.241,11.707l-35.4,39.16c-1.906,2.108-4.607,3.294-7.417,3.294Z"/><path class="cls-2" d="m566.033,135.839c-2.696,0-5.302-1.092-7.199-3.061-2.22-2.303-3.203-5.527-2.647-8.677l5.63-31.92c.555-3.148,2.582-5.842,5.454-7.247,1.388-.678,2.892-1.017,4.394-1.017,1.608,0,3.215.388,4.676,1.16l46.66,24.68c3.836,2.029,5.926,6.302,5.173,10.576-.754,4.273-4.178,7.574-8.478,8.169l-52.29,7.24c-.457.063-.916.095-1.372.095Z"/><polygon class="cls-1" points="478.334 93.918 483.964 125.838 431.674 118.598 478.334 93.918"/><polygon class="cls-1" points="494.544 65.848 478.334 93.918 442.934 54.758 494.544 65.848"/><polygon class="cls-1" points="483.964 125.838 508.794 146.668 464.084 174.738 483.964 125.838"/><polygon class="cls-1" points="525.004 54.758 494.544 65.848 492.594 13.098 525.004 54.758"/><polygon class="cls-1" points="508.794 146.668 541.204 146.668 525.004 196.908 508.794 146.668"/><polygon class="cls-1" points="555.454 65.848 525.004 54.758 557.414 13.098 555.454 65.848"/><polygon class="cls-1" points="566.034 125.838 585.914 174.738 541.204 146.668 566.034 125.838"/><polygon class="cls-1" points="571.664 93.918 555.454 65.848 607.064 54.758 571.664 93.918"/><polygon class="cls-1" points="566.034 125.838 571.664 93.918 618.324 118.598 566.034 125.838"/><path class="cls-2" d="m659.465,131.058c-.455,0-.913-.031-1.371-.095l-17.79-2.46c-4.299-.594-7.724-3.894-8.478-8.168s1.335-8.547,5.172-10.577l15.88-8.4c1.461-.773,3.068-1.161,4.676-1.161,1.503,0,3.007.338,4.396,1.018,2.872,1.406,4.899,4.101,5.453,7.25l1.91,10.86c.554,3.148-.431,6.371-2.649,8.673-1.897,1.969-4.503,3.06-7.198,3.06Z"/><path class="cls-2" d="m665.483,78.638c-2.81,0-5.511-1.185-7.417-3.293l-12.55-13.88c-2.91-3.219-3.412-7.949-1.242-11.707,1.812-3.137,5.14-5,8.658-5,.697,0,1.401.073,2.103.224l18.29,3.93c3.125.671,5.741,2.797,7.039,5.718,1.297,2.921,1.12,6.287-.478,9.056l-5.74,9.95c-1.599,2.77-4.425,4.609-7.604,4.947-.354.038-.707.056-1.059.056Z"/><path class="cls-2" d="m674.086,184.738c-2.298,0-4.584-.79-6.432-2.341-3.324-2.791-4.469-7.406-2.833-11.427l6.521-16.03c1.204-2.962,3.752-5.169,6.854-5.938.797-.197,1.605-.294,2.408-.294,2.325,0,4.607.812,6.428,2.34l8.14,6.83c2.45,2.056,3.769,5.158,3.549,8.348-.221,3.19-1.952,6.083-4.661,7.783l-14.66,9.199c-1.633,1.025-3.478,1.53-5.313,1.53Z"/><path class="cls-2" d="m703.304,42.278c-1.965,0-3.912-.578-5.584-1.704-2.652-1.785-4.292-4.731-4.41-7.926l-.71-19.18c-.16-4.337,2.495-8.283,6.574-9.768,1.118-.407,2.274-.603,3.417-.603,3.025,0,5.962,1.375,7.896,3.862l11.78,15.15c1.962,2.524,2.6,5.834,1.715,8.906-.885,3.072-3.185,5.536-6.188,6.63l-11.07,4.03c-1.111.404-2.269.603-3.42.603Z"/><path class="cls-2" d="m735.004,206.908c-4.341,0-8.186-2.8-9.518-6.932l-5.229-16.22c-.981-3.043-.448-6.371,1.434-8.955,1.883-2.585,4.887-4.113,8.084-4.113h10.46c3.197,0,6.201,1.528,8.084,4.113,1.882,2.584,2.415,5.913,1.434,8.956l-5.23,16.22c-1.332,4.131-5.178,6.931-9.518,6.931h0Z"/><path class="cls-2" d="m766.703,42.278c-1.151,0-2.309-.199-3.42-.603l-11.07-4.03c-3.004-1.094-5.304-3.558-6.188-6.63-.885-3.072-.247-6.382,1.715-8.906l11.78-15.15c1.934-2.486,4.872-3.862,7.896-3.862,1.144,0,2.299.196,3.417.603,4.079,1.484,6.734,5.43,6.574,9.768l-.71,19.18c-.118,3.195-1.758,6.141-4.41,7.926-1.672,1.125-3.62,1.704-5.584,1.704Z"/><path class="cls-2" d="m795.912,184.738c-1.837,0-3.681-.505-5.313-1.53l-14.66-9.199c-2.709-1.7-4.441-4.593-4.661-7.783s1.1-6.293,3.549-8.349l8.141-6.83c1.82-1.527,4.103-2.339,6.428-2.339.804,0,1.611.097,2.408.294,3.103.771,5.65,2.978,6.855,5.938l6.52,16.03c1.635,4.021.49,8.637-2.834,11.427-1.848,1.551-4.134,2.341-6.432,2.341Z"/><path class="cls-2" d="m804.515,78.638c-.352,0-.704-.019-1.059-.056-3.18-.338-6.006-2.177-7.604-4.947l-5.74-9.95c-1.597-2.769-1.774-6.134-.478-9.056,1.298-2.921,3.914-5.047,7.039-5.718l18.29-3.93c.701-.151,1.406-.224,2.103-.224,3.519,0,6.847,1.862,8.658,5,2.17,3.758,1.668,8.488-1.242,11.707l-12.55,13.88c-1.906,2.108-4.607,3.293-7.417,3.293Z"/><path class="cls-2" d="m810.533,131.058c-2.695,0-5.301-1.091-7.198-3.06-2.219-2.302-3.203-5.524-2.649-8.673l1.91-10.86c.554-3.149,2.581-5.844,5.453-7.25,1.388-.679,2.893-1.018,4.396-1.018,1.608,0,3.215.388,4.676,1.161l15.88,8.4c3.837,2.03,5.926,6.303,5.172,10.577s-4.179,7.574-8.478,8.168l-17.79,2.46c-.458.063-.916.095-1.371.095Z"/><polygon class="cls-1" points="657.554 110.198 659.464 121.058 641.674 118.598 657.554 110.198"/><polygon class="cls-1" points="652.934 54.758 671.224 58.688 665.484 68.638 652.934 54.758"/><polygon class="cls-1" points="680.604 158.708 688.744 165.538 674.084 174.738 680.604 158.708"/><polygon class="cls-1" points="702.594 13.098 714.374 28.248 703.304 32.278 702.594 13.098"/><polygon class="cls-1" points="729.774 180.688 740.234 180.688 735.004 196.908 729.774 180.688"/><polygon class="cls-1" points="755.634 28.248 767.414 13.098 766.704 32.278 755.634 28.248"/><polygon class="cls-1" points="789.394 158.708 795.914 174.738 781.254 165.538 789.394 158.708"/><polygon class="cls-1" points="817.064 54.758 804.514 68.638 798.774 58.688 817.064 54.758"/><polygon class="cls-1" points="828.324 118.598 810.534 121.058 812.444 110.198 828.324 118.598"/></svg>