<?xml version="1.0" encoding="UTF-8"?><svg id="Layer_1" xmlns="http://www.w3.org/2000/svg" width="1179.106" height="318.419"><defs><style>.cls-1{fill:#e9c5bf;}.cls-1,.cls-2,.cls-3,.cls-4,.cls-5,.cls-6,.cls-7,.cls-8{stroke-width:0px;}.cls-2{fill:#fddd56;}.cls-9{opacity:.5;}.cls-3{fill:#e9a999;}.cls-4{fill:#fef49b;}.cls-5{fill:#cc4f51;}.cls-6{fill:#fff4c8;}.cls-10{opacity:.15;}.cls-7{fill:#f9f3da;}.cls-8{fill:#14242f;}</style></defs><g class="cls-10"><path class="cls-6" d="m150.378,312.567c-7.454,0-14.908-1.603-21.724-4.654-1.887.203-3.792.305-5.71.305-13.26,0-26.039-5.043-35.735-13.825-16.583-1.285-31.515-10.254-40.462-24.064-12.502-3.858-23.127-12.185-29.938-23.705-4.578-7.744-7.062-16.301-7.395-24.971-5.883-12.21-6.519-26.526-1.208-39.621,6.088-15.01,18.837-25.743,34.034-29.351-5.682-5.643-10-12.688-12.405-20.736-6.107-20.436,1.926-42.13,19.988-53.984l85.887-56.363c11.949-10.068,27.295-15.746,42.973-15.746,1.364,0,2.747.042,4.11.126,17.76,1.093,34.03,9.037,45.815,22.368,11.388,12.883,17.27,29.308,16.665,46.426l1.71,9.317c.634,3.455,1.062,6.935,1.284,10.42,8.556,5.453,17.082,12.153,25.557,20.091,20.664,19.356,21.729,51.915,2.374,72.58-9.673,10.326-23.333,16.247-37.479,16.247-1.509,0-3.011-.066-4.5-.195-5.662,2.802-11.823,4.533-18.228,5.087l-3.545,27.445c-.321,2.482-.848,4.934-1.576,7.329l-9.203,30.261c-6.267,23.207-27.034,39.215-51.288,39.215Z"/></g><g class="cls-9"><path class="cls-4" d="m150.378,292.567c-5.213,0-10.43-1.26-15.087-3.644l-3.647-1.866c-2.825.771-5.736,1.16-8.7,1.16-10.401,0-20.326-4.975-26.55-13.306l-.506-.678c-1.508.211-3.029.318-4.55.318-13.217,0-25.153-7.835-30.409-19.959l-.833-1.923-1.728-.22c-10.226-1.301-19.098-7.135-24.343-16.007-3.604-6.097-5.126-13.003-4.497-19.838-5.318-7.902-6.471-17.979-2.788-27.059,4.483-11.053,15.035-18.195,26.883-18.195,3.259,0,6.488.547,9.598,1.626l7.523,2.611c1.191-.626,2.944-1.683,5.289-3.436,9.172-6.854,16.391-16.089,21.042-26.875l-14.319,1.815c-1.39.176-2.801.265-4.194.265-13.687,0-25.844-8.694-29.564-21.142-3.556-11.898,1.186-24.572,11.798-31.537l86.942-57.055c8.541-7.616,19.413-11.775,30.944-11.775.956,0,1.926.03,2.882.089,25.653,1.579,45.239,23.734,43.659,49.387l-.046.748,2.133,11.624c1.113,6.066,1.407,12.229.897,18.323,10.544,5.389,21.214,13.126,31.942,23.175,12.616,11.817,13.267,31.695,1.449,44.311-5.904,6.303-14.244,9.918-22.882,9.918-2.892,0-5.734-.394-8.46-1.156-5.389,4.05-11.917,6.243-18.785,6.243-3.73,0-7.361-.647-10.765-1.888l-3.217,8.794-4.88,37.783c-.178,1.379-.471,2.741-.875,4.071l-9.308,30.606c-3.832,14.598-16.841,24.688-32.048,24.688Z"/></g><path class="cls-2" d="m150.378,277.567c-2.848,0-5.702-.69-8.253-1.997l-9.572-4.896-2.359,1.029c-2.303,1.005-4.742,1.515-7.25,1.515-5.693,0-11.126-2.723-14.533-7.283l-6.958-9.315-1.942.981c-2.527,1.277-5.353,1.952-8.173,1.952-7.236,0-13.77-4.288-16.646-10.925l-4.23-9.76-10.202-1.297c-5.596-.712-10.452-3.905-13.323-8.76-2.871-4.855-3.328-10.649-1.255-15.895l.187-.473-1.974-1.916c-4.131-4.011-5.408-10.033-3.255-15.342,2.176-5.366,7.272-8.833,12.983-8.833,1.581,0,3.156.268,4.679.797l8.338,2.894c.661.23,1.297.528,1.896.891.293.177.746.381,1.649.381,1.583,0,6.197-.696,14.827-7.145,12.539-9.369,22.088-22.308,27.617-37.419l2.918-7.978c-1.099-.985-2.042-2.126-2.787-3.399-1.271-2.173-1.863-4.582-1.772-6.977l-30.117,3.816c-.767.098-1.543.146-2.309.146-7.108,0-13.355-4.292-15.192-10.437-1.668-5.582.552-11.352,5.656-14.702l87.958-57.721c5.896-5.586,13.556-8.649,21.699-8.649.649,0,1.304.02,1.96.061,8.428.519,16.149,4.289,21.742,10.615s8.386,14.452,7.867,22.879l-.159,2.575,2.464,13.426c1.508,8.221,1.099,16.667-1.169,24.673,12.352,4.258,25.246,12.643,38.508,25.065,3.187,2.985,5.021,7.033,5.163,11.398.144,4.365-1.423,8.524-4.407,11.711-3.08,3.288-7.43,5.173-11.935,5.173-4.167,0-8.135-1.569-11.175-4.417-.292-.272-.58-.541-.868-.806-.811,2.042-2.039,3.917-3.639,5.518-3.085,3.089-7.193,4.792-11.563,4.792s-8.471-1.7-11.558-4.786c-2.093-2.091-4.236-4.108-6.42-6.043l-10.666,29.153-5.095,39.443c-.071.551-.188,1.096-.35,1.628l-9.405,30.924c-2.023,8.11-9.199,13.735-17.6,13.735Z"/><path class="cls-5" d="m150.378,271.567c-1.929,0-3.786-.45-5.52-1.338l-10.358-5.3c-.581-.297-1.232-.454-1.885-.454-.572,0-1.128.116-1.653.345l-3.169,1.384c-1.541.673-3.173,1.014-4.85,1.014-3.811,0-7.446-1.822-9.726-4.874l-7.896-10.571c-.777-1.04-2.017-1.66-3.317-1.66-.65,0-1.276.149-1.861.445l-3.34,1.688c-1.692.854-3.582,1.307-5.466,1.307-4.843,0-9.216-2.87-11.142-7.312l-4.653-10.734c-.578-1.333-1.832-2.274-3.272-2.457l-11.255-1.431c-3.745-.477-6.994-2.613-8.915-5.862s-2.227-7.125-.84-10.636l.645-1.629c.616-1.558.237-3.319-.965-4.486l-2.867-2.783c-2.406-2.335-3.124-5.701-1.874-8.782,1.254-3.091,4.167-5.088,7.423-5.088.91,0,1.823.156,2.712.465l8.337,2.894c.265.092.519.211.758.356,1.388.839,2.943,1.247,4.755,1.247,4.749,0,11.118-2.884,18.417-8.338,13.474-10.068,23.73-23.957,29.66-40.164l4.602-12.579c-2.117-.76-3.894-2.126-4.926-3.889-1.266-2.165-1.288-4.66-.059-6.846l2.125-3.779c-.331-.155-.818-.299-1.436-.299-.165,0-.333.01-.502.032l-37.951,4.81c-.518.065-1.041.099-1.554.099-4.477,0-8.36-2.531-9.443-6.155-.904-3.026.322-6.079,3.199-7.967l88.427-58.029c4.824-4.748,11.176-7.357,17.937-7.357.527,0,1.059.016,1.592.049,6.828.42,13.084,3.475,17.615,8.601s6.794,11.708,6.375,18.536l-.204,3.306,2.596,14.146c1.576,8.591.799,17.458-2.246,25.642-.266.714-.692,1.339-1.229,1.84,13.349,2.965,27.644,11.53,42.614,25.552,4.165,3.901,4.379,10.463.478,14.628-1.949,2.081-4.703,3.274-7.555,3.274-2.638,0-5.149-.993-7.074-2.796-5.819-5.45-11.06-9.543-15.734-12.6.967.924,1.927,1.861,2.878,2.812,1.956,1.955,3.033,4.553,3.034,7.317,0,2.765-1.075,5.364-3.029,7.32-1.954,1.956-4.554,3.033-7.32,3.033s-5.362-1.076-7.316-3.029c-4.277-4.274-8.758-8.251-13.368-11.868l-13.825,37.788-5.18,40.107c-.029.221-.076.439-.14.652l-9.454,31.083c-1.31,5.497-6.144,9.321-11.811,9.321Z"/><path class="cls-1" d="m238.718,158.426c-1.556,0-3.114-.568-4.339-1.715-19.961-18.697-33.939-22.386-42.149-22.186-7.289.176-11,3.469-11.033,3.502-2.47,2.489-6.49,2.505-8.98.035-2.489-2.47-2.505-6.49-.035-8.98,1.009-1.016,25.225-24.402,70.878,18.361,2.559,2.397,2.691,6.415.293,8.975-1.25,1.334-2.941,2.009-4.635,2.009Z"/><path class="cls-8" d="m168.56,53.864l-94.047,61.718c-3.979,2.611-.34,7.4,5.1,6.711l37.951-4.81c4.322-.548,7.984,2.539,6.385,5.383l-2.582,4.593c-1.812,3.222,3.042,6.514,7.566,5.132l31.852-9.733,12.889,5.415,8.523-16.728-10.523-36.693-3.115-20.987Z"/><path class="cls-8" d="m197.302,65.529c-.143-.63-.916-.866-1.387-.425l-46.498,43.583c-2.085,1.973-.275,5.442,2.535,4.862l18.075-3.732c2.889-.597,5.273,2.273,4.158,5.004h0c-1.263,3.094,1.912,6.138,4.95,4.744l14.222-6.523c.247-.113.533-.1.768.037l5.333,3.09c.448.26,1.022.054,1.203-.432h0c2.795-7.512,3.508-15.641,2.061-23.525l-2.711-14.773-2.709-11.91Z"/><path class="cls-7" d="m183.173,107.97l-22.945-8.395c-9.591-3.509-20.211,1.422-23.72,11.013l-14.488,39.599c-6.103,16.681-16.793,31.361-31.022,41.994-9.528,7.12-19.982,11.939-27.637,7.31l-8.337-2.894c-4.108-1.426-7.284,3.726-4.164,6.756l2.866,2.783c2.357,2.289,3.107,5.771,1.899,8.827l-.644,1.629c-1.951,4.937,1.273,10.39,6.539,11.06l11.255,1.431c2.849.362,5.295,2.2,6.437,4.834l4.653,10.734c1.862,4.295,6.955,6.136,11.133,4.025l3.34-1.688c3.526-1.782,7.823-.773,10.187,2.392l7.896,10.571c2.261,3.027,6.308,4.099,9.771,2.588l3.17-1.383c2.234-.975,4.788-.896,6.958.214l10.359,5.3c4.732,2.421,10.477-.272,11.642-5.459l9.492-31.212,5.238-40.55,21.132-57.759c3.509-9.591-1.422-20.211-11.013-23.72Z"/><rect class="cls-3" x="159.302" y="59.363" width="36.984" height="55.646" rx="18.492" ry="18.492" transform="translate(5.695 -10.763) rotate(3.524)"/><rect class="cls-1" x="159.302" y="59.363" width="36.984" height="55.646" rx="18.492" ry="18.492" transform="translate(5.695 -10.763) rotate(3.524)"/><path class="cls-8" d="m200.004,78.128l.267-4.337c.734-11.913-8.329-22.165-20.242-22.899h0c-11.913-.734-22.165,8.329-22.899,20.242l-.267,4.337,3.961,60.518,15.916-49.813c.503-1.576,2.79-1.388,3.031.248l.27,1.834c.225,1.531,2.301,1.836,2.957.436l4.212-8.984c.726-1.549,3.055-.97,2.972.738l-3.023,62.15,12.844-64.469Z"/><circle class="cls-5" cx="175.704" cy="85.244" r="3.845"/><circle class="cls-5" cx="190.831" cy="86.176" r="3.845"/><path class="cls-1" d="m211.472,163.513c-1.624,0-3.249-.619-4.488-1.858-35.572-35.55-69.056-36.415-69.39-36.42-3.506-.048-6.31-2.93-6.262-6.436.048-3.506,2.928-6.292,6.436-6.262,1.575.022,39.013.98,78.193,40.135,2.48,2.479,2.482,6.499.003,8.98-1.24,1.241-2.866,1.861-4.491,1.861Z"/><g class="cls-10"><path class="cls-6" d="m747.828,311.567c-5.284,0-10.574-1.277-15.297-3.694l-4.347-2.225c-3.027.88-6.154,1.323-9.342,1.323-10.549,0-20.612-5.046-26.922-13.496l-1.037-1.389c-1.796.297-3.614.447-5.433.447-13.401,0-25.504-7.943-30.832-20.237l-1.199-2.768-2.624-.334c-10.366-1.317-19.361-7.232-24.68-16.228-3.743-6.33-5.271-13.521-4.51-20.612-5.602-8.021-6.871-18.372-3.095-27.683,4.519-11.143,15.153-18.344,27.094-18.344,3.285,0,6.541.552,9.677,1.641l8.517,2.956c1.335-.656,3.428-1.862,6.328-4.029,11.411-8.527,23.818-10.379,32.029-11.605,1.034-.154,2.244-.335,3.349-.521l6.357-17.379c-.046-.301-.089-.605-.129-.914l-13.793,1.748c-1.409.179-2.841.269-4.254.269-13.84,0-26.127-8.77-29.88-21.327-3.577-11.967,1.199-24.72,11.885-31.733.993-.652,2.033-1.233,3.109-1.738l38.035-17.824c3.374-12.857,10.691-29.637,27.666-37.35,5.358-2.435,11.033-3.67,16.867-3.67,10.928,0,21.622,4.272,31.873,12.715,11.243,1.375,21.601,6.747,29.225,14.905,8.268,2.963,16.467,8.23,24.498,15.754,12.759,11.95,13.418,32.054,1.468,44.815-4.135,4.414-9.448,7.524-15.224,9.021-.661,4.809-1.808,9.558-3.436,14.167.719,6.702-.098,13.521-2.461,19.981-.305.833-.654,1.649-1.045,2.445l-21.854,44.431-14.713,32.604-9.373,30.821c-3.878,14.813-17.072,25.056-32.499,25.056Z"/></g><g class="cls-9"><path class="cls-4" d="m747.828,301.567c-3.708,0-7.422-.897-10.74-2.597l-8.243-4.217-.568.248c-2.998,1.308-6.171,1.97-9.434,1.97-7.409,0-14.478-3.544-18.908-9.479l-5.147-6.891c-2.944,1.268-6.143,1.932-9.336,1.932-9.413,0-17.914-5.579-21.656-14.214l-3.465-7.992-8.273-1.053c-7.28-.926-13.598-5.08-17.333-11.397-3.312-5.601-4.155-12.16-2.424-18.332l-.062-.061c-5.665-5.499-7.416-13.764-4.459-21.056,2.981-7.351,9.979-12.101,17.827-12.101,2.167,0,4.319.366,6.398,1.087l8.808,3.057c.838.291,1.647.655,2.42,1.088,1.012-.07,4.968-.743,12.881-6.656,9.394-7.019,19.444-8.52,27.521-9.725,9.215-1.376,9.42-1.938,9.871-3.171l8.684-23.735c-.948-3.682-1.066-8.072-.348-13.159l-25.156,3.188c-.994.126-2.003.19-2.997.19-9.454,0-17.802-5.835-20.299-14.191-2.301-7.699.83-15.941,7.791-20.51.596-.392,1.22-.74,1.865-1.042l42.45-19.893c2.818-13.437,8.674-28.657,23.145-35.232,4.051-1.841,8.334-2.774,12.73-2.774,9.31,0,18.646,4.169,27.8,12.403.21.01.42.021.629.034,10.582.651,20.363,5.784,26.971,13.842,7.729,2.265,15.557,7.083,23.36,14.394,8.734,8.181,9.186,21.946,1.005,30.682-4.091,4.366-9.866,6.87-15.847,6.87h0c-.474,0-.945-.015-1.414-.045-.087,7.093-1.392,14.149-3.884,20.85-.146.39-.307.772-.48,1.146,1.034,5.913.51,12.015-1.588,17.749-.183.5-.392.99-.627,1.467l-21.927,44.579-15.048,33.344-9.623,31.643c-2.669,10.492-11.977,17.76-22.868,17.76Z"/></g><path class="cls-2" d="m747.828,294.567c-2.604,0-5.215-.632-7.551-1.828l-10.943-5.599c-.085-.043-.176-.065-.271-.065-.083,0-.163.017-.238.05l-3.348,1.461c-2.108.92-4.34,1.386-6.634,1.386-5.211,0-10.183-2.492-13.299-6.666l-8.342-11.166c-.162-.217-.39-.24-.48-.24-.092,0-.179.021-.265.064l-3.526,1.783c-2.314,1.17-4.9,1.787-7.479,1.787-6.622,0-12.602-3.924-15.233-9.997l-4.916-11.339c-.083-.192-.264-.328-.471-.354l-11.891-1.512c-5.121-.651-9.564-3.573-12.191-8.016-2.627-4.443-3.045-9.745-1.148-14.545l.68-1.719c.089-.227.034-.479-.139-.647l-3.028-2.94c-3.61-3.505-4.729-8.766-2.848-13.403,1.904-4.697,6.355-7.731,11.34-7.731,1.384,0,2.764.235,4.103.7l8.809,3.057c.529.184,1.038.422,1.518.712.872.527,1.848.773,3.069.773,2.396,0,7.816-1.047,17.199-8.059,7.98-5.963,17.064-7.32,24.364-8.41,9.871-1.474,13.496-2.457,15.411-7.689l9.527-26.043c-1.437-3.287-1.628-7.867-.593-13.816-.063-2.474-.101-4.937-.111-7.376l-33.098,4.179c-.703.089-1.416.134-2.117.134-6.385,0-11.974-3.781-13.592-9.195-1.43-4.785.503-9.751,4.925-12.653.318-.209.65-.395.995-.556l45.686-21.408c3.305-18.306,9.66-29.059,19.834-33.682,3.135-1.425,6.444-2.147,9.835-2.147,8.138,0,16.551,4.166,25.019,12.384.36-.013.722-.02,1.083-.02.629,0,1.262.02,1.897.059,9.364.576,17.96,5.46,23.311,13.028,7.316,1.606,14.92,6.075,22.664,13.33,5.919,5.543,6.225,14.869.681,20.789-2.771,2.958-6.685,4.654-10.736,4.654h0c-3.28,0-6.425-1.082-8.992-3.069l-.093.666c1.478,9.33.525,18.9-2.773,27.766-.327.876-.786,1.68-1.348,2.391,1.46,5.442,1.222,11.194-.734,16.541-.097.267-.209.528-.334.782l-21.979,44.684-15.28,33.861-9.806,32.243c-1.832,7.453-8.412,12.628-16.12,12.628Z"/><path class="cls-5" d="m747.828,290.567c-2.001,0-3.929-.467-5.729-1.389l-10.944-5.6c-.645-.329-1.368-.504-2.093-.504-.637,0-1.255.129-1.838.384l-3.349,1.461c-1.6.698-3.293,1.052-5.033,1.052-3.956,0-7.729-1.892-10.094-5.06l-8.342-11.167c-.864-1.155-2.241-1.846-3.686-1.846-.723,0-1.419.166-2.069.495l-3.527,1.783c-1.757.888-3.718,1.356-5.674,1.356-5.026,0-9.565-2.979-11.563-7.588l-4.916-11.34c-.643-1.48-2.035-2.527-3.636-2.73l-11.892-1.512c-3.886-.495-7.258-2.712-9.252-6.084-1.993-3.372-2.312-7.396-.871-11.039l.679-1.72c.686-1.732.265-3.689-1.071-4.986l-3.028-2.94c-2.475-2.401-3.213-5.861-1.928-9.03,1.289-3.18,4.285-5.235,7.633-5.235.936,0,1.875.162,2.791.479l8.809,3.057c.265.092.519.211.759.356,1.502.909,3.184,1.35,5.141,1.35,5.066,0,11.842-3.062,19.593-8.854,7.173-5.36,15.348-6.581,22.561-7.657,10.011-1.495,15.81-2.709,18.576-10.271l10.147-27.737c-1.283-1.738-2.389-5.334-.959-13.196-.111-4.125-.148-8.222-.11-12.232l-37.611,4.767c-.537.068-1.08.103-1.614.103-4.63,0-8.644-2.607-9.76-6.341-.925-3.097.334-6.226,3.287-8.164.159-.104.326-.197.498-.278l47.576-22.294c2.954-18.14,8.668-28.581,17.901-32.776,2.611-1.187,5.363-1.789,8.18-1.789,7.286,0,15.011,4.028,22.961,11.972.17.17.333.344.49.524.882-.087,1.767-.132,2.65-.132.547,0,1.099.017,1.652.051,8.678.534,16.598,5.321,21.157,12.652,7.049,1.105,14.549,5.345,22.328,12.632,4.31,4.036,4.531,10.826.496,15.136-2.018,2.153-4.867,3.388-7.817,3.388h0c-2.729,0-5.327-1.027-7.319-2.893-1.755-1.644-3.284-2.905-4.601-3.872l-.398,2.58-.812,5.831c1.503,8.833.65,17.919-2.477,26.323-.394,1.055-1.134,1.917-2.061,2.476l-.048.309c1.922,5.232,1.936,10.928.02,16.167-.049.133-.104.264-.168.392l-22.007,44.743-15.414,34.157-9.914,32.6c-1.357,5.708-6.376,9.681-12.26,9.681Zm13.935-203.159c-.172.196-.391.491-.646.903l1.326-.621c-.271-.13-.499-.222-.681-.282Z"/><path class="cls-1" d="m785.345,176.299c-3.578,0-6.549-2.824-6.698-6.432-.025-.619-.603-15.34,1.178-31.384,2.631-23.699,8.88-37.496,19.103-42.18,8.953-4.102,19.365-.68,30.946,10.168,2.704,2.533,2.843,6.778.31,9.482-2.533,2.704-6.778,2.843-9.482.31-9.467-8.867-14.204-8.67-16.185-7.763-1.938.887-8.482,5.767-11.341,31.319-1.684,15.047-1.129,29.355-1.124,29.498.15,3.701-2.728,6.825-6.429,6.976-.093.004-.186.006-.279.006Z"/><path class="cls-8" d="m776.76,85.399l-87.351,40.934c-4.204,2.759-.359,7.818,5.388,7.09l40.095-5.081c4.567-.579,8.435,2.683,6.745,5.687l-2.728,4.852c-1.914,3.404-4.675,18.757.104,17.296l29.532,2.114,13.618,5.721,9.005-17.673-11.117-38.767-3.291-22.173Z"/><path class="cls-8" d="m807.126,97.723c-.151-.665-.968-.915-1.465-.449l-49.125,46.045c-2.203,2.084-.291,5.75,2.679,5.136l19.096-3.943c3.052-.63,5.571,2.401,4.393,5.286h0c-1.335,3.269,2.02,6.484,5.229,5.012l10.281-9.009c.261-.12.563-.105.811.039l5.634,3.265c.473.274,1.08.057,1.271-.456h0c2.953-7.937,3.706-16.525,2.177-24.854l1.88-13.489-2.862-12.583Z"/><path class="cls-7" d="m792.199,142.561l-24.242-8.869c-10.133-3.707-21.353,1.502-25.06,11.635l-15.306,41.836c-6.448,17.624-27.465,8.525-42.498,19.758-10.067,7.522-21.111,12.614-29.198,7.723l-8.808-3.057c-4.34-1.506-7.695,3.937-4.399,7.137l3.028,2.94c2.491,2.418,3.282,6.097,2.006,9.325l-.68,1.721c-2.061,5.216,1.345,10.977,6.909,11.685l11.891,1.512c3.01.383,5.595,2.324,6.801,5.108l4.916,11.341c1.967,4.538,7.348,6.483,11.762,4.252l3.529-1.784c3.725-1.883,8.265-.817,10.762,2.527l8.342,11.169c2.389,3.198,6.664,4.33,10.323,2.734l3.349-1.461c2.361-1.03,5.059-.947,7.352.226l10.944,5.6c4.999,2.558,11.069-.288,12.3-5.767l10.029-32.975,15.547-34.452,22.037-44.803c3.707-10.133-1.502-21.353-11.635-25.06Z"/><rect class="cls-3" x="766.979" y="91.208" width="39.074" height="58.79" rx="18.492" ry="18.492" transform="translate(8.899 -48.113) rotate(3.524)"/><rect class="cls-1" x="766.979" y="91.208" width="39.074" height="58.79" rx="18.492" ry="18.492" transform="translate(8.899 -48.113) rotate(3.524)"/><path class="cls-8" d="m809.981,111.034l.282-4.582c.775-12.586-8.8-23.417-21.386-24.192h0c-12.586-.775-23.417,8.8-24.192,21.386l-.282,4.582-7.583,58.465,28.583-47.155c.532-1.665,2.948-1.467,3.202.262l.285,1.938c.238,1.617,2.431,1.94,3.124.46l4.45-9.492c.767-1.636,3.228-1.025,3.14.78l3.458,42.334,6.918-44.785Z"/><circle class="cls-5" cx="784.308" cy="118.551" r="4.063"/><circle class="cls-5" cx="800.289" cy="119.536" r="4.063"/><path class="cls-1" d="m744.129,160.802c-3.5,0-6.448-2.714-6.686-6.257-.048-.716-1.17-17.761-.048-36.128,1.68-27.512,7.225-42.489,17.448-47.134,7.883-3.582,16.852-.429,26.659,9.372,2.621,2.619,2.622,6.866.003,9.487-2.619,2.621-6.867,2.622-9.487.003-6.05-6.046-9.971-7.398-11.625-6.647-3.514,1.596-8.137,11.883-9.6,35.619-1.08,17.519.024,34.36.035,34.528.248,3.696-2.547,6.894-6.243,7.143-.153.01-.306.015-.457.015Z"/><g class="cls-10"><path class="cls-6" d="m442.216,312.567c-6.837,0-13.678-1.651-19.782-4.775l-.871-.445c-2.566.469-5.18.705-7.825.705-12.223,0-23.942-5.238-32.117-14.19-.23.004-.461.006-.691.006-16.358,0-31.221-9.153-38.63-23.553-12.02-2.449-22.339-9.771-28.651-20.448-4.177-7.062-6.221-14.953-6.07-22.876-5.72-10.199-6.647-22.571-2.088-33.812,6.046-14.904,20.291-24.534,36.291-24.534,4.396,0,8.745.736,12.929,2.188l3.74,1.298c.365-.257.758-.541,1.177-.854,5.721-4.274,11.632-7.801,16.848-10.912,1.146-.684,2.433-1.451,3.749-2.252-16.068-1.927-29.794-12.943-34.324-28.105-4.845-16.215,1.567-33.452,15.955-42.893.516-.338,1.04-.663,1.572-.973l83.12-48.462c9.994-7.655,22.227-11.828,34.887-11.828,1.178,0,2.371.037,3.548.109,15.313.943,29.342,7.792,39.502,19.286,10.088,11.411,15.164,26.044,14.314,41.237l2.016,10.986c.053.288.104.577.153.865,9.152,4.866,18.289,11.552,27.281,19.975,8.108,7.594,12.773,17.893,13.137,28.997.362,11.103-3.62,21.682-11.214,29.79-7.827,8.361-18.894,13.159-30.356,13.159h-.012c-6.999,0-13.783-1.744-19.813-5.02l-11.528,31.509c-.293.802-.615,1.592-.967,2.37l-14.347,31.794-8.956,29.447c-5.075,19.055-22.09,32.21-41.975,32.21Z"/></g><g class="cls-9"><path class="cls-4" d="m442.216,297.567c-4.472,0-8.95-1.082-12.949-3.128l-5.955-3.048c-3.073,1.103-6.286,1.66-9.574,1.66-8.931,0-17.451-4.271-22.794-11.425l-2.768-3.705c-2.364.624-4.807.945-7.247.945-11.346,0-21.593-6.726-26.104-17.133l-2.214-5.105-5.155-.656c-8.777-1.116-16.394-6.125-20.896-13.74-3.471-5.87-4.692-12.615-3.581-19.166-5.491-6.796-6.928-16.017-3.588-24.25,3.738-9.216,12.527-15.172,22.391-15.172,2.718,0,5.413.457,8.012,1.359l8.655,3.004c.442.153.879.323,1.31.507,1.406-.498,4.288-1.814,8.848-5.222,5.096-3.807,10.412-6.978,15.553-10.044,9.056-5.401,17.608-10.503,19.677-16.154l3.841-10.5c-.315-1.887-.457-3.814-.464-5.733l-18.348,2.325c-1.195.151-2.409.229-3.606.229-11.598,0-21.873-7.279-24.986-17.7-2.932-9.811,1.012-20.283,9.812-26.057.294-.193.594-.379.898-.556l83.998-48.974c7.507-5.997,16.812-9.274,26.453-9.274.871,0,1.755.027,2.627.081,11.313.697,21.678,5.757,29.186,14.249,7.507,8.492,11.258,19.399,10.561,30.712l-.092,1.5,2.345,12.783c.401,2.188.691,4.394.87,6.608.987.9,1.962,1.824,2.925,2.772,9.293,4.285,18.733,10.892,28.139,19.701,5.185,4.855,8.168,11.439,8.399,18.539.231,7.098-2.314,13.862-7.169,19.046-5.005,5.346-12.08,8.413-19.409,8.413-6.772,0-13.227-2.549-18.172-7.178-3.352-3.14-6.274-5.452-8.736-7.138l-18.532,50.652c-.167.458-.352.91-.553,1.354l-14.744,32.675-9.322,30.654c-3.258,12.584-14.448,21.292-27.538,21.292Z"/></g><path class="cls-2" d="m442.216,285.567c-2.58,0-5.167-.626-7.482-1.811l-10.753-5.502c-.062-.032-.131-.049-.201-.049-.062,0-.12.013-.176.037l-3.294,1.437c-2.087.91-4.299,1.372-6.572,1.372-5.163,0-10.09-2.469-13.179-6.605l-8.195-10.972c-.117-.155-.275-.179-.36-.179-.068,0-.131.016-.196.048l-3.467,1.753c-2.293,1.158-4.855,1.771-7.411,1.771-6.561,0-12.486-3.889-15.095-9.906l-4.83-11.143c-.062-.143-.196-.244-.351-.264l-11.684-1.486c-5.075-.646-9.478-3.541-12.081-7.944-2.604-4.403-3.019-9.656-1.139-14.413l.67-1.693c.065-.165.024-.354-.104-.479l-2.976-2.889c-3.589-3.485-4.7-8.715-2.83-13.324,1.893-4.667,6.317-7.683,11.271-7.683,1.375,0,2.747.234,4.077.696l8.654,3.004c.529.184,1.038.422,1.517.712.834.505,1.77.74,2.944.739,2.337,0,7.628-1.025,16.814-7.89,4.596-3.434,9.64-6.442,14.518-9.352,10.937-6.523,21.268-12.685,24.799-22.337l5.09-13.914c-2.217-6.048-.214-15.573,1.577-20.38l-34.416,4.357c-.697.088-1.402.133-2.098.133-6.335,0-11.882-3.757-13.488-9.135-1.423-4.762.499-9.703,4.897-12.589.118-.078.237-.152.359-.223l84.82-49.453c5.487-4.625,12.408-7.162,19.587-7.162.626,0,1.257.019,1.89.058,8.114.5,15.548,4.129,20.932,10.22,5.385,6.09,8.074,13.913,7.574,22.026l-.182,2.962,2.609,14.224c.611,3.335.907,6.721.885,10.113,2.326,1.898,4.606,3.962,6.812,6.166.304.304.593.62.868.948,8.735,3.659,17.795,9.854,26.969,18.447,2.845,2.665,4.481,6.277,4.608,10.173.128,3.895-1.27,7.606-3.934,10.451-2.746,2.933-6.628,4.616-10.65,4.616-3.717,0-7.257-1.399-9.972-3.939-9.128-8.55-17.544-13.608-23.981-14.459-.228.896-.501,1.782-.821,2.657l-21.936,59.955c-.066.184-.141.364-.221.542l-15.062,33.38-9.631,31.666c-1.815,7.384-8.335,12.511-15.974,12.511Z"/><path class="cls-5" d="m442.216,281.567c-1.978,0-3.882-.462-5.66-1.372l-10.753-5.502c-.623-.318-1.323-.487-2.023-.487-.615,0-1.213.125-1.776.371l-3.292,1.436c-1.58.689-3.254,1.039-4.974,1.039-3.908,0-7.637-1.868-9.974-4.998l-8.196-10.973c-.835-1.118-2.167-1.785-3.564-1.785-.699,0-1.372.161-2.001.479l-3.467,1.753c-1.735.876-3.674,1.34-5.606,1.34-4.966,0-9.45-2.942-11.425-7.497l-4.83-11.143c-.621-1.432-1.968-2.444-3.517-2.641l-11.684-1.486c-3.84-.489-7.172-2.68-9.142-6.012-1.971-3.332-2.284-7.307-.861-10.907l.669-1.692c.661-1.674.254-3.566-1.038-4.821l-2.976-2.889c-2.452-2.381-3.184-5.81-1.91-8.95,1.278-3.151,4.247-5.187,7.564-5.187.928,0,1.858.16,2.766.475l8.654,3.004c.265.092.519.211.759.356,1.465.886,3.104,1.317,5.014,1.316,4.963,0,11.605-3.004,19.209-8.686,4.429-3.309,9.382-6.264,14.172-9.121,11.564-6.897,22.487-13.412,26.506-24.398l5.662-15.476c-.032-.051-.063-.103-.094-.155-2.915-4.984.114-17.259,1.776-20.214l2.283-4.062c-.358-.197-.937-.398-1.7-.398-.178,0-.358.011-.541.034l-39.395,4.992c-.531.067-1.067.102-1.595.102-4.58,0-8.552-2.583-9.656-6.281-.918-3.074.331-6.177,3.26-8.099.059-.039.119-.076.18-.111l85.129-49.634c4.807-4.154,10.92-6.437,17.264-6.437.545,0,1.094.017,1.645.051,7.047.434,13.504,3.586,18.18,8.876,4.677,5.29,7.014,12.084,6.579,19.132l-.212,3.449,2.697,14.704c.682,3.715.939,7.5.771,11.28,2.748,2.135,5.442,4.519,8.032,7.107.437.435.832.908,1.186,1.414,8.584,3.408,17.574,9.481,26.745,18.071,4.263,3.992,4.482,10.708.49,14.97-1.994,2.129-4.812,3.351-7.731,3.351-2.698,0-5.268-1.016-7.238-2.86-10.942-10.25-20.829-15.668-28.591-15.668-.487,0-.969.022-1.44.066-.205,1.822-.626,3.61-1.262,5.345l-21.935,59.956c-.034.091-.07.182-.11.271l-15.169,33.615-9.739,32.024c-1.341,5.64-6.299,9.563-12.113,9.563Z"/><path class="cls-1" d="m539.814,155.256c-1.615,0-3.233-.589-4.505-1.781-13.426-12.576-25.503-18.25-34.926-16.407-10.126,1.98-14.967,12.249-15.014,12.352-1.482,3.325-5.371,4.8-8.695,3.318-3.325-1.482-4.81-5.397-3.328-8.722.299-.67,7.51-16.452,24.316-19.847,13.996-2.828,29.695,3.796,46.659,19.686,2.657,2.489,2.793,6.659.305,9.316-1.297,1.385-3.053,2.085-4.812,2.085Z"/><path class="cls-8" d="m470.927,63.979l-89.872,52.399c-4.13,2.711-.353,7.682,5.294,6.966l39.394-4.992c4.487-.569,8.287,2.636,6.628,5.588l-2.68,4.767c-1.88,3.345-4.593,18.429.103,16.994l33.064-10.104,13.38,5.621,8.847-17.364-10.923-38.089-3.234-21.786Z"/><path class="cls-8" d="m500.762,76.087c-.149-.654-.951-.899-1.44-.441l-48.267,45.24c-2.164,2.048-.286,5.649,2.632,5.047l18.762-3.874c2.999-.619,5.474,2.359,4.316,5.194h0c-1.311,3.212,1.985,6.371,5.138,4.925l14.763-6.771c.256-.117.553-.103.797.038l5.536,3.208c.465.27,1.061.056,1.249-.448h0c2.902-7.798,3.641-16.236,2.139-24.42l-2.814-15.335-2.812-12.363Z"/><path class="cls-7" d="m486.095,120.142l-23.818-8.714c-9.956-3.642-20.98,1.476-24.622,11.432l-15.039,41.105c-6.335,17.316-27.269,24.312-42.039,35.349-9.891,7.391-20.742,12.394-28.688,7.588l-8.654-3.004c-4.265-1.48-7.561,3.868-4.322,7.012l2.975,2.889c2.447,2.376,3.225,5.99,1.971,9.162l-.668,1.691c-2.025,5.125,1.321,10.785,6.788,11.48l11.683,1.486c2.957.376,5.497,2.283,6.682,5.018l4.83,11.142c1.933,4.458,7.22,6.37,11.557,4.178l3.467-1.753c3.66-1.85,8.12-.803,10.574,2.483l8.196,10.973c2.347,3.142,6.548,4.255,10.142,2.686l3.291-1.436c2.319-1.012,4.97-.93,7.223.222l10.753,5.502c4.912,2.513,10.875-.283,12.085-5.666l9.853-32.399,15.275-33.85,21.935-59.956c3.642-9.956-1.476-20.98-11.432-24.622Z"/><rect class="cls-3" x="461.316" y="69.686" width="38.391" height="57.763" rx="18.492" ry="18.492" transform="translate(6.967 -29.347) rotate(3.524)"/><rect class="cls-1" x="461.316" y="69.686" width="38.391" height="57.763" rx="18.492" ry="18.492" transform="translate(6.967 -29.347) rotate(3.524)"/><path class="cls-8" d="m503.566,89.166l.277-4.502c.761-12.366-8.646-23.008-21.012-23.77h0c-12.366-.761-23.008,8.646-23.77,21.012l-.277,4.502,4.111,62.82,16.522-51.708c.523-1.636,2.896-1.441,3.146.257l.28,1.904c.234,1.589,2.388,1.906,3.07.452l4.372-9.326c.754-1.608,3.171-1.007,3.085.766l-3.138,64.513,13.333-66.921Z"/><circle class="cls-5" cx="478.342" cy="96.552" r="3.992"/><circle class="cls-5" cx="494.044" cy="97.519" r="3.992"/><path class="cls-1" d="m438.87,138.054c-1.453,0-2.915-.478-4.132-1.46-2.826-2.282-3.279-6.414-1.005-9.247.669-.833,16.66-20.426,40.469-21.728,14.738-.803,28.9,5.472,42.095,18.659,2.575,2.573,2.576,6.747.003,9.321-2.573,2.575-6.746,2.576-9.321.003-10.404-10.398-21.158-15.385-31.966-14.826-17.892.927-30.883,16.678-31.013,16.837-1.304,1.605-3.21,2.44-5.131,2.44Z"/><g class="cls-10"><path class="cls-6" d="m1037.861,311.567c-6.837,0-13.678-1.651-19.782-4.775l-.871-.445c-2.566.469-5.18.705-7.826.705-12.222,0-23.941-5.238-32.116-14.19-.23.004-.461.006-.691.006-16.358,0-31.221-9.153-38.63-23.553-12.02-2.449-22.339-9.771-28.651-20.447-4.176-7.062-6.221-14.953-6.07-22.875-5.72-10.198-6.648-22.569-2.089-33.812,6.045-14.905,20.29-24.537,36.292-24.537,4.396,0,8.745.736,12.929,2.188l3.74,1.298c.365-.257.758-.541,1.177-.854,5.72-4.274,11.632-7.8,16.848-10.911,1.141-.681,2.42-1.444,3.729-2.241-16.246-1.873-29.698-12.699-34.305-28.115-4.846-16.214,1.564-33.451,15.951-42.893.517-.339,1.042-.664,1.575-.975l83.12-48.461c9.993-7.655,22.226-11.828,34.888-11.828,1.178,0,2.371.037,3.548.109,15.314.943,29.343,7.793,39.503,19.287,8.854,10.016,13.847,22.515,14.36,35.695,4.168,4.765,7.146,10.334,8.78,16.338,3.832,2.882,7.677,6.131,11.549,9.758,16.736,15.681,17.598,42.051,1.923,58.787-7.832,8.363-18.897,13.16-30.356,13.16h-.003c-2.768,0-5.501-.272-8.167-.804l-14.109,38.564c-.293.802-.615,1.592-.967,2.37l-14.347,31.794-8.956,29.449c-5.077,19.053-22.093,32.208-41.975,32.208Z"/></g><g class="cls-9"><path class="cls-4" d="m1037.861,296.567c-4.472,0-8.95-1.082-12.949-3.128l-5.955-3.048c-3.073,1.103-6.286,1.66-9.575,1.66-8.93,0-17.45-4.271-22.793-11.425l-2.768-3.705c-2.364.624-4.807.945-7.247.945-11.346,0-21.593-6.726-26.104-17.133l-2.214-5.105-5.155-.656c-8.777-1.116-16.394-6.125-20.896-13.74-3.471-5.87-4.692-12.614-3.581-19.166-5.491-6.795-6.929-16.015-3.589-24.249,3.738-9.218,12.527-15.174,22.392-15.174,2.718,0,5.413.457,8.012,1.359l8.655,3.004c.442.153.879.323,1.31.507,1.406-.498,4.288-1.815,8.848-5.222,5.096-3.807,10.411-6.978,15.553-10.044,9.056-5.401,17.608-10.503,19.677-16.155l3.841-10.5c-.315-1.888-.457-3.813-.464-5.733l-18.348,2.325c-1.195.151-2.409.229-3.606.229-11.598,0-21.873-7.278-24.986-17.7-2.932-9.812,1.012-20.283,9.812-26.058.294-.193.594-.379.898-.556l83.997-48.974c7.506-5.997,16.812-9.274,26.454-9.274.871,0,1.755.027,2.627.081,11.313.697,21.679,5.757,29.185,14.25,7.507,8.492,11.258,19.399,10.561,30.712l-.068,1.118c.861.797,1.713,1.617,2.555,2.457,4.484,4.481,7.171,10.282,7.698,16.527,4.899,3.255,9.861,7.244,14.929,11.991,10.701,10.025,11.251,26.885,1.23,37.585-5.008,5.347-12.083,8.414-19.409,8.414h-.002c-6.149,0-12.035-2.103-16.769-5.955l-19.596,53.561c-.167.458-.352.91-.553,1.354l-14.744,32.675-9.322,30.654c-3.258,12.585-14.449,21.292-27.538,21.292Z"/></g><path class="cls-2" d="m1037.861,284.567c-2.58,0-5.167-.626-7.482-1.811l-10.752-5.502c-.063-.032-.132-.049-.203-.049-.061,0-.12.013-.176.037l-3.294,1.437c-2.086.91-4.298,1.372-6.572,1.372-5.163,0-10.089-2.469-13.178-6.605l-8.195-10.971c-.117-.156-.276-.18-.36-.18-.068,0-.131.015-.195.048l-3.468,1.753c-2.293,1.158-4.855,1.771-7.411,1.771-6.561,0-12.486-3.889-15.095-9.906l-4.83-11.143c-.062-.143-.197-.244-.352-.264l-11.684-1.486c-5.074-.646-9.477-3.541-12.08-7.944-2.604-4.403-3.019-9.656-1.139-14.413l.668-1.689c.066-.17.026-.358-.103-.483l-2.976-2.889c-3.589-3.484-4.7-8.713-2.831-13.323,1.893-4.667,6.317-7.684,11.271-7.684,1.375,0,2.747.234,4.077.696l8.654,3.004c.529.184,1.038.422,1.518.712.833.504,1.769.739,2.942.739,2.337,0,7.629-1.025,16.815-7.89,4.596-3.434,9.64-6.442,14.518-9.351,10.937-6.523,21.267-12.685,24.799-22.338l5.09-13.914c-2.217-6.047-.214-15.573,1.576-20.38l-34.415,4.357c-.697.088-1.403.133-2.098.133-6.335,0-11.882-3.756-13.489-9.135-1.423-4.762.5-9.703,4.898-12.589.118-.078.237-.152.359-.223l84.819-49.453c5.487-4.625,12.408-7.162,19.588-7.162.626,0,1.257.019,1.89.058,8.114.5,15.548,4.129,20.932,10.22s8.073,13.913,7.573,22.026l-.182,2.962.928,5.056c1.775,1.477,3.528,3.078,5.235,4.783,2.757,2.755,4.275,6.419,4.276,10.316,0,1.457-.211,2.88-.619,4.237,6.215,3.298,12.651,8.055,19.249,14.234,5.871,5.501,6.174,14.753.675,20.624-2.748,2.934-6.63,4.617-10.65,4.617h0c-3.717,0-7.259-1.4-9.973-3.942-6.254-5.858-10.936-8.826-14.089-10.329.061,3.312-.48,6.637-1.638,9.798l-21.936,59.956c-.066.184-.141.364-.221.542l-15.062,33.38-9.631,31.667c-1.816,7.383-8.337,12.51-15.974,12.51Z"/><path class="cls-5" d="m1037.861,280.567c-1.978,0-3.882-.462-5.66-1.372l-10.753-5.502c-.623-.318-1.323-.487-2.024-.487-.615,0-1.213.125-1.776.371l-3.292,1.436c-1.58.689-3.253,1.039-4.974,1.039-3.907,0-7.636-1.868-9.973-4.998l-8.196-10.973c-.835-1.118-2.167-1.785-3.564-1.785-.699,0-1.372.161-2,.479l-3.468,1.753c-1.735.876-3.674,1.34-5.606,1.34-4.966,0-9.45-2.942-11.425-7.497l-4.83-11.143c-.621-1.432-1.969-2.444-3.518-2.641l-11.683-1.486c-3.84-.489-7.172-2.68-9.142-6.012-1.971-3.332-2.284-7.307-.861-10.907l.667-1.69c.663-1.676.256-3.568-1.036-4.823l-2.976-2.889c-2.452-2.38-3.184-5.809-1.91-8.949,1.277-3.151,4.247-5.187,7.564-5.187.928,0,1.858.16,2.766.475l8.654,3.004c.265.092.519.211.759.356,1.465.886,3.104,1.317,5.014,1.316,4.963,0,11.605-3.004,19.209-8.686,4.429-3.309,9.382-6.264,14.172-9.121,11.563-6.897,22.486-13.412,26.506-24.398l5.662-15.476c-.032-.051-.063-.103-.094-.155-2.915-4.982.113-17.258,1.774-20.214l2.285-4.063c-.358-.197-.938-.398-1.701-.398-.177,0-.358.011-.541.034l-39.394,4.992c-.531.067-1.067.102-1.595.102-4.581,0-8.552-2.583-9.656-6.28-.919-3.074.33-6.178,3.26-8.1.059-.039.119-.076.18-.111l85.129-49.634c4.806-4.154,10.919-6.437,17.264-6.437.545,0,1.094.017,1.645.051,7.047.434,13.504,3.586,18.18,8.876,4.676,5.29,7.013,12.084,6.578,19.131l-.212,3.449,1.282,6.986c2.06,1.64,4.099,3.465,6.075,5.441,2.002,2,3.104,4.659,3.104,7.488,0,2.213-.672,4.323-1.923,6.094,6.919,3.065,14.226,8.183,21.818,15.295,4.262,3.993,4.481,10.708.49,14.97-1.995,2.129-4.812,3.351-7.731,3.351h0c-2.697,0-5.269-1.017-7.238-2.861-7.157-6.704-13.819-11.091-18.943-12.496-.371.091-.754.138-1.141.138-.487,0-.971-.074-1.435-.219,1.121,4.47.902,9.215-.698,13.591l-21.936,59.956c-.034.091-.07.182-.11.271l-15.169,33.615-9.739,32.024c-1.342,5.64-6.3,9.563-12.113,9.563Z"/><path class="cls-1" d="m1075.017,152.283c-.357,0-.718-.029-1.082-.089-3.584-.594-6.013-3.967-5.429-7.553.038-.237.975-5.861,3.747-12.078,3.98-8.925,9.879-14.936,17.06-17.382,11.71-3.989,25.7,1.53,41.579,16.403,2.657,2.489,2.793,6.659.305,9.316-2.489,2.657-6.659,2.793-9.316.305-11.693-10.952-21.739-15.766-28.291-13.555-9.131,3.083-12.049,18.968-12.076,19.128-.543,3.219-3.335,5.506-6.496,5.506Z"/><path class="cls-8" d="m1066.572,62.979l-89.872,52.399c-4.13,2.711-.353,7.682,5.294,6.966l39.394-4.992c4.487-.569,8.287,2.636,6.628,5.588l-2.68,4.767c-1.88,3.345-4.593,18.429.103,16.994l33.064-10.104,13.38,5.621,8.847-17.364-10.923-38.089-3.234-21.786Z"/><path class="cls-8" d="m1096.407,75.087c-.149-.654-.951-.899-1.44-.441l-48.267,45.24c-2.164,2.048-.286,5.649,2.632,5.047l18.762-3.874c2.999-.619,5.474,2.359,4.316,5.194h0c-1.311,3.212,1.985,6.371,5.138,4.925l14.763-6.771c.256-.117.553-.103.797.038l5.536,3.208c.465.27,1.061.056,1.249-.448h0c2.902-7.798,3.641-16.236,2.139-24.42l-2.814-15.335-2.812-12.363Z"/><path class="cls-7" d="m1081.74,119.142l-23.818-8.714c-9.956-3.642-20.98,1.476-24.622,11.432l-15.039,41.105c-6.335,17.316-27.269,24.312-42.039,35.349-9.891,7.391-20.742,12.394-28.688,7.588l-8.654-3.004c-4.265-1.48-7.561,3.868-4.322,7.012l2.975,2.889c2.447,2.376,3.225,5.99,1.971,9.162l-.668,1.691c-2.025,5.125,1.321,10.785,6.788,11.48l11.683,1.486c2.957.376,5.497,2.283,6.682,5.018l4.83,11.142c1.933,4.458,7.22,6.37,11.557,4.178l3.467-1.753c3.66-1.85,8.12-.803,10.574,2.483l8.196,10.973c2.347,3.142,6.548,4.255,10.142,2.686l3.291-1.436c2.319-1.012,4.97-.93,7.223.222l10.753,5.502c4.912,2.513,10.875-.283,12.085-5.666l9.853-32.399,15.275-33.85,21.935-59.956c3.642-9.956-1.476-20.98-11.432-24.622Z"/><rect class="cls-3" x="1056.961" y="68.686" width="38.391" height="57.763" rx="18.492" ry="18.492" transform="translate(8.031 -65.958) rotate(3.524)"/><rect class="cls-1" x="1056.961" y="68.686" width="38.391" height="57.763" rx="18.492" ry="18.492" transform="translate(8.031 -65.958) rotate(3.524)"/><path class="cls-8" d="m1099.212,88.166l.277-4.502c.761-12.366-8.646-23.008-21.012-23.77h0c-12.366-.761-23.008,8.646-23.77,21.012l-.277,4.502,4.111,62.82,16.522-51.708c.523-1.636,2.896-1.441,3.146.257l.28,1.904c.234,1.589,2.388,1.906,3.07.452l4.372-9.326c.754-1.608,3.171-1.007,3.085.766l-3.138,64.513,13.333-66.921Z"/><circle class="cls-5" cx="1073.987" cy="95.552" r="3.992"/><circle class="cls-5" cx="1089.69" cy="96.519" r="3.992"/><path class="cls-1" d="m1034.513,137.062c-.942,0-1.899-.203-2.807-.632-3.289-1.553-4.7-5.473-3.151-8.764.67-1.423,16.697-34.896,42.579-39.416,12.59-2.199,24.926,2.635,36.665,14.366,2.575,2.573,2.576,6.746.003,9.321-2.573,2.575-6.746,2.576-9.321.003-8.517-8.512-16.946-12.116-25.054-10.709-9.65,1.674-17.956,10.013-23.224,16.714-6.112,7.773-9.688,15.267-9.724,15.342-1.127,2.38-3.496,3.775-5.965,3.775Z"/></svg>