<?xml version="1.0" encoding="UTF-8"?>
<svg xmlns="http://www.w3.org/2000/svg" xmlns:xlink="http://www.w3.org/1999/xlink" viewBox="0 0 160 300">
  <defs>
    <style>
      .cls-1 {
        fill: #020202;
      }

      .cls-1, .cls-2, .cls-3, .cls-4, .cls-5, .cls-6, .cls-7, .cls-8, .cls-9, .cls-10, .cls-11, .cls-12 {
        stroke-width: 0px;
      }

      .cls-2 {
        fill: rgba(251, 251, 231, .5);
      }

      .cls-3 {
        fill: #f2b71b;
      }

      .cls-13 {
        isolation: isolate;
      }

      .cls-4 {
        fill: #11707c;
        mix-blend-mode: multiply;
        opacity: .25;
      }

      .cls-5 {
        fill: none;
      }

      .cls-6 {
        fill: #6dbe45;
      }

      .cls-14 {
        clip-path: url(#clippath);
      }

      .cls-7 {
        fill: #1e9848;
      }

      .cls-8 {
        fill: #1c8441;
      }

      .cls-9 {
        fill: #f2ec69;
      }

      .cls-10 {
        fill: #2b562a;
      }

      .cls-11 {
        fill: #fcfcfc;
      }

      .cls-12 {
        fill: #5aa545;
      }
    </style>
    <clipPath id="clippath">
      <path class="cls-5" d="M110.723,150.827v.02l-.235.041c-1.123.194-2.246.388-3.349.562-1.164-4.452-3.369-8.464-6.32-11.793-2.257-2.553-4.962-4.687-7.984-6.3-3.86-2.083-8.23-3.288-12.855-3.39-.225-.02-.459-.02-.694-.02-13.233,0-24.556,9.057-27.823,21.442-.674-.112-1.348-.214-2.022-.327l-.194-.031c.143-1.072.286-2.175.429-3.298.102-.745.194-1.491.296-2.256.092-.694.184-1.399.276-2.103.061-.47.123-.939.184-1.409.102-.786.214-1.583.317-2.389.5-3.757,1.021-7.668,1.552-11.64.051-.419.112-.827.163-1.246.531-3.962,1.062-7.964,1.593-11.936.082-.653.174-1.297.255-1.95,1.593-11.997,3.104-23.494,4.135-31.887,1.981-16.306,3.329-35.491,4.074-48.019h34.95c.735,12.528,2.083,31.713,4.084,48.019.184,1.491.378,3.084.592,4.758.163,1.338.347,2.736.531,4.176.01.082.02.163.031.245.123,1.001.255,2.032.398,3.073.092.756.194,1.511.296,2.287.153,1.154.306,2.328.459,3.533.102.796.214,1.603.317,2.42.214,1.623.429,3.278.653,4.952.112.827.225,1.664.337,2.512.112.847.225,1.695.337,2.542.051.429.112.858.174,1.287.082.643.174,1.297.255,1.94.255,1.92.511,3.859.776,5.789.163,1.246.327,2.491.49,3.727.123.919.245,1.817.368,2.726.082.674.174,1.338.265,2.011.02.184.051.357.071.541.112.847.225,1.695.337,2.532.225,1.685.439,3.349.664,4.993.174,1.297.337,2.573.511,3.829.347,2.726.694,5.36,1.031,7.872,0,.061.01.123.02.194.082.664.174,1.327.255,1.971Z"/>
    </clipPath>
  </defs>
  <g class="cls-13">
    <g id="Layer_1" data-name="Layer 1">
      <path class="cls-7" d="M96.745,2.542v7.607h-33.5V2.542c0-1.409,1.133-2.542,2.542-2.542h28.405c1.409,0,2.553,1.133,2.553,2.542Z"/>
      <rect class="cls-7" x="63.245" y="11.783" width="33.5" height="5.565"/>
      <rect class="cls-8" x="64.378" y="10.149" width="31.223" height="1.634"/>
      <path class="cls-6" d="M98.93,18.123v.582c0,.419-.347.766-.776.766h-1.409s.02.459.061,1.317c.102,2.062.317,6.402.664,12.109h-34.95c.347-5.708.562-10.047.664-12.109.041-.858.061-1.317.061-1.317h-1.399c-.439,0-.786-.347-.786-.766v-.582c0-.419.347-.776.786-.776h36.308c.429,0,.776.357.776.776Z"/>
      <path class="cls-6" d="M111.162,243.312c0,5.891,1.96,13.212,1.96,22.044s-4.258,30.447-9.659,30.447-9.496-8.352-11.63-8.352-1.797,12.548-11.834,12.548h-.02c-10.016-.02-9.7-12.548-11.824-12.548s-6.228,8.352-11.619,8.352-9.659-21.615-9.659-30.447,1.96-16.153,1.96-22.044v-56.637c0-6.872-1.96-9.72-1.96-14.958,0-1.491.684-7.372,1.715-15.622,2.359.388,4.717.735,7.086,1.031.817-12.334,11.078-22.075,23.606-22.075.235,0,.459,0,.694.02,4.911.133,9.455,1.777,13.182,4.472,3.665,2.655,6.545,6.341,8.199,10.629.868,2.205,1.399,4.564,1.552,7.035,2.828-.357,5.646-.796,8.464-1.297,1.052,8.352,1.746,14.294,1.746,15.806,0,5.238-1.96,8.087-1.96,14.958v56.637Z"/>
      <path class="cls-9" d="M111.376,155.912c-2.818.5-5.636.939-8.464,1.297-.153-2.471-.684-4.83-1.552-7.035-1.654-4.288-4.533-7.974-8.199-10.629-3.727-2.696-8.27-4.339-13.182-4.472-.235-.02-.459-.02-.694-.02-12.528,0-22.789,9.741-23.606,22.075-2.369-.296-4.727-.643-7.086-1.031.204-1.603.419-3.298.653-5.064.143-1.072.286-2.175.429-3.298.092-.745.194-1.501.296-2.256.082-.694.184-1.399.276-2.103.061-.47.123-.939.184-1.409.102-.786.214-1.583.317-2.389.5-3.757,1.021-7.668,1.552-11.64.051-.419.112-.827.163-1.246.531-3.962,1.062-7.964,1.593-11.936.082-.653.174-1.297.255-1.95,1.593-11.997,3.104-23.494,4.135-31.887,1.981-16.306,3.329-35.491,4.074-48.019h34.95c.735,12.528,2.083,31.713,4.084,48.019.184,1.491.378,3.084.592,4.758.174,1.348.347,2.736.531,4.176.01.082.02.163.031.245.123,1.001.255,2.032.398,3.073.102.756.194,1.521.296,2.287.153,1.154.306,2.328.459,3.533.102.796.214,1.603.317,2.42.214,1.623.429,3.278.653,4.952.112.837.225,1.674.337,2.512.112.847.225,1.695.337,2.542.051.429.112.858.174,1.287.082.643.174,1.297.255,1.94.255,1.92.511,3.859.776,5.789.163,1.246.327,2.481.49,3.727.123.919.245,1.817.368,2.726.082.674.174,1.338.265,2.011.02.184.051.357.071.541.112.847.225,1.695.337,2.532.225,1.685.439,3.349.664,4.993.174,1.297.337,2.573.511,3.829.357,2.726.705,5.36,1.031,7.872,0,.061.01.123.02.194.082.664.174,1.327.255,1.971v.02c.061.439.112.878.174,1.307.163,1.297.327,2.553.48,3.757Z"/>
      <path class="cls-9" d="M110.723,150.827v.02l-.235.041c-1.123.194-2.246.388-3.349.562-1.164-4.452-3.369-8.464-6.32-11.793-2.257-2.553-4.962-4.687-7.984-6.3-3.86-2.083-8.23-3.288-12.855-3.39-.225-.02-.459-.02-.694-.02-13.233,0-24.556,9.057-27.823,21.442-.674-.112-1.348-.214-2.022-.327l-.194-.031c.143-1.072.286-2.175.429-3.298.102-.745.194-1.491.296-2.256.092-.694.184-1.399.276-2.103.061-.47.123-.939.184-1.409.102-.786.214-1.583.317-2.389.5-3.757,1.021-7.668,1.552-11.64.051-.419.112-.827.163-1.246.531-3.962,1.062-7.964,1.593-11.936.082-.653.174-1.297.255-1.95,1.593-11.997,3.104-23.494,4.135-31.887,1.981-16.306,3.329-35.491,4.074-48.019h34.95c.735,12.528,2.083,31.713,4.084,48.019.184,1.491.378,3.084.592,4.758.163,1.338.347,2.736.531,4.176.01.082.02.163.031.245.123,1.001.255,2.032.398,3.073.092.756.194,1.511.296,2.287.153,1.154.306,2.328.459,3.533.102.796.214,1.603.317,2.42.214,1.623.429,3.278.653,4.952.112.827.225,1.664.337,2.512.112.847.225,1.695.337,2.542.051.429.112.858.174,1.287.082.643.174,1.297.255,1.94.255,1.92.511,3.859.776,5.789.163,1.246.327,2.491.49,3.727.123.919.245,1.817.368,2.726.082.674.174,1.338.265,2.011.02.184.051.357.071.541.112.847.225,1.695.337,2.532.225,1.685.439,3.349.664,4.993.174,1.297.337,2.573.511,3.829.347,2.726.694,5.36,1.031,7.872,0,.061.01.123.02.194.082.664.174,1.327.255,1.971Z"/>
      <path class="cls-12" d="M96.806,20.788h-33.623c.041-.858.061-1.317.061-1.317h33.5s.02.459.061,1.317Z"/>
      <path class="cls-3" d="M111.376,155.912c-2.818.5-5.636.939-8.464,1.297-.153-2.471-.684-4.83-1.552-7.035-1.654-4.288-4.533-7.974-8.199-10.629-3.727-2.696-8.27-4.339-13.182-4.472-.235-.02-.459-.02-.694-.02-12.528,0-22.789,9.741-23.606,22.075-2.369-.296-4.727-.643-7.086-1.031.204-1.603.419-3.298.653-5.064l.194.031c.674.112,1.348.214,2.022.327,3.267-12.385,14.591-21.442,27.823-21.442.235,0,.47,0,.694.02,4.625.102,8.995,1.307,12.855,3.39,3.022,1.613,5.728,3.747,7.984,6.3,2.951,3.329,5.156,7.341,6.32,11.793,1.103-.174,2.226-.368,3.349-.562l.235-.041c.061.439.112.878.174,1.307.163,1.297.327,2.553.48,3.757Z"/>
      <rect class="cls-2" x="93.2" y="181.956" width="7.647" height="65.172" rx="3.745" ry="3.745"/>
      <g class="cls-14">
        <g>
          <path class="cls-11" d="M52.998,100.923c.043.041.051,0,.055-.027.208-1.439.986-2.548,2.025-3.508.58-.536,1.187-1.036,1.929-1.337.828-.337,1.625-.323,2.351.258.409.328.666.768.862,1.247.247.604.372,1.238.462,1.88.031.222.063.445.114.67.064-.282.125-.564.193-.844.277-1.139.597-2.265,1.141-3.312.196-.378.424-.736.758-1.012.68-.561,1.476-.624,2.231-.167.821.498,1.344,1.237,1.676,2.123.24.638.366,1.304.463,1.975.042.287.081.575.131.862.177-.919.386-1.827.669-2.717.209-.66.458-1.306.77-1.926.171-.34.382-.654.678-.9.752-.625,1.771-.619,2.564.006.817.644,1.278,1.508,1.55,2.489.2.72.297,1.459.4,2.197.101.723.199,1.447.297,2.171.097.714.187,1.428.289,2.141.113.794.235,1.586.354,2.379.061.403.133.804.243,1.241.156-.903.409-1.737.728-2.546.647-1.641,1.551-3.129,2.84-4.35.723-.685,1.534-1.263,2.491-1.578.925-.305,1.798-.174,2.556.47.402.342.541.828.65,1.321.058.263.087.531.115.844.148-.315.264-.591.405-.854.636-1.194,1.456-2.233,2.569-3.022.451-.319.948-.534,1.493-.635.089-.017.166-.031.182-.155.177-1.316.48-2.605.862-3.876.393-1.309.906-2.563,1.659-3.71.442-.672.97-1.256,1.702-1.618.57-.282,1.152-.333,1.696.058.504.362.672.893.606,1.486-.074.673-.34,1.299-.573,1.928-.344.928-.547,1.886-.699,2.86-.161,1.035-.276,2.076-.421,3.113-.006.045-.005.092-.008.15.046-.034.054-.077.071-.115.299-.653.674-1.258,1.133-1.811.529-.637,1.432-.931,2.148-.701.64.206,1.081.918,1.004,1.584-.126,1.091-.355,2.166-.504,3.253-.067.491-.137.981-.176,1.491.064-.032.077-.086.1-.129.529-.968.87-2.005,1.142-3.068.175-.685.343-1.373.648-2.017.427-.9,1.111-1.488,2.089-1.709.63-.143,1.174.013,1.597.519.06.072.087.058.15.006,1.457-1.22,3.439-.348,3.749,1.333.239,1.299-.629,2.514-1.936,2.706-.734.107-1.361-.106-1.897-.609-.033-.031-.065-.061-.118-.11-.076.519-.157,1.015-.22,1.514-.068.538-.122,1.077-.068,1.622.097.976.286,1.926.761,2.798.212.389.508.676.963.759.186.034.366.002.547-.034.434-.086.868-.137,1.306-.023.424.11.702.377.846.787.012.033.008.073.043.094.004.002.015-.008.023-.012v.092c-.05.02-.025.041,0,.061v.307c-.007.009-.014.019-.021.028.007,0,.014.002.021.003v.123c-.036-.045-.049-.01-.058.019-.135.441-.434.759-.786,1.032-.77.596-1.638.953-2.616,1-.535.026-1.075.058-1.6-.104-1.431-.442-2.473-1.349-3.178-2.659-.062-.115-.119-.233-.185-.364-.029.04-.05.067-.068.094-.293.428-.61.835-1.017,1.162-.642.514-1.359.772-2.192.656-.287-.04-.561-.118-.857-.24.183.492.35.954.526,1.414.205.536.324,1.076.116,1.639-.041.11.042.089.097.094.592.058,1.049.45,1.189,1.029.073.302.045.611.035.917-.006.208-.073.4-.173.581-.021.039-.054.071-.041.125.052.222.04.449.03.673-.01.209.003.397.14.571.078.098.105.229.132.355.053.254.02.51.027.765.01.371-.122.692-.377.956-.079.082-.08.138-.039.235.462,1.087.928,2.171,1.372,3.265.303.747-.13,1.591-.897,1.798-.259.07-.528.052-.792.074-.458.038-.845-.114-1.139-.474-.067-.082-.091-.032-.133.018-.261.304-.593.459-.995.46-.174,0-.348-.001-.522,0-.236.002-.455-.056-.654-.181-.074-.047-.134-.042-.213-.012-.336.129-.685.197-1.047.194-.425-.004-.85-.003-1.275,0-.327.002-.615-.105-.855-.318-.093-.083-.149-.068-.245-.019-1.125.584-2.231.568-3.308-.124-.074-.047-.115-.045-.182.007-.653.5-1.397.611-2.192.5-.468-.065-.887-.265-1.295-.484-.526-.283-.788-.912-.652-1.492.072-.308.225-.578.371-.851.029-.054.044-.092.011-.151-.156-.269-.236-.562-.257-.872-.054-.787.171-1.465.796-1.975.133-.109.184-.201.175-.382-.061-1.238-.043-2.478-.045-3.718,0-.202.023-.399.109-.582.039-.083.01-.104-.058-.132-.175-.072-.335-.172-.487-.286-.373-.281-.658-.638-.907-1.058-.55.84-1.151,1.614-2.039,2.117.347.34.51.735.467,1.201-.04.421-.216.794-.513,1.088-1.133,1.122-2.494,1.515-4.045,1.171-1.025-.228-1.806-.854-2.446-1.666-.733-.93-1.246-1.982-1.689-3.071-.274-.674-.507-1.362-.722-2.061-.044.041-.041.088-.044.132-.059.853-.109,1.706-.101,2.562.006.604.05,1.208-.025,1.811-.095.76-.38,1.423-.962,1.944-.84.751-2.039.811-2.946.142-.403-.297-.708-.681-.943-1.116-.523-.968-.876-2.003-1.173-3.059-.035-.126-.07-.253-.105-.379-.014.497-.018.989-.013,1.48.006.548.002,1.097.036,1.643.052.848.134,1.693.202,2.54.069.857.14,1.713.202,2.57.042.579.026,1.157-.131,1.72-.286,1.024-.877,1.749-1.97,1.97-.023.005-.071.005-.035.053h-.707c.029-.075-.037-.053-.065-.057-.731-.106-1.283-.498-1.713-1.08-.418-.565-.663-1.21-.881-1.871-.544-1.654-.928-3.345-1.218-5.06-.131-.775-.248-1.552-.355-2.331-.082-.597-.166-1.195-.219-1.795-.095-1.091-.131-2.185-.215-3.277-.07-.918-.011-1.842-.126-2.759-.045-.356-.047-.718-.068-1.078-.17.174-.302.36-.438.542-.291.39-.585.784-1.032,1.011-.774.393-1.529.256-1.93-.654-.111-.253-.181-.518-.226-.791-.005-.029.027-.104-.059-.069v-1.199ZM61.071,111.52c-.096-.385-.132-.739-.184-1.091-.165-1.098-.281-2.202-.388-3.307-.088-.922-.168-1.845-.266-2.765-.112-1.053-.15-2.113-.285-3.165-.108-.842-.192-1.687-.378-2.516-.113-.505-.276-.996-.609-1.408-.261-.323-.595-.492-1.017-.464-.383.025-.722.179-1.041.376-.69.425-1.283.968-1.814,1.575-.643.734-1.053,1.577-1.124,2.564-.032.444.01.88.2,1.289.129.276.259.319.541.198.203-.087.364-.23.496-.401.25-.324.488-.657.739-.98.191-.248.397-.484.68-.634.27-.144.493-.091.666.161.152.222.241.472.29.736.123.672.124,1.355.171,2.033.079,1.143.085,2.292.167,3.436.048.679.064,1.361.135,2.038.129,1.225.307,2.445.505,3.661.295,1.807.688,3.589,1.267,5.328.188.563.392,1.119.774,1.588.325.399.747.61,1.262.632.589.025,1.113-.345,1.372-.972.165-.399.209-.82.217-1.246.009-.482-.055-.96-.092-1.44-.045-.571-.089-1.143-.134-1.715-.068-.862-.163-1.723-.197-2.587-.044-1.126-.053-2.253-.054-3.38-.002-1.443-.108-2.888.018-4.33.04-.453.062-.909.182-1.351.032-.117.082-.254.206-.259.124-.006.155.142.194.244.08.206.093.428.141.643.281,1.261.562,2.521.843,3.782.294,1.321.629,2.63,1.166,3.878.219.509.46,1.005.874,1.391.337.314.733.474,1.194.381.664-.133,1.049-.58,1.25-1.198.155-.474.151-.969.134-1.46-.036-.999-.014-1.998.064-2.994.076-.964.121-1.931.24-2.891.081-.655.16-1.31.245-1.964.018-.142.052-.286.184-.373.085-.056.149-.067.189.064.103.338.169.684.235,1.03.348,1.829.831,3.62,1.513,5.354.401,1.02.868,2.008,1.552,2.875.78.987,1.757,1.577,3.062,1.421.741-.088,1.414-.358,1.955-.899.135-.135.243-.289.293-.478.07-.262-.035-.467-.291-.56-.162-.059-.329-.066-.499-.046-.199.023-.393.069-.583.127-.571.173-1.029.021-1.402-.443-.543-.676-.893-1.449-1.168-2.26-.425-1.252-.684-2.541-.872-3.848-.196-1.366-.382-2.734-.571-4.102-.147-1.068-.271-2.14-.466-3.202-.134-.729-.35-1.428-.791-2.039-.197-.273-.428-.51-.713-.689-.483-.303-1.007-.218-1.377.214-.158.184-.274.394-.376.612-.603,1.29-.977,2.652-1.223,4.048-.338,1.914-.576,3.843-.749,5.779-.03.337-.054.678-.134,1.01-.031-.399-.129-.786-.195-1.178-.214-1.269-.505-2.525-.643-3.808-.072-.666-.167-1.329-.255-1.993-.092-.689-.182-1.378-.397-2.043-.239-.742-.614-1.393-1.272-1.846-.502-.346-.995-.281-1.389.182-.234.275-.393.596-.539.923-.472,1.054-.764,2.163-1.01,3.286-.165.75-.29,1.507-.359,2.27-.057.632-.064,1.268-.114,1.901-.102,1.297-.11,2.597-.131,3.896-.007.43.019.859-.008,1.29-.043.69-.069,1.38-.104,2.111ZM90.513,103.14c.173.777.487,1.502.775,2.236.433,1.102,1,2.124,1.732,3.054.217.276.485.502.804.653.372.177.758-.022.851-.424.071-.307-.036-.586-.14-.863-.213-.568-.438-1.132-.617-1.712-.471-1.529-.763-3.096-.892-4.688-.086-1.067-.059-2.139-.015-3.208.023-.552.039-1.105.102-1.655.113-.975.245-1.948.387-2.919.174-1.189.403-2.364.827-3.495.188-.501.373-1.005.478-1.532.104-.524-.281-.856-.781-.679-.214.076-.403.198-.581.337-.452.352-.775.81-1.074,1.29-.666,1.072-1.097,2.241-1.446,3.447-.392,1.352-.679,2.724-.842,4.123-.028.237.025.261-.271.242-.041-.003-.082.001-.123.003-.761.04-1.405.352-1.98.839-1.25,1.056-2.033,2.425-2.554,3.941-.394,1.148-.527,2.35-.479,3.569.024.613.122,1.198.457,1.725.015.023.062.056.01.087-.235.141-.437.339-.72.395-.248.049-.346.007-.456-.219-.122-.252-.167-.524-.205-.798-.107-.783-.124-1.571-.121-2.36.004-.891.025-1.782.019-2.673-.004-.588-.036-1.175-.175-1.752-.117-.484-.416-.771-.894-.881-.436-.1-.862-.084-1.272.114-.908.44-1.726,1.01-2.381,1.778-1.089,1.276-1.911,2.705-2.406,4.32-.261.85-.483,1.701-.453,2.599.02.596.188,1.143.544,1.631.362.495.832.641,1.416.492.682-.174,1.222-.571,1.665-1.094.66-.779,1.195-1.644,1.656-2.554.04-.078.061-.17.155-.222.021.303.076.588.159.868.179.605.434,1.169.905,1.609.343.32.744.457,1.211.379.709-.119,1.205-.533,1.545-1.143.083-.148.126-.128.228-.037.517.457,1.099.474,1.703.216.345-.147.606-.415.846-.697.433-.507.802-1.059,1.117-1.647.446-.833.775-1.721,1.193-2.567.021-.044.025-.1.089-.126ZM99.398,101.968c.006.044.009.062.01.081.084,1.208.51,2.284,1.326,3.176.807.883,1.783,1.405,3.037,1.319.84-.057,1.588-.31,2.256-.811.172-.129.332-.276.425-.477.087-.191.028-.317-.174-.372-.239-.065-.478-.024-.714.019-.347.064-.693.133-1.049.062-.742-.146-1.261-.587-1.61-1.235-.69-1.279-.946-2.664-.893-4.1.042-1.125.277-2.231.455-3.341.072-.449.173-.894.202-1.349.019-.298-.186-.519-.484-.541-.102-.007-.204,0-.305.025-.692.174-1.146.614-1.429,1.256-.281.639-.444,1.314-.613,1.986-.424,1.682-1.108,3.243-2.17,4.625-.159.207-.326.407-.543.56-.096.068-.165.051-.233-.039-.081-.107-.119-.23-.121-.358-.009-.543-.059-1.085-.027-1.628.068-1.145.247-2.277.436-3.407.103-.615.217-1.228.282-1.849.035-.341-.204-.617-.548-.612-.36.005-.67.139-.905.415-.303.355-.578.735-.781,1.153-.973,2-1.422,4.105-1.193,6.33.067.647.286,1.245.688,1.778.602.798,1.647.869,2.346.427.32-.202.591-.457.821-.754.481-.62.86-1.305,1.266-1.973.072-.118.131-.243.243-.37ZM92.322,109.099c-.829-1.052-1.474-2.174-1.937-3.431-.206.418-.401.805-.631,1.171-.459.729-.948,1.432-1.648,1.959-.237.179-.503.297-.807.411.185.02.339-.011.487.03.083.023.157.01.236-.024.518-.226,1.065-.122,1.466.276.227.224.4.49.578.752.09.133.185.262.283.398.231-.341.455-.664.69-.979.188-.252.43-.415.73-.501.172-.049.347-.072.553-.062ZM88.59,110.488c-.012.004-.024.009-.036.013,0,.055,0,.11,0,.164,0,1.07.005,2.14-.003,3.21-.003.428-.009.368.365.379.125.004.166-.027.162-.158-.018-.64-.027-1.279-.038-1.919,0-.052-.013-.107.02-.17.04.051.073.088.103.129.336.47.666.944,1.009,1.409.172.232.137.299.351-.004.33-.468.647-.944.971-1.416.04-.059.077-.124.191-.185,0,.683-.002,1.327,0,1.971.001.348.005.344.359.343.102,0,.13-.03.129-.13-.003-1.177-.002-2.355-.003-3.532,0-.037.024-.093-.026-.108-.051-.015-.081.036-.107.073-.087.126-.173.253-.259.38-.465.684-.929,1.369-1.412,2.08-.599-.852-1.188-1.69-1.778-2.529ZM87.635,115.499c-1.016-.072-1.857.961-1.849,1.739.013,1.184.751,2.013,1.821,2.01,1.033-.003,1.866-.836,1.876-1.853.009-.954-.853-1.97-1.848-1.895ZM90.272,117.33c0,.568.003,1.136-.003,1.704-.001.109.018.149.139.146.368-.01.737,0,1.105-.004.532-.005.97-.217,1.315-.619.39-.453.463-.978.369-1.553-.114-.695-.585-1.244-1.259-1.412-.522-.13-1.057-.097-1.588-.096-.106,0-.078.074-.078.128-.001.568,0,1.136,0,1.704ZM93.178,112.362c0,.568.003,1.137-.003,1.705-.001.117.031.145.146.144.666-.005,1.331-.003,1.997-.003.324,0,.318,0,.326-.33.003-.126-.03-.164-.16-.162-.553.007-1.106,0-1.659.005-.101,0-.133-.027-.13-.129.007-.281.007-.563,0-.845-.003-.105.033-.128.131-.127.394.005.788.002,1.183.002.338,0,.331,0,.34-.331.003-.125-.026-.165-.157-.162-.456.008-.911.003-1.367.004-.068,0-.129.009-.131-.096-.005-.297-.017-.593-.034-.89-.006-.099.028-.119.12-.118.466.004.932.002,1.398.002.357,0,.353,0,.357-.357.001-.104-.021-.138-.132-.137-.696.006-1.393.005-2.089,0-.106,0-.138.025-.137.135.006.563.003,1.126.003,1.689ZM93.481,119.177c.128,0,.231-.009.332.002.116.013.175-.031.215-.138.094-.253.201-.501.297-.753.028-.073.068-.098.147-.097.394.004.788.004,1.182,0,.074,0,.105.023.127.095.081.274.194.536.305.799.023.053.041.1.117.091.154-.019.309-.03.476-.045-.024-.06-.042-.107-.062-.153-.493-1.18-.987-2.359-1.475-3.542-.042-.102-.076-.077-.123-.025-.03.033-.049.077-.066.119-.21.525-.418,1.051-.629,1.575-.276.684-.555,1.367-.841,2.072ZM84.166,115.538c-.269.002-.528.045-.761.193-.53.338-.561,1.113-.059,1.487.157.117.335.194.514.269.188.079.381.148.553.26.237.154.32.339.272.598-.042.224-.217.385-.48.433-.347.064-.67.001-.97-.185-.18-.112-.182-.109-.282.07-.126.226-.124.223.099.345.435.24.896.308,1.379.199.436-.099.7-.399.77-.851.069-.445-.103-.81-.49-1.038-.141-.083-.294-.141-.446-.202-.189-.076-.385-.138-.549-.267-.176-.138-.247-.336-.188-.53.062-.203.221-.281.416-.309.326-.047.628.037.924.16.042.017.09.073.126-.007.053-.117.145-.22.134-.361,0-.004-.018-.006-.027-.01-.296-.146-.598-.266-.937-.254ZM83.922,112.44c.013,0,.027,0,.04,0,0,.578.002,1.156-.002,1.735,0,.097.032.118.124.117.604-.004,1.208.002,1.812-.003.386-.003.381-.01.384-.392,0-.107-.027-.138-.136-.135-.517.016-1.034.02-1.551.037-.117.004-.155-.022-.154-.148.006-.891.003-1.781.003-2.672,0-.371,0-.364-.375-.372-.131-.003-.149.046-.148.159.005.558.002,1.116.002,1.674ZM103.648,95.726c-.025.936.731,1.392,1.289,1.384.738-.011,1.362-.637,1.352-1.364-.01-.762-.612-1.372-1.357-1.348-.666.021-1.294.531-1.285,1.328ZM87.542,112.417v-1.473c0-.371,0-.364-.369-.373-.131-.003-.158.036-.156.161.017,1.058.026,2.116.037,3.175.004.35.002.345.354.349.107.001.137-.028.136-.135-.005-.567-.003-1.135-.003-1.703ZM86.492,109.314c-.269-.025-.512-.056-.744-.136-.046-.016-.073-.013-.107.02-.119.117-.241.231-.364.348.207.164.345.379.444.63.287-.54.353-.615.771-.861Z"/>
          <path class="cls-11" d="M90.4,68.715c-.036.102.053.054.082.062.766.2,1.319.661,1.462,1.443.169.918,0,1.801-.594,2.561-.062.08-.07.115,0,.195.359.403.529.887.584,1.418.024.229.056.456.085.684.025.2-.011.397-.019.596-.036.911-.02,1.823-.078,2.733,0,.014.006.029.012.059.293-.182.611-.207.934-.149.462.082.784.353.973.78.14.316.259.642.481.917.325.403.872.334,1.068-.152.086-.212.002-.412-.152-.575-.191-.204-.423-.351-.675-.468-.361-.168-.72-.341-1.036-.588-.723-.566-1.121-1.297-1.234-2.221-.367-3.01,2-5.371,4.241-5.896.903-.211,1.778-.188,2.575.352.914.62,1.362,1.491,1.302,2.596-.065,1.195-1.022,2.092-2.215,2.105-.03,0-.061,0-.123,0,.159.125.297.231.432.341.966.792,1.463,1.821,1.447,3.062-.026,1.998-.822,3.64-2.414,4.866-.884.681-1.909.903-3.006.791-.518-.053-.996-.253-1.439-.523-.092-.056-.134-.042-.201.028-.387.406-.829.729-1.382.867-.804.201-1.513-.005-2.144-.523-.343-.282-.613-.628-.864-1.006-.098.303-.186.594-.286.881-.249.721-.602,1.385-1.118,1.951-.326.358-.704.659-1.133.88-.585.303-1.186.226-1.782.015-.043-.015-.084-.034-.147-.06-.005.247.037.476.075.702.231,1.373.513,2.737.775,4.104.123.639.117,1.27-.176,1.873-.317.652-.879,1.024-1.493.983-.489-.032-.906-.228-1.263-.558-.538-.497-.865-1.13-1.144-1.793-.136-.323-.248-.656-.356-1.001-.08.031-.115.102-.164.156-.913,1.011-2.025,1.721-3.333,2.082-1.475.407-2.829.057-4.059-.816-.936-.664-1.582-1.574-2.111-2.572-.536-1.01-.931-2.077-1.239-3.19-.033.058-.022.111-.021.16.01,1.752.021,3.503.034,5.255.004.543-.008,1.084-.187,1.606-.215.626-.544,1.165-1.142,1.499-.894.499-2.045.26-2.721-.566-.421-.515-.659-1.121-.867-1.741-.28-.833-.439-1.695-.616-2.554-.236-1.146-.386-2.306-.543-3.464-.098-.719-.144-1.445-.23-2.166-.06-.5-.047-1.001-.064-1.502-.022-.629-.073-1.256-.054-1.887.016-.537.031-1.075.026-1.613-.006-.624-.082-1.246-.064-1.871.001-.04.004-.082-.034-.13-.144.181-.286.359-.427.538-.208.264-.461.482-.729.678-.706.515-1.62.264-1.967-.533-.227-.522-.266-1.077-.253-1.637.019-.817.319-1.543.769-2.208.757-1.119,1.732-1.998,2.959-2.576.627-.296,1.281-.378,1.94-.086.58.256.936.726,1.191,1.284.223.487.334,1.005.398,1.533.082.68.151,1.361.228,2.069.124-.432.239-.841.359-1.248.159-.537.313-1.076.554-1.583.274-.578.65-1.064,1.265-1.314.829-.337,1.768-.098,2.411.603.492.536.753,1.181.901,1.88.182.861.291,1.732.374,2.607.092.967.2,1.933.295,2.9.093.946.199,1.891.317,2.834.154,1.236.323,2.468.766,3.644.193.513.437,1,.781,1.43.19.238.405.454.709.538.385.107.731-.025,1.088-.199-.091-.048-.167-.088-.242-.128-.543-.292-.933-.744-1.267-1.246-.568-.852-.868-1.803-1.007-2.81-.151-1.095-.143-2.195-.087-3.295.049-.974.187-1.929.611-2.823.121-.254.262-.495.424-.729-.531-.35-.83-.845-.906-1.465-.07-.567.051-1.109.303-1.618.357-.721.865-1.287,1.651-1.551,1.166-.391,2.286.429,2.456,1.511.14.895-.083,1.722-.623,2.456-.047.064-.059.099,0,.163.348.377.515.837.598,1.333.047.282.07.567.085.854.023-.289.042-.578.07-.866.094-.962.239-1.914.647-2.803.178-.389.402-.748.766-.996.719-.49,1.66-.388,2.175.242.265.324.38.716.469,1.117.02.089.038.178.062.292.04-.066.069-.109.094-.155.365-.677.874-1.233,1.462-1.72.823-.681,1.76-.715,2.686-.106.119.078.23.169.349.257.032-.016.037-.053.047-.084.138-.425.333-.821.591-1.185.032-.045.07-.074-.004-.129-.802-.603-1.012-1.404-.779-2.353.185-.755.571-1.382,1.182-1.864.263-.208.562-.348.893-.414.028-.005.098.016.055-.06h.645ZM66.872,86.258c-.057-.138-.04-.253-.05-.363-.1-1.137-.217-2.272-.294-3.411-.1-1.481-.178-2.964-.248-4.447-.054-1.151-.152-2.297-.315-3.437-.068-.478-.198-.94-.472-1.348-.26-.388-.618-.586-1.094-.541-.21.02-.414.075-.601.17-1.257.64-2.25,1.554-2.881,2.829-.355.718-.347,1.472-.141,2.229.075.275.197.332.471.272.089-.02.152-.08.221-.132.353-.267.598-.629.868-.969.201-.253.4-.508.675-.686.326-.21.59-.141.779.197.148.264.22.553.235.85.04.802.077,1.605.089,2.408.015,1.033-.019,2.066.016,3.101.034,1.02.109,2.033.216,3.046.134,1.271.316,2.537.551,3.793.179.958.356,1.918.672,2.844.167.489.339.978.68,1.379.312.366.704.559,1.196.459.399-.081.668-.335.858-.683.216-.396.3-.824.302-1.269.002-.666-.005-1.332-.009-1.997-.014-2.206-.075-4.413.105-6.616.081-.989.149-1.98.284-2.964.033-.242.077-.485.197-.704.056-.102.108-.114.162,0,.046.098.077.2.094.306.072.459.145.919.212,1.379.174,1.183.34,2.367.588,3.538.293,1.38.734,2.709,1.391,3.959.443.843.985,1.618,1.764,2.195.975.722,2.059,1.041,3.251.726,1.348-.355,2.443-1.119,3.281-2.239.183-.244.301-.521.352-.824.063-.369-.131-.622-.503-.656-.262-.024-.509.042-.743.15-.344.159-.665.359-.978.571-.284.192-.575.371-.893.503-.362.151-.737.246-1.134.215-.555-.044-1-.308-1.371-.706-.609-.653-.975-1.441-1.254-2.277-.495-1.486-.64-3.036-.825-4.577-.098-.813-.174-1.628-.258-2.442-.09-.87-.179-1.741-.266-2.611-.075-.753-.176-1.503-.344-2.242-.123-.541-.331-1.043-.754-1.427-.58-.526-1.345-.439-1.793.2-.196.279-.326.59-.429.911-.588,1.83-1.091,3.68-1.302,5.599-.107.977-.203,1.954-.295,2.932-.087.927-.126,1.858-.266,2.806ZM80.369,85.767c.089.547.175,1.067.258,1.586.177,1.11.382,2.214.709,3.291.212.699.456,1.387.86,2.004.164.25.353.478.613.635.473.286.86.157,1.074-.352.158-.374.152-.761.08-1.147-.179-.959-.367-1.916-.559-2.872-.216-1.075-.376-2.155-.407-3.253-.029-1.009.095-2.001.303-2.985.37-1.749.91-3.441,1.718-5.041.055-.109.117-.216.185-.316.042-.062.104-.134.186-.111.086.024.086.118.091.194.005.066.008.134.001.2-.061.56-.049,1.125-.097,1.686-.041.484-.053.972-.104,1.455-.087.829-.192,1.656-.295,2.483-.031.248-.066.497-.242.699-.059.067-.11.074-.185.033-.154-.084-.254-.22-.356-.354-.084-.111-.174-.216-.304-.275-.236-.107-.495.049-.509.307-.042.803.228,1.486.809,2.041.391.374,1.035.451,1.477.17.316-.201.6-.443.84-.735.55-.673.842-1.465,1.054-2.291.39-1.518.533-3.061.427-4.625-.04-.597-.129-1.188-.333-1.756-.187-.521-.466-.958-.99-1.211-.472-.228-.905-.184-1.3.143-.463.383-.877.812-1.187,1.336-.557.938-.929,1.95-1.223,2.995-.125.446-.237.896-.362,1.37-.045-.414-.095-.799-.129-1.186-.082-.933-.076-1.872-.187-2.803-.048-.406-.099-.813-.275-1.189-.129-.276-.356-.398-.648-.351-.225.036-.415.14-.553.327-.143.195-.252.408-.338.633-.289.758-.39,1.552-.468,2.352-.139,1.429-.085,2.852.083,4.274.059.498.093.998.141,1.498.008.086-.003.131-.107.131-.16,0-.299.069-.407.186-.115.123-.221.255-.329.384-.118.141-.231.288-.385.394-.191.132-.39.115-.556-.047-.097-.094-.161-.211-.212-.335-.094-.228-.148-.467-.185-.71-.152-1.014-.116-2.032-.076-3.051.034-.864.093-1.729.012-2.593-.03-.323-.111-.635-.308-.902-.221-.3-.532-.376-.866-.21-.196.097-.356.24-.493.408-.48.586-.729,1.275-.847,2.009-.169,1.044-.191,2.1-.148,3.155.027.659.093,1.316.267,1.957.224.827.584,1.58,1.197,2.193.596.596,1.328.687,1.984.209.632-.461,1.132-1.046,1.459-1.766.039-.086.065-.179.142-.272ZM92.947,82.255c.062.142.142.241.239.326.388.341.832.587,1.341.667.933.146,1.803-.052,2.536-.656,1.285-1.059,1.96-2.43,1.94-4.106-.011-.889-.378-1.631-1.07-2.203-.372-.307-.78-.562-1.171-.842-.418-.299-.819-.613-1.096-1.06-.412-.667.034-1.428.579-1.621.339-.12.566-.06.786.221.108.137.194.288.281.438.108.185.212.374.354.537.114.131.247.228.428.244.557.047,1.085-.287,1.28-.812.237-.64.008-1.447-.548-1.934-.584-.512-1.261-.583-1.987-.421-1.83.409-3.817,2.283-3.617,4.7.067.811.394,1.435,1.086,1.866.208.13.429.237.652.338.382.173.72.407,1.002.72.469.52.625,1.386-.007,2.054-.714.756-1.717.727-2.367-.083-.141-.176-.268-.362-.365-.566-.092-.193-.172-.392-.259-.588-.075-.167-.219-.22-.389-.217-.157.003-.234.112-.29.238-.05.113-.072.234-.072.358,0,.298.018.599.101.882.071.238-.007.374-.175.518-.235.202-.554.181-.738-.068-.117-.159-.182-.342-.232-.53-.184-.699-.23-1.416-.201-2.132.031-.757.035-1.515.066-2.273.013-.301.03-.604.033-.904.004-.412-.061-.825-.155-1.229-.037-.159-.115-.305-.217-.436-.199-.257-.492-.339-.794-.222-.17.066-.311.176-.437.305-.221.224-.398.48-.537.762-.349.71-.467,1.476-.525,2.254-.058.777-.04,1.556-.031,2.334.008.802.125,1.59.4,2.347.254.7.608,1.342,1.174,1.843.357.316.77.483,1.257.377.323-.07.596-.233.837-.457.32-.297.605-.625.907-.969ZM78.015,75.293c.008-.689-.314-1.105-.852-1.184-.353-.052-.652.092-.91.32-.386.342-.635.773-.751,1.273-.092.395-.079.786.191,1.122.351.436,1.017.487,1.521.11.58-.435.76-1.062.8-1.641ZM91.046,70.739c.003-.429-.143-.708-.471-.898-.407-.237-.909-.161-1.309.21-.436.405-.688.91-.768,1.496-.072.53.187.992.647,1.164.451.169.841.026,1.194-.263.543-.443.696-1.047.706-1.71ZM78.964,84.326c.295-.274.262-.151.227-.526-.058-.61-.107-1.221-.164-1.831-.026-.278-.058-.555-.074-.833-.055,1.058-.105,2.114.012,3.191Z"/>
          <path class="cls-1" d="M107.457,104.98c-.025-.02-.05-.041,0-.061v.061Z"/>
          <path class="cls-1" d="M107.457,105.318c-.007,0-.014-.002-.021-.003.007-.009.014-.019.021-.028v.031Z"/>
          <path class="cls-10" d="M61.071,111.52c.035-.731.061-1.422.104-2.111.027-.43.001-.86.008-1.29.021-1.299.029-2.599.131-3.896.05-.633.057-1.269.114-1.901.068-.764.194-1.521.359-2.27.246-1.123.538-2.232,1.01-3.286.146-.327.305-.648.539-.923.393-.462.886-.527,1.389-.182.658.453,1.033,1.103,1.272,1.846.215.665.305,1.354.397,2.043.088.664.183,1.327.255,1.993.138,1.283.429,2.539.643,3.808.066.392.164.779.195,1.178.08-.332.104-.673.134-1.01.173-1.937.411-3.865.749-5.779.246-1.396.62-2.758,1.223-4.048.102-.218.218-.428.376-.612.37-.432.894-.517,1.377-.214.285.179.516.416.713.689.441.611.657,1.31.791,2.039.195,1.061.318,2.133.466,3.202.189,1.367.375,2.735.571,4.102.188,1.307.447,2.596.872,3.848.275.812.625,1.585,1.168,2.26.373.465.831.616,1.402.443.19-.058.385-.104.583-.127.17-.02.337-.013.499.046.256.093.361.298.291.56-.05.189-.158.343-.293.478-.54.54-1.213.81-1.955.899-1.305.156-2.282-.434-3.062-1.421-.685-.867-1.151-1.855-1.552-2.875-.682-1.734-1.165-3.525-1.513-5.354-.066-.346-.132-.692-.235-1.03-.04-.131-.103-.12-.189-.064-.133.087-.166.231-.184.373-.085.654-.164,1.309-.245,1.964-.118.961-.164,1.927-.24,2.891-.078.996-.1,1.994-.064,2.994.017.492.021.986-.134,1.46-.202.618-.586,1.065-1.25,1.198-.461.093-.857-.067-1.194-.381-.414-.386-.655-.882-.874-1.391-.537-1.248-.872-2.557-1.166-3.878-.28-1.261-.561-2.522-.843-3.782-.048-.214-.061-.436-.141-.643-.039-.101-.07-.249-.194-.244-.125.006-.174.143-.206.259-.12.442-.142.898-.182,1.351-.126,1.443-.02,2.887-.018,4.33.001,1.127.01,2.254.054,3.38.034.864.129,1.725.197,2.587.045.571.089,1.143.134,1.715.038.479.101.957.092,1.44-.008.427-.052.848-.217,1.246-.259.627-.784.997-1.372.972-.515-.022-.937-.233-1.262-.632-.382-.468-.586-1.024-.774-1.588-.58-1.739-.973-3.521-1.267-5.328-.198-1.216-.376-2.436-.505-3.661-.071-.677-.087-1.359-.135-2.038-.081-1.144-.088-2.293-.167-3.436-.047-.678-.047-1.361-.171-2.033-.048-.263-.137-.513-.29-.736-.173-.252-.396-.305-.666-.161-.283.15-.488.387-.68.634-.25.324-.488.657-.739.98-.132.171-.293.314-.496.401-.282.121-.412.078-.541-.198-.191-.409-.233-.845-.2-1.289.072-.987.481-1.83,1.124-2.564.532-.607,1.124-1.149,1.814-1.575.319-.197.658-.351,1.041-.376.422-.028.756.142,1.017.464.333.412.496.902.609,1.408.185.829.27,1.674.378,2.516.134,1.052.173,2.111.285,3.165.098.921.177,1.844.266,2.765.106,1.105.223,2.209.388,3.307.053.352.088.706.184,1.091Z"/>
          <path class="cls-10" d="M90.513,103.14c-.064.026-.068.083-.089.126-.417.847-.746,1.734-1.193,2.567-.315.588-.684,1.14-1.117,1.647-.24.282-.501.55-.846.697-.604.257-1.186.241-1.703-.216-.102-.09-.146-.111-.228.037-.34.61-.837,1.024-1.545,1.143-.467.078-.869-.059-1.211-.379-.471-.441-.727-1.004-.905-1.609-.083-.28-.138-.566-.159-.868-.094.052-.116.143-.155.222-.461.91-.996,1.775-1.656,2.554-.443.523-.983.92-1.665,1.094-.584.149-1.054.002-1.416-.492-.357-.488-.525-1.035-.544-1.631-.029-.897.193-1.748.453-2.599.495-1.614,1.318-3.043,2.406-4.32.655-.768,1.474-1.337,2.381-1.778.41-.199.836-.215,1.272-.114.478.11.778.397.894.881.139.577.171,1.164.175,1.752.006.891-.016,1.782-.019,2.673-.003.789.014,1.577.121,2.36.037.273.083.546.205.798.11.226.207.268.456.219.282-.056.485-.255.72-.395.053-.031.005-.064-.01-.087-.335-.527-.433-1.113-.457-1.725-.048-1.219.085-2.421.479-3.569.521-1.516,1.303-2.884,2.554-3.941.576-.486,1.219-.798,1.98-.839.041-.002.082-.006.123-.003.295.019.243-.005.271-.242.163-1.399.45-2.771.842-4.123.349-1.205.78-2.374,1.446-3.447.299-.481.622-.939,1.074-1.29.178-.139.367-.261.581-.337.5-.177.885.156.781.679-.105.527-.29,1.032-.478,1.532-.425,1.131-.653,2.306-.827,3.495-.142.971-.274,1.944-.387,2.919-.064.55-.08,1.103-.102,1.655-.044,1.07-.071,2.142.015,3.208.128,1.592.421,3.158.892,4.688.179.58.404,1.144.617,1.712.104.277.211.556.14.863-.093.402-.479.601-.851.424-.319-.152-.586-.377-.804-.653-.732-.929-1.3-1.952-1.732-3.054-.288-.734-.602-1.458-.775-2.236ZM78.176,107.42c0,.051-.005.103,0,.153.04.329.206.414.496.249.189-.107.348-.251.482-.422.258-.331.517-.661.735-1.019.899-1.473,1.595-3.04,2.147-4.673.047-.139.007-.238-.081-.331-.09-.095-.204-.091-.313-.046-.084.035-.165.083-.238.137-.574.427-1.083.92-1.501,1.504-.597.833-.995,1.766-1.338,2.724-.2.559-.361,1.127-.391,1.725ZM86.384,105.688c0,.066-.008.134.002.199.034.223.159.295.373.215.131-.049.242-.13.342-.228.224-.219.424-.458.604-.713,1.035-1.468,1.716-3.113,2.385-4.764.08-.198.136-.407.127-.627-.008-.173-.086-.236-.258-.211-.237.034-.431.16-.606.31-.436.373-.84.78-1.189,1.238-.578.758-.958,1.622-1.3,2.504-.26.67-.459,1.353-.478,2.077Z"/>
          <path class="cls-10" d="M99.398,101.968c-.112.127-.172.252-.243.37-.406.668-.785,1.353-1.266,1.973-.231.297-.501.552-.821.754-.698.442-1.744.371-2.346-.427-.401-.532-.621-1.131-.688-1.778-.23-2.225.22-4.33,1.193-6.33.203-.418.478-.799.781-1.153.235-.276.545-.41.905-.415.344-.005.584.271.548.612-.064.621-.179,1.234-.282,1.849-.189,1.13-.368,2.262-.436,3.407-.032.543.018,1.085.027,1.628.002.127.04.251.121.358.068.089.138.106.233.039.217-.153.383-.353.543-.56,1.062-1.383,1.746-2.943,2.17-4.625.17-.673.332-1.347.613-1.986.283-.642.737-1.083,1.429-1.256.101-.025.202-.032.305-.025.298.021.503.243.484.541-.029.455-.13.9-.202,1.349-.178,1.11-.414,2.216-.455,3.341-.053,1.435.203,2.82.893,4.1.35.648.869,1.088,1.61,1.235.356.07.702.001,1.049-.062.237-.043.475-.084.714-.019.202.055.261.181.174.372-.092.202-.252.348-.425.477-.668.501-1.416.754-2.256.811-1.254.086-2.229-.436-3.037-1.319-.816-.893-1.242-1.968-1.326-3.176-.001-.019-.005-.037-.01-.081Z"/>
          <path class="cls-10" d="M88.59,110.488c.59.839,1.179,1.678,1.778,2.529.483-.711.947-1.396,1.412-2.08.086-.127.171-.254.259-.38.026-.037.056-.088.107-.073.051.015.026.071.026.108.001,1.177,0,2.355.003,3.532,0,.1-.027.13-.129.13-.355,0-.358.005-.359-.343-.002-.644,0-1.288,0-1.971-.113.061-.15.126-.191.185-.324.472-.641.948-.971,1.416-.214.303-.179.236-.351.004-.343-.465-.673-.939-1.009-1.409-.029-.041-.062-.078-.103-.129-.033.063-.021.118-.02.17.011.64.02,1.28.038,1.919.004.131-.037.162-.162.158-.374-.011-.368.048-.365-.379.007-1.07.003-2.14.003-3.21,0-.055,0-.11,0-.164.012-.004.024-.009.036-.013Z"/>
          <path class="cls-10" d="M87.635,115.499c.995-.075,1.858.941,1.848,1.895-.01,1.018-.843,1.851-1.876,1.853-1.07.003-1.808-.826-1.821-2.01-.008-.778.833-1.81,1.849-1.739ZM86.313,117.393c-.082.723.665,1.371,1.302,1.367.755-.006,1.343-.607,1.344-1.398.001-.766-.589-1.373-1.33-1.38-.574-.006-1.376.488-1.317,1.411Z"/>
          <path class="cls-10" d="M90.272,117.33c0-.568,0-1.136,0-1.704,0-.055-.028-.128.078-.128.532-.002,1.066-.034,1.588.096.674.168,1.145.717,1.259,1.412.094.575.021,1.1-.369,1.553-.345.402-.784.613-1.315.619-.368.004-.737-.005-1.105.004-.122.003-.14-.037-.139-.146.005-.568.003-1.136.003-1.704ZM90.793,117.323c0,.415.003.829-.002,1.244-.001.092.019.125.117.121.179-.008.358-.002.537-.003.708-.003,1.246-.527,1.288-1.256.043-.737-.449-1.34-1.151-1.421-.235-.027-.47-.012-.705-.022-.104-.004-.118.036-.108.125.043.403.027.808.024,1.212Z"/>
          <path class="cls-10" d="M93.178,112.362c0-.563.003-1.126-.003-1.689-.001-.109.032-.135.137-.135.696.005,1.393.005,2.089,0,.112,0,.133.033.132.137-.004.357,0,.357-.357.357-.466,0-.932.002-1.398-.002-.092,0-.126.019-.12.118.017.296.029.593.034.89.002.105.062.096.131.096.456,0,.911.005,1.367-.004.131-.002.16.037.157.162-.009.331-.002.331-.34.331-.394,0-.788.003-1.183-.002-.098-.001-.134.023-.131.127.007.281.007.563,0,.845-.002.103.03.13.13.129.553-.005,1.106.002,1.659-.005.13-.002.163.036.16.162-.008.329-.002.33-.326.33-.666,0-1.331-.003-1.997.003-.114,0-.147-.028-.146-.144.006-.568.003-1.137.003-1.705Z"/>
          <path class="cls-10" d="M93.481,119.177c.286-.704.565-1.387.841-2.072.212-.524.419-1.05.629-1.575.017-.042.036-.087.066-.119.047-.052.081-.077.123.025.488,1.182.982,2.361,1.475,3.542.019.046.037.093.062.153-.166.015-.321.027-.476.045-.076.009-.094-.038-.117-.091-.112-.263-.224-.525-.305-.799-.021-.073-.052-.096-.127-.095-.394.003-.788.004-1.182,0-.079,0-.119.024-.147.097-.096.252-.203.5-.297.753-.04.107-.098.151-.215.138-.101-.011-.204-.002-.332-.002ZM94.556,117.753c.336-.044.652-.011.975-.023-.049-.223-.144-.415-.221-.614-.079-.202-.16-.402-.249-.625-.228.404-.365.823-.505,1.262Z"/>
          <path class="cls-10" d="M84.166,115.538c.339-.012.641.108.937.254.009.004.027.006.027.01.011.141-.081.244-.134.361-.036.08-.085.024-.126.007-.296-.123-.599-.207-.924-.16-.195.028-.354.106-.416.309-.059.194.012.391.188.53.163.129.36.191.549.267.152.061.304.119.446.202.387.228.559.593.49,1.038-.07.452-.334.752-.77.851-.483.109-.943.041-1.379-.199-.223-.123-.225-.119-.099-.345.1-.179.101-.182.282-.07.3.187.623.249.97.185.263-.048.438-.209.48-.433.049-.259-.035-.444-.272-.598-.172-.112-.366-.18-.553-.26-.179-.076-.357-.152-.514-.269-.502-.375-.471-1.149.059-1.487.233-.149.492-.191.761-.193Z"/>
          <path class="cls-10" d="M83.922,112.44c0-.558.003-1.116-.002-1.674,0-.112.017-.161.148-.159.375.007.375,0,.375.372,0,.891.003,1.782-.003,2.672,0,.126.037.151.154.148.517-.016,1.034-.021,1.551-.037.109-.003.137.027.136.135-.003.383.002.389-.384.392-.604.005-1.208,0-1.812.003-.092,0-.124-.02-.124-.117.004-.578.002-1.156.002-1.735-.013,0-.027,0-.04,0Z"/>
          <path class="cls-10" d="M103.648,95.726c-.009-.797.619-1.307,1.285-1.328.745-.024,1.347.587,1.357,1.348.009.727-.614,1.354-1.352,1.364-.559.008-1.314-.449-1.289-1.384ZM103.885,95.788c-.016.56.466,1.054,1.043,1.067.572.014,1.099-.478,1.117-1.043.021-.638-.436-1.142-1.05-1.159-.656-.018-1.09.425-1.11,1.134Z"/>
          <path class="cls-10" d="M87.542,112.417c0,.568-.003,1.135.003,1.703.001.108-.029.136-.136.135-.352-.003-.351.001-.354-.349-.011-1.058-.021-2.117-.037-3.175-.002-.125.024-.164.156-.161.369.009.369.003.369.373v1.473Z"/>
          <path class="cls-10" d="M66.872,86.258c.14-.948.179-1.88.266-2.806.091-.978.187-1.955.295-2.932.211-1.919.713-3.769,1.302-5.599.103-.321.234-.632.429-.911.448-.639,1.214-.726,1.793-.2.423.384.631.886.754,1.427.168.739.269,1.488.344,2.242.087.871.176,1.741.266,2.611.084.814.16,1.629.258,2.442.185,1.542.331,3.091.825,4.577.278.836.645,1.624,1.254,2.277.371.398.816.662,1.371.706.397.031.771-.064,1.134-.215.317-.132.609-.311.893-.503.313-.212.634-.412.978-.571.234-.108.481-.174.743-.15.373.034.566.287.503.656-.052.302-.17.579-.352.824-.838,1.12-1.933,1.884-3.281,2.239-1.192.314-2.275-.004-3.251-.726-.779-.577-1.321-1.351-1.764-2.195-.657-1.25-1.098-2.579-1.391-3.959-.248-1.171-.414-2.355-.588-3.538-.068-.46-.14-.92-.212-1.379-.017-.106-.048-.209-.094-.306-.054-.115-.106-.103-.162,0-.12.22-.164.462-.197.704-.135.984-.203,1.974-.284,2.964-.18,2.203-.119,4.41-.105,6.616.004.666.011,1.332.009,1.997-.002.445-.086.874-.302,1.269-.19.348-.459.602-.858.683-.493.1-.884-.094-1.196-.459-.341-.4-.513-.89-.68-1.379-.316-.926-.492-1.886-.672-2.844-.235-1.256-.417-2.522-.551-3.793-.107-1.012-.181-2.026-.216-3.046-.035-1.035-.001-2.067-.016-3.101-.012-.803-.049-1.606-.089-2.408-.015-.296-.087-.586-.235-.85-.19-.339-.454-.408-.779-.197-.276.178-.475.434-.675.686-.27.34-.515.703-.868.969-.069.052-.132.113-.221.132-.274.061-.396.003-.471-.272-.206-.757-.214-1.511.141-2.229.63-1.275,1.624-2.189,2.881-2.829.187-.095.391-.15.601-.17.475-.045.833.153,1.094.541.273.408.403.869.472,1.348.163,1.14.261,2.286.315,3.437.069,1.483.148,2.966.248,4.447.077,1.138.193,2.274.294,3.411.01.111-.007.225.05.363Z"/>
          <path class="cls-10" d="M80.369,85.767c-.078.093-.103.187-.142.272-.328.72-.827,1.305-1.459,1.766-.655.478-1.388.386-1.984-.209-.613-.613-.973-1.367-1.197-2.193-.174-.641-.24-1.298-.267-1.957-.043-1.055-.021-2.11.148-3.155.119-.734.367-1.423.847-2.009.138-.168.298-.311.493-.408.334-.165.645-.09.866.21.197.268.278.579.308.902.081.864.022,1.729-.012,2.593-.04,1.018-.076,2.037.076,3.051.036.243.09.482.185.71.051.124.115.24.212.335.166.162.365.178.556.047.154-.106.267-.253.385-.394.108-.129.214-.261.329-.384.108-.116.247-.185.407-.186.104,0,.116-.045.107-.131-.048-.499-.082-1-.141-1.498-.168-1.423-.222-2.846-.083-4.274.078-.8.179-1.594.468-2.352.086-.225.195-.438.338-.633.138-.188.328-.291.553-.327.291-.047.519.075.648.351.176.376.227.783.275,1.189.111.931.104,1.87.187,2.803.034.387.083.773.129,1.186.125-.474.237-.924.362-1.37.293-1.045.666-2.057,1.223-2.995.31-.523.724-.953,1.187-1.336.396-.327.828-.371,1.3-.143.524.253.803.69.99,1.211.204.568.293,1.159.333,1.756.106,1.564-.037,3.107-.427,4.625-.212.826-.504,1.618-1.054,2.291-.239.293-.524.534-.84.735-.441.281-1.085.204-1.477-.17-.581-.555-.851-1.238-.809-2.041.014-.258.273-.414.509-.307.13.059.219.164.304.275.102.134.203.27.356.354.075.041.126.034.185-.033.177-.201.211-.451.242-.699.104-.827.208-1.654.295-2.483.051-.483.063-.97.104-1.455.048-.561.035-1.125.097-1.686.007-.066.003-.133-.001-.2-.005-.076-.005-.17-.091-.194-.082-.023-.144.049-.186.111-.069.101-.13.207-.185.316-.809,1.6-1.348,3.292-1.718,5.041-.208.984-.332,1.976-.303,2.985.031,1.098.191,2.178.407,3.253.192.956.38,1.913.559,2.872.072.386.077.773-.08,1.147-.214.508-.601.638-1.074.352-.26-.157-.449-.385-.613-.635-.404-.617-.648-1.305-.86-2.004-.327-1.077-.532-2.182-.709-3.291-.083-.52-.169-1.039-.258-1.586Z"/>
          <path class="cls-10" d="M92.947,82.255c-.302.344-.588.672-.907.969-.241.224-.514.387-.837.457-.487.106-.9-.061-1.257-.377-.566-.501-.919-1.143-1.174-1.843-.275-.757-.391-1.545-.4-2.347-.008-.778-.027-1.557.031-2.334.058-.778.176-1.543.525-2.254.139-.282.316-.537.537-.762.127-.129.267-.239.437-.305.302-.117.595-.035.794.222.102.131.179.278.217.436.095.404.159.817.155,1.229-.003.3-.02.602-.033.904-.032.757-.035,1.515-.066,2.273-.029.716.017,1.433.201,2.132.049.188.115.371.232.53.184.25.503.27.738.068.168-.144.246-.28.175-.518-.084-.283-.101-.584-.101-.882,0-.125.021-.245.072-.358.056-.126.133-.235.29-.238.17-.003.314.049.389.217.088.195.168.394.259.588.097.204.223.39.365.566.65.81,1.653.839,2.367.083.631-.668.476-1.535.007-2.054-.282-.312-.62-.547-1.002-.72-.223-.101-.443-.208-.652-.338-.691-.43-1.019-1.055-1.086-1.866-.2-2.417,1.787-4.291,3.617-4.7.726-.162,1.403-.091,1.987.421.555.486.785,1.294.548,1.934-.195.525-.722.859-1.28.812-.181-.015-.314-.113-.428-.244-.142-.163-.246-.352-.354-.537-.088-.15-.173-.301-.281-.438-.221-.28-.447-.341-.786-.221-.546.193-.992.954-.579,1.621.276.447.678.761,1.096,1.06.391.28.799.535,1.171.842.692.572,1.059,1.314,1.07,2.203.02,1.676-.655,3.047-1.94,4.106-.733.604-1.603.801-2.536.656-.509-.079-.953-.326-1.341-.667-.096-.085-.177-.183-.239-.326Z"/>
          <path class="cls-10" d="M78.015,75.293c-.041.579-.22,1.205-.8,1.641-.504.378-1.17.326-1.521-.11-.271-.336-.283-.727-.191-1.122.116-.5.364-.931.751-1.273.257-.228.556-.372.91-.32.538.079.861.496.852,1.184Z"/>
          <path class="cls-10" d="M91.046,70.739c-.011.663-.164,1.267-.706,1.71-.353.288-.744.432-1.194.263-.46-.173-.719-.635-.647-1.164.079-.586.332-1.092.768-1.496.4-.371.902-.448,1.309-.21.327.191.474.469.471.898Z"/>
          <path class="cls-1" d="M78.964,84.326c-.117-1.076-.067-2.133-.012-3.191.016.279.048.556.074.833.057.61.106,1.221.164,1.831.036.375.069.252-.227.526Z"/>
          <path class="cls-11" d="M78.176,107.42c.03-.597.19-1.166.391-1.725.343-.958.741-1.89,1.338-2.724.418-.583.927-1.076,1.501-1.504.073-.054.154-.102.238-.137.109-.045.223-.05.313.046.088.093.128.193.081.331-.552,1.633-1.248,3.2-2.147,4.673-.218.358-.478.689-.735,1.019-.133.171-.293.314-.482.422-.29.165-.456.08-.496-.249-.006-.05,0-.102,0-.153Z"/>
          <path class="cls-11" d="M86.384,105.688c.019-.724.218-1.407.478-2.077.343-.882.722-1.745,1.3-2.504.349-.457.752-.864,1.189-1.238.175-.15.369-.275.606-.31.172-.025.251.038.258.211.01.219-.047.429-.127.627-.669,1.651-1.35,3.296-2.385,4.764-.18.256-.38.495-.604.713-.1.098-.211.179-.342.228-.213.08-.339.008-.373-.215-.01-.065-.002-.133-.002-.199Z"/>
          <path class="cls-11" d="M86.313,117.393c-.059-.923.743-1.417,1.317-1.411.741.007,1.331.614,1.33,1.38-.001.79-.589,1.392-1.344,1.398-.638.005-1.384-.643-1.302-1.367Z"/>
          <path class="cls-11" d="M90.793,117.323c.003-.404.019-.809-.024-1.212-.009-.089.004-.129.108-.125.235.01.47-.005.705.022.701.081,1.193.684,1.151,1.421-.042.729-.579,1.253-1.288,1.256-.179,0-.359-.006-.537.003-.098.005-.118-.029-.117-.121.005-.415.002-.829.002-1.244Z"/>
          <path class="cls-11" d="M94.556,117.753c.139-.439.277-.858.505-1.262.089.223.17.424.249.625.078.198.172.391.221.614-.324.012-.639-.021-.975.023Z"/>
          <path class="cls-11" d="M103.885,95.788c.02-.71.453-1.153,1.11-1.134.615.017,1.071.521,1.05,1.159-.018.565-.545,1.057-1.117,1.043-.577-.014-1.059-.507-1.043-1.067ZM104.385,95.776c0,.21.005.42-.002.629-.003.095.037.11.117.107.072-.003.13,0,.124-.102-.008-.143.003-.287-.004-.43-.004-.085.028-.104.106-.098.144.011.256.07.327.196.068.12.129.243.194.365.066.125.192.081.271.056.078-.025,0-.111-.022-.163-.065-.147-.171-.266-.28-.381-.076-.08-.078-.115.034-.164.178-.078.266-.259.23-.424-.04-.183-.182-.305-.385-.312-.204-.008-.409,0-.614-.004-.074-.002-.096.022-.095.095.004.21.002.42.002.629Z"/>
          <path class="cls-10" d="M104.385,95.776c0-.21.003-.42-.002-.629-.002-.074.021-.097.095-.095.205.005.41-.004.614.004.204.007.346.129.385.312.036.164-.052.345-.23.424-.111.049-.109.084-.034.164.109.115.216.234.28.381.023.052.1.138.022.163-.079.025-.205.069-.271-.056-.065-.122-.126-.245-.194-.365-.071-.125-.183-.185-.327-.196-.078-.006-.11.014-.106.098.007.143-.004.287.004.43.006.103-.052.1-.124.102-.08.003-.12-.012-.117-.107.007-.21.002-.42.002-.629ZM104.622,95.463c0,.051,0,.102,0,.153,0,.04.01.072.059.07.137-.006.276-.002.407-.052.094-.036.126-.111.119-.208-.007-.097-.063-.147-.154-.159-.071-.009-.142-.019-.213-.02-.219-.004-.219-.002-.218.217Z"/>
          <path class="cls-11" d="M104.622,95.463c0-.219,0-.22.219-.217.071.001.142.01.213.02.092.012.147.062.154.159.007.097-.026.172-.119.208-.131.051-.27.046-.407.052-.048.002-.059-.03-.059-.07,0-.051,0-.102,0-.153Z"/>
        </g>
      </g>
      <path class="cls-4" d="M79.98,0v300c-10.016-.02-9.7-12.548-11.824-12.548s-6.228,8.352-11.619,8.352-9.659-21.615-9.659-30.447,1.96-16.153,1.96-22.044v-56.637c0-6.872-1.96-9.72-1.96-14.958,0-1.491.684-7.372,1.715-15.622.204-1.603.419-3.298.653-5.064.143-1.072.286-2.175.429-3.298.092-.745.194-1.501.296-2.256.082-.694.184-1.399.276-2.103.061-.47.123-.939.184-1.409.102-.786.214-1.583.317-2.389.5-3.757,1.021-7.668,1.552-11.64.051-.419.112-.827.163-1.246.531-3.962,1.062-7.964,1.593-11.936.082-.653.174-1.297.255-1.95,1.593-11.997,3.104-23.494,4.135-31.887,1.981-16.306,3.329-35.491,4.074-48.019.347-5.708.562-10.047.664-12.109.041-.858.061-1.317.061-1.317h-1.399c-.439,0-.786-.347-.786-.766v-.582c0-.419.347-.776.786-.776h1.399v-5.565h1.133v-1.634h-1.133V2.542c0-1.409,1.133-2.542,2.542-2.542h14.192Z"/>
      <path class="cls-2" d="M96.192,163.771h0c-2.109.105-3.904-1.52-4.008-3.629l-6.674-128.788c-.105-2.109,1.52-3.904,3.629-4.008h0c2.109-.105,3.904,1.52,4.008,3.629l6.674,128.788c.105,2.109-1.52,3.904-3.629,4.008Z"/>
    </g>
  </g>
</svg>