<?xml version="1.0" encoding="UTF-8"?><svg id="Layer_1" xmlns="http://www.w3.org/2000/svg" xmlns:xlink="http://www.w3.org/1999/xlink" width="497.484" height="234.2"><defs><style>.cls-1{fill:#e9a999;}.cls-1,.cls-2,.cls-3,.cls-4,.cls-5,.cls-6,.cls-7,.cls-8,.cls-9,.cls-10,.cls-11{stroke-width:0px;}.cls-12{clip-path:url(#clippath-2);}.cls-2{fill:#12313c;}.cls-3{fill:#cc4f51;}.cls-4{fill:#4c5347;}.cls-5{fill:none;}.cls-6{fill:#d39170;}.cls-13{clip-path:url(#clippath-1);}.cls-7{fill:#fff;}.cls-8{fill:#14242f;}.cls-14{clip-path:url(#clippath);}.cls-9{fill:#e7cdac;}.cls-15{clip-path:url(#clippath-3);}.cls-10{fill:#9f5c51;}.cls-11{fill:#d39173;}</style><clipPath id="clippath"><path class="cls-5" d="m170.246,50.464h61.417v49.287c0,16.948-13.76,30.709-30.709,30.709h0c-16.948,0-30.709-13.76-30.709-30.709v-49.287h0Z" transform="translate(401.909 180.923) rotate(-180)"/></clipPath><clipPath id="clippath-1"><path class="cls-5" d="m45.75,50.464h61.417v49.287c0,16.948-13.76,30.709-30.709,30.709h0c-16.948,0-30.709-13.76-30.709-30.709v-49.287h0Z" transform="translate(152.917 180.923) rotate(-180)"/></clipPath><clipPath id="clippath-2"><path class="cls-5" d="m294.815,50.464h61.417v49.287c0,16.948-13.76,30.709-30.709,30.709h0c-16.948,0-30.709-13.76-30.709-30.709v-49.287h0Z" transform="translate(651.047 180.923) rotate(-180)"/></clipPath><clipPath id="clippath-3"><path class="cls-5" d="m419.311,50.464h61.417v49.287c0,16.948-13.76,30.709-30.709,30.709h0c-16.948,0-30.709-13.76-30.709-30.709v-49.287h0Z" transform="translate(900.04 180.923) rotate(-180)"/></clipPath></defs><rect class="cls-2" x="146.992" y="214.294" width="102" height="19.906" rx="9.953" ry="9.953"/><rect class="cls-2" x="22.496" y="214.294" width="102" height="19.906" rx="9.953" ry="9.953"/><rect class="cls-2" x="271.561" y="214.294" width="102" height="19.906" rx="9.953" ry="9.953"/><rect class="cls-2" x="396.058" y="214.294" width="102" height="19.906" rx="9.953" ry="9.953"/><path class="cls-7" d="m193.704,207.951c-.731,0-1.466-.2-2.118-.607-1.464-.563-2.498-1.946-2.59-3.512-.088-1.497.637-2.924,1.912-3.687.713-.573,1.599-.883,2.508-.883.25,0,.502.023.752.071,1.3.249,2.392,1.125,2.918,2.339l.29.69c.696,1.607.266,3.48-1.062,4.622-.745.641-1.674.968-2.609.968Z"/><path class="cls-7" d="m196.558,201.712c-1.508,0-2.95-.856-3.628-2.311-.022-.047-.369-.794-.888-2.1l-19.348-.002c-1.748,0-3.292-1.134-3.816-2.802-4.379-13.947-5.847-43.104-1.664-61.43-.603-.701-.968-1.612-.968-2.609v-48.255c-6.302.375-13.68,2.03-21.979,4.935-1.105.387-2.255.583-3.419.583-4.392,0-8.317-2.786-9.768-6.932-.914-2.609-.756-5.417.443-7.908,1.199-2.491,3.296-4.366,5.906-5.279,11.742-4.111,22.345-6.195,31.515-6.195,1.156,0,2.299.033,3.418.099,2.082-3.019,4.637-5.703,7.546-7.928-1.229-2.321-2.047-4.846-2.409-7.45-.815-.479-1.484-1.201-1.893-2.092-.975-2.129-.218-4.618,1.679-5.87v-13.774c0-8.208,4.414-15.633,11.445-19.593v-.796C188.73,1.794,190.521.003,192.73.003h4.072c1.44,0,2.702.761,3.407,1.902,12.202.231,22.056,10.23,22.056,22.486v3.287c1.553.549,2.666,2.031,2.666,3.772v4.072c0,1.741-1.112,3.222-2.665,3.772v3.758c0,3.239-.686,6.385-2.006,9.281,5.414,3.626,9.716,8.71,12.388,14.688,1.318.969,2.129,1.749,2.455,2.08.743.758,1.154,1.779,1.144,2.84-.011,1.052-.436,2.057-1.182,2.798.159.852.287,1.716.383,2.587.144,1.302.216,2.596.216,3.846v49.287c0,2.052-1.545,3.743-3.535,3.973-.049.149-.101.297-.154.444l-11.386,31.433c-1.066,3.637-2.939,13.946.771,19.437.66.977.855,2.194.534,3.329-.321,1.134-1.125,2.069-2.199,2.555l-21.489,9.726c-.535.242-1.095.357-1.646.357Z"/><path class="cls-7" d="m211.017,221.302c-1.412,0-2.768-.75-3.494-2.051-.821-1.471-2.378-2.385-4.063-2.385-.603,0-1.196.118-1.764.351-.015.006-.14.055-.14.055-.454.167-.921.247-1.38.247-1.574,0-3.067-.933-3.703-2.477-.841-2.042.127-4.377,2.169-5.219,0,0,1.544-.635,1.544-.635-.101-1.505.126-3.012.663-4.418-.368-.975-.46-2.02-.291-3.025-.804-1.658-1.553-3.324-2.236-4.971-.827-1.995.078-4.287,2.046-5.177l11.56-5.23c.523-.237,1.086-.355,1.649-.355.498,0,.996.093,1.468.279,1.006.397,1.809,1.185,2.225,2.184.552,1.327,1.141,2.642,1.759,3.932,1.75.461,3.215,1.712,3.93,3.443.064.155.121.312.171.469,1.75.921,3.165,2.435,3.954,4.346l3.282,7.955.233.551c.417.982.423,2.091.019,3.078s-1.188,1.772-2.173,2.18l-15.9,6.57c-.498.206-1.016.304-1.526.304Z"/><path class="cls-7" d="m196.135,230.431c-.523,0-1.046-.103-1.539-.308-.981-.409-1.759-1.192-2.162-2.175l-.66-1.61c-.324-.779-.566-1.587-.726-2.412h-29.519c-2.209,0-4-1.791-4-4v-1.739c0-6.975,5.674-12.648,12.648-12.648.033,0,1.671.001,1.671.001.48-1.429,1.266-2.737,2.301-3.833.025-.765.197-1.504.498-2.183-.447-1.708-.857-3.503-1.245-5.438-.235-1.175.069-2.394.829-3.321s1.896-1.464,3.094-1.464h12.99c1.859,0,3.473,1.281,3.896,3.091.39,1.669.804,3.219,1.256,4.691,1.531,1.066,2.528,2.835,2.528,4.817,0,.172-.007.342-.022.512,1.275,1.527,1.992,3.459,1.992,5.519v1.431c1.136-.329,2.307-.495,3.496-.495,3.34,0,6.494,1.319,8.822,3.583l13.104-5.413c.489-.202,1.008-.303,1.527-.303s1.043.102,1.534.306c.98.407,1.758,1.186,2.163,2.167l1.051,2.544c.843,2.042-.128,4.38-2.17,5.224l-31.83,13.153c-.489.202-1.008.303-1.528.303Z"/><path class="cls-7" d="m68.925,207.261c-.267,0-.535-.026-.801-.081-1.316-.269-2.409-1.181-2.91-2.427-.476-1.184-.893-2.308-1.276-3.436-.428-1.262-.201-2.654.608-3.713.759-.995,1.937-1.573,3.179-1.573.081,0,.162.002.243.007,3.1.188,5.528,2.763,5.528,5.862,0,1.578-.619,3.066-1.741,4.189-.758.757-1.779,1.171-2.829,1.171Z"/><path class="cls-7" d="m78.395,197.301c-.684,0-1.337-.174-1.91-.485-.579.314-1.234.485-1.91.485l-26.377-.002c-1.748,0-3.293-1.134-3.816-2.802-4.379-13.945-5.846-43.097-1.665-61.424-.605-.701-.971-1.614-.971-2.613v-17.677c-3.577,1.762-7.437,3.37-11.539,4.805-1.105.387-2.255.583-3.419.583-4.392,0-8.317-2.786-9.768-6.932-.914-2.609-.756-5.417.443-7.908,1.199-2.491,3.297-4.366,5.907-5.279,7.473-2.616,13.644-5.777,18.376-9.408v-7.474c0-1.746.133-3.501.396-5.216.002-.016.004-.031.007-.046,1.359-8.926,6.126-16.896,13.259-22.332-1.229-2.321-2.047-4.848-2.409-7.452-.813-.479-1.481-1.2-1.888-2.09-.522-1.14-.568-2.415-.131-3.59.351-.944.981-1.734,1.807-2.278v-13.776c0-8.21,4.415-15.636,11.449-19.595v-.793C64.234,1.794,66.025.003,68.234.003h4.072c1.44,0,2.702.761,3.407,1.903,12.2.233,22.052,10.231,22.052,22.486v3.286c1.555.548,2.669,2.031,2.669,3.773v4.072c0,1.743-1.114,3.225-2.669,3.773v3.756c0,3.237-.685,6.383-2.004,9.277,5.524,3.693,9.869,8.882,12.53,15.003,3.273,1.855,5.369,5.429,5.27,9.281-.019.737-.225,4.521-2.395,9.66v44.188c0,1.979-1.438,3.623-3.326,3.943-2.468,18.125-1.735,47.377.824,57.955.289,1.192.014,2.45-.744,3.414-.759.964-1.917,1.526-3.144,1.526,0,0-21.989.002-22.031.002h-4.35Zm-.11-153.31c.108.018.216.039.322.063l-1.657-.758c-.059-.027-.117-.055-.174-.083-.017.035-.033.07-.048.105l1.557.673Z"/><path class="cls-7" d="m71.465,223.931c-.067,0-.133-.001-.199-.005h-34.232c-2.209,0-4-1.791-4-4v-1.739c0-6.975,5.674-12.648,12.648-12.648.033,0,1.668.001,1.668.001.481-1.428,1.268-2.736,2.304-3.834.025-.766.198-1.504.498-2.184-.461-1.768-.879-3.589-1.25-5.437-.235-1.175.069-2.394.829-3.321s1.896-1.464,3.094-1.464h13c1.865,0,3.482,1.289,3.899,3.106.499,2.179,1.101,4.311,1.789,6.338.011.034.022.067.033.101.287.84.605,1.701.947,2.567,1.275,1.105,2.186,2.537,2.641,4.135.144-.005.516-.008.532-.008h1.603c.48-1.428,1.265-2.735,2.299-3.832.025-.764.198-1.503.5-2.183-.447-1.708-.858-3.503-1.246-5.439-.235-1.175.069-2.394.829-3.321.76-.927,1.896-1.464,3.094-1.464h12.99c1.859,0,3.473,1.281,3.896,3.091.39,1.669.804,3.218,1.255,4.69,1.53,1.066,2.525,2.836,2.525,4.823,0,.169-.007.337-.021.503,1.277,1.528,1.995,3.462,1.995,5.522v11.995c0,2.209-1.791,4-4,4h-25.593c-.065.003-.131.005-.197.005h-4.13Z"/><path class="cls-7" d="m286.099,223.927c-2.209,0-4-1.791-4-4v-1.739c0-6.975,5.674-12.648,12.648-12.648h1.672c.48-1.428,1.265-2.736,2.3-3.833.025-.765.198-1.504.499-2.184-.192-.734-.375-1.477-.551-2.224h-1.404c-.289,0-.573-.031-.848-.09l-23.561,1.71c-.097.007-.193.01-.29.01-.958,0-1.887-.344-2.617-.975-.802-.694-1.296-1.678-1.373-2.737l-.125-1.734c-.504-6.955,4.744-13.025,11.7-13.53l1.667-.121c.376-1.459,1.064-2.821,2.017-3.99-.07-1.786.673-3.432,1.907-4.565.053-1.505.135-2.981.245-4.422-1.979-.194-3.542-1.832-3.604-3.859-.448-14.678,4.055-24.779,8.661-31.204-.147-.417-.228-.867-.228-1.334v-49.287c0-1.736.131-3.488.39-5.208.394-2.613,1.086-5.167,2.066-7.622-1.582-1.459-3.271-2.628-5.042-3.489-2.612-1.269-5.546-1.912-8.721-1.912-3.284,0-6.899.683-10.746,2.029-1.104.387-2.256.584-3.421.584-4.391,0-8.316-2.787-9.767-6.933-.914-2.609-.756-5.417.443-7.908,1.199-2.491,3.297-4.366,5.906-5.279,6.093-2.133,12.023-3.214,17.626-3.214,5.68,0,11.101,1.106,16.144,3.29,1.064-1.033,2.35-1.836,3.781-2.337.124-.043.248-.086.373-.129-.182-.859-.117-1.753.197-2.597.352-.946.983-1.736,1.811-2.281v-13.773c0-8.21,4.414-15.637,11.445-19.597v-.792c0-2.209,1.791-4,4-4h4.072c1.44,0,2.702.761,3.407,1.902,12.202.231,22.057,10.229,22.057,22.486v3.288c1.553.549,2.665,2.031,2.665,3.771v4.072c0,1.741-1.112,3.222-2.665,3.771v3.758c0,2.64-.471,5.265-1.376,7.736.668.552,1.325,1.122,1.965,1.706,9.608,8.767,14.187,19.349,14.376,19.795,1.536,3.607.868,7.735-1.568,10.67v47.5c0,1.331-.65,2.51-1.65,3.237-1.536,6.562-6.899,11.8-13.894,13.219l-19.306,3.914c-.643,16.194.234,33.614,2.148,41.53.289,1.192.014,2.45-.744,3.414-.759.964-1.917,1.526-3.144,1.526h-3.316c1.364,1.081,2.234,2.749,2.234,4.606,0,.168-.007.336-.022.503,1.278,1.528,1.996,3.463,1.996,5.526v11.991c0,1.061-.42,2.078-1.171,2.829-.75.75-1.768,1.172-2.829,1.172h-17.139s-17.297,0-17.297,0Zm41.212-179.941c.123.019.244.042.363.07,0,0-1.771-.812-1.827-.84-.021.043-.04.086-.059.131l1.523.639Z"/><path class="cls-7" d="m410.595,223.927c-2.209,0-4-1.791-4-4v-1.739c0-6.975,5.674-12.648,12.648-12.648.033,0,1.676.001,1.676.001.479-1.426,1.263-2.733,2.295-3.829.025-.767.197-1.507.498-2.187-.468-1.796-.884-3.624-1.243-5.456-.23-1.173.077-2.388.837-3.311.76-.923,1.893-1.458,3.088-1.458h12.99c1.864,0,3.482,1.289,3.898,3.106.5,2.18,1.103,4.313,1.79,6.339.009.027.019.055.026.083.293.856.613,1.724.955,2.587,1.888,1.634,2.98,3.98,2.98,6.516v9.24c0,.066-.002.132-.005.199v2.557c0,2.209-1.791,4-4,4h-17.138s-17.297,0-17.297,0Z"/><path class="cls-7" d="m442.485,207.261c-.268,0-.536-.027-.803-.082-1.316-.27-2.409-1.182-2.909-2.428-.475-1.181-.892-2.304-1.274-3.434-.429-1.262-.201-2.654.607-3.713.76-.995,1.938-1.573,3.18-1.573.08,0,.161.002.242.007,3.1.188,5.527,2.763,5.527,5.862,0,1.58-.619,3.068-1.744,4.191-.757.756-1.777,1.169-2.826,1.169Z"/><path class="cls-7" d="m445.207,230.432c-1.568,0-3.056-.927-3.695-2.464l-.67-1.61c-.939-2.292-1.192-4.765-.737-7.17.138-.728.468-1.378.931-1.902v-.054c0-.689.178-1.367.517-1.967,1.391-2.461,3.516-4.341,6.146-5.436.004-.001,1.55-.639,1.55-.639-.102-1.505.125-3.018.665-4.428-.377-.972-.471-2.021-.295-3.035-.19-.392-.378-.786-.563-1.181l-1.79.81c-.534.242-1.095.356-1.646.356-1.514,0-2.962-.864-3.636-2.329-.021-.047-.36-.787-.873-2.082l-19.35-.002c-1.748,0-3.293-1.134-3.816-2.802-4.38-13.948-5.847-43.106-1.663-61.432-.601-.7-.964-1.61-.964-2.604v-48.258c-6.303.374-13.682,2.029-21.983,4.935-1.106.387-2.256.583-3.419.583-4.392,0-8.317-2.786-9.768-6.932-.914-2.609-.756-5.417.443-7.908,1.199-2.491,3.296-4.366,5.906-5.279,11.743-4.11,22.346-6.194,31.515-6.194,1.156,0,2.299.033,3.419.099,2.081-3.018,4.634-5.7,7.542-7.925-1.23-2.322-2.049-4.851-2.411-7.457-.812-.479-1.479-1.2-1.886-2.088-.522-1.14-.569-2.416-.132-3.591.351-.944.98-1.733,1.805-2.277v-13.777c0-8.211,4.416-15.638,11.451-19.596v-.792c0-2.209,1.791-4,4-4h4.071c1.44,0,2.702.761,3.406,1.903,12.205.235,22.062,10.231,22.062,22.486v3.289c1.551.551,2.661,2.031,2.661,3.771v4.072c0,1.74-1.11,3.22-2.661,3.771v3.759c0,3.234-.688,6.38-2.013,9.28,5.415,3.627,9.718,8.711,12.39,14.689,1.317.968,2.129,1.749,2.454,2.081,1.54,1.571,1.521,4.09-.038,5.638.159.853.287,1.718.383,2.587.143,1.324.214,2.613.214,3.845v49.29c0,2.051-1.543,3.741-3.531,3.973-.05.149-.101.297-.154.443l-11.387,31.433c-1.065,3.637-2.938,13.946.771,19.436.66.977.855,2.194.534,3.329-.32,1.134-1.125,2.069-2.199,2.555l-.855.387c.062.129.122.259.185.388,1.752.46,3.22,1.712,3.936,3.445.063.155.12.311.171.469,1.753.921,3.169,2.435,3.959,4.347l2.392,5.815,2.184,5.272c.843,2.042-.128,4.38-2.17,5.224,0,0-23.927,9.883-23.973,9.9l-7.849,3.251c-.5.208-1.02.306-1.529.306Z"/><path class="cls-11" d="m140.847,83.721c-2.623,0-5.077-1.638-5.993-4.253-1.159-3.31.585-6.932,3.895-8.091,15.267-5.344,28.284-7.118,38.69-5.274,8.564,1.518,12.455,5.066,13.148,5.762l-8.997,8.962s.059.071.194.184c-.094-.079-9.78-7.819-38.839,2.353-.694.243-1.402.358-2.098.358Z"/><path class="cls-11" d="m182.151,209.251c-14.835-34.936-.798-78.937-.193-80.793l12.074,3.934-6.037-1.967,6.039,1.963c-.133.41-13.15,41.39-.194,71.9l-11.689,4.963Z"/><ellipse class="cls-8" cx="185.884" cy="128.431" rx="13.19" ry="13.792"/><path class="cls-9" d="m172.694,193.3h26.38c-3.119-12.894-3.458-47.842,0-64.869h-26.38c-5.58,15.33-4.901,49.261,0,64.869Z"/><path class="cls-8" d="m161.53,219.927v-1.739c0-4.777,3.872-8.649,8.649-8.649h0c4.777,0,8.649,3.872,8.649,8.649v1.739h-11.885s-1.675,0-1.675,0h-3.738Z"/><path class="cls-8" d="m175.306,209.54v-.671c0-3.555,2.882-6.436,6.436-6.436,1.147,0,2.222.303,3.154.829h6.397c2.581,0,4.673,2.092,4.673,4.673v6.277s0,2.317,0,2.317v3.397h-25.787v-10.387h5.127Z"/><rect class="cls-10" x="178.147" y="200.02" width="15.845" height="3.77" rx="1.885" ry="1.885" transform="translate(372.138 403.811) rotate(180)"/><polygon class="cls-8" points="195.966 219.926 195.966 217.174 169.274 217.174 169.274 219.889 195.966 219.926"/><path class="cls-4" d="m170.246,50.464h61.417v49.287c0,16.948-13.76,30.709-30.709,30.709h0c-16.948,0-30.709-13.76-30.709-30.709v-49.287h0Z" transform="translate(401.909 180.923) rotate(-180)"/><g class="cls-14"><circle class="cls-11" cx="163.383" cy="56.276" r="21.546"/><circle class="cls-11" cx="232.601" cy="56.276" r="21.546"/><circle class="cls-11" cx="197.992" cy="56.276" r="9.298"/></g><rect class="cls-1" x="181.281" y="5.899" width="36.984" height="55.646" rx="18.492" ry="18.492" transform="translate(399.547 67.445) rotate(180)"/><rect class="cls-9" x="181.281" y="5.899" width="36.984" height="55.646" rx="18.492" ry="18.492" transform="translate(399.547 67.445) rotate(180)"/><circle class="cls-8" cx="201.979" cy="31.913" r="3.845"/><circle class="cls-8" cx="186.823" cy="31.913" r="3.845"/><polygon class="cls-9" points="182.994 26.757 192.325 31.846 207.707 27.605 198.546 25.569 182.994 26.757"/><path class="cls-11" d="m180.207,81.233c-2.623,0-5.077-1.638-5.993-4.253-1.159-3.31.585-6.932,3.895-8.091,15.408-5.392,28.943-6.719,40.23-3.943,8.892,2.187,13.144,6.178,13.906,6.956l-9.07,8.889s.033.038.105.104c-.112-.104-2.808-2.549-9.024-3.856-5.984-1.256-16.384-1.611-31.951,3.838-.694.243-1.402.358-2.098.358Z"/><path class="cls-6" d="m210.264,210.869c-16.773-26.237-15.79-47.615-12.012-60.928,4.164-14.671,12.563-23.022,12.918-23.371l8.888,9.071-4.444-4.536,4.469,4.511c-1.067,1.069-25.814,26.656.881,68.413l-10.7,6.84Z"/><ellipse class="cls-9" cx="215.812" cy="129.023" rx="13.792" ry="13.19" transform="translate(20.999 287.987) rotate(-70.087)"/><rect class="cls-9" x="196.908" y="128.02" width="26.38" height="33.55" transform="translate(358.319 352.49) rotate(-160.087)"/><path class="cls-8" d="m196.138,226.427l-.664-1.607c-1.824-4.415.277-9.472,4.691-11.296h0c4.415-1.824,9.472.277,11.296,4.691l.664,1.607-10.985,4.538-1.548.639-3.455,1.427Z"/><path class="cls-8" d="m204.905,211.567l-.256-.62c-1.357-3.285.206-7.049,3.491-8.406,1.06-.438,2.169-.568,3.232-.438l5.912-2.442c2.385-.985,5.117.15,6.103,2.535l2.397,5.802.885,2.141,1.297,3.14-23.834,9.846-3.966-9.6,4.739-1.958Z"/><rect class="cls-10" x="204.016" y="198.516" width="15.845" height="3.77" rx="1.885" ry="1.885" transform="translate(484.334 304.702) rotate(157.555)"/><polygon class="cls-8" points="227.965 213.278 226.914 210.735 202.244 220.926 203.281 223.435 227.965 213.278"/><path class="cls-9" d="m216.786,165.059s-4.398,14.557,1.257,22.926l-21.489,9.727s-9.82-21.07-4.571-41.638"/><circle class="cls-8" cx="185.077" cy="21.045" r="1.018"/><circle class="cls-8" cx="187.078" cy="16.6" r="1.018"/><circle class="cls-8" cx="190.587" cy="12.936" r="1.018"/><circle class="cls-8" cx="203.965" cy="21.045" r="1.018"/><circle class="cls-8" cx="201.965" cy="16.6" r="1.018"/><circle class="cls-8" cx="198.456" cy="12.936" r="1.018"/><circle class="cls-8" cx="214.371" cy="26.7" r="1.018"/><circle class="cls-8" cx="212.37" cy="22.256" r="1.018"/><circle class="cls-8" cx="208.861" cy="18.591" r="1.018"/><circle class="cls-8" cx="203.965" cy="44.499" r="1.018"/><circle class="cls-8" cx="201.965" cy="48.944" r="1.018"/><circle class="cls-8" cx="198.456" cy="52.608" r="1.018"/><circle class="cls-8" cx="213.692" cy="39.933" r="1.018"/><circle class="cls-8" cx="211.692" cy="44.378" r="1.018"/><circle class="cls-8" cx="208.183" cy="48.042" r="1.018"/><circle class="cls-8" cx="185.077" cy="44.499" r="1.018"/><circle class="cls-8" cx="187.078" cy="48.944" r="1.018"/><circle class="cls-8" cx="190.587" cy="52.608" r="1.018"/><polygon class="cls-3" points="191.524 28.057 194.691 24.89 197.632 27.831 191.524 28.057"/><path class="cls-3" d="m210.072,42.776c-.097,0-.195-.02-.289-.063l-6.673-3.054c-.349-.16-.502-.572-.342-.921.16-.349.572-.502.921-.343l6.673,3.054c.349.16.502.572.342.921-.117.255-.369.406-.632.406Z"/><path class="cls-3" d="m179.875,42.776c-.263,0-.515-.151-.632-.406-.16-.349-.006-.761.342-.921l6.673-3.054c.349-.158.761-.006.921.343s.006.761-.342.921l-6.673,3.054c-.094.042-.192.063-.289.063Z"/><rect class="cls-8" x="211.43" y="31.45" width="9.501" height="4.072"/><rect class="cls-8" x="191.297" y="5.436" width="6.939" height="4.072" transform="translate(187.294 202.238) rotate(-90)"/><path class="cls-11" d="m26.787,114.172c-2.623,0-5.077-1.638-5.993-4.253-1.159-3.31.585-6.932,3.895-8.091,29.345-10.272,30.552-25.496,30.556-25.647.091-3.506,3.006-6.282,6.511-6.183,3.506.09,6.274,3.006,6.183,6.511-.018.692-.329,6.984-5.668,14.688-6.637,9.576-17.87,17.185-33.387,22.617-.694.243-1.402.358-2.098.358Z"/><path class="cls-11" d="m57.654,209.251c-14.835-34.936-.797-78.937-.193-80.793l12.074,3.934-6.037-1.967,6.039,1.963c-.133.41-13.15,41.39-.194,71.9l-11.689,4.963Z"/><ellipse class="cls-8" cx="61.388" cy="128.431" rx="13.19" ry="13.792"/><path class="cls-9" d="m48.198,193.3h26.38c-3.119-12.894-3.458-47.842,0-64.869h-26.38c-5.58,15.33-4.901,49.261,0,64.869Z"/><path class="cls-8" d="m37.034,219.927v-1.739c0-4.777,3.872-8.649,8.649-8.649h0c4.777,0,8.649,3.872,8.649,8.649v1.739h-11.885s-1.675,0-1.675,0h-3.738Z"/><path class="cls-8" d="m50.81,209.54v-.671c0-3.555,2.882-6.436,6.436-6.436,1.147,0,2.222.303,3.154.829h6.397c2.581,0,4.673,2.092,4.673,4.673v6.277s0,2.317,0,2.317v3.397h-25.787v-10.387h5.127Z"/><rect class="cls-10" x="53.651" y="200.02" width="15.845" height="3.77" rx="1.885" ry="1.885" transform="translate(123.146 403.811) rotate(-180)"/><polygon class="cls-8" points="71.47 219.926 71.47 217.174 44.777 217.174 44.777 219.889 71.47 219.926"/><path class="cls-4" d="m45.75,50.464h61.417v49.287c0,16.948-13.76,30.709-30.709,30.709h0c-16.948,0-30.709-13.76-30.709-30.709v-49.287h0Z" transform="translate(152.917 180.923) rotate(-180)"/><g class="cls-13"><circle class="cls-11" cx="38.887" cy="56.276" r="21.546"/><circle class="cls-11" cx="108.105" cy="56.276" r="21.546"/><circle class="cls-11" cx="73.496" cy="56.276" r="9.298"/></g><rect class="cls-1" x="56.785" y="5.899" width="36.984" height="55.646" rx="18.492" ry="18.492" transform="translate(150.555 67.445) rotate(-180)"/><rect class="cls-9" x="56.785" y="5.899" width="36.984" height="55.646" rx="18.492" ry="18.492" transform="translate(150.555 67.445) rotate(-180)"/><path class="cls-11" d="m68.409,114.172c-2.623,0-5.077-1.638-5.993-4.253-1.159-3.31.585-6.932,3.895-8.091,29.345-10.272,30.552-25.496,30.556-25.647.091-3.506,3.006-6.282,6.511-6.183,3.506.09,6.274,3.006,6.183,6.511-.018.692-.329,6.984-5.668,14.688-6.637,9.576-17.87,17.185-33.387,22.617-.694.243-1.402.358-2.098.358Z"/><circle class="cls-8" cx="77.483" cy="31.913" r="3.845"/><circle class="cls-8" cx="62.327" cy="31.913" r="3.845"/><path class="cls-11" d="m87.57,209.251c-14.835-34.936-.797-78.937-.193-80.793l12.074,3.934-6.037-1.967,6.039,1.963c-.133.41-13.15,41.39-.194,71.9l-11.689,4.963Z"/><ellipse class="cls-9" cx="91.303" cy="128.431" rx="13.19" ry="13.792"/><path class="cls-8" d="m66.949,219.927v-1.739c0-4.777,3.872-8.649,8.649-8.649h0c4.777,0,8.649,3.872,8.649,8.649v1.739h-11.885s-1.675,0-1.675,0h-3.738Z"/><path class="cls-8" d="m80.725,209.54v-.671c0-3.555,2.882-6.436,6.436-6.436,1.147,0,2.222.303,3.154.829h6.397c2.581,0,4.673,2.092,4.673,4.673v6.277s0,2.317,0,2.317v3.397h-25.787v-10.387h5.127Z"/><rect class="cls-10" x="83.566" y="200.02" width="15.845" height="3.77" rx="1.885" ry="1.885" transform="translate(182.978 403.811) rotate(-180)"/><polygon class="cls-8" points="101.385 219.926 101.385 217.174 74.693 217.174 74.693 219.889 101.385 219.926"/><path class="cls-9" d="m78.396,193.3h26.38c-3.119-12.894-3.458-47.842,0-64.869h-26.38c-5.58,15.33-4.901,49.261,0,64.869Z"/><polygon class="cls-9" points="58.498 26.757 67.829 31.846 83.211 27.605 74.05 25.569 58.498 26.757"/><circle class="cls-8" cx="60.581" cy="21.045" r="1.018"/><circle class="cls-8" cx="62.582" cy="16.6" r="1.018"/><circle class="cls-8" cx="66.09" cy="12.936" r="1.018"/><circle class="cls-8" cx="79.469" cy="21.045" r="1.018"/><circle class="cls-8" cx="77.469" cy="16.6" r="1.018"/><circle class="cls-8" cx="73.96" cy="12.936" r="1.018"/><circle class="cls-8" cx="89.875" cy="26.7" r="1.018"/><circle class="cls-8" cx="87.874" cy="22.256" r="1.018"/><circle class="cls-8" cx="84.365" cy="18.591" r="1.018"/><circle class="cls-8" cx="79.469" cy="44.499" r="1.018"/><circle class="cls-8" cx="77.469" cy="48.944" r="1.018"/><circle class="cls-8" cx="73.96" cy="52.608" r="1.018"/><circle class="cls-8" cx="89.196" cy="39.933" r="1.018"/><circle class="cls-8" cx="87.195" cy="44.378" r="1.018"/><circle class="cls-8" cx="83.687" cy="48.042" r="1.018"/><circle class="cls-8" cx="60.581" cy="44.499" r="1.018"/><circle class="cls-8" cx="62.582" cy="48.944" r="1.018"/><circle class="cls-8" cx="66.09" cy="52.608" r="1.018"/><polygon class="cls-3" points="67.028 28.057 70.195 24.89 73.135 27.831 67.028 28.057"/><path class="cls-3" d="m85.576,42.776c-.097,0-.195-.02-.289-.063l-6.673-3.054c-.349-.16-.502-.572-.343-.921.16-.348.572-.502.92-.343l6.673,3.054c.349.16.502.572.343.921-.117.255-.369.406-.632.406Z"/><path class="cls-3" d="m55.379,42.776c-.263,0-.515-.151-.632-.406-.16-.349-.006-.761.343-.921l6.673-3.054c.349-.158.761-.006.92.343.16.349.006.761-.343.921l-6.673,3.054c-.094.042-.192.063-.289.063Z"/><rect class="cls-8" x="86.934" y="31.45" width="9.501" height="4.072"/><rect class="cls-8" x="66.801" y="5.436" width="6.939" height="4.072" transform="translate(62.798 77.742) rotate(-90)"/><path class="cls-11" d="m310.657,82.697c-2.653,0-5.126-1.676-6.017-4.327-.084-.242-4.272-12.066-14.662-17.114-6.31-3.066-13.893-3.087-22.536-.061-3.31,1.161-6.932-.585-8.091-3.895-1.159-3.31.585-6.932,3.895-8.091,12.016-4.206,22.925-3.973,32.422.694,15.237,7.487,20.787,23.753,21.016,24.442,1.105,3.328-.696,6.922-4.024,8.027-.664.221-1.339.326-2.003.326Z"/><path class="cls-11" d="m306.72,209.251c-14.835-34.936-.798-78.937-.193-80.793l12.076,3.93c-.133.41-13.15,41.39-.194,71.9l-11.689,4.963Z"/><ellipse class="cls-8" cx="310.453" cy="128.431" rx="13.19" ry="13.792"/><path class="cls-9" d="m297.263,193.3h26.38c-3.119-12.894-3.458-47.842,0-64.869h-26.38c-5.58,15.33-4.901,49.261,0,64.869Z"/><path class="cls-8" d="m286.099,219.927v-1.739c0-4.777,3.872-8.649,8.649-8.649h0c4.777,0,8.649,3.872,8.649,8.649v1.739h-11.885s-1.675,0-1.675,0h-3.738Z"/><path class="cls-8" d="m299.875,209.54v-.671c0-3.555,2.882-6.436,6.436-6.436,1.147,0,2.222.303,3.154.829h6.397c2.581,0,4.673,2.092,4.673,4.673v6.277s0,2.317,0,2.317v3.397h-25.787v-10.387h5.127Z"/><rect class="cls-10" x="302.716" y="200.02" width="15.845" height="3.77" rx="1.885" ry="1.885" transform="translate(621.277 403.811) rotate(180)"/><polygon class="cls-8" points="320.535 219.926 320.535 217.174 293.843 217.174 293.843 219.889 320.535 219.926"/><path class="cls-4" d="m294.815,50.464h61.417v49.287c0,16.948-13.76,30.709-30.709,30.709h0c-16.948,0-30.709-13.76-30.709-30.709v-49.287h0Z" transform="translate(651.047 180.923) rotate(-180)"/><g class="cls-12"><circle class="cls-11" cx="287.952" cy="56.276" r="21.546"/><circle class="cls-11" cx="357.171" cy="56.276" r="21.546"/><circle class="cls-11" cx="322.561" cy="56.276" r="9.298"/></g><rect class="cls-1" x="305.851" y="5.899" width="36.984" height="55.646" rx="18.492" ry="18.492" transform="translate(648.685 67.445) rotate(-180)"/><rect class="cls-9" x="305.851" y="5.899" width="36.984" height="55.646" rx="18.492" ry="18.492" transform="translate(648.685 67.445) rotate(-180)"/><circle class="cls-8" cx="326.548" cy="31.913" r="3.845"/><circle class="cls-8" cx="311.393" cy="31.913" r="3.845"/><polygon class="cls-9" points="307.564 26.757 316.895 31.846 332.276 27.605 323.115 25.569 307.564 26.757"/><path class="cls-1" d="m302.35,175.519h-12.699c0-21.871,5.816-37.212,17.287-45.596,15.019-10.977,33.598-5.24,34.382-4.99l-3.855,12.1,1.928-6.05-1.9,6.059c-.133-.041-13.383-4.009-23.137,3.19-7.966,5.88-12.005,17.752-12.005,35.287Z"/><ellipse class="cls-9" cx="341.272" cy="130.068" rx="13.792" ry="13.19" transform="translate(-19.04 70.407) rotate(-11.461)"/><rect class="cls-9" x="311.642" y="116.626" width="26.38" height="33.55" transform="translate(258.638 478.263) rotate(-101.461)"/><path class="cls-8" d="m272.565,194.93l-.126-1.734c-.346-4.764,3.236-8.906,8-9.252h0c4.764-.346,8.906,3.236,9.252,8l.126,1.734-11.854.86-1.67.121-3.728.27Z"/><path class="cls-8" d="m285.553,183.573l-.049-.669c-.257-3.545,2.408-6.628,5.953-6.885,1.144-.083,2.238.142,3.206.599l6.38-.463c2.574-.187,4.812,1.748,4.998,4.322l.454,6.261.168,2.311.246,3.388-25.72,1.866-.752-10.359,5.114-.371Z"/><rect class="cls-10" x="287.814" y="173.294" width="15.845" height="3.77" rx="1.885" ry="1.885" transform="translate(603.374 328.498) rotate(175.85)"/><polygon class="cls-8" points="306.911 192.437 306.712 189.692 280.089 191.624 280.286 194.331 306.911 192.437"/><path class="cls-9" d="m305.771,123.807s-20.295,9.435-19.39,39.068h21.489l4.524-15.156-6.623-23.912Z"/><circle class="cls-8" cx="309.646" cy="21.045" r="1.018"/><circle class="cls-8" cx="311.647" cy="16.6" r="1.018"/><circle class="cls-8" cx="315.156" cy="12.936" r="1.018"/><circle class="cls-8" cx="328.534" cy="21.045" r="1.018"/><circle class="cls-8" cx="326.534" cy="16.6" r="1.018"/><circle class="cls-8" cx="323.025" cy="12.936" r="1.018"/><circle class="cls-8" cx="338.94" cy="26.7" r="1.018"/><circle class="cls-8" cx="336.939" cy="22.256" r="1.018"/><circle class="cls-8" cx="333.431" cy="18.591" r="1.018"/><circle class="cls-8" cx="328.534" cy="44.499" r="1.018"/><circle class="cls-8" cx="326.534" cy="48.944" r="1.018"/><circle class="cls-8" cx="323.025" cy="52.608" r="1.018"/><circle class="cls-8" cx="338.261" cy="39.933" r="1.018"/><circle class="cls-8" cx="336.261" cy="44.378" r="1.018"/><circle class="cls-8" cx="332.752" cy="48.042" r="1.018"/><circle class="cls-8" cx="309.646" cy="44.499" r="1.018"/><circle class="cls-8" cx="311.647" cy="48.944" r="1.018"/><circle class="cls-8" cx="315.156" cy="52.608" r="1.018"/><polygon class="cls-3" points="316.093 28.057 319.26 24.89 322.201 27.831 316.093 28.057"/><path class="cls-3" d="m334.642,42.776c-.097,0-.195-.02-.288-.063l-6.673-3.054c-.349-.16-.502-.572-.342-.921.159-.349.572-.503.92-.343l6.673,3.054c.349.16.502.572.342.921-.117.255-.368.406-.632.406Z"/><path class="cls-3" d="m304.444,42.776c-.263,0-.515-.151-.632-.406-.16-.349-.006-.761.342-.921l6.673-3.054c.349-.159.761-.006.92.343.16.349.006.761-.342.921l-6.673,3.054c-.094.042-.192.063-.288.063Z"/><rect class="cls-8" x="335.999" y="31.45" width="9.501" height="4.072"/><rect class="cls-8" x="315.866" y="5.436" width="6.939" height="4.072" transform="translate(311.864 326.807) rotate(-90)"/><path class="cls-11" d="m352.282,82.697c-2.464,0-4.807-1.443-5.839-3.849-.097-.22-3.569-8.024-10.555-14.271-8.778-7.85-19.173-9.749-30.898-5.644-3.309,1.157-6.932-.585-8.091-3.895-1.159-3.31.585-6.932,3.895-8.091,20.676-7.237,35.303.629,43.933,8.502,8.976,8.19,13.216,17.995,13.392,18.408,1.374,3.226-.127,6.956-3.354,8.33-.812.346-1.655.51-2.485.51Z"/><path class="cls-11" d="m389.912,83.721c-2.623,0-5.077-1.638-5.993-4.253-1.159-3.31.585-6.932,3.895-8.091,15.267-5.344,28.284-7.118,38.69-5.274,8.564,1.518,12.455,5.066,13.148,5.762l-8.997,8.962s.059.071.194.184c-.094-.079-9.78-7.819-38.839,2.353-.694.243-1.402.358-2.098.358Z"/><path class="cls-11" d="m431.216,209.251c-14.835-34.936-.798-78.937-.193-80.793l12.076,3.93c-.133.41-13.15,41.39-.194,71.9l-11.689,4.963Z"/><ellipse class="cls-8" cx="434.949" cy="128.431" rx="13.19" ry="13.792"/><path class="cls-9" d="m421.759,193.3h26.38c-3.119-12.894-3.458-47.842,0-64.869h-26.38c-5.58,15.33-4.901,49.261,0,64.869Z"/><path class="cls-8" d="m410.595,219.927v-1.739c0-4.777,3.872-8.649,8.649-8.649h0c4.777,0,8.649,3.872,8.649,8.649v1.739h-11.885s-1.675,0-1.675,0h-3.738Z"/><path class="cls-8" d="m424.371,209.54v-.671c0-3.555,2.882-6.436,6.436-6.436,1.147,0,2.222.303,3.154.829h6.397c2.581,0,4.673,2.092,4.673,4.673v6.277s0,2.317,0,2.317v3.397h-25.787v-10.387h5.127Z"/><rect class="cls-10" x="427.212" y="200.02" width="15.845" height="3.77" rx="1.885" ry="1.885" transform="translate(870.269 403.811) rotate(180)"/><polygon class="cls-8" points="445.031 219.926 445.031 217.174 418.339 217.174 418.339 219.889 445.031 219.926"/><path class="cls-4" d="m419.311,50.464h61.417v49.287c0,16.948-13.76,30.709-30.709,30.709h0c-16.948,0-30.709-13.76-30.709-30.709v-49.287h0Z" transform="translate(900.04 180.923) rotate(-180)"/><g class="cls-15"><circle class="cls-11" cx="412.448" cy="56.276" r="21.546"/><circle class="cls-11" cx="481.667" cy="56.276" r="21.546"/><circle class="cls-11" cx="447.058" cy="56.276" r="9.298"/></g><rect class="cls-1" x="430.347" y="5.899" width="36.984" height="55.646" rx="18.492" ry="18.492" transform="translate(897.678 67.445) rotate(180)"/><rect class="cls-9" x="430.347" y="5.899" width="36.984" height="55.646" rx="18.492" ry="18.492" transform="translate(897.678 67.445) rotate(180)"/><circle class="cls-8" cx="451.044" cy="31.913" r="3.845"/><circle class="cls-8" cx="435.889" cy="31.913" r="3.845"/><polygon class="cls-9" points="432.06 26.757 441.391 31.846 456.773 27.605 447.611 25.569 432.06 26.757"/><path class="cls-11" d="m429.272,81.233c-2.623,0-5.077-1.638-5.993-4.253-1.159-3.31.585-6.932,3.895-8.091,15.408-5.393,28.943-6.72,40.229-3.943,8.891,2.187,13.144,6.178,13.906,6.956l-9.07,8.889s.033.038.104.104c-.112-.104-2.808-2.549-9.023-3.856-5.983-1.256-16.385-1.611-31.951,3.838-.694.243-1.402.358-2.098.358Z"/><path class="cls-6" d="m459.33,210.869c-16.773-26.237-15.79-47.615-12.012-60.928,4.164-14.671,12.563-23.022,12.918-23.371l8.888,9.071-4.444-4.536,4.469,4.511c-1.067,1.069-25.814,26.656.881,68.413l-10.7,6.84Z"/><ellipse class="cls-9" cx="464.877" cy="129.023" rx="13.792" ry="13.19" transform="translate(185.234 522.16) rotate(-70.087)"/><rect class="cls-9" x="445.974" y="128.02" width="26.38" height="33.55" transform="translate(841.558 437.32) rotate(-160.087)"/><path class="cls-8" d="m445.204,226.427l-.664-1.607c-1.824-4.415.277-9.472,4.691-11.296h0c4.415-1.824,9.472.277,11.296,4.691l.664,1.607-10.985,4.538-1.548.639-3.455,1.427Z"/><path class="cls-8" d="m453.97,211.567l-.256-.62c-1.357-3.285.206-7.049,3.491-8.406,1.06-.438,2.169-.568,3.232-.438l5.912-2.442c2.385-.985,5.117.15,6.103,2.535l2.397,5.802.885,2.141,1.297,3.14-23.834,9.846-3.966-9.6,4.739-1.958Z"/><rect class="cls-10" x="453.081" y="198.516" width="15.845" height="3.77" rx="1.885" ry="1.885" transform="translate(963.597 209.609) rotate(157.555)"/><polygon class="cls-8" points="477.031 213.278 475.98 210.735 451.31 220.926 452.346 223.435 477.031 213.278"/><path class="cls-9" d="m465.852,165.059s-4.398,14.557,1.257,22.926l-21.489,9.727s-9.82-21.07-4.571-41.638"/><circle class="cls-8" cx="434.143" cy="21.045" r="1.018"/><circle class="cls-8" cx="436.143" cy="16.6" r="1.018"/><circle class="cls-8" cx="439.652" cy="12.936" r="1.018"/><circle class="cls-8" cx="453.031" cy="21.045" r="1.018"/><circle class="cls-8" cx="451.03" cy="16.6" r="1.018"/><circle class="cls-8" cx="447.521" cy="12.936" r="1.018"/><circle class="cls-8" cx="463.436" cy="26.7" r="1.018"/><circle class="cls-8" cx="461.436" cy="22.256" r="1.018"/><circle class="cls-8" cx="457.927" cy="18.591" r="1.018"/><circle class="cls-8" cx="453.031" cy="44.499" r="1.018"/><circle class="cls-8" cx="451.03" cy="48.944" r="1.018"/><circle class="cls-8" cx="447.521" cy="52.608" r="1.018"/><circle class="cls-8" cx="462.757" cy="39.933" r="1.018"/><circle class="cls-8" cx="460.757" cy="44.378" r="1.018"/><circle class="cls-8" cx="457.248" cy="48.042" r="1.018"/><circle class="cls-8" cx="434.143" cy="44.499" r="1.018"/><circle class="cls-8" cx="436.143" cy="48.944" r="1.018"/><circle class="cls-8" cx="439.652" cy="52.608" r="1.018"/><polygon class="cls-3" points="440.589 28.057 443.756 24.89 446.697 27.831 440.589 28.057"/><path class="cls-3" d="m459.138,42.776c-.097,0-.195-.02-.288-.063l-6.673-3.054c-.349-.16-.502-.572-.342-.921.159-.349.572-.503.92-.343l6.673,3.054c.349.16.502.572.342.921-.117.255-.368.406-.632.406Z"/><path class="cls-3" d="m428.94,42.776c-.263,0-.515-.151-.632-.406-.16-.349-.006-.761.342-.921l6.673-3.054c.349-.159.761-.006.92.343.16.349.006.761-.342.921l-6.673,3.054c-.094.042-.192.063-.288.063Z"/><rect class="cls-8" x="460.495" y="31.45" width="9.501" height="4.072"/><rect class="cls-8" x="440.362" y="5.436" width="6.939" height="4.072" transform="translate(436.36 451.304) rotate(-90)"/></svg>