<?xml version="1.0" encoding="UTF-8"?><svg id="Layer_1" xmlns="http://www.w3.org/2000/svg" xmlns:xlink="http://www.w3.org/1999/xlink" width="898.5" height="262.057"><defs><style>.cls-1{fill:#7c453a;}.cls-1,.cls-2,.cls-3,.cls-4,.cls-5,.cls-6,.cls-7,.cls-8,.cls-9,.cls-10,.cls-11{stroke-width:0px;}.cls-2{fill:#e9a999;}.cls-12{clip-path:url(#clippath-2);}.cls-3{fill:#12313c;}.cls-4{fill:#cc4f51;}.cls-5{fill:none;}.cls-6{fill:#d39170;}.cls-13{clip-path:url(#clippath-1);}.cls-7{fill:#14242f;}.cls-8{fill:#eee;}.cls-14{clip-path:url(#clippath);}.cls-9{fill:#e7cdac;}.cls-15{clip-path:url(#clippath-3);}.cls-10{fill:#9f5c51;}.cls-11{fill:#d39173;}</style><clipPath id="clippath"><path class="cls-5" d="m142.026,62.32h61.417v49.287c0,16.948-13.76,30.709-30.709,30.709h0c-16.948,0-30.709-13.76-30.709-30.709v-49.287h0Z" transform="translate(345.469 204.636) rotate(-180)"/></clipPath><clipPath id="clippath-1"><path class="cls-5" d="m366.026,62.32h61.417v49.287c0,16.948-13.76,30.709-30.709,30.709h0c-16.948,0-30.709-13.76-30.709-30.709v-49.287h0Z" transform="translate(793.469 204.636) rotate(-180)"/></clipPath><clipPath id="clippath-2"><path class="cls-5" d="m814.026,62.32h61.417v49.287c0,16.948-13.76,30.709-30.709,30.709h0c-16.948,0-30.709-13.76-30.709-30.709v-49.287h0Z" transform="translate(1689.469 204.636) rotate(-180)"/></clipPath><clipPath id="clippath-3"><path class="cls-5" d="m590.026,62.32h61.417v49.287c0,16.948-13.76,30.709-30.709,30.709h0c-16.948,0-30.709-13.76-30.709-30.709v-49.287h0Z" transform="translate(1241.469 204.636) rotate(-180)"/></clipPath></defs><rect class="cls-3" x="6" y="242.151" width="214" height="19.906" rx="9.953" ry="9.953"/><rect class="cls-3" x="230" y="242.151" width="214" height="19.906" rx="9.953" ry="9.953"/><path class="cls-8" d="m312.339,255.848c-14.476,0-28.187-5.558-38.608-15.65-9.461-9.162-15.282-21.151-16.631-34.096h-4.006v22.24c0,2.209-1.791,4-4,4h-18.056c-2.209,0-4-1.791-4-4v-23.551c-.646-.71-1.039-1.654-1.039-2.689v-88.672c0-2.209,1.791-4,4-4h132.026v-14.881c-.176-.138-.34-.291-.492-.457-6.193.43-13.403,2.073-21.488,4.903-1.103.387-2.254.583-3.419.583-.407,0-.812-.024-1.215-.072,0,0-.399.255-.435.276l-.953.569-.234.135c-.651.373-1.304.743-1.983,1.083-.571.286-1.184.424-1.792.424-1.137,0-2.253-.484-3.033-1.391l-.151-.175c-.794-.922-1.104-2.125-.914-3.268-.327.051-.656.098-.987.137-.16.019-.318.028-.476.028-1.642,0-3.139-1.011-3.735-2.575l-.083-.216c-.585-1.534-.169-3.248,1.002-4.345-.82-.665-1.369-1.646-1.467-2.754l-.021-.23c-.162-1.824.935-3.525,2.664-4.13.72-.252,1.443-.464,2.167-.675,0,0,1.398-.381,1.438-.391l1.074-.254c.189-.043.346-.099.504-.15l.295-.094c.605-.183,1.197-.281,1.786-.301.925-.756,1.98-1.349,3.127-1.751,11.744-4.11,22.347-6.195,31.514-6.195,1.155,0,2.298.033,3.418.1.534-.778,1.097-1.53,1.685-2.25,1.732-2.125,3.693-4.024,5.859-5.675-1.709-3.227-2.624-6.85-2.624-10.529v-18.66c0-.366.021-.721.043-1.076l.021-.345c.054-1.121.575-2.167,1.438-2.885.723-.601,1.629-.925,2.558-.925.18,0,.36.012.54.037,5.175.705,11.596,1.093,18.08,1.093,6.412,0,12.542-.361,17.727-1.045.174-.023.349-.034.523-.034.93,0,1.836.324,2.559.926.858.714,1.378,1.754,1.436,2.869l.02.318c.024.352.045.707.045,1.067v18.66c0,3.233-.688,6.378-2.012,9.277,2.864,1.917,5.415,4.238,7.607,6.927,1.941,2.382,3.552,4.994,4.795,7.774,1.313.966,2.12,1.743,2.444,2.074,1.539,1.572,1.518,4.091-.042,5.638.103.557.193,1.122.271,1.692.219,1.598.33,3.192.33,4.738v49.287c0,2.052-1.545,3.743-3.535,3.973-.049.149-.101.297-.154.444l-11.386,31.433c-1.066,3.637-2.939,13.946.771,19.437.66.977.855,2.194.534,3.329-.321,1.134-1.125,2.069-2.199,2.555l-.856.388c.061.129.122.258.184.387,1.753.46,3.221,1.712,3.937,3.446.064.155.121.312.171.469,1.752.921,3.168,2.434,3.958,4.346l2.393,5.815.884,2.126.24.566c.032.076.062.153.089.23l.97,2.348c.405.98.404,2.082-.003,3.062-.407.98-1.186,1.758-2.167,2.163,0,0-23.93,9.885-23.979,9.902l-7.843,3.249c-.49.204-1.011.305-1.532.305s-1.045-.103-1.537-.307c-.982-.408-1.761-1.191-2.164-2.175l-.66-1.61c-.325-.78-.568-1.589-.729-2.413h-29.521c-.679,0-1.318-.168-1.878-.466-1.388,1.702-2.884,3.332-4.484,4.882-10.421,10.092-24.133,15.65-38.608,15.65Zm-9.077-27.494c2.918.945,5.987,1.434,9.077,1.434s6.158-.489,9.077-1.434l-9.077-9.071-9.077,9.071Zm90.484-14.088c1.282,1.529,2.002,3.463,2.002,5.522v1.347l.217-.089c-.102-1.509.123-3.019.66-4.426-.377-.971-.472-2.022-.295-3.038-.189-.39-.376-.783-.561-1.176l-1.779.806c-.079.036-.158.069-.238.099.011.148.017.297.017.448,0,.17-.007.339-.022.508Zm-26.54-5.315c-.452,2.886-1.128,5.716-2.02,8.469.255-.016.512-.023.771-.023.032,0,1.675.001,1.675.001.48-1.426,1.263-2.733,2.296-3.829.025-.766.197-1.506.498-2.187-.192-.737-.375-1.48-.55-2.227h-1.403c-.439,0-.865-.072-1.266-.206Zm-83.795-2.853c.28,1.399.663,2.772,1.146,4.115l4.115-4.115h-5.261Zm56.708,4.114c.483-1.343.866-2.715,1.146-4.114h-5.259l4.114,4.114Zm69.906-149.249l.005-.006-.05-.013c.015.006.03.013.045.019Z"/><path class="cls-8" d="m395.74,40.144c-6.99,0-13.616-.404-19.162-1.167-10.761-1.482-15.15-3.854-15.15-8.186,0-4.478,5.184-6.369,10.851-7.479l5.739-14.711c.572-1.466,1.95-2.46,3.521-2.541,3.139-.175,6.436-1.276,6.928-2.054C389.479,1.474,392.312.001,396.222.001c9.125,0,21.979,7.328,23.978,23.517,5.256,1.135,9.851,3.056,9.851,7.272,0,4.381-4.501,6.768-15.537,8.239-5.465.729-11.958,1.114-18.775,1.114Z"/><rect class="cls-3" x="678" y="242.151" width="214" height="19.906" rx="9.953" ry="9.953"/><path class="cls-8" d="m760.339,255.848c-14.476,0-28.187-5.558-38.608-15.65-9.461-9.162-15.282-21.151-16.631-34.096h-4.006v22.24c0,2.209-1.791,4-4,4h-18.055c-2.209,0-4-1.791-4-4v-23.551c-.646-.71-1.039-1.654-1.039-2.689v-88.672c0-2.209,1.791-4,4-4h132.026v-14.881c-.176-.138-.34-.291-.492-.457-6.193.429-13.403,2.073-21.488,4.903-1.103.387-2.254.583-3.419.583-.407,0-.812-.024-1.215-.072,0,0-.399.255-.435.276l-.953.569-.208.12c-.66.377-1.32.753-2.008,1.098-.571.287-1.185.425-1.792.425-1.137,0-2.253-.484-3.033-1.391l-.151-.175c-.794-.922-1.104-2.125-.914-3.268-.327.051-.656.098-.987.137-.16.019-.318.028-.476.028-1.642,0-3.139-1.011-3.735-2.575l-.083-.216c-.585-1.534-.169-3.248,1.002-4.345-.82-.665-1.369-1.646-1.467-2.754l-.021-.23c-.162-1.824.935-3.525,2.664-4.13.72-.252,1.443-.464,2.167-.675,0,0,1.398-.381,1.438-.391l1.074-.254c.189-.043.346-.099.504-.15l.295-.094c.605-.183,1.196-.281,1.786-.301.925-.756,1.98-1.349,3.127-1.751,11.743-4.11,22.346-6.195,31.515-6.195,1.155,0,2.297.034,3.417.1.534-.777,1.097-1.529,1.685-2.25,1.732-2.125,3.693-4.024,5.859-5.675-1.709-3.227-2.624-6.85-2.624-10.529v-18.66c0-.366.021-.721.043-1.076l.021-.345c.054-1.121.575-2.167,1.438-2.885.723-.601,1.629-.925,2.558-.925.18,0,.36.012.54.037,5.175.705,11.596,1.093,18.08,1.093,6.412,0,12.542-.361,17.727-1.045.174-.023.349-.034.523-.034.93,0,1.836.324,2.559.926.858.714,1.378,1.754,1.436,2.869l.02.318c.024.352.045.707.045,1.067v18.66c0,3.233-.688,6.378-2.012,9.277,2.864,1.917,5.415,4.238,7.607,6.927,1.941,2.382,3.552,4.994,4.795,7.774,1.313.966,2.12,1.743,2.444,2.074,1.539,1.572,1.518,4.091-.042,5.638.103.557.193,1.122.271,1.692.219,1.598.33,3.192.33,4.738v49.287c0,2.052-1.545,3.743-3.535,3.973-.049.149-.101.297-.154.444l-11.386,31.433c-1.066,3.637-2.939,13.946.771,19.437.66.977.855,2.194.534,3.329-.321,1.134-1.125,2.069-2.199,2.555l-.856.388c.061.129.122.258.184.387,1.753.46,3.221,1.712,3.937,3.446.064.155.121.312.171.469,1.752.921,3.168,2.434,3.958,4.346l2.393,5.815.884,2.126.24.566c.032.076.062.153.089.23l.97,2.348c.405.98.404,2.082-.003,3.062-.407.98-1.186,1.758-2.167,2.163,0,0-23.93,9.885-23.979,9.902l-7.843,3.249c-.49.204-1.011.305-1.532.305s-1.045-.103-1.537-.307c-.982-.408-1.761-1.191-2.164-2.175l-.66-1.61c-.325-.78-.568-1.589-.729-2.413h-29.521c-.679,0-1.318-.168-1.878-.466-1.388,1.702-2.884,3.332-4.484,4.882-10.421,10.092-24.133,15.65-38.608,15.65Zm-9.077-27.494c2.918.945,5.987,1.434,9.077,1.434s6.158-.489,9.077-1.434l-9.077-9.071-9.077,9.071Zm90.484-14.088c1.282,1.529,2.002,3.463,2.002,5.522v1.347l.217-.089c-.102-1.509.123-3.019.66-4.426-.377-.971-.472-2.022-.295-3.038-.189-.39-.376-.783-.561-1.176l-1.779.806c-.079.036-.158.069-.238.099.011.148.017.297.017.448,0,.17-.007.339-.022.508Zm-26.54-5.315c-.452,2.886-1.128,5.716-2.02,8.469.255-.016.512-.023.771-.023.032,0,1.675.001,1.675.001.48-1.426,1.263-2.733,2.296-3.829.025-.766.197-1.506.498-2.187-.192-.737-.375-1.48-.55-2.227h-1.403c-.439,0-.865-.072-1.266-.206Zm-83.795-2.853c.28,1.399.663,2.772,1.146,4.115l4.115-4.115h-5.261Zm56.708,4.114c.483-1.343.866-2.715,1.146-4.114h-5.259l4.114,4.114Zm69.877-149.26l-.018-.007c.006.002.012.005.018.007Z"/><path class="cls-8" d="m843.74,40.144c-6.99,0-13.616-.404-19.162-1.167-10.761-1.482-15.15-3.854-15.15-8.186,0-4.478,5.184-6.369,10.851-7.479l5.739-14.711c.572-1.466,1.95-2.46,3.521-2.541,3.139-.175,6.436-1.276,6.928-2.054C837.479,1.474,840.312.001,844.222.001c9.125,0,21.979,7.328,23.978,23.517,5.256,1.135,9.851,3.056,9.851,7.272,0,4.381-4.501,6.768-15.537,8.239-5.465.729-11.958,1.114-18.775,1.114Z"/><rect class="cls-3" x="454" y="242.151" width="214" height="19.906" rx="9.953" ry="9.953"/><path class="cls-7" d="m178.329,69.229c-1.693,0-3.263-1.082-3.807-2.777-.671-2.087.464-4.326,2.544-5.019.7-.233,1.433-.352,2.177-.352.646,0,1.292.089,1.919.266,2.114.594,3.354,2.782,2.777,4.9-.484,1.779-2.096,2.951-3.857,2.951-.268,0-.54-.027-.811-.083-.314.077-.631.113-.942.113Zm-.272-14.29c-.573,0-1.153-.124-1.703-.383-2.072-.581-3.348-2.708-2.839-4.804.444-1.827,2.056-3.065,3.857-3.065.281,0,.566.03.853.093.548.12,1.094.315,1.624.58,1.976.988,2.777,3.391,1.789,5.366-.701,1.402-2.113,2.212-3.581,2.212Z"/><path class="cls-8" d="m88.33,255.848c-14.477,0-28.189-5.559-38.609-15.652-9.46-9.163-15.279-21.153-16.623-34.098h-4.008v22.24c0,2.209-1.791,4-4,4H7.03c-2.209,0-4-1.791-4-4v-23.561c-.64-.709-1.03-1.649-1.03-2.68v-88.67c0-2.209,1.791-4,4-4h114.958c6.888-2.521,12.615-5.516,17.062-8.919v-7.48c0-1.502.106-3.045.324-4.717.406-2.922,1.166-5.749,2.263-8.436l.109-.283c1.305-3.091,3.013-5.922,5.105-8.485,1.725-2.122,3.687-4.021,5.859-5.675-1.707-3.226-2.621-6.848-2.621-10.525v-16.485c-8.215-1.505-11.64-3.805-11.64-7.635,0-4.483,4.979-6.34,10.854-7.48l5.74-14.704c.571-1.464,1.947-2.458,3.517-2.54,3.141-.177,6.441-1.281,6.934-2.06C165.476,1.473,168.308.002,172.216.002c9.128,0,21.982,7.326,23.976,23.514,5.26,1.137,9.858,3.059,9.858,7.273,0,3.88-3.533,6.197-12.01,7.702v16.418c0,2.372-.372,4.716-1.106,6.969-.258.788-.559,1.558-.901,2.309,2.865,1.919,5.415,4.24,7.605,6.922,2.07,2.534,3.777,5.361,5.072,8.402l.154.392c.597,1.452,1.095,2.959,1.489,4.5,1.995.261,3.516,1.986,3.477,4.042-.014.731-.197,4.489-2.39,9.678v44.036c0,1.973-1.428,3.612-3.307,3.94-2.494,18.106-1.763,47.504.805,58.119.289,1.192.014,2.45-.744,3.414s-1.917,1.526-3.144,1.526h-3.6c1.361,1.08,2.23,2.746,2.23,4.6,0,.169-.007.339-.022.507,1.282,1.529,2.002,3.463,2.002,5.522v11.99c0,2.209-1.791,4-4,4h-16.859c-.093.006-.187.01-.281.01h-17.3c-.095,0-.188-.003-.281-.01h-12.058c-.093.006-.187.01-.281.01h-17.3c-.68,0-1.32-.169-1.88-.469-1.386,1.7-2.881,3.33-4.479,4.877-10.421,10.093-24.134,15.651-38.61,15.651Zm-26.157-41.96c2.904,5.532,7.537,10.065,13.137,12.85v-12.85h-13.137Zm39.187,12.849c5.594-2.784,10.225-7.317,13.132-12.849h-13.132v12.849Zm41.838-17.786c-.452,2.886-1.129,5.717-2.021,8.471.255-.016.513-.023.772-.023h1.674c.48-1.428,1.265-2.736,2.299-3.832.025-.764.198-1.504.5-2.184-.189-.724-.373-1.464-.55-2.224h-1.403c-.441,0-.869-.072-1.271-.207Zm26.549,5.318c.768.919,1.333,1.986,1.662,3.138.154-.005.307-.008.461-.008h1.674c.48-1.428,1.265-2.736,2.299-3.832.025-.764.196-1.502.495-2.181-.192-.738-.375-1.481-.55-2.228h-1.118c-.684,0-1.337-.174-1.91-.485-.579.314-1.234.485-1.91.485h-3.314c1.364,1.08,2.234,2.747,2.234,4.6,0,.171-.008.341-.022.511Z"/><rect class="cls-1" x="7.038" y="196.108" width="18.056" height="32.234"/><path class="cls-11" d="m123.063,126.029c-2.623,0-5.077-1.638-5.993-4.253-1.159-3.31.585-6.932,3.895-8.091,29.088-10.182,30.515-25.158,30.562-25.79-.007.095-.006.144-.006.144l12.695.328c-.018.692-.329,6.984-5.668,14.688-6.637,9.576-17.87,17.185-33.387,22.616-.694.243-1.402.358-2.098.358Z"/><path class="cls-11" d="m153.93,221.107c-14.835-34.936-.797-78.937-.193-80.793l12.074,3.935-6.037-1.967,6.039,1.963c-.133.41-13.15,41.389-.194,71.899l-11.689,4.964Z"/><ellipse class="cls-7" cx="157.663" cy="140.287" rx="13.19" ry="13.792"/><path class="cls-7" d="m144.473,205.156h26.38c-3.119-12.894-3.458-47.842,0-64.869h-26.38c-5.58,15.33-4.901,49.261,0,64.869Z"/><path class="cls-1" d="m133.31,231.784v-1.739c0-4.777,3.872-8.649,8.649-8.649h0c4.777,0,8.649,3.872,8.649,8.649v1.739h-11.885s-1.675,0-1.675,0h-3.738Z"/><path class="cls-1" d="m147.085,221.396v-.671c0-3.555,2.882-6.436,6.436-6.436,1.147,0,2.222.303,3.154.829h6.397c2.581,0,4.673,2.092,4.673,4.673v6.277s0,2.317,0,2.317v3.397h-25.787v-10.387h5.127Z"/><rect class="cls-10" x="149.927" y="211.877" width="15.845" height="3.77" rx="1.885" ry="1.885" transform="translate(315.698 427.524) rotate(-180)"/><polygon class="cls-1" points="167.745 231.783 167.745 229.031 141.053 229.031 141.053 231.745 167.745 231.783"/><g class="cls-14"><rect class="cls-7" x="123.181" y="50.696" width="94.71" height="7.753"/><rect class="cls-4" x="123.181" y="58.449" width="94.71" height="7.753"/><rect class="cls-7" x="123.181" y="65.888" width="94.71" height="7.753"/><rect class="cls-4" x="123.181" y="73.641" width="94.71" height="7.753"/><rect class="cls-7" x="123.181" y="81.079" width="94.71" height="7.753"/><rect class="cls-4" x="123.181" y="88.832" width="94.71" height="7.753"/><rect class="cls-7" x="123.181" y="96.27" width="94.71" height="7.753"/><rect class="cls-4" x="123.181" y="104.023" width="94.71" height="7.753"/><rect class="cls-7" x="123.181" y="111.462" width="94.71" height="7.753"/><rect class="cls-4" x="123.181" y="119.214" width="94.71" height="7.753"/><rect class="cls-7" x="123.181" y="126.653" width="94.71" height="7.753"/><rect class="cls-4" x="123.181" y="134.406" width="94.71" height="7.753"/></g><rect class="cls-2" x="153.061" y="17.756" width="36.984" height="55.646" rx="18.492" ry="18.492" transform="translate(343.107 91.158) rotate(-180)"/><rect class="cls-11" x="153.061" y="17.756" width="36.984" height="55.646" rx="18.492" ry="18.492" transform="translate(343.107 91.158) rotate(-180)"/><circle class="cls-7" cx="173.759" cy="43.769" r="3.845"/><circle class="cls-7" cx="158.603" cy="43.769" r="3.845"/><path class="cls-11" d="m183.846,221.107c-14.835-34.936-.797-78.937-.193-80.793l12.074,3.935-6.037-1.967,6.039,1.963c-.133.41-13.15,41.389-.194,71.899l-11.689,4.964Z"/><ellipse class="cls-7" cx="187.579" cy="140.287" rx="13.19" ry="13.792"/><path class="cls-1" d="m163.225,231.784v-1.739c0-4.777,3.872-8.649,8.649-8.649h0c4.777,0,8.649,3.872,8.649,8.649v1.739h-11.885s-1.675,0-1.675,0h-3.738Z"/><path class="cls-1" d="m177.001,221.396v-.671c0-3.555,2.882-6.436,6.436-6.436,1.147,0,2.222.303,3.154.829h6.397c2.581,0,4.673,2.092,4.673,4.673v6.277s0,2.317,0,2.317v3.397h-25.787v-10.387h5.127Z"/><rect class="cls-10" x="179.842" y="211.877" width="15.845" height="3.77" rx="1.885" ry="1.885" transform="translate(375.529 427.524) rotate(180)"/><polygon class="cls-1" points="197.661 231.783 197.661 229.031 170.969 229.031 170.969 231.745 197.661 231.783"/><path class="cls-7" d="m174.672,205.156h26.38c-3.119-12.894-3.458-47.842,0-64.869h-26.38c-5.58,15.33-4.901,49.261,0,64.869Z"/><ellipse class="cls-1" cx="171.74" cy="30.79" rx="30.311" ry="5.354"/><path class="cls-10" d="m168.162,5.531c-1.632,4.072-10.418,4.524-10.418,4.524l-6.316,16.189c-.276.348-.421.709-.421,1.078,0,2.957,9.282,5.353,20.731,5.353s20.731-2.397,20.731-5.353c-.418-22.847-22.677-25.863-24.308-21.791Z"/><polygon class="cls-11" points="154.774 38.613 164.105 43.703 179.487 39.462 170.326 37.426 154.774 38.613"/><path class="cls-10" d="m163.973,47.077s-6.108,4.298-5.655,8.973c0,0,4.976-4.901,6.711-3.468"/><path class="cls-1" d="m111.446,118.066c.709-.248,1.422-.452,2.135-.659l1.071-.289,1.074-.255c.359-.082.713-.207,1.069-.318.356-.107.718-.146,1.088-.11.739.084,1.488.268,2.271.839l.021.231c-.668.703-1.371,1.019-2.083,1.235-.357.102-.72.129-1.09.087-.37-.045-.741-.104-1.108-.12l-1.103-.057-1.106-.091c-.739-.075-1.477-.147-2.219-.263l-.021-.231Z"/><path class="cls-1" d="m111.684,124.324c.616-.431,1.247-.819,1.878-1.212l.954-.568.965-.535c.323-.176.631-.392.943-.595.314-.2.652-.335,1.017-.4.734-.119,1.505-.144,2.414.194l.083.216c-.453.857-1.044,1.352-1.671,1.752-.316.194-.659.319-1.026.379-.368.057-.742.1-1.1.184l-1.077.243-1.089.211c-.732.127-1.462.258-2.208.346l-.083-.216Z"/><path class="cls-1" d="m117.173,129.034c.433-.614.894-1.195,1.354-1.778l.703-.858.726-.832c.244-.275.46-.583.684-.88.227-.294.499-.537.821-.722.65-.362,1.367-.647,2.336-.638l.151.175c-.134.96-.522,1.626-.976,2.216-.231.29-.511.523-.836.705-.327.179-.663.347-.972.547l-.93.595-.953.569c-.644.368-1.287.739-1.958,1.077l-.151-.175Z"/><path class="cls-10" d="m187.235,55.08c-.145,0-.288-.068-.378-.195l-.596-.842c-.637-.9-1.821-1.205-2.814-.726-.89.429-1.946.417-2.825-.032l-2.975-1.519c-.601-.307-1.301-.328-1.92-.06l-6.629,2.882c-.234.102-.507-.006-.609-.24-.102-.235.005-.507.24-.609l6.629-2.882c.874-.38,1.862-.349,2.711.084l2.975,1.519c.623.318,1.371.327,2.001.023,1.402-.677,3.072-.246,3.972,1.024l.596.842c.148.209.098.498-.11.645-.081.058-.175.085-.267.085Z"/><path class="cls-10" d="m185.99,61.414c-.096,0-.193-.03-.276-.092l-3.232-2.404c-.612-.455-1.405-.569-2.12-.305l-3.898,1.436c-.871.321-1.835.245-2.646-.207l-2.996-1.672c-.422-.235-.899-.328-1.378-.267l-9.861,1.246c-.254.031-.485-.148-.517-.401-.032-.254.148-.485.401-.517l9.861-1.246c.677-.085,1.35.045,1.946.378l2.996,1.672c.574.32,1.257.374,1.874.146l3.898-1.436c1.01-.372,2.129-.211,2.993.431l3.233,2.404c.205.152.248.442.095.648-.091.122-.23.187-.372.187Z"/><path class="cls-10" d="m173.916,67.799c-.516,0-1.03-.127-1.498-.378l-1.395-.747c-.343-.184-.731-.273-1.119-.266l-8.218.208c-.256.01-.468-.195-.475-.451s.196-.468.451-.474l8.218-.208c.55-.01,1.096.116,1.58.375l1.395.747c.601.322,1.306.355,1.934.091l3.26-1.369c.896-.376,1.898-.325,2.751.14l1.342.732c.224.123.307.404.185.628-.122.224-.404.307-.628.185l-1.342-.732c-.604-.329-1.314-.365-1.949-.099l-3.26,1.369c-.396.167-.814.249-1.231.249Z"/><path class="cls-10" d="m179.883,45.58c-.098,0-.196-.031-.28-.095-.203-.155-.243-.445-.088-.649l1.194-1.567c.475-.623,1.227-.978,2.009-.97l.962.02c.562.012,1.07-.271,1.356-.757s.287-1.067.003-1.553c-.274-.47-.783-.762-1.327-.762h-1.679c-.256,0-.463-.207-.463-.463s.207-.463.463-.463h1.679c.873,0,1.688.468,2.127,1.222.455.78.453,1.711-.004,2.489-.458.778-1.268,1.223-2.173,1.214l-.962-.02c-.49-.009-.957.216-1.254.605l-1.194,1.567c-.091.12-.229.182-.369.182Z"/><rect class="cls-9" x="6" y="113.431" width="164.677" height="88.672"/><path class="cls-11" d="m164.684,126.029c-2.623,0-5.077-1.638-5.993-4.253-1.159-3.31.585-6.932,3.895-8.091,29.088-10.182,30.515-25.158,30.562-25.79-.007.095-.006.144-.006.144l12.695.328c-.018.692-.329,6.984-5.668,14.688-6.637,9.576-17.87,17.185-33.387,22.616-.694.243-1.402.358-2.098.358Z"/><path class="cls-1" d="m151.823,117.839c.709-.248,1.422-.452,2.135-.659l1.071-.289,1.074-.255c.359-.082.713-.207,1.069-.318.356-.107.718-.146,1.088-.11.739.084,1.488.268,2.271.839l.021.231c-.668.703-1.371,1.019-2.083,1.235-.357.102-.72.129-1.09.087-.37-.045-.741-.104-1.109-.12l-1.103-.057-1.106-.091c-.739-.075-1.477-.147-2.219-.263l-.021-.231Z"/><path class="cls-1" d="m152.061,124.098c.616-.431,1.247-.819,1.878-1.212l.953-.568.966-.535c.323-.176.63-.392.943-.595.314-.2.652-.335,1.017-.4.734-.119,1.505-.144,2.414.194l.083.216c-.453.857-1.044,1.352-1.671,1.752-.316.194-.659.319-1.026.379-.368.057-.742.1-1.1.184l-1.077.243-1.089.211c-.732.127-1.462.258-2.208.346l-.083-.216Z"/><path class="cls-1" d="m157.551,128.808c.433-.614.895-1.195,1.354-1.778l.703-.858.726-.832c.244-.275.46-.583.684-.88.227-.294.499-.537.82-.722.65-.362,1.367-.647,2.336-.638l.151.175c-.135.96-.522,1.626-.976,2.216-.231.29-.511.523-.836.705-.327.179-.663.347-.972.547l-.93.595-.953.569c-.644.368-1.287.739-1.958,1.077l-.151-.175Z"/><rect class="cls-1" x="79.311" y="158.784" width="18.056" height="84.148"/><rect class="cls-1" x="46.264" y="191.831" width="84.148" height="18.056"/><path class="cls-7" d="m88.338,251.847c-28.427,0-51.554-23.127-51.554-51.554s23.127-51.554,51.554-51.554,51.554,23.127,51.554,51.554-23.127,51.554-51.554,51.554Zm0-85.053c-18.471,0-33.499,15.027-33.499,33.499s15.027,33.499,33.499,33.499,33.499-15.028,33.499-33.499-15.027-33.499-33.499-33.499Z"/><path class="cls-11" d="m336.627,95.578c-2.623,0-5.077-1.638-5.993-4.253-1.159-3.31.585-6.932,3.895-8.091,15.267-5.344,28.284-7.119,38.69-5.274,8.564,1.518,12.455,5.066,13.148,5.762l-8.997,8.962s.059.071.194.184c-.094-.079-9.78-7.819-38.839,2.353-.694.243-1.402.358-2.098.358Z"/><path class="cls-11" d="m377.93,221.107c-14.835-34.936-.798-78.937-.193-80.793l12.074,3.935-6.037-1.967,6.039,1.963c-.133.41-13.15,41.389-.194,71.899l-11.689,4.964Z"/><ellipse class="cls-7" cx="381.663" cy="140.287" rx="13.19" ry="13.792"/><path class="cls-7" d="m368.473,205.156h26.38c-3.119-12.894-3.458-47.842,0-64.869h-26.38c-5.58,15.33-4.901,49.261,0,64.869Z"/><path class="cls-1" d="m357.31,231.784v-1.739c0-4.777,3.872-8.649,8.649-8.649h0c4.777,0,8.649,3.872,8.649,8.649v1.739h-11.885s-1.675,0-1.675,0h-3.738Z"/><path class="cls-1" d="m371.085,221.396v-.671c0-3.555,2.882-6.436,6.436-6.436,1.147,0,2.222.303,3.154.829h6.397c2.581,0,4.673,2.092,4.673,4.673v6.277s0,2.317,0,2.317v3.397h-25.787v-10.387h5.127Z"/><rect class="cls-10" x="373.927" y="211.877" width="15.845" height="3.77" rx="1.885" ry="1.885" transform="translate(763.698 427.524) rotate(180)"/><polygon class="cls-1" points="391.745 231.783 391.745 229.031 365.053 229.031 365.053 231.745 391.745 231.783"/><g class="cls-13"><rect class="cls-7" x="347.181" y="50.696" width="94.71" height="7.753"/><rect class="cls-4" x="347.181" y="58.449" width="94.71" height="7.753"/><rect class="cls-7" x="347.181" y="65.888" width="94.71" height="7.753"/><rect class="cls-4" x="347.181" y="73.641" width="94.71" height="7.753"/><rect class="cls-7" x="347.181" y="81.079" width="94.71" height="7.753"/><rect class="cls-4" x="347.181" y="88.832" width="94.71" height="7.753"/><rect class="cls-7" x="347.181" y="96.27" width="94.71" height="7.753"/><rect class="cls-4" x="347.181" y="104.023" width="94.71" height="7.753"/><rect class="cls-7" x="347.181" y="111.462" width="94.71" height="7.753"/><rect class="cls-4" x="347.181" y="119.214" width="94.71" height="7.753"/><rect class="cls-7" x="347.181" y="126.653" width="94.71" height="7.753"/><rect class="cls-4" x="347.181" y="134.406" width="94.71" height="7.753"/></g><rect class="cls-2" x="377.061" y="17.756" width="36.984" height="55.646" rx="18.492" ry="18.492" transform="translate(791.107 91.158) rotate(-180)"/><rect class="cls-11" x="377.061" y="17.756" width="36.984" height="55.646" rx="18.492" ry="18.492" transform="translate(791.107 91.158) rotate(-180)"/><path class="cls-11" d="m375.987,93.09c-2.623,0-5.077-1.638-5.993-4.253-1.159-3.31.585-6.932,3.895-8.091,15.408-5.394,28.943-6.721,40.23-3.943,8.892,2.188,13.144,6.178,13.906,6.956l-9.07,8.888s.033.038.105.104c-.112-.104-2.808-2.55-9.024-3.856-5.984-1.256-16.385-1.612-31.951,3.837-.694.243-1.402.358-2.098.358Z"/><circle class="cls-7" cx="397.759" cy="43.769" r="3.845"/><circle class="cls-7" cx="382.603" cy="43.769" r="3.845"/><ellipse class="cls-1" cx="395.74" cy="30.79" rx="30.311" ry="5.354"/><path class="cls-10" d="m392.162,5.531c-1.632,4.072-10.418,4.524-10.418,4.524l-6.316,16.189c-.276.348-.421.709-.421,1.078,0,2.957,9.282,5.353,20.731,5.353s20.731-2.397,20.731-5.353c-.418-22.847-22.677-25.863-24.308-21.791Z"/><polygon class="cls-11" points="378.774 38.613 388.105 43.703 403.487 39.462 394.326 37.426 378.774 38.613"/><path class="cls-6" d="m406.044,222.725c-16.773-26.237-15.79-47.615-12.012-60.928,4.164-14.672,12.563-23.023,12.918-23.371l8.888,9.071-4.444-4.535,4.469,4.511c-1.067,1.069-25.814,26.656.881,68.413l-10.7,6.84Z"/><ellipse class="cls-7" cx="411.592" cy="140.879" rx="13.792" ry="13.19" transform="translate(138.95 479.879) rotate(-70.087)"/><rect class="cls-7" x="392.688" y="139.876" width="26.38" height="33.55" transform="translate(734.134 442.176) rotate(-160.087)"/><path class="cls-1" d="m391.918,238.284l-.664-1.607c-1.824-4.415.277-9.472,4.691-11.296h0c4.415-1.824,9.472.277,11.296,4.691l.664,1.607-10.985,4.538-1.548.639-3.455,1.427Z"/><path class="cls-1" d="m400.685,223.423l-.256-.62c-1.357-3.285.206-7.049,3.491-8.406,1.06-.438,2.169-.568,3.232-.438l5.912-2.442c2.385-.985,5.117.15,6.103,2.535l2.397,5.802.885,2.141,1.297,3.14-23.834,9.846-3.966-9.6,4.739-1.958Z"/><rect class="cls-10" x="399.795" y="210.373" width="15.845" height="3.77" rx="1.885" ry="1.885" transform="translate(865.589 252.769) rotate(157.555)"/><polygon class="cls-1" points="423.745 225.135 422.694 222.591 398.024 232.783 399.061 235.291 423.745 225.135"/><path class="cls-7" d="m412.566,176.915s-4.398,14.557,1.257,22.926l-21.489,9.727s-9.82-21.07-4.571-41.638"/><path class="cls-10" d="m387.973,47.077s-6.108,4.298-5.655,8.973c0,0,4.976-4.901,6.711-3.468"/><path class="cls-1" d="m324.135,86.849c.709-.248,1.422-.452,2.135-.659l1.071-.289,1.074-.255c.358-.082.713-.207,1.069-.318.356-.107.718-.146,1.088-.11.739.084,1.488.268,2.271.839l.021.231c-.668.703-1.371,1.019-2.083,1.235-.357.102-.72.129-1.09.087-.37-.045-.741-.104-1.108-.12l-1.103-.057-1.106-.091c-.739-.075-1.477-.147-2.219-.263l-.021-.231Z"/><path class="cls-1" d="m324.374,93.108c.616-.431,1.247-.819,1.878-1.212l.953-.568.966-.535c.323-.176.63-.392.943-.595.314-.2.652-.335,1.017-.4.734-.119,1.505-.144,2.414.194l.083.216c-.453.857-1.044,1.352-1.672,1.752-.316.194-.658.319-1.025.379-.368.057-.742.1-1.1.184l-1.077.243-1.089.211c-.732.127-1.462.258-2.208.346l-.083-.216Z"/><path class="cls-1" d="m329.863,97.818c.432-.614.894-1.195,1.354-1.778l.703-.858.726-.832c.244-.275.46-.583.684-.88.227-.294.499-.537.821-.722.65-.362,1.367-.647,2.336-.638l.151.175c-.134.96-.522,1.626-.976,2.216-.231.29-.511.523-.836.705-.327.178-.663.347-.972.547l-.93.595-.953.569c-.645.368-1.287.739-1.958,1.077l-.151-.175Z"/><path class="cls-1" d="m364.174,84.927c.709-.248,1.422-.452,2.135-.659l1.071-.289,1.074-.255c.358-.082.713-.207,1.069-.318.356-.107.718-.146,1.088-.11.739.084,1.488.268,2.271.839l.021.231c-.668.703-1.371,1.019-2.083,1.235-.357.102-.72.129-1.09.087-.37-.045-.741-.104-1.108-.12l-1.103-.057-1.106-.091c-.739-.075-1.477-.147-2.219-.263l-.021-.231Z"/><path class="cls-1" d="m364.412,91.185c.616-.431,1.247-.819,1.878-1.212l.953-.568.966-.535c.323-.176.63-.392.943-.595.314-.2.652-.335,1.017-.4.734-.119,1.505-.144,2.414.194l.083.216c-.453.857-1.044,1.352-1.672,1.752-.316.194-.658.319-1.025.379-.368.057-.742.1-1.1.184l-1.077.243-1.089.211c-.732.127-1.462.258-2.208.346l-.083-.216Z"/><path class="cls-1" d="m369.901,95.895c.432-.614.894-1.195,1.354-1.778l.703-.858.726-.832c.244-.275.46-.583.684-.88.227-.294.499-.537.821-.722.65-.362,1.367-.647,2.336-.638l.151.175c-.134.96-.522,1.626-.976,2.216-.231.29-.511.523-.836.705-.327.178-.663.347-.972.547l-.93.595-.953.569c-.645.368-1.287.739-1.958,1.077l-.151-.175Z"/><path class="cls-10" d="m411.235,55.08c-.145,0-.288-.068-.378-.195l-.596-.842c-.637-.9-1.821-1.205-2.814-.726-.889.43-1.945.418-2.825-.032l-2.975-1.519c-.601-.307-1.301-.328-1.92-.06l-6.629,2.882c-.234.103-.507-.005-.609-.24s.005-.507.24-.609l6.629-2.882c.874-.38,1.862-.349,2.711.084l2.975,1.519c.623.318,1.371.327,2.001.023,1.402-.677,3.072-.246,3.972,1.024l.596.842c.148.209.098.498-.11.645-.081.058-.175.085-.267.085Z"/><path class="cls-10" d="m409.99,61.414c-.096,0-.193-.03-.276-.092l-3.232-2.404c-.612-.455-1.405-.569-2.12-.305l-3.898,1.436c-.871.321-1.835.245-2.646-.207l-2.996-1.672c-.422-.235-.899-.328-1.379-.267l-9.861,1.246c-.253.03-.485-.148-.517-.401-.032-.254.148-.485.401-.517l9.861-1.246c.677-.085,1.35.045,1.946.378l2.996,1.672c.574.32,1.257.374,1.874.146l3.898-1.436c1.01-.372,2.129-.211,2.993.431l3.232,2.404c.205.152.248.442.095.648-.091.122-.23.187-.372.187Z"/><path class="cls-10" d="m397.916,67.799c-.516,0-1.029-.127-1.498-.378l-1.395-.747c-.343-.184-.732-.275-1.119-.266l-8.218.208c-.258.012-.468-.195-.475-.451-.006-.256.196-.468.451-.474l8.218-.208c.55-.014,1.096.116,1.58.375l1.395.747c.601.322,1.306.355,1.934.091l3.26-1.369c.896-.376,1.898-.325,2.751.14l1.342.732c.224.123.307.404.185.628-.122.224-.403.308-.628.185l-1.342-.732c-.604-.329-1.314-.365-1.948-.099l-3.26,1.369c-.396.167-.814.249-1.231.249Z"/><path class="cls-10" d="m403.883,45.58c-.098,0-.196-.031-.28-.095-.203-.155-.243-.446-.088-.649l1.194-1.567c.475-.623,1.221-.985,2.009-.97l.962.02c.558.012,1.07-.271,1.356-.757.286-.486.287-1.067.003-1.553-.274-.47-.783-.762-1.327-.762h-1.679c-.256,0-.463-.207-.463-.463s.207-.463.463-.463h1.679c.872,0,1.688.468,2.127,1.222.455.78.453,1.711-.004,2.489-.458.778-1.272,1.222-2.173,1.214l-.962-.02c-.491-.016-.957.216-1.254.605l-1.194,1.567c-.091.12-.229.182-.369.182Z"/><rect class="cls-1" x="231.038" y="196.108" width="18.056" height="32.234"/><rect class="cls-9" x="230" y="113.431" width="164.677" height="88.672"/><rect class="cls-1" x="303.311" y="158.785" width="18.056" height="84.148" transform="translate(-50.547 279.687) rotate(-45)"/><rect class="cls-1" x="270.264" y="191.831" width="84.148" height="18.056" transform="translate(-50.547 279.687) rotate(-45)"/><path class="cls-7" d="m312.338,251.847c-28.427,0-51.554-23.127-51.554-51.554s23.127-51.554,51.554-51.554,51.554,23.127,51.554,51.554-23.127,51.554-51.554,51.554Zm0-85.053c-18.471,0-33.499,15.027-33.499,33.499s15.027,33.499,33.499,33.499,33.499-15.028,33.499-33.499-15.027-33.499-33.499-33.499Z"/><path class="cls-11" d="m784.627,95.578c-2.623,0-5.077-1.638-5.993-4.253-1.159-3.31.585-6.932,3.895-8.091,15.267-5.344,28.285-7.118,38.69-5.274,8.564,1.518,12.455,5.066,13.148,5.762l-8.997,8.962s.059.071.194.184c-.094-.079-9.78-7.819-38.838,2.353-.694.243-1.402.358-2.098.358Z"/><path class="cls-11" d="m825.93,221.107c-14.835-34.936-.798-78.937-.193-80.793l12.074,3.935-6.037-1.967,6.039,1.963c-.133.41-13.15,41.389-.194,71.899l-11.689,4.964Z"/><ellipse class="cls-7" cx="829.664" cy="140.287" rx="13.19" ry="13.792"/><path class="cls-7" d="m816.473,205.156h26.38c-3.119-12.894-3.458-47.842,0-64.869h-26.38c-5.58,15.33-4.901,49.261,0,64.869Z"/><path class="cls-1" d="m805.31,231.784v-1.739c0-4.777,3.872-8.649,8.649-8.649h0c4.777,0,8.649,3.872,8.649,8.649v1.739h-11.885s-1.675,0-1.675,0h-3.738Z"/><path class="cls-1" d="m819.085,221.396v-.671c0-3.555,2.882-6.436,6.436-6.436,1.147,0,2.222.303,3.154.829h6.397c2.581,0,4.673,2.092,4.673,4.673v6.277s0,2.317,0,2.317v3.397h-25.787v-10.387h5.127Z"/><rect class="cls-10" x="821.927" y="211.877" width="15.845" height="3.77" rx="1.885" ry="1.885" transform="translate(1659.698 427.524) rotate(180)"/><polygon class="cls-1" points="839.745 231.783 839.745 229.031 813.053 229.031 813.053 231.745 839.745 231.783"/><g class="cls-12"><rect class="cls-7" x="795.181" y="50.696" width="94.71" height="7.753"/><rect class="cls-4" x="795.181" y="58.449" width="94.71" height="7.753"/><rect class="cls-7" x="795.181" y="65.888" width="94.71" height="7.753"/><rect class="cls-4" x="795.181" y="73.641" width="94.71" height="7.753"/><rect class="cls-7" x="795.181" y="81.079" width="94.71" height="7.753"/><rect class="cls-4" x="795.181" y="88.832" width="94.71" height="7.753"/><rect class="cls-7" x="795.181" y="96.27" width="94.71" height="7.753"/><rect class="cls-4" x="795.181" y="104.023" width="94.71" height="7.753"/><rect class="cls-7" x="795.181" y="111.462" width="94.71" height="7.753"/><rect class="cls-4" x="795.181" y="119.214" width="94.71" height="7.753"/><rect class="cls-7" x="795.181" y="126.653" width="94.71" height="7.753"/><rect class="cls-4" x="795.181" y="134.406" width="94.71" height="7.753"/></g><rect class="cls-2" x="825.061" y="17.756" width="36.984" height="55.646" rx="18.492" ry="18.492" transform="translate(1687.107 91.158) rotate(180)"/><rect class="cls-11" x="825.061" y="17.756" width="36.984" height="55.646" rx="18.492" ry="18.492" transform="translate(1687.107 91.158) rotate(180)"/><path class="cls-11" d="m823.987,93.09c-2.623,0-5.077-1.638-5.993-4.253-1.159-3.31.585-6.932,3.895-8.091,15.408-5.393,28.943-6.72,40.23-3.943,8.891,2.188,13.144,6.178,13.906,6.956l-9.07,8.888s.033.038.104.104c-.112-.104-2.808-2.55-9.024-3.855-5.984-1.257-16.385-1.612-31.951,3.837-.694.243-1.402.358-2.098.358Z"/><circle class="cls-7" cx="845.759" cy="43.769" r="3.845"/><circle class="cls-7" cx="830.603" cy="43.769" r="3.845"/><ellipse class="cls-1" cx="843.74" cy="30.79" rx="30.311" ry="5.354"/><path class="cls-10" d="m840.162,5.531c-1.632,4.072-10.418,4.524-10.418,4.524l-6.316,16.189c-.276.348-.421.709-.421,1.078,0,2.957,9.282,5.353,20.731,5.353s20.731-2.397,20.731-5.353c-.418-22.847-22.677-25.863-24.308-21.791Z"/><polygon class="cls-11" points="826.774 38.613 836.105 43.703 851.487 39.462 842.326 37.426 826.774 38.613"/><path class="cls-6" d="m854.044,222.725c-16.773-26.237-15.79-47.615-12.012-60.928,4.164-14.672,12.563-23.023,12.918-23.371l8.888,9.071-4.444-4.535,4.469,4.511c-1.067,1.069-25.814,26.656.881,68.413l-10.7,6.84Z"/><ellipse class="cls-7" cx="859.592" cy="140.879" rx="13.792" ry="13.19" transform="translate(434.363 901.093) rotate(-70.087)"/><rect class="cls-7" x="840.688" y="139.876" width="26.38" height="33.55" transform="translate(1603.349 594.762) rotate(-160.087)"/><path class="cls-1" d="m839.918,238.284l-.664-1.607c-1.824-4.415.277-9.472,4.691-11.296h0c4.415-1.824,9.472.277,11.296,4.691l.664,1.607-10.985,4.538-1.548.639-3.455,1.427Z"/><path class="cls-1" d="m848.685,223.423l-.256-.62c-1.357-3.285.206-7.049,3.491-8.406,1.06-.438,2.169-.568,3.232-.438l5.912-2.442c2.385-.985,5.117.15,6.103,2.535l2.397,5.802.885,2.141,1.297,3.14-23.834,9.846-3.966-9.6,4.739-1.958Z"/><rect class="cls-10" x="847.795" y="210.373" width="15.845" height="3.77" rx="1.885" ry="1.885" transform="translate(1727.651 81.721) rotate(157.555)"/><polygon class="cls-1" points="871.745 225.135 870.694 222.591 846.024 232.783 847.061 235.291 871.745 225.135"/><path class="cls-7" d="m860.566,176.915s-4.398,14.557,1.257,22.926l-21.489,9.727s-9.82-21.07-4.571-41.638"/><path class="cls-10" d="m835.973,47.077s-6.108,4.298-5.655,8.973c0,0,4.976-4.901,6.711-3.468"/><path class="cls-1" d="m772.135,86.849c.709-.248,1.422-.452,2.135-.659l1.071-.289,1.074-.255c.358-.082.713-.207,1.069-.318.356-.107.719-.146,1.088-.11.739.084,1.488.268,2.272.839l.021.231c-.668.703-1.371,1.019-2.083,1.235-.357.102-.72.129-1.09.087-.37-.045-.741-.104-1.108-.12l-1.103-.057-1.106-.091c-.739-.075-1.477-.147-2.219-.263l-.021-.231Z"/><path class="cls-1" d="m772.374,93.108c.616-.431,1.247-.819,1.878-1.212l.953-.568.966-.535c.323-.176.63-.392.943-.595.314-.2.652-.335,1.017-.4.735-.119,1.505-.144,2.414.194l.083.216c-.453.857-1.044,1.352-1.672,1.752-.316.194-.658.319-1.026.379-.368.057-.742.1-1.1.184l-1.077.243-1.089.211c-.732.127-1.462.258-2.208.346l-.083-.216Z"/><path class="cls-1" d="m777.863,97.818c.433-.614.894-1.195,1.354-1.778l.703-.858.726-.832c.244-.275.46-.583.684-.88.227-.294.499-.537.82-.722.65-.362,1.367-.647,2.336-.638l.151.175c-.134.96-.522,1.626-.976,2.216-.231.29-.511.523-.836.705-.327.179-.663.347-.971.547l-.93.595-.953.569c-.645.368-1.287.739-1.958,1.077l-.151-.175Z"/><path class="cls-1" d="m812.174,84.927c.709-.248,1.422-.452,2.135-.659l1.071-.289,1.074-.255c.358-.082.713-.207,1.069-.318.356-.107.718-.146,1.088-.11.739.084,1.488.268,2.272.839l.021.231c-.668.703-1.371,1.019-2.083,1.235-.357.102-.72.129-1.09.087-.37-.045-.741-.104-1.108-.12l-1.103-.057-1.106-.091c-.739-.075-1.477-.147-2.219-.263l-.021-.231Z"/><path class="cls-1" d="m812.412,91.185c.616-.431,1.247-.819,1.878-1.212l.953-.568.966-.535c.323-.176.63-.392.943-.595.314-.199.652-.335,1.017-.4.735-.119,1.505-.144,2.414.194l.082.216c-.453.857-1.044,1.352-1.672,1.752-.316.194-.658.319-1.025.379-.368.057-.742.1-1.1.184l-1.077.244-1.089.211c-.732.127-1.462.258-2.208.346l-.083-.216Z"/><path class="cls-1" d="m817.901,95.895c.433-.614.894-1.195,1.354-1.778l.703-.858.726-.832c.244-.275.46-.583.684-.88.227-.294.499-.537.82-.722.65-.362,1.367-.647,2.336-.638l.151.175c-.134.96-.522,1.626-.976,2.216-.231.29-.511.523-.836.705-.327.179-.663.347-.972.547l-.93.595-.953.569c-.645.368-1.287.739-1.958,1.077l-.151-.175Z"/><path class="cls-10" d="m859.235,55.08c-.145,0-.288-.068-.378-.195l-.596-.842c-.637-.9-1.82-1.205-2.814-.726-.889.43-1.945.418-2.825-.032l-2.975-1.519c-.601-.307-1.301-.329-1.921-.06l-6.629,2.882c-.235.102-.507-.005-.609-.24-.102-.235.005-.507.24-.609l6.629-2.882c.874-.38,1.862-.349,2.711.084l2.975,1.519c.623.318,1.371.327,2.002.023,1.402-.678,3.072-.246,3.972,1.024l.596.842c.148.209.099.498-.11.645-.081.058-.175.085-.267.085Z"/><path class="cls-10" d="m857.99,61.414c-.096,0-.193-.03-.276-.092l-3.232-2.404c-.612-.454-1.405-.569-2.12-.305l-3.898,1.436c-.871.321-1.835.245-2.646-.207l-2.996-1.672c-.422-.235-.899-.329-1.378-.267l-9.861,1.246c-.251.033-.485-.147-.517-.401s.148-.485.401-.517l9.861-1.246c.678-.085,1.35.045,1.946.378l2.996,1.672c.574.32,1.258.374,1.874.146l3.898-1.436c1.011-.372,2.129-.21,2.993.431l3.232,2.404c.205.153.248.442.095.648-.091.122-.23.187-.372.187Z"/><path class="cls-10" d="m845.916,67.799c-.516,0-1.029-.127-1.498-.378l-1.395-.747c-.343-.184-.733-.275-1.119-.266l-8.218.208c-.258.007-.468-.196-.474-.451-.007-.256.195-.468.451-.474l8.218-.208c.546-.016,1.096.116,1.58.375l1.395.747c.601.322,1.305.354,1.934.091l3.26-1.369c.895-.376,1.898-.325,2.751.14l1.342.732c.224.123.307.404.185.628-.123.224-.403.308-.628.185l-1.342-.732c-.604-.329-1.315-.366-1.949-.099l-3.26,1.369c-.396.167-.814.249-1.231.249Z"/><path class="cls-10" d="m851.883,45.58c-.098,0-.196-.031-.28-.095-.203-.155-.243-.445-.088-.649l1.194-1.567c.475-.623,1.228-.983,2.009-.97l.962.02c.579.013,1.07-.271,1.356-.757.286-.486.287-1.067.003-1.553-.274-.47-.783-.762-1.327-.762h-1.679c-.256,0-.463-.207-.463-.463s.207-.463.463-.463h1.679c.873,0,1.688.468,2.127,1.222.455.78.453,1.711-.004,2.489-.458.779-1.269,1.236-2.173,1.214l-.962-.02c-.479-.009-.957.216-1.254.605l-1.194,1.567c-.091.12-.229.182-.369.182Z"/><rect class="cls-1" x="679.038" y="196.108" width="18.056" height="32.234"/><rect class="cls-9" x="678" y="113.431" width="164.677" height="88.672"/><rect class="cls-1" x="751.311" y="158.785" width="18.056" height="84.148" transform="translate(80.67 596.471) rotate(-45)"/><rect class="cls-1" x="718.264" y="191.831" width="84.148" height="18.056" transform="translate(80.67 596.471) rotate(-45)"/><path class="cls-7" d="m760.338,251.847c-28.427,0-51.554-23.127-51.554-51.554s23.127-51.554,51.554-51.554,51.554,23.127,51.554,51.554-23.127,51.554-51.554,51.554Zm0-85.053c-18.471,0-33.499,15.027-33.499,33.499s15.027,33.499,33.499,33.499,33.499-15.028,33.499-33.499-15.027-33.499-33.499-33.499Z"/><path class="cls-8" d="m536.339,255.848c-14.476,0-28.187-5.558-38.608-15.65-9.461-9.162-15.283-21.151-16.631-34.096h-4.006v22.24c0,2.209-1.791,4-4,4h-18.055c-2.209,0-4-1.791-4-4v-23.551c-.646-.71-1.039-1.654-1.039-2.689v-88.672c0-2.209,1.791-4,4-4h132.026v-16.401c0-1.546.111-3.141.33-4.74.379-2.777,1.095-5.497,2.126-8.089-1.582-1.459-3.271-2.629-5.042-3.49-2.612-1.269-5.546-1.913-8.72-1.913-3.283,0-6.899.683-10.746,2.029-1.099.385-2.244.58-3.405.58-.344,0-.687-.017-1.028-.051,0,0-.347.221-.383.242l-1.17.694c-.655.375-1.312.748-1.995,1.091-.571.287-1.186.426-1.794.426-1.137,0-2.253-.484-3.033-1.391l-.151-.175c-.794-.923-1.104-2.125-.914-3.268-.328.051-.658.097-.99.137-.158.019-.316.028-.473.028-1.639,0-3.134-1.007-3.732-2.566l-.083-.216c-.589-1.536-.174-3.254,1-4.353-.818-.663-1.366-1.641-1.466-2.746l-.021-.23c-.167-1.827.931-3.533,2.663-4.139.727-.254,1.456-.467,2.186-.679,0,0,1.378-.375,1.418-.385l1.074-.255c.189-.043.345-.099.502-.149l.3-.096c.52-.157,1.03-.251,1.538-.288.925-.755,1.978-1.347,3.119-1.747,6.093-2.133,12.023-3.214,17.626-3.214,5.68,0,11.101,1.105,16.144,3.29,1.068-1.038,2.354-1.839,3.781-2.338.783-.274,1.576-.533,2.375-.775v-18.005c0-.366.021-.721.043-1.075l.021-.345c.054-1.121.575-2.167,1.438-2.885.723-.601,1.629-.925,2.558-.925.18,0,.36.012.54.037,5.175.705,11.596,1.093,18.08,1.093,6.412,0,12.542-.361,17.727-1.045.174-.023.349-.034.523-.034.93,0,1.836.324,2.559.926.858.714,1.378,1.754,1.436,2.869l.02.318c.024.352.045.707.045,1.067v18.66c0,2.641-.471,5.266-1.377,7.738.669.552,1.325,1.122,1.964,1.705,9.606,8.764,14.185,19.348,14.375,19.794,1.536,3.607.868,7.736-1.569,10.671v47.5c0,1.331-.65,2.509-1.649,3.237-1.536,6.563-6.9,11.8-13.895,13.219l-17.222,3.492v39.839c0,.388-.055.763-.158,1.118.074.356.149.688.223.995.289,1.192.015,2.451-.744,3.415-.758.964-1.917,1.527-3.144,1.527h-3.316c1.363,1.081,2.233,2.749,2.233,4.605,0,.169-.007.337-.021.504,1.277,1.528,1.995,3.463,1.995,5.526v11.991c0,2.209-1.791,4-4,4h-34.436c-.678,0-1.316-.167-1.876-.465-1.731,2.125-3.627,4.134-5.68,6.008-10.261,9.365-23.548,14.523-37.414,14.523Zm-26.157-41.96c2.902,5.53,7.532,10.063,13.128,12.849v-12.849h-13.128Zm39.187,12.848c5.595-2.786,10.225-7.318,13.127-12.848h-13.127v12.848Zm41.819-17.638c-.453,2.834-1.124,5.616-2.001,8.322.255-.016.513-.023.771-.023h1.671c.48-1.428,1.266-2.736,2.3-3.833.025-.766.198-1.505.499-2.184-.192-.734-.375-1.476-.55-2.223h-1.405c-.29,0-.573-.031-.848-.09l-.438.032Z"/><path class="cls-8" d="m619.74,40.144c-6.99,0-13.616-.404-19.162-1.167-10.761-1.482-15.15-3.854-15.15-8.186,0-4.478,5.184-6.369,10.851-7.479l5.739-14.711c.572-1.466,1.95-2.46,3.521-2.541,3.139-.175,6.436-1.276,6.928-2.054C613.479,1.474,616.312.001,620.222.001c9.125,0,21.979,7.328,23.978,23.517,5.256,1.135,9.851,3.056,9.851,7.272,0,4.381-4.501,6.768-15.537,8.239-5.465.729-11.958,1.114-18.775,1.114Z"/><path class="cls-11" d="m605.867,94.554c-2.653,0-5.126-1.676-6.017-4.327-.085-.243-4.273-12.066-14.663-17.114-6.31-3.066-13.892-3.086-22.536-.061-3.31,1.159-6.932-.585-8.091-3.895-1.159-3.31.585-6.932,3.895-8.091,12.016-4.206,22.924-3.973,32.422.693,15.237,7.487,20.787,23.753,21.016,24.442,1.105,3.328-.696,6.922-4.024,8.027-.664.221-1.339.326-2.003.326Z"/><path class="cls-11" d="m601.93,221.107c-14.835-34.936-.798-78.937-.193-80.793l12.074,3.935-6.037-1.967,6.039,1.963c-.133.41-13.15,41.389-.194,71.899l-11.689,4.964Z"/><ellipse class="cls-7" cx="605.664" cy="140.287" rx="13.19" ry="13.792"/><path class="cls-7" d="m592.473,205.156h26.38c-3.119-12.894-3.458-47.842,0-64.869h-26.38c-5.58,15.33-4.901,49.261,0,64.869Z"/><path class="cls-1" d="m581.31,231.784v-1.739c0-4.777,3.872-8.649,8.649-8.649h0c4.777,0,8.649,3.872,8.649,8.649v1.739h-11.885s-1.675,0-1.675,0h-3.738Z"/><path class="cls-1" d="m595.085,221.396v-.671c0-3.555,2.882-6.436,6.436-6.436,1.147,0,2.222.303,3.154.829h6.397c2.581,0,4.673,2.092,4.673,4.673v6.277s0,2.317,0,2.317v3.397h-25.787v-10.387h5.127Z"/><rect class="cls-10" x="597.927" y="211.877" width="15.845" height="3.77" rx="1.885" ry="1.885" transform="translate(1211.698 427.524) rotate(180)"/><polygon class="cls-1" points="615.745 231.783 615.745 229.031 589.053 229.031 589.053 231.745 615.745 231.783"/><g class="cls-15"><rect class="cls-7" x="571.181" y="50.696" width="94.71" height="7.753"/><rect class="cls-4" x="571.181" y="58.449" width="94.71" height="7.753"/><rect class="cls-7" x="571.181" y="65.888" width="94.71" height="7.753"/><rect class="cls-4" x="571.181" y="73.641" width="94.71" height="7.753"/><rect class="cls-7" x="571.181" y="81.079" width="94.71" height="7.753"/><rect class="cls-4" x="571.181" y="88.832" width="94.71" height="7.753"/><rect class="cls-7" x="571.181" y="96.27" width="94.71" height="7.753"/><rect class="cls-4" x="571.181" y="104.023" width="94.71" height="7.753"/><rect class="cls-7" x="571.181" y="111.462" width="94.71" height="7.753"/><rect class="cls-4" x="571.181" y="119.214" width="94.71" height="7.753"/><rect class="cls-7" x="571.181" y="126.653" width="94.71" height="7.753"/><rect class="cls-4" x="571.181" y="134.406" width="94.71" height="7.753"/></g><rect class="cls-2" x="601.061" y="17.756" width="36.984" height="55.646" rx="18.492" ry="18.492" transform="translate(1239.107 91.158) rotate(-180)"/><rect class="cls-11" x="601.061" y="17.756" width="36.984" height="55.646" rx="18.492" ry="18.492" transform="translate(1239.107 91.158) rotate(-180)"/><path class="cls-10" d="m635.235,55.08c-.145,0-.288-.068-.378-.195l-.596-.842c-.637-.9-1.82-1.205-2.814-.726-.889.43-1.945.418-2.825-.032l-2.975-1.519c-.601-.307-1.301-.329-1.921-.06l-6.629,2.882c-.234.102-.507-.005-.609-.24-.102-.235.005-.507.24-.609l6.629-2.882c.874-.38,1.862-.349,2.711.084l2.975,1.519c.623.318,1.371.327,2.002.023,1.402-.678,3.072-.246,3.972,1.024l.596.842c.148.209.099.498-.11.645-.081.058-.175.085-.267.085Z"/><path class="cls-10" d="m633.99,61.414c-.096,0-.193-.03-.276-.092l-3.232-2.404c-.612-.454-1.405-.569-2.12-.305l-3.898,1.436c-.871.321-1.835.245-2.646-.207l-2.996-1.672c-.422-.235-.9-.329-1.378-.267l-9.861,1.246c-.251.033-.485-.147-.517-.401s.148-.485.401-.517l9.861-1.246c.678-.085,1.35.045,1.946.378l2.996,1.672c.575.32,1.257.374,1.874.146l3.898-1.436c1.01-.372,2.129-.21,2.993.431l3.232,2.404c.205.153.248.442.095.648-.091.122-.23.187-.372.187Z"/><path class="cls-10" d="m621.916,67.799c-.516,0-1.029-.127-1.498-.378l-1.395-.747c-.343-.184-.732-.275-1.119-.266l-8.218.208c-.259.007-.468-.196-.474-.451-.007-.256.195-.468.451-.474l8.218-.208c.55-.016,1.096.116,1.58.375l1.395.747c.601.322,1.305.354,1.934.091l3.26-1.369c.895-.376,1.898-.325,2.751.14l1.342.732c.224.123.307.404.185.628-.122.224-.403.308-.628.185l-1.342-.732c-.604-.329-1.315-.366-1.949-.099l-3.26,1.369c-.396.167-.814.249-1.231.249Z"/><path class="cls-10" d="m627.883,45.58c-.098,0-.196-.031-.28-.095-.203-.155-.243-.445-.088-.649l1.194-1.567c.475-.623,1.222-.983,2.009-.97l.962.02c.581.013,1.07-.271,1.356-.757.286-.486.287-1.067.003-1.553-.274-.47-.783-.762-1.327-.762h-1.679c-.256,0-.463-.207-.463-.463s.207-.463.463-.463h1.679c.873,0,1.688.468,2.127,1.222.455.78.453,1.711-.004,2.489-.458.779-1.272,1.236-2.173,1.214l-.962-.02c-.477-.009-.957.216-1.254.605l-1.194,1.567c-.091.12-.229.182-.369.182Z"/><path class="cls-11" d="m647.493,94.554c-2.463,0-4.805-1.442-5.837-3.846-.066-.151-3.537-7.998-10.556-14.274-8.777-7.849-19.172-9.748-30.898-5.644-3.31,1.159-6.932-.585-8.091-3.895-1.159-3.31.585-6.932,3.895-8.091,20.676-7.238,35.303.629,43.934,8.503,8.976,8.189,13.216,17.995,13.392,18.408,1.374,3.226-.127,6.956-3.354,8.33-.812.346-1.655.51-2.485.51Z"/><circle class="cls-7" cx="621.759" cy="43.769" r="3.845"/><circle class="cls-7" cx="606.603" cy="43.769" r="3.845"/><ellipse class="cls-1" cx="619.74" cy="30.79" rx="30.311" ry="5.354"/><path class="cls-10" d="m616.162,5.531c-1.632,4.072-10.418,4.524-10.418,4.524l-6.316,16.189c-.276.348-.421.709-.421,1.078,0,2.957,9.282,5.353,20.731,5.353s20.731-2.397,20.731-5.353c-.418-22.847-22.677-25.863-24.308-21.791Z"/><polygon class="cls-11" points="602.774 38.613 612.105 43.703 627.487 39.462 618.326 37.426 602.774 38.613"/><path class="cls-2" d="m597.56,187.376h-12.699c0-21.871,5.816-37.212,17.287-45.596,15.019-10.978,33.598-5.24,34.382-4.99l-1.928,6.05-1.9,6.059c-.132-.041-13.383-4.009-23.137,3.19-7.966,5.88-12.005,17.752-12.005,35.287Z"/><ellipse class="cls-7" cx="636.483" cy="141.924" rx="13.792" ry="13.19" transform="translate(-15.509 129.305) rotate(-11.461)"/><rect class="cls-7" x="606.853" y="128.483" width="26.38" height="33.55" transform="translate(600.89 781.8) rotate(-101.461)"/><path class="cls-1" d="m567.776,206.787l-.126-1.734c-.346-4.764,3.236-8.906,8-9.252h0c4.764-.346,8.906,3.236,9.252,8l.126,1.734-11.854.86-1.67.121-3.728.27Z"/><path class="cls-1" d="m580.764,195.429l-.049-.669c-.257-3.545,2.408-6.628,5.953-6.885,1.144-.083,2.238.142,3.206.599l6.38-.463c2.574-.187,4.812,1.748,4.998,4.322l.454,6.261.168,2.311.246,3.388-25.72,1.866-.752-10.359,5.114-.371Z"/><rect class="cls-10" x="583.024" y="185.151" width="15.845" height="3.77" rx="1.885" ry="1.885" transform="translate(1193.879 330.816) rotate(175.85)"/><polygon class="cls-1" points="602.121 204.294 601.922 201.549 575.3 203.48 575.496 206.188 602.121 204.294"/><path class="cls-7" d="m600.981,135.664s-20.295,9.435-19.39,39.068h21.489l4.524-15.156-6.623-23.912Z"/><path class="cls-1" d="m548.317,64.664c.709-.248,1.422-.452,2.135-.659l1.071-.289,1.074-.255c.358-.082.713-.207,1.069-.318.356-.107.718-.146,1.088-.11.739.084,1.488.268,2.271.839l.021.231c-.668.703-1.371,1.019-2.083,1.235-.357.102-.72.129-1.09.087-.37-.045-.741-.104-1.108-.12l-1.103-.057-1.106-.091c-.739-.075-1.477-.147-2.219-.263l-.021-.231Z"/><path class="cls-1" d="m548.556,70.923c.616-.431,1.247-.819,1.878-1.212l.953-.568.966-.535c.323-.176.63-.392.943-.595.314-.2.652-.335,1.017-.4.734-.119,1.505-.144,2.414.194l.083.216c-.453.857-1.044,1.352-1.672,1.752-.316.194-.658.319-1.025.379-.368.057-.742.1-1.1.184l-1.077.243-1.089.211c-.732.127-1.462.258-2.208.346l-.083-.216Z"/><path class="cls-1" d="m554.045,75.633c.432-.614.894-1.195,1.354-1.778l.703-.858.726-.832c.244-.275.46-.583.684-.88.227-.294.499-.537.821-.722.65-.362,1.367-.647,2.336-.638l.151.175c-.134.96-.522,1.626-.976,2.216-.231.29-.511.523-.836.705-.327.178-.663.347-.972.547l-.93.595-.953.569c-.645.368-1.287.739-1.958,1.077l-.151-.175Z"/><path class="cls-1" d="m586.477,63.324c.709-.248,1.422-.452,2.135-.659l1.071-.289,1.074-.255c.358-.082.713-.207,1.069-.318.356-.107.718-.146,1.088-.11.739.084,1.488.268,2.271.839l.021.231c-.668.703-1.371,1.019-2.083,1.235-.357.102-.72.129-1.09.087-.37-.045-.741-.104-1.108-.12l-1.103-.057-1.106-.091c-.739-.075-1.477-.147-2.219-.263l-.021-.231Z"/><path class="cls-1" d="m586.715,69.583c.616-.431,1.247-.819,1.878-1.212l.953-.568.966-.535c.323-.176.63-.392.943-.595.314-.2.652-.335,1.017-.4.734-.119,1.505-.144,2.414.194l.083.216c-.453.857-1.044,1.352-1.672,1.752-.316.194-.658.319-1.025.379-.368.057-.742.1-1.1.184l-1.077.243-1.089.211c-.732.127-1.462.258-2.208.346l-.083-.216Z"/><path class="cls-1" d="m592.205,74.293c.432-.614.894-1.195,1.354-1.778l.703-.858.726-.832c.244-.275.46-.583.684-.88.227-.294.499-.537.821-.722.65-.362,1.367-.647,2.336-.638l.151.175c-.134.96-.522,1.626-.976,2.216-.231.29-.511.523-.836.705-.327.178-.663.347-.972.547l-.93.595-.953.569c-.645.368-1.287.739-1.958,1.077l-.151-.175Z"/><rect class="cls-1" x="455.038" y="196.108" width="18.056" height="32.234"/><rect class="cls-9" x="454" y="113.431" width="164.677" height="88.672"/><rect class="cls-1" x="527.311" y="158.784" width="18.056" height="84.148"/><rect class="cls-1" x="494.264" y="191.831" width="84.148" height="18.056"/><path class="cls-7" d="m536.338,251.847c-28.427,0-51.554-23.127-51.554-51.554s23.127-51.554,51.554-51.554,51.554,23.127,51.554,51.554-23.127,51.554-51.554,51.554Zm0-85.053c-18.471,0-33.499,15.027-33.499,33.499s15.027,33.499,33.499,33.499,33.499-15.028,33.499-33.499-15.027-33.499-33.499-33.499Z"/></svg>