<?xml version="1.0" encoding="UTF-8"?>
<svg id="Layer_1" xmlns="http://www.w3.org/2000/svg" width="68.16" height="107.256">
    <defs>
        <style>
            .cls-1 {
                fill: #f0efef;
            }

            .cls-1,
            .cls-2,
            .cls-3,
            .cls-4,
            .cls-5 {
                stroke-width: 0px;
            }

            .cls-2 {
                fill: #12313c;
            }

            .cls-3 {
                fill: #f57f20;
            }

            .cls-4 {
                fill: #eee;
            }

            .cls-5 {
                fill: #f26921;
            }
        </style>
    </defs>
    <rect class="cls-2" x="0" y="87.35" width="68.16" height="19.906" rx="9.953" ry="9.953" />
    <path class="cls-4"
        d="m7.058,91.351C3.166,91.351,0,88.184,0,84.292s3.166-7.059,7.059-7.059h1.505L23.45,4.221C23.948,1.775,26.123,0,28.619,0h10.916c2.496,0,4.671,1.775,5.169,4.221l14.887,73.012h1.512c3.893,0,7.059,3.167,7.059,7.059s-3.166,7.059-7.059,7.059H7.058Z" />
    <path class="cls-3"
        d="m55.074,82.762H13.079c-.806,0-1.41-.739-1.25-1.529h0s1.769-8.666,1.769-8.666l3.948-19.372,2.962-14.529,3.951-19.372,2.909-14.273c.121-.594.643-1.021,1.25-1.021h10.917c.606,0,1.129.427,1.25,1.021l2.909,14.273,3.951,19.372,2.962,14.529,3.948,19.372,1.769,8.666h0c.161.79-.443,1.529-1.25,1.529Z" />
    <polygon class="cls-1" points="47.645 38.665 20.509 38.665 24.459 19.293 43.694 19.293 47.645 38.665" />
    <polygon class="cls-1" points="54.555 72.567 13.598 72.567 17.547 53.194 50.607 53.194 54.555 72.567" />
    <rect class="cls-5" x="3.999" y="81.233" width="60.162" height="6.117" rx="3.059" ry="3.059" />
</svg>