<?xml version="1.0" encoding="UTF-8"?><svg id="Layer_1" xmlns="http://www.w3.org/2000/svg" xmlns:xlink="http://www.w3.org/1999/xlink" width="120.59" height="237.062" ><defs><style>.cls-1{fill:#e9a999;}.cls-1,.cls-2,.cls-3,.cls-4,.cls-5,.cls-6{stroke-width:0px;}.cls-2{fill:#12313c;}.cls-3{fill:#d3cdc8;}.cls-4{fill:none;}.cls-5{fill:#fff;}.cls-6{fill:#14242f;}.cls-7{clip-path:url(#clippath);}</style><clipPath id="clippath"><path class="cls-4" d="m92.686,133.319v-61.503c0-10.213-8.279-18.492-18.492-18.492h-24.433c-10.213,0-18.492,8.279-18.492,18.492v61.503L3.998,197.743h112.594l-23.906-64.424Z"/></clipPath></defs><rect class="cls-2" x="8.016" y="217.156" width="102" height="19.906" rx="9.953" ry="9.953"/><path class="cls-5" d="m22.553,226.787c-2.209,0-4-1.791-4-4v-1.739c0-6.973,5.673-12.647,12.646-12.649h1.673c.036-.106.073-.211.112-.316h-4.09c-2.209,0-4-1.791-4-4v-2.344h-1.206c-.364,0-.722-.049-1.065-.145-.343.095-.7.145-1.064.145h-4.431c-.364,0-.722-.049-1.064-.145-.344.095-.701.145-1.065.145h-4.43c-.364,0-.722-.049-1.064-.145-.344.095-.701.145-1.065.145h-4.267c-.056.002-.11.003-.166.003-1.327,0-2.571-.658-3.315-1.757-.671-.99-.862-2.222-.533-3.358.046-.164.103-.325.169-.481l6.455-15.236c.021-.058.044-.114.068-.171l1.001-2.346c.021-.059.045-.117.069-.174l5.261-12.428c.021-.049.043-.097.065-.145l11.599-27.415c.021-.05.043-.099.066-.148l2.357-5.573v-16.867c-3.576,1.762-7.438,3.37-11.542,4.807-1.107.387-2.257.583-3.419.583-4.391,0-8.316-2.786-9.769-6.932-.913-2.61-.756-5.418.443-7.909,1.199-2.491,3.297-4.366,5.906-5.279,7.476-2.617,13.649-5.779,18.382-9.412l-.002-19.681c0-.951.077-1.809.149-2.473.004-.051.01-.103.016-.154.073-.633.161-1.204.268-1.744.01-.054.021-.107.034-.16,1.095-5.344,4.143-10.127,8.493-13.411.045-.262.099-.52.161-.774-.997-1.59-1.561-3.61-1.561-5.802,0-1.289.205-2.547.589-3.698-.58-.977-1.024-2.08-1.308-3.264-.557-2.335-.411-4.641.365-6.534-.462-2.022-.696-4.09-.696-6.169C33.778,12.398,46.177,0,61.416,0s27.639,12.398,27.639,27.638c0,2.335-.289,4.637-.862,6.872.351.402.677.832.975,1.284,1.047,1.587,1.675,3.338,1.84,5.03,1.17,1.118,2.121,2.594,2.743,4.305.334.918.554,1.862.656,2.795,1.479,1.153,2.699,2.859,3.448,4.918.221.608.393,1.227.512,1.847,1.377.586,2.694,1.517,3.837,2.737,3.542,3.785,3.982,8.934,1.005,11.722-1.163,1.088-2.736,1.688-4.429,1.688-.707,0-1.422-.099-2.131-.291.026.426.039.853.039,1.276v.768c1.602,1.911,2.457,4.331,2.393,6.884-.021.742-.229,4.527-2.394,9.657v43.475s1.43,3.861,1.43,3.861c.022.054.045.109.065.165l4.047,10.922c.025.061.05.121.072.183l6.188,16.672c.021.051.041.102.061.153l7.733,20.853c.021.056.04.112.059.168l1.416,3.805c.021.052.043.104.062.157l2.52,6.81c.454,1.227.278,2.599-.47,3.673-.747,1.074-1.974,1.714-3.282,1.714l-2.849.003c-.055,0-.11,0-.165-.003h-4.104c-.056.002-.11.003-.166.003h-2.125c-.056,0-.11,0-.166-.003h-4.103c-.056.002-.11.003-.166.003h-2.125c-.056,0-.11,0-.166-.003h-4.103c-.056.002-2.038.003-2.038.003v2.34c0,2.155-1.705,3.913-3.839,3.997.284.862.435,1.778.435,2.719l-.003,11.987c0,2.209-1.791,4-4,4,0,0-25.735.003-25.787.003l-38.564-.002Zm36.443-21.514c.766.918,1.33,1.984,1.659,3.135.153-.005.308-.008.462-.008h1.674c.48-1.428,1.265-2.736,2.3-3.832.021-.625.142-1.234.367-1.855.017-.044.104-.261.133-.325-.056-.215-.111-.431-.166-.648h-7.246c.169.281.315.578.437.889.281.77.402,1.443.402,2.141,0,.169-.007.337-.021.503Zm17.792-6.393c-.522-.2-1.014-.487-1.452-.853-.409.341-.87.617-1.365.817l-.036.036h2.854Zm-49.609-6.437c-.062.118-.128.234-.198.347.157-.074.318-.141.482-.2-.097-.045-.191-.094-.284-.147Zm10.284.126c.154.055.306.118.453.187-.065-.107-.127-.217-.185-.328-.087.05-.177.098-.269.142Zm-8.211-9.889c.041-.031.083-.062.125-.092-.008-.013-.016-.026-.023-.039l-.106.11.005.021Zm58.427-5.275c.271.21.517.455.728.728.392-.512.902-.922,1.483-1.195-.521-.2-1.008-.485-1.443-.848-.087.073-.177.143-.269.209l-.499,1.106Zm6.531-.041c.289.215.548.469.77.754.39-.504.896-.91,1.472-1.18-.521-.2-1.01-.485-1.445-.85-.099.082-.199.16-.303.234l-.493,1.042Zm-37.854-.607c.102.179.188.364.259.552.078-.059.159-.115.242-.169.021-.014.041-.027.062-.04l-.149-.163c-.141-.054-.278-.114-.413-.18Zm26.404-.079c.075.145.142.292.198.444.115-.069.235-.132.357-.189-.19-.074-.375-.158-.556-.254Zm-6.199.356c.065-.035.132-.069.199-.1-.115-.044-.229-.093-.341-.146.049.081.097.163.142.246Zm6.766-10.196c-.098.229-.21.448-.338.658.167-.079.339-.148.514-.208.077-.445.213-.875.402-1.281-.09-.08-.184-.154-.282-.222-.01.058-.02.116-.031.174-.058.301-.148.61-.264.879h0Zm-28.477-3.195c.184.037.373.057.566.057.12,0,.238-.007.354-.022.305-.498.724-.937,1.248-1.273-.628-.201-1.212-.523-1.725-.954-.348.29-.729.532-1.135.721.328.437.564.937.69,1.471Zm20.916-17.109c.059-.028.117-.054.178-.08-.032-.04-.064-.08-.095-.121-.045.05-.091.1-.137.147l.054.053Zm7.329-1.27c-.051.116-.108.23-.171.342.188-.094.38-.175.574-.244.03-.184.07-.365.12-.543l-.523.445Zm-49.037-.743s0-.003-.002-.005c-.047-.14-.101-.312-.147-.512-.024.021-.049.042-.072.063.052.112.1.226.143.341.007.018.014.036.02.054l.06.059Zm41.999-3.247c.037-.042.075-.083.114-.124l-.158.066.044.057Zm.375-1.05c.093.154.179.312.256.477.062-.045.127-.09.192-.132.047-.039.094-.076.142-.112-.202-.065-.399-.143-.59-.232Zm-26.625-.023c.058.1.11.201.158.303.082-.045.165-.088.25-.128-.139-.053-.275-.111-.408-.175Zm26.775-9.547c-.05.093-.102.185-.157.274.125-.059.252-.112.381-.16-.076-.036-.15-.074-.224-.114Zm6.747-.384c-.098.228-.21.447-.338.656.166-.078.337-.147.511-.207.054-.307.135-.607.241-.896l-.436.438.021.009Zm-48.028-5.837c.083.091.162.186.237.285.109-.14.228-.273.354-.398-.076-.068-.149-.139-.22-.211-.116.115-.24.224-.372.325Zm40.285-.011c.246-.264.528-.495.839-.686-.072-.082-.142-.165-.206-.25l-.789.781.156.155Zm-28.357-.962c.212.079.409.163.6.261.338.179.645.384.923.616.041-.035.083-.069.126-.102.455-.359.955-.634,1.483-.82.076-.454.212-.888.399-1.293-.297-.262-.647-.464-1.034-.587-.177.297-.396.577-.655.829-.543.527-1.197.869-1.884,1.027l.039.072.003-.003Zm28.654-5.141c.108.121.209.247.3.378.048-.07.097-.137.142-.194.199-.256.423-.481.666-.675-.198-.065-.392-.143-.579-.232.07.115.137.233.198.354l-.727.37Zm-28.923-18.817c.155.334.274.687.354,1.055.025-.021.049-.042.073-.063-.159-.335-.281-.687-.363-1.046-.021.018-.043.037-.064.055Zm-14.74-1.436c-.217-.204-.414-.426-.592-.664-.045.004-.09.007-.136.01l.633.654h.095Zm35.953-16.477c.271.22.517.478.728.771.321-.409.72-.753,1.174-1.011l-.369-.397c-.139-.071-.273-.148-.405-.232.014.018.026.037.039.056l-1.166.812Zm8.252-.557c.056.09.107.182.157.275.073-.041.147-.079.224-.115-.129-.048-.256-.102-.381-.161Zm-9.348-16.596c.618.341,1.136.841,1.499,1.445.122-.202.262-.392.416-.568-.521-.289-.973-.691-1.318-1.174-.192.117-.392.216-.597.297Zm21.659.826c.251-.278.542-.521.863-.72-.057-.115-.11-.229-.162-.345l-.889.881.188.184Zm-34.644-.747c.126.076.247.158.362.247-.044-.06-.087-.121-.129-.184-.352-.531-.602-1.107-.74-1.704-.131.109-.252.23-.361.36.007.032.013.064.019.097l.366-.149c.152.373.259.742.319,1.114l.164.219Zm29.23-.737c-.136.317-.301.615-.491.892.205-.144.424-.268.655-.372.051-.33.133-.65.243-.956l-.427.428.02.008Zm1.403-3.051c.192.122.378.256.555.404.139-.115.283-.223.434-.324l.024-.043c-.367-.5-.701-1.044-.994-1.625-.141.186-.298.36-.472.521l.453,1.067Z"/><circle class="cls-5" cx="35.742" cy="124.264" r="5.131"/><circle class="cls-5" cx="42.302" cy="124.264" r="5.131"/><path class="cls-5" d="m48.862,129.395c-2.83,0-5.132-2.302-5.132-5.131s2.302-5.131,5.132-5.131,5.131,2.302,5.131,5.131-2.302,5.131-5.131,5.131Z"/><path class="cls-5" d="m22.622,165.965c-2.829,0-5.131-2.302-5.131-5.131s2.302-5.131,5.131-5.131,5.131,2.302,5.131,5.131-2.302,5.131-5.131,5.131Z"/><path class="cls-5" d="m8.44,201.743c-1.748,0-3.293-1.135-3.816-2.802-.075-.24-.252-.803-.252-1.538,0-2.829,2.302-5.131,5.131-5.131s5.132,2.302,5.132,5.131c0,.669-.141,1.189-.263,1.568-.533,1.652-2.071,2.771-3.807,2.771h-2.125Z"/><path class="cls-5" d="m15,201.743c-1.735,0-3.273-1.119-3.807-2.771-.112-.348-.262-.889-.262-1.568,0-2.829,2.302-5.131,5.131-5.131s5.131,2.302,5.131,5.131c0,.735-.177,1.297-.252,1.538-.523,1.667-2.068,2.802-3.816,2.802h-2.125Z"/><path class="cls-5" d="m21.56,201.743c-1.735,0-3.273-1.119-3.807-2.771-.112-.348-.262-.889-.262-1.568,0-2.829,2.302-5.131,5.131-5.131s5.131,2.302,5.131,5.131c0,.679-.149,1.22-.262,1.568-.533,1.652-2.071,2.771-3.807,2.771h-2.125Z"/><path class="cls-5" d="m35.742,70.205c-2.829,0-5.131-2.302-5.131-5.131s2.302-5.131,5.131-5.131,5.131,2.302,5.131,5.131-2.302,5.131-5.131,5.131Z"/><path class="cls-5" d="m35.742,106.775c-2.829,0-5.131-2.302-5.131-5.131s2.302-5.131,5.131-5.131,5.131,2.302,5.131,5.131-2.302,5.131-5.131,5.131Z"/><path class="cls-5" d="m48.862,106.775c-2.83,0-5.132-2.302-5.132-5.131s2.302-5.131,5.132-5.131,5.131,2.302,5.131,5.131-2.302,5.131-5.131,5.131Z"/><path class="cls-5" d="m55.422,106.775c-2.829,0-5.131-2.302-5.131-5.131s2.302-5.131,5.131-5.131,5.131,2.302,5.131,5.131-2.302,5.131-5.131,5.131Z"/><path class="cls-5" d="m68.542,70.205c-2.829,0-5.131-2.302-5.131-5.131s2.302-5.131,5.131-5.131,5.131,2.302,5.131,5.131-2.302,5.131-5.131,5.131Z"/><path class="cls-5" d="m55.422,70.205c-2.829,0-5.131-2.302-5.131-5.131s2.302-5.131,5.131-5.131,5.131,2.302,5.131,5.131-2.302,5.131-5.131,5.131Z"/><path class="cls-5" d="m68.542,106.775c-2.829,0-5.131-2.302-5.131-5.131s2.302-5.131,5.131-5.131,5.131,2.302,5.131,5.131-2.302,5.131-5.131,5.131Z"/><path class="cls-5" d="m35.742,165.965c-2.829,0-5.131-2.302-5.131-5.131s2.302-5.131,5.131-5.131,5.131,2.302,5.131,5.131-2.302,5.131-5.131,5.131Z"/><path class="cls-5" d="m42.302,165.965c-2.829,0-5.131-2.302-5.131-5.131s2.302-5.131,5.131-5.131,5.131,2.302,5.131,5.131-2.302,5.131-5.131,5.131Z"/><path class="cls-5" d="m55.422,165.965c-2.829,0-5.131-2.302-5.131-5.131s2.302-5.131,5.131-5.131,5.131,2.302,5.131,5.131-2.302,5.131-5.131,5.131Z"/><path class="cls-5" d="m61.982,165.965c-2.829,0-5.131-2.302-5.131-5.131s2.302-5.131,5.131-5.131,5.131,2.302,5.131,5.131-2.302,5.131-5.131,5.131Z"/><path class="cls-5" d="m68.542,165.965c-2.829,0-5.131-2.302-5.131-5.131s2.302-5.131,5.131-5.131,5.131,2.302,5.131,5.131-2.302,5.131-5.131,5.131Z"/><path class="cls-3" d="m49.021,215.98c-2.471,0-4.821-1.451-5.847-3.87-14.835-34.936-.797-78.937-.193-80.793,1.087-3.334,4.67-5.156,8.004-4.07,3.333,1.086,5.154,4.667,4.071,8h0c-.133.41-13.15,41.39-.194,71.9,1.371,3.228-.135,6.955-3.363,8.326-.81.344-1.651.507-2.479.507Z"/><path class="cls-6" d="m22.553,222.787v-1.739c0-4.777,3.872-8.649,8.649-8.649h0c4.777,0,8.649,3.872,8.649,8.649v1.739h-11.885s-1.675,0-1.675,0h-3.738Z"/><path class="cls-6" d="m36.329,212.4v-.671c0-3.555,2.882-6.436,6.436-6.436,1.147,0,2.222.303,3.154.829h6.397c2.581,0,4.673,2.092,4.673,4.673v6.277s0,2.317,0,2.317v3.397h-25.787v-10.387h5.127Z"/><rect class="cls-6" x="39.17" y="202.88" width="15.845" height="3.77" rx="1.885" ry="1.885" transform="translate(94.185 409.531) rotate(180)"/><polygon class="cls-6" points="56.989 222.786 56.989 220.034 30.297 220.034 30.297 222.749 56.989 222.786"/><path class="cls-3" d="m78.937,215.98c-2.471,0-4.821-1.451-5.847-3.87-14.835-34.936-.797-78.937-.193-80.793,1.087-3.334,4.67-5.156,8.004-4.07,3.333,1.086,5.154,4.667,4.071,8h0c-.133.41-13.15,41.39-.194,71.9,1.371,3.228-.135,6.955-3.363,8.326-.81.344-1.651.507-2.479.507Z"/><path class="cls-6" d="m52.469,222.787v-1.739c0-4.777,3.872-8.649,8.649-8.649h0c4.777,0,8.649,3.872,8.649,8.649v1.739h-11.885s-1.675,0-1.675,0h-3.738Z"/><path class="cls-6" d="m66.245,212.4v-.671c0-3.555,2.882-6.436,6.436-6.436,1.147,0,2.222.303,3.154.829h6.397c2.581,0,4.673,2.092,4.673,4.673v6.277s0,2.317,0,2.317v3.397h-25.787v-10.387h5.127Z"/><rect class="cls-6" x="69.086" y="202.88" width="15.845" height="3.77" rx="1.885" ry="1.885" transform="translate(154.016 409.531) rotate(180)"/><polygon class="cls-6" points="86.905 222.786 86.905 220.034 60.213 220.034 60.213 222.749 86.905 222.786"/><path class="cls-3" d="m12.306,117.032c-2.623,0-5.077-1.638-5.993-4.253-1.159-3.31.585-6.932,3.895-8.091,29.345-10.272,30.552-25.496,30.556-25.647.091-3.506,3.006-6.286,6.511-6.183,3.506.09,6.274,3.006,6.183,6.511-.018.692-.329,6.984-5.668,14.688-6.637,9.576-17.87,17.185-33.387,22.617-.694.243-1.402.358-2.098.358Z"/><g class="cls-7"><path class="cls-6" d="m92.686,133.319v-61.503c0-10.213-8.279-18.492-18.492-18.492h-24.433c-10.213,0-18.492,8.279-18.492,18.492v61.503L3.998,197.743h112.594l-23.906-64.424Z"/><circle class="cls-5" cx="2.942" cy="124.264" r="1.131"/><circle class="cls-5" cx="9.502" cy="124.264" r="1.131"/><circle class="cls-5" cx="16.062" cy="124.264" r="1.131"/><circle class="cls-5" cx="22.622" cy="124.264" r="1.131"/><circle class="cls-5" cx="29.182" cy="124.264" r="1.131"/><circle class="cls-5" cx="35.742" cy="124.264" r="1.131"/><circle class="cls-5" cx="42.302" cy="124.264" r="1.131"/><circle class="cls-5" cx="48.862" cy="124.264" r="1.131"/><circle class="cls-5" cx="55.422" cy="124.264" r="1.131"/><circle class="cls-5" cx="61.982" cy="124.264" r="1.131"/><circle class="cls-5" cx="68.542" cy="124.264" r="1.131"/><circle class="cls-5" cx="-.451" cy="128.261" r="1.131"/><circle class="cls-5" cx="6.109" cy="128.261" r="1.131"/><circle class="cls-5" cx="12.669" cy="128.261" r="1.131"/><circle class="cls-5" cx="19.229" cy="128.261" r="1.131"/><circle class="cls-5" cx="25.789" cy="128.261" r="1.131"/><circle class="cls-5" cx="32.349" cy="128.261" r="1.131"/><circle class="cls-5" cx="38.909" cy="128.261" r="1.131"/><circle class="cls-5" cx="45.469" cy="128.261" r="1.131"/><circle class="cls-5" cx="52.029" cy="128.261" r="1.131"/><circle class="cls-5" cx="58.589" cy="128.261" r="1.131"/><circle class="cls-5" cx="65.149" cy="128.261" r="1.131"/><circle class="cls-5" cx="2.942" cy="131.578" r="1.131"/><circle class="cls-5" cx="9.502" cy="131.578" r="1.131"/><circle class="cls-5" cx="16.062" cy="131.578" r="1.131"/><circle class="cls-5" cx="22.622" cy="131.578" r="1.131"/><circle class="cls-5" cx="29.182" cy="131.578" r="1.131"/><circle class="cls-5" cx="35.742" cy="131.578" r="1.131"/><circle class="cls-5" cx="42.302" cy="131.578" r="1.131"/><circle class="cls-5" cx="48.862" cy="131.578" r="1.131"/><circle class="cls-5" cx="55.422" cy="131.578" r="1.131"/><circle class="cls-5" cx="61.982" cy="131.578" r="1.131"/><circle class="cls-5" cx="68.542" cy="131.578" r="1.131"/><circle class="cls-5" cx="-.451" cy="135.575" r="1.131"/><circle class="cls-5" cx="6.109" cy="135.575" r="1.131"/><circle class="cls-5" cx="12.669" cy="135.575" r="1.131"/><circle class="cls-5" cx="19.229" cy="135.575" r="1.131"/><circle class="cls-5" cx="25.789" cy="135.575" r="1.131"/><circle class="cls-5" cx="32.349" cy="135.575" r="1.131"/><circle class="cls-5" cx="38.909" cy="135.575" r="1.131"/><circle class="cls-5" cx="45.469" cy="135.575" r="1.131"/><circle class="cls-5" cx="52.029" cy="135.575" r="1.131"/><circle class="cls-5" cx="58.589" cy="135.575" r="1.131"/><circle class="cls-5" cx="65.149" cy="135.575" r="1.131"/><circle class="cls-5" cx="2.942" cy="138.892" r="1.131"/><circle class="cls-5" cx="9.502" cy="138.892" r="1.131"/><circle class="cls-5" cx="16.062" cy="138.892" r="1.131"/><circle class="cls-5" cx="22.622" cy="138.892" r="1.131"/><circle class="cls-5" cx="29.182" cy="138.892" r="1.131"/><circle class="cls-5" cx="35.742" cy="138.892" r="1.131"/><circle class="cls-5" cx="42.302" cy="138.892" r="1.131"/><circle class="cls-5" cx="48.862" cy="138.892" r="1.131"/><circle class="cls-5" cx="55.422" cy="138.892" r="1.131"/><circle class="cls-5" cx="61.982" cy="138.892" r="1.131"/><circle class="cls-5" cx="68.542" cy="138.892" r="1.131"/><circle class="cls-5" cx="-.451" cy="142.889" r="1.131"/><circle class="cls-5" cx="6.109" cy="142.889" r="1.131"/><circle class="cls-5" cx="12.669" cy="142.889" r="1.131"/><circle class="cls-5" cx="19.229" cy="142.889" r="1.131"/><circle class="cls-5" cx="25.789" cy="142.889" r="1.131"/><circle class="cls-5" cx="32.349" cy="142.889" r="1.131"/><circle class="cls-5" cx="38.909" cy="142.889" r="1.131"/><circle class="cls-5" cx="45.469" cy="142.889" r="1.131"/><circle class="cls-5" cx="52.029" cy="142.889" r="1.131"/><circle class="cls-5" cx="58.589" cy="142.889" r="1.131"/><circle class="cls-5" cx="65.149" cy="142.889" r="1.131"/><circle class="cls-5" cx="2.942" cy="146.206" r="1.131"/><circle class="cls-5" cx="9.502" cy="146.206" r="1.131"/><circle class="cls-5" cx="16.062" cy="146.206" r="1.131"/><circle class="cls-5" cx="22.622" cy="146.206" r="1.131"/><circle class="cls-5" cx="29.182" cy="146.206" r="1.131"/><circle class="cls-5" cx="35.742" cy="146.206" r="1.131"/><circle class="cls-5" cx="42.302" cy="146.206" r="1.131"/><circle class="cls-5" cx="48.862" cy="146.206" r="1.131"/><circle class="cls-5" cx="55.422" cy="146.206" r="1.131"/><circle class="cls-5" cx="61.982" cy="146.206" r="1.131"/><circle class="cls-5" cx="68.542" cy="146.206" r="1.131"/><circle class="cls-5" cx="-.451" cy="150.202" r="1.131"/><circle class="cls-5" cx="6.109" cy="150.202" r="1.131"/><circle class="cls-5" cx="12.669" cy="150.202" r="1.131"/><circle class="cls-5" cx="19.229" cy="150.202" r="1.131"/><circle class="cls-5" cx="25.789" cy="150.202" r="1.131"/><circle class="cls-5" cx="32.349" cy="150.202" r="1.131"/><circle class="cls-5" cx="38.909" cy="150.202" r="1.131"/><circle class="cls-5" cx="45.469" cy="150.202" r="1.131"/><circle class="cls-5" cx="52.029" cy="150.202" r="1.131"/><circle class="cls-5" cx="58.589" cy="150.202" r="1.131"/><circle class="cls-5" cx="65.149" cy="150.202" r="1.131"/><circle class="cls-5" cx="2.942" cy="153.52" r="1.131"/><circle class="cls-5" cx="9.502" cy="153.52" r="1.131"/><circle class="cls-5" cx="16.062" cy="153.52" r="1.131"/><circle class="cls-5" cx="22.622" cy="153.52" r="1.131"/><circle class="cls-5" cx="29.182" cy="153.52" r="1.131"/><circle class="cls-5" cx="35.742" cy="153.52" r="1.131"/><circle class="cls-5" cx="42.302" cy="153.52" r="1.131"/><circle class="cls-5" cx="48.862" cy="153.52" r="1.131"/><circle class="cls-5" cx="55.422" cy="153.52" r="1.131"/><circle class="cls-5" cx="61.982" cy="153.52" r="1.131"/><circle class="cls-5" cx="68.542" cy="153.52" r="1.131"/><circle class="cls-5" cx="-.451" cy="157.516" r="1.131"/><circle class="cls-5" cx="6.109" cy="157.516" r="1.131"/><circle class="cls-5" cx="12.669" cy="157.516" r="1.131"/><circle class="cls-5" cx="19.229" cy="157.516" r="1.131"/><circle class="cls-5" cx="25.789" cy="157.516" r="1.131"/><circle class="cls-5" cx="32.349" cy="157.516" r="1.131"/><circle class="cls-5" cx="38.909" cy="157.516" r="1.131"/><circle class="cls-5" cx="45.469" cy="157.516" r="1.131"/><circle class="cls-5" cx="52.029" cy="157.516" r="1.131"/><circle class="cls-5" cx="58.589" cy="157.516" r="1.131"/><circle class="cls-5" cx="65.149" cy="157.516" r="1.131"/><circle class="cls-5" cx="2.942" cy="160.834" r="1.131"/><circle class="cls-5" cx="9.502" cy="160.834" r="1.131"/><circle class="cls-5" cx="16.062" cy="160.834" r="1.131"/><circle class="cls-5" cx="22.622" cy="160.834" r="1.131"/><circle class="cls-5" cx="29.182" cy="160.834" r="1.131"/><circle class="cls-5" cx="35.742" cy="160.834" r="1.131"/><circle class="cls-5" cx="42.302" cy="160.834" r="1.131"/><circle class="cls-5" cx="48.862" cy="160.834" r="1.131"/><circle class="cls-5" cx="55.422" cy="160.834" r="1.131"/><circle class="cls-5" cx="61.982" cy="160.834" r="1.131"/><circle class="cls-5" cx="68.542" cy="160.834" r="1.131"/><circle class="cls-5" cx="-.451" cy="164.83" r="1.131"/><circle class="cls-5" cx="6.109" cy="164.83" r="1.131"/><circle class="cls-5" cx="12.669" cy="164.83" r="1.131"/><circle class="cls-5" cx="19.229" cy="164.83" r="1.131"/><circle class="cls-5" cx="25.789" cy="164.83" r="1.131"/><circle class="cls-5" cx="32.349" cy="164.83" r="1.131"/><circle class="cls-5" cx="38.909" cy="164.83" r="1.131"/><circle class="cls-5" cx="45.469" cy="164.83" r="1.131"/><circle class="cls-5" cx="52.029" cy="164.83" r="1.131"/><circle class="cls-5" cx="58.589" cy="164.83" r="1.131"/><circle class="cls-5" cx="65.149" cy="164.83" r="1.131"/><circle class="cls-5" cx="2.942" cy="168.148" r="1.131"/><circle class="cls-5" cx="9.502" cy="168.148" r="1.131"/><circle class="cls-5" cx="16.062" cy="168.148" r="1.131"/><circle class="cls-5" cx="22.622" cy="168.148" r="1.131"/><circle class="cls-5" cx="29.182" cy="168.148" r="1.131"/><circle class="cls-5" cx="35.742" cy="168.148" r="1.131"/><circle class="cls-5" cx="42.302" cy="168.148" r="1.131"/><circle class="cls-5" cx="48.862" cy="168.148" r="1.131"/><circle class="cls-5" cx="55.422" cy="168.148" r="1.131"/><circle class="cls-5" cx="61.982" cy="168.148" r="1.131"/><circle class="cls-5" cx="68.542" cy="168.148" r="1.131"/><circle class="cls-5" cx="-.451" cy="172.144" r="1.131"/><circle class="cls-5" cx="6.109" cy="172.144" r="1.131"/><circle class="cls-5" cx="12.669" cy="172.144" r="1.131"/><circle class="cls-5" cx="19.229" cy="172.144" r="1.131"/><circle class="cls-5" cx="25.789" cy="172.144" r="1.131"/><circle class="cls-5" cx="32.349" cy="172.144" r="1.131"/><circle class="cls-5" cx="38.909" cy="172.144" r="1.131"/><circle class="cls-5" cx="45.469" cy="172.144" r="1.131"/><circle class="cls-5" cx="52.029" cy="172.144" r="1.131"/><circle class="cls-5" cx="58.589" cy="172.144" r="1.131"/><circle class="cls-5" cx="65.149" cy="172.144" r="1.131"/><circle class="cls-5" cx="2.942" cy="175.462" r="1.131"/><circle class="cls-5" cx="9.502" cy="175.462" r="1.131"/><circle class="cls-5" cx="16.062" cy="175.462" r="1.131"/><circle class="cls-5" cx="22.622" cy="175.462" r="1.131"/><circle class="cls-5" cx="29.182" cy="175.462" r="1.131"/><circle class="cls-5" cx="35.742" cy="175.462" r="1.131"/><circle class="cls-5" cx="42.302" cy="175.462" r="1.131"/><circle class="cls-5" cx="48.862" cy="175.462" r="1.131"/><circle class="cls-5" cx="55.422" cy="175.462" r="1.131"/><circle class="cls-5" cx="61.982" cy="175.462" r="1.131"/><circle class="cls-5" cx="68.542" cy="175.462" r="1.131"/><circle class="cls-5" cx="-.451" cy="179.458" r="1.131"/><circle class="cls-5" cx="6.109" cy="179.458" r="1.131"/><circle class="cls-5" cx="12.669" cy="179.458" r="1.131"/><circle class="cls-5" cx="19.229" cy="179.458" r="1.131"/><circle class="cls-5" cx="25.789" cy="179.458" r="1.131"/><circle class="cls-5" cx="32.349" cy="179.458" r="1.131"/><circle class="cls-5" cx="38.909" cy="179.458" r="1.131"/><circle class="cls-5" cx="45.469" cy="179.458" r="1.131"/><circle class="cls-5" cx="52.029" cy="179.458" r="1.131"/><circle class="cls-5" cx="58.589" cy="179.458" r="1.131"/><circle class="cls-5" cx="65.149" cy="179.458" r="1.131"/><circle class="cls-5" cx="2.942" cy="182.776" r="1.131"/><circle class="cls-5" cx="9.502" cy="182.776" r="1.131"/><circle class="cls-5" cx="16.062" cy="182.776" r="1.131"/><circle class="cls-5" cx="22.622" cy="182.776" r="1.131"/><circle class="cls-5" cx="29.182" cy="182.776" r="1.131"/><circle class="cls-5" cx="35.742" cy="182.776" r="1.131"/><circle class="cls-5" cx="42.302" cy="182.776" r="1.131"/><circle class="cls-5" cx="48.862" cy="182.776" r="1.131"/><circle class="cls-5" cx="55.422" cy="182.776" r="1.131"/><circle class="cls-5" cx="61.982" cy="182.776" r="1.131"/><circle class="cls-5" cx="68.542" cy="182.776" r="1.131"/><circle class="cls-5" cx="-.451" cy="186.772" r="1.131"/><circle class="cls-5" cx="6.109" cy="186.772" r="1.131"/><circle class="cls-5" cx="12.669" cy="186.772" r="1.131"/><circle class="cls-5" cx="19.229" cy="186.772" r="1.131"/><circle class="cls-5" cx="25.789" cy="186.772" r="1.131"/><circle class="cls-5" cx="32.349" cy="186.772" r="1.131"/><circle class="cls-5" cx="38.909" cy="186.772" r="1.131"/><circle class="cls-5" cx="45.469" cy="186.772" r="1.131"/><circle class="cls-5" cx="52.029" cy="186.772" r="1.131"/><circle class="cls-5" cx="58.589" cy="186.772" r="1.131"/><circle class="cls-5" cx="65.149" cy="186.772" r="1.131"/><circle class="cls-5" cx="2.942" cy="190.09" r="1.131"/><circle class="cls-5" cx="9.502" cy="190.09" r="1.131"/><circle class="cls-5" cx="16.062" cy="190.09" r="1.131"/><circle class="cls-5" cx="22.622" cy="190.09" r="1.131"/><circle class="cls-5" cx="29.182" cy="190.09" r="1.131"/><circle class="cls-5" cx="35.742" cy="190.09" r="1.131"/><circle class="cls-5" cx="42.302" cy="190.09" r="1.131"/><circle class="cls-5" cx="48.862" cy="190.09" r="1.131"/><circle class="cls-5" cx="55.422" cy="190.09" r="1.131"/><circle class="cls-5" cx="61.982" cy="190.09" r="1.131"/><circle class="cls-5" cx="68.542" cy="190.09" r="1.131"/><circle class="cls-5" cx="-.451" cy="194.086" r="1.131"/><circle class="cls-5" cx="6.109" cy="194.086" r="1.131"/><circle class="cls-5" cx="12.669" cy="194.086" r="1.131"/><circle class="cls-5" cx="19.229" cy="194.086" r="1.131"/><circle class="cls-5" cx="25.789" cy="194.086" r="1.131"/><circle class="cls-5" cx="32.349" cy="194.086" r="1.131"/><circle class="cls-5" cx="38.909" cy="194.086" r="1.131"/><circle class="cls-5" cx="45.469" cy="194.086" r="1.131"/><circle class="cls-5" cx="52.029" cy="194.086" r="1.131"/><circle class="cls-5" cx="58.589" cy="194.086" r="1.131"/><circle class="cls-5" cx="65.149" cy="194.086" r="1.131"/><circle class="cls-5" cx="2.942" cy="197.404" r="1.131"/><circle class="cls-5" cx="9.502" cy="197.404" r="1.131"/><circle class="cls-5" cx="16.062" cy="197.404" r="1.131"/><circle class="cls-5" cx="22.622" cy="197.404" r="1.131"/><circle class="cls-5" cx="29.182" cy="197.404" r="1.131"/><circle class="cls-5" cx="35.742" cy="197.404" r="1.131"/><circle class="cls-5" cx="42.302" cy="197.404" r="1.131"/><circle class="cls-5" cx="48.862" cy="197.404" r="1.131"/><circle class="cls-5" cx="55.422" cy="197.404" r="1.131"/><circle class="cls-5" cx="61.982" cy="197.404" r="1.131"/><circle class="cls-5" cx="68.542" cy="197.404" r="1.131"/><circle class="cls-5" cx="-.451" cy="201.4" r="1.131"/><circle class="cls-5" cx="6.109" cy="201.4" r="1.131"/><circle class="cls-5" cx="12.669" cy="201.4" r="1.131"/><circle class="cls-5" cx="19.229" cy="201.4" r="1.131"/><circle class="cls-5" cx="25.789" cy="201.4" r="1.131"/><circle class="cls-5" cx="32.349" cy="201.4" r="1.131"/><circle class="cls-5" cx="38.909" cy="201.4" r="1.131"/><circle class="cls-5" cx="45.469" cy="201.4" r="1.131"/><circle class="cls-5" cx="52.029" cy="201.4" r="1.131"/><circle class="cls-5" cx="58.589" cy="201.4" r="1.131"/><circle class="cls-5" cx="65.149" cy="201.4" r="1.131"/><circle class="cls-5" cx="75.441" cy="124.264" r="1.131"/><circle class="cls-5" cx="82.001" cy="124.264" r="1.131"/><circle class="cls-5" cx="88.561" cy="124.264" r="1.131"/><circle class="cls-5" cx="95.121" cy="124.264" r="1.131"/><circle class="cls-5" cx="101.681" cy="124.264" r="1.131"/><circle class="cls-5" cx="108.241" cy="124.264" r="1.131"/><circle class="cls-5" cx="114.801" cy="124.264" r="1.131"/><circle class="cls-5" cx="121.36" cy="124.264" r="1.131"/><circle class="cls-5" cx="72.048" cy="128.261" r="1.131"/><circle class="cls-5" cx="78.608" cy="128.261" r="1.131"/><circle class="cls-5" cx="85.168" cy="128.261" r="1.131"/><circle class="cls-5" cx="91.728" cy="128.261" r="1.131"/><circle class="cls-5" cx="98.288" cy="128.261" r="1.131"/><circle class="cls-5" cx="104.848" cy="128.261" r="1.131"/><circle class="cls-5" cx="111.407" cy="128.261" r="1.131"/><circle class="cls-5" cx="117.967" cy="128.261" r="1.131"/><circle class="cls-5" cx="75.441" cy="131.578" r="1.131"/><circle class="cls-5" cx="82.001" cy="131.578" r="1.131"/><circle class="cls-5" cx="88.561" cy="131.578" r="1.131"/><circle class="cls-5" cx="95.121" cy="131.578" r="1.131"/><circle class="cls-5" cx="101.681" cy="131.578" r="1.131"/><circle class="cls-5" cx="108.241" cy="131.578" r="1.131"/><circle class="cls-5" cx="114.801" cy="131.578" r="1.131"/><circle class="cls-5" cx="121.36" cy="131.578" r="1.131"/><circle class="cls-5" cx="72.048" cy="135.575" r="1.131"/><circle class="cls-5" cx="78.608" cy="135.575" r="1.131"/><circle class="cls-5" cx="85.168" cy="135.575" r="1.131"/><circle class="cls-5" cx="91.728" cy="135.575" r="1.131"/><circle class="cls-5" cx="98.288" cy="135.575" r="1.131"/><circle class="cls-5" cx="104.848" cy="135.575" r="1.131"/><circle class="cls-5" cx="111.407" cy="135.575" r="1.131"/><circle class="cls-5" cx="117.967" cy="135.575" r="1.131"/><circle class="cls-5" cx="75.441" cy="138.892" r="1.131"/><circle class="cls-5" cx="82.001" cy="138.892" r="1.131"/><circle class="cls-5" cx="88.561" cy="138.892" r="1.131"/><circle class="cls-5" cx="95.121" cy="138.892" r="1.131"/><circle class="cls-5" cx="101.681" cy="138.892" r="1.131"/><circle class="cls-5" cx="108.241" cy="138.892" r="1.131"/><circle class="cls-5" cx="114.801" cy="138.892" r="1.131"/><circle class="cls-5" cx="121.36" cy="138.892" r="1.131"/><circle class="cls-5" cx="72.048" cy="142.889" r="1.131"/><circle class="cls-5" cx="78.608" cy="142.889" r="1.131"/><circle class="cls-5" cx="85.168" cy="142.889" r="1.131"/><circle class="cls-5" cx="91.728" cy="142.889" r="1.131"/><circle class="cls-5" cx="98.288" cy="142.889" r="1.131"/><circle class="cls-5" cx="104.848" cy="142.889" r="1.131"/><circle class="cls-5" cx="111.407" cy="142.889" r="1.131"/><circle class="cls-5" cx="117.967" cy="142.889" r="1.131"/><circle class="cls-5" cx="75.441" cy="146.206" r="1.131"/><circle class="cls-5" cx="82.001" cy="146.206" r="1.131"/><circle class="cls-5" cx="88.561" cy="146.206" r="1.131"/><circle class="cls-5" cx="95.121" cy="146.206" r="1.131"/><circle class="cls-5" cx="101.681" cy="146.206" r="1.131"/><circle class="cls-5" cx="108.241" cy="146.206" r="1.131"/><circle class="cls-5" cx="114.801" cy="146.206" r="1.131"/><circle class="cls-5" cx="121.36" cy="146.206" r="1.131"/><circle class="cls-5" cx="72.048" cy="150.202" r="1.131"/><circle class="cls-5" cx="78.608" cy="150.202" r="1.131"/><circle class="cls-5" cx="85.168" cy="150.202" r="1.131"/><circle class="cls-5" cx="91.728" cy="150.202" r="1.131"/><circle class="cls-5" cx="98.288" cy="150.202" r="1.131"/><circle class="cls-5" cx="104.848" cy="150.202" r="1.131"/><circle class="cls-5" cx="111.407" cy="150.202" r="1.131"/><circle class="cls-5" cx="117.967" cy="150.202" r="1.131"/><circle class="cls-5" cx="75.441" cy="153.52" r="1.131"/><circle class="cls-5" cx="82.001" cy="153.52" r="1.131"/><circle class="cls-5" cx="88.561" cy="153.52" r="1.131"/><circle class="cls-5" cx="95.121" cy="153.52" r="1.131"/><circle class="cls-5" cx="101.681" cy="153.52" r="1.131"/><circle class="cls-5" cx="108.241" cy="153.52" r="1.131"/><circle class="cls-5" cx="114.801" cy="153.52" r="1.131"/><circle class="cls-5" cx="121.36" cy="153.52" r="1.131"/><circle class="cls-5" cx="72.048" cy="157.516" r="1.131"/><circle class="cls-5" cx="78.608" cy="157.516" r="1.131"/><circle class="cls-5" cx="85.168" cy="157.516" r="1.131"/><circle class="cls-5" cx="91.728" cy="157.516" r="1.131"/><circle class="cls-5" cx="98.288" cy="157.516" r="1.131"/><circle class="cls-5" cx="104.848" cy="157.516" r="1.131"/><circle class="cls-5" cx="111.407" cy="157.516" r="1.131"/><circle class="cls-5" cx="117.967" cy="157.516" r="1.131"/><circle class="cls-5" cx="75.441" cy="160.834" r="1.131"/><circle class="cls-5" cx="82.001" cy="160.834" r="1.131"/><circle class="cls-5" cx="88.561" cy="160.834" r="1.131"/><circle class="cls-5" cx="95.121" cy="160.834" r="1.131"/><circle class="cls-5" cx="101.681" cy="160.834" r="1.131"/><circle class="cls-5" cx="108.241" cy="160.834" r="1.131"/><circle class="cls-5" cx="114.801" cy="160.834" r="1.131"/><circle class="cls-5" cx="121.36" cy="160.834" r="1.131"/><circle class="cls-5" cx="72.048" cy="164.83" r="1.131"/><circle class="cls-5" cx="78.608" cy="164.83" r="1.131"/><circle class="cls-5" cx="85.168" cy="164.83" r="1.131"/><circle class="cls-5" cx="91.728" cy="164.83" r="1.131"/><circle class="cls-5" cx="98.288" cy="164.83" r="1.131"/><circle class="cls-5" cx="104.848" cy="164.83" r="1.131"/><circle class="cls-5" cx="111.407" cy="164.83" r="1.131"/><circle class="cls-5" cx="117.967" cy="164.83" r="1.131"/><circle class="cls-5" cx="75.441" cy="168.148" r="1.131"/><circle class="cls-5" cx="82.001" cy="168.148" r="1.131"/><circle class="cls-5" cx="88.561" cy="168.148" r="1.131"/><circle class="cls-5" cx="95.121" cy="168.148" r="1.131"/><circle class="cls-5" cx="101.681" cy="168.148" r="1.131"/><circle class="cls-5" cx="108.241" cy="168.148" r="1.131"/><circle class="cls-5" cx="114.801" cy="168.148" r="1.131"/><circle class="cls-5" cx="121.36" cy="168.148" r="1.131"/><circle class="cls-5" cx="72.048" cy="172.144" r="1.131"/><circle class="cls-5" cx="78.608" cy="172.144" r="1.131"/><circle class="cls-5" cx="85.168" cy="172.144" r="1.131"/><circle class="cls-5" cx="91.728" cy="172.144" r="1.131"/><circle class="cls-5" cx="98.288" cy="172.144" r="1.131"/><circle class="cls-5" cx="104.848" cy="172.144" r="1.131"/><circle class="cls-5" cx="111.407" cy="172.144" r="1.131"/><circle class="cls-5" cx="117.967" cy="172.144" r="1.131"/><circle class="cls-5" cx="75.441" cy="175.462" r="1.131"/><circle class="cls-5" cx="82.001" cy="175.462" r="1.131"/><circle class="cls-5" cx="88.561" cy="175.462" r="1.131"/><circle class="cls-5" cx="95.121" cy="175.462" r="1.131"/><circle class="cls-5" cx="101.681" cy="175.462" r="1.131"/><circle class="cls-5" cx="108.241" cy="175.462" r="1.131"/><circle class="cls-5" cx="114.801" cy="175.462" r="1.131"/><circle class="cls-5" cx="121.36" cy="175.462" r="1.131"/><circle class="cls-5" cx="72.048" cy="179.458" r="1.131"/><circle class="cls-5" cx="78.608" cy="179.458" r="1.131"/><circle class="cls-5" cx="85.168" cy="179.458" r="1.131"/><circle class="cls-5" cx="91.728" cy="179.458" r="1.131"/><circle class="cls-5" cx="98.288" cy="179.458" r="1.131"/><circle class="cls-5" cx="104.848" cy="179.458" r="1.131"/><circle class="cls-5" cx="111.407" cy="179.458" r="1.131"/><circle class="cls-5" cx="117.967" cy="179.458" r="1.131"/><circle class="cls-5" cx="75.441" cy="182.776" r="1.131"/><circle class="cls-5" cx="82.001" cy="182.776" r="1.131"/><circle class="cls-5" cx="88.561" cy="182.776" r="1.131"/><circle class="cls-5" cx="95.121" cy="182.776" r="1.131"/><circle class="cls-5" cx="101.681" cy="182.776" r="1.131"/><circle class="cls-5" cx="108.241" cy="182.776" r="1.131"/><circle class="cls-5" cx="114.801" cy="182.776" r="1.131"/><circle class="cls-5" cx="121.36" cy="182.776" r="1.131"/><circle class="cls-5" cx="72.048" cy="186.772" r="1.131"/><circle class="cls-5" cx="78.608" cy="186.772" r="1.131"/><circle class="cls-5" cx="85.168" cy="186.772" r="1.131"/><circle class="cls-5" cx="91.728" cy="186.772" r="1.131"/><circle class="cls-5" cx="98.288" cy="186.772" r="1.131"/><circle class="cls-5" cx="104.848" cy="186.772" r="1.131"/><circle class="cls-5" cx="111.407" cy="186.772" r="1.131"/><circle class="cls-5" cx="117.967" cy="186.772" r="1.131"/><circle class="cls-5" cx="75.441" cy="190.09" r="1.131"/><circle class="cls-5" cx="82.001" cy="190.09" r="1.131"/><circle class="cls-5" cx="88.561" cy="190.09" r="1.131"/><circle class="cls-5" cx="95.121" cy="190.09" r="1.131"/><circle class="cls-5" cx="101.681" cy="190.09" r="1.131"/><circle class="cls-5" cx="108.241" cy="190.09" r="1.131"/><circle class="cls-5" cx="114.801" cy="190.09" r="1.131"/><circle class="cls-5" cx="121.36" cy="190.09" r="1.131"/><circle class="cls-5" cx="72.048" cy="194.086" r="1.131"/><circle class="cls-5" cx="78.608" cy="194.086" r="1.131"/><circle class="cls-5" cx="85.168" cy="194.086" r="1.131"/><circle class="cls-5" cx="91.728" cy="194.086" r="1.131"/><circle class="cls-5" cx="98.288" cy="194.086" r="1.131"/><circle class="cls-5" cx="104.848" cy="194.086" r="1.131"/><circle class="cls-5" cx="111.407" cy="194.086" r="1.131"/><circle class="cls-5" cx="117.967" cy="194.086" r="1.131"/><circle class="cls-5" cx="75.441" cy="197.404" r="1.131"/><circle class="cls-5" cx="82.001" cy="197.404" r="1.131"/><circle class="cls-5" cx="88.561" cy="197.404" r="1.131"/><circle class="cls-5" cx="95.121" cy="197.404" r="1.131"/><circle class="cls-5" cx="101.681" cy="197.404" r="1.131"/><circle class="cls-5" cx="108.241" cy="197.404" r="1.131"/><circle class="cls-5" cx="114.801" cy="197.404" r="1.131"/><circle class="cls-5" cx="121.36" cy="197.404" r="1.131"/><circle class="cls-5" cx="72.048" cy="201.4" r="1.131"/><circle class="cls-5" cx="78.608" cy="201.4" r="1.131"/><circle class="cls-5" cx="85.168" cy="201.4" r="1.131"/><circle class="cls-5" cx="91.728" cy="201.4" r="1.131"/><circle class="cls-5" cx="98.288" cy="201.4" r="1.131"/><circle class="cls-5" cx="104.848" cy="201.4" r="1.131"/><circle class="cls-5" cx="111.407" cy="201.4" r="1.131"/><circle class="cls-5" cx="117.967" cy="201.4" r="1.131"/><circle class="cls-5" cx="2.942" cy="43.132" r="1.131"/><circle class="cls-5" cx="9.502" cy="43.132" r="1.131"/><circle class="cls-5" cx="16.062" cy="43.132" r="1.131"/><circle class="cls-5" cx="22.622" cy="43.132" r="1.131"/><circle class="cls-5" cx="29.182" cy="43.132" r="1.131"/><circle class="cls-5" cx="35.742" cy="43.132" r="1.131"/><circle class="cls-5" cx="42.302" cy="43.132" r="1.131"/><circle class="cls-5" cx="48.862" cy="43.132" r="1.131"/><circle class="cls-5" cx="55.422" cy="43.132" r="1.131"/><circle class="cls-5" cx="61.982" cy="43.132" r="1.131"/><circle class="cls-5" cx="68.542" cy="43.132" r="1.131"/><circle class="cls-5" cx="-.451" cy="47.129" r="1.131"/><circle class="cls-5" cx="6.109" cy="47.129" r="1.131"/><circle class="cls-5" cx="12.669" cy="47.129" r="1.131"/><circle class="cls-5" cx="19.229" cy="47.129" r="1.131"/><circle class="cls-5" cx="25.789" cy="47.129" r="1.131"/><circle class="cls-5" cx="32.349" cy="47.129" r="1.131"/><circle class="cls-5" cx="38.909" cy="47.129" r="1.131"/><circle class="cls-5" cx="45.469" cy="47.129" r="1.131"/><circle class="cls-5" cx="52.029" cy="47.129" r="1.131"/><circle class="cls-5" cx="58.589" cy="47.129" r="1.131"/><circle class="cls-5" cx="65.149" cy="47.129" r="1.131"/><circle class="cls-5" cx="2.942" cy="50.446" r="1.131"/><circle class="cls-5" cx="9.502" cy="50.446" r="1.131"/><circle class="cls-5" cx="16.062" cy="50.446" r="1.131"/><circle class="cls-5" cx="22.622" cy="50.446" r="1.131"/><circle class="cls-5" cx="29.182" cy="50.446" r="1.131"/><circle class="cls-5" cx="35.742" cy="50.446" r="1.131"/><circle class="cls-5" cx="42.302" cy="50.446" r="1.131"/><circle class="cls-5" cx="48.862" cy="50.446" r="1.131"/><circle class="cls-5" cx="55.422" cy="50.446" r="1.131"/><circle class="cls-5" cx="61.982" cy="50.446" r="1.131"/><circle class="cls-5" cx="68.542" cy="50.446" r="1.131"/><circle class="cls-5" cx="-.451" cy="54.443" r="1.131"/><circle class="cls-5" cx="6.109" cy="54.443" r="1.131"/><circle class="cls-5" cx="12.669" cy="54.443" r="1.131"/><circle class="cls-5" cx="19.229" cy="54.443" r="1.131"/><circle class="cls-5" cx="25.789" cy="54.443" r="1.131"/><circle class="cls-5" cx="32.349" cy="54.443" r="1.131"/><circle class="cls-5" cx="38.909" cy="54.443" r="1.131"/><circle class="cls-5" cx="45.469" cy="54.443" r="1.131"/><circle class="cls-5" cx="52.029" cy="54.443" r="1.131"/><circle class="cls-5" cx="58.589" cy="54.443" r="1.131"/><circle class="cls-5" cx="65.149" cy="54.443" r="1.131"/><circle class="cls-5" cx="2.942" cy="57.76" r="1.131"/><circle class="cls-5" cx="9.502" cy="57.76" r="1.131"/><circle class="cls-5" cx="16.062" cy="57.76" r="1.131"/><circle class="cls-5" cx="22.622" cy="57.76" r="1.131"/><circle class="cls-5" cx="29.182" cy="57.76" r="1.131"/><circle class="cls-5" cx="35.742" cy="57.76" r="1.131"/><circle class="cls-5" cx="42.302" cy="57.76" r="1.131"/><circle class="cls-5" cx="48.862" cy="57.76" r="1.131"/><circle class="cls-5" cx="55.422" cy="57.76" r="1.131"/><circle class="cls-5" cx="61.982" cy="57.76" r="1.131"/><circle class="cls-5" cx="68.542" cy="57.76" r="1.131"/><circle class="cls-5" cx="-.451" cy="61.757" r="1.131"/><circle class="cls-5" cx="6.109" cy="61.757" r="1.131"/><circle class="cls-5" cx="12.669" cy="61.757" r="1.131"/><circle class="cls-5" cx="19.229" cy="61.757" r="1.131"/><circle class="cls-5" cx="25.789" cy="61.757" r="1.131"/><circle class="cls-5" cx="32.349" cy="61.757" r="1.131"/><circle class="cls-5" cx="38.909" cy="61.757" r="1.131"/><circle class="cls-5" cx="45.469" cy="61.757" r="1.131"/><circle class="cls-5" cx="52.029" cy="61.757" r="1.131"/><circle class="cls-5" cx="58.589" cy="61.757" r="1.131"/><circle class="cls-5" cx="65.149" cy="61.757" r="1.131"/><circle class="cls-5" cx="2.942" cy="65.074" r="1.131"/><circle class="cls-5" cx="9.502" cy="65.074" r="1.131"/><circle class="cls-5" cx="16.062" cy="65.074" r="1.131"/><circle class="cls-5" cx="22.622" cy="65.074" r="1.131"/><circle class="cls-5" cx="29.182" cy="65.074" r="1.131"/><circle class="cls-5" cx="35.742" cy="65.074" r="1.131"/><circle class="cls-5" cx="42.302" cy="65.074" r="1.131"/><circle class="cls-5" cx="48.862" cy="65.074" r="1.131"/><circle class="cls-5" cx="55.422" cy="65.074" r="1.131"/><circle class="cls-5" cx="61.982" cy="65.074" r="1.131"/><circle class="cls-5" cx="68.542" cy="65.074" r="1.131"/><circle class="cls-5" cx="-.451" cy="69.07" r="1.131"/><circle class="cls-5" cx="6.109" cy="69.07" r="1.131"/><circle class="cls-5" cx="12.669" cy="69.07" r="1.131"/><circle class="cls-5" cx="19.229" cy="69.07" r="1.131"/><circle class="cls-5" cx="25.789" cy="69.07" r="1.131"/><circle class="cls-5" cx="32.349" cy="69.07" r="1.131"/><circle class="cls-5" cx="38.909" cy="69.07" r="1.131"/><circle class="cls-5" cx="45.469" cy="69.07" r="1.131"/><circle class="cls-5" cx="52.029" cy="69.07" r="1.131"/><circle class="cls-5" cx="58.589" cy="69.07" r="1.131"/><circle class="cls-5" cx="65.149" cy="69.07" r="1.131"/><circle class="cls-5" cx="2.942" cy="72.388" r="1.131"/><circle class="cls-5" cx="9.502" cy="72.388" r="1.131"/><circle class="cls-5" cx="16.062" cy="72.388" r="1.131"/><circle class="cls-5" cx="22.622" cy="72.388" r="1.131"/><circle class="cls-5" cx="29.182" cy="72.388" r="1.131"/><circle class="cls-5" cx="35.742" cy="72.388" r="1.131"/><circle class="cls-5" cx="42.302" cy="72.388" r="1.131"/><circle class="cls-5" cx="48.862" cy="72.388" r="1.131"/><circle class="cls-5" cx="55.422" cy="72.388" r="1.131"/><circle class="cls-5" cx="61.982" cy="72.388" r="1.131"/><circle class="cls-5" cx="68.542" cy="72.388" r="1.131"/><circle class="cls-5" cx="-.451" cy="76.384" r="1.131"/><circle class="cls-5" cx="6.109" cy="76.384" r="1.131"/><circle class="cls-5" cx="12.669" cy="76.384" r="1.131"/><circle class="cls-5" cx="19.229" cy="76.384" r="1.131"/><circle class="cls-5" cx="25.789" cy="76.384" r="1.131"/><circle class="cls-5" cx="32.349" cy="76.384" r="1.131"/><circle class="cls-5" cx="38.909" cy="76.384" r="1.131"/><circle class="cls-5" cx="45.469" cy="76.384" r="1.131"/><circle class="cls-5" cx="52.029" cy="76.384" r="1.131"/><circle class="cls-5" cx="58.589" cy="76.384" r="1.131"/><circle class="cls-5" cx="65.149" cy="76.384" r="1.131"/><circle class="cls-5" cx="2.942" cy="79.702" r="1.131"/><circle class="cls-5" cx="9.502" cy="79.702" r="1.131"/><circle class="cls-5" cx="16.062" cy="79.702" r="1.131"/><circle class="cls-5" cx="22.622" cy="79.702" r="1.131"/><circle class="cls-5" cx="29.182" cy="79.702" r="1.131"/><circle class="cls-5" cx="35.742" cy="79.702" r="1.131"/><circle class="cls-5" cx="42.302" cy="79.702" r="1.131"/><circle class="cls-5" cx="48.862" cy="79.702" r="1.131"/><circle class="cls-5" cx="55.422" cy="79.702" r="1.131"/><circle class="cls-5" cx="61.982" cy="79.702" r="1.131"/><circle class="cls-5" cx="68.542" cy="79.702" r="1.131"/><circle class="cls-5" cx="-.451" cy="83.698" r="1.131"/><circle class="cls-5" cx="6.109" cy="83.698" r="1.131"/><circle class="cls-5" cx="12.669" cy="83.698" r="1.131"/><circle class="cls-5" cx="19.229" cy="83.698" r="1.131"/><circle class="cls-5" cx="25.789" cy="83.698" r="1.131"/><circle class="cls-5" cx="32.349" cy="83.698" r="1.131"/><circle class="cls-5" cx="38.909" cy="83.698" r="1.131"/><circle class="cls-5" cx="45.469" cy="83.698" r="1.131"/><circle class="cls-5" cx="52.029" cy="83.698" r="1.131"/><circle class="cls-5" cx="58.589" cy="83.698" r="1.131"/><circle class="cls-5" cx="65.149" cy="83.698" r="1.131"/><circle class="cls-5" cx="2.942" cy="87.016" r="1.131"/><circle class="cls-5" cx="9.502" cy="87.016" r="1.131"/><circle class="cls-5" cx="16.062" cy="87.016" r="1.131"/><circle class="cls-5" cx="22.622" cy="87.016" r="1.131"/><circle class="cls-5" cx="29.182" cy="87.016" r="1.131"/><circle class="cls-5" cx="35.742" cy="87.016" r="1.131"/><circle class="cls-5" cx="42.302" cy="87.016" r="1.131"/><circle class="cls-5" cx="48.862" cy="87.016" r="1.131"/><circle class="cls-5" cx="55.422" cy="87.016" r="1.131"/><circle class="cls-5" cx="61.982" cy="87.016" r="1.131"/><circle class="cls-5" cx="68.542" cy="87.016" r="1.131"/><circle class="cls-5" cx="-.451" cy="91.012" r="1.131"/><circle class="cls-5" cx="6.109" cy="91.012" r="1.131"/><circle class="cls-5" cx="12.669" cy="91.012" r="1.131"/><circle class="cls-5" cx="19.229" cy="91.012" r="1.131"/><circle class="cls-5" cx="25.789" cy="91.012" r="1.131"/><circle class="cls-5" cx="32.349" cy="91.012" r="1.131"/><circle class="cls-5" cx="38.909" cy="91.012" r="1.131"/><circle class="cls-5" cx="45.469" cy="91.012" r="1.131"/><circle class="cls-5" cx="52.029" cy="91.012" r="1.131"/><circle class="cls-5" cx="58.589" cy="91.012" r="1.131"/><circle class="cls-5" cx="65.149" cy="91.012" r="1.131"/><circle class="cls-5" cx="2.942" cy="94.33" r="1.131"/><circle class="cls-5" cx="9.502" cy="94.33" r="1.131"/><circle class="cls-5" cx="16.062" cy="94.33" r="1.131"/><circle class="cls-5" cx="22.622" cy="94.33" r="1.131"/><circle class="cls-5" cx="29.182" cy="94.33" r="1.131"/><circle class="cls-5" cx="35.742" cy="94.33" r="1.131"/><circle class="cls-5" cx="42.302" cy="94.33" r="1.131"/><circle class="cls-5" cx="48.862" cy="94.33" r="1.131"/><circle class="cls-5" cx="55.422" cy="94.33" r="1.131"/><circle class="cls-5" cx="61.982" cy="94.33" r="1.131"/><circle class="cls-5" cx="68.542" cy="94.33" r="1.131"/><circle class="cls-5" cx="-.451" cy="98.326" r="1.131"/><circle class="cls-5" cx="6.109" cy="98.326" r="1.131"/><circle class="cls-5" cx="12.669" cy="98.326" r="1.131"/><circle class="cls-5" cx="19.229" cy="98.326" r="1.131"/><circle class="cls-5" cx="25.789" cy="98.326" r="1.131"/><circle class="cls-5" cx="32.349" cy="98.326" r="1.131"/><circle class="cls-5" cx="38.909" cy="98.326" r="1.131"/><circle class="cls-5" cx="45.469" cy="98.326" r="1.131"/><circle class="cls-5" cx="52.029" cy="98.326" r="1.131"/><circle class="cls-5" cx="58.589" cy="98.326" r="1.131"/><circle class="cls-5" cx="65.149" cy="98.326" r="1.131"/><circle class="cls-5" cx="2.942" cy="101.644" r="1.131"/><circle class="cls-5" cx="9.502" cy="101.644" r="1.131"/><circle class="cls-5" cx="16.062" cy="101.644" r="1.131"/><circle class="cls-5" cx="22.622" cy="101.644" r="1.131"/><circle class="cls-5" cx="29.182" cy="101.644" r="1.131"/><circle class="cls-5" cx="35.742" cy="101.644" r="1.131"/><circle class="cls-5" cx="42.302" cy="101.644" r="1.131"/><circle class="cls-5" cx="48.862" cy="101.644" r="1.131"/><circle class="cls-5" cx="55.422" cy="101.644" r="1.131"/><circle class="cls-5" cx="61.982" cy="101.644" r="1.131"/><circle class="cls-5" cx="68.542" cy="101.644" r="1.131"/><circle class="cls-5" cx="-.451" cy="105.64" r="1.131"/><circle class="cls-5" cx="6.109" cy="105.64" r="1.131"/><circle class="cls-5" cx="12.669" cy="105.64" r="1.131"/><circle class="cls-5" cx="19.229" cy="105.64" r="1.131"/><circle class="cls-5" cx="25.789" cy="105.64" r="1.131"/><circle class="cls-5" cx="32.349" cy="105.64" r="1.131"/><circle class="cls-5" cx="38.909" cy="105.64" r="1.131"/><circle class="cls-5" cx="45.469" cy="105.64" r="1.131"/><circle class="cls-5" cx="52.029" cy="105.64" r="1.131"/><circle class="cls-5" cx="58.589" cy="105.64" r="1.131"/><circle class="cls-5" cx="65.149" cy="105.64" r="1.131"/><circle class="cls-5" cx="2.942" cy="108.958" r="1.131"/><circle class="cls-5" cx="9.502" cy="108.958" r="1.131"/><circle class="cls-5" cx="16.062" cy="108.958" r="1.131"/><circle class="cls-5" cx="22.622" cy="108.958" r="1.131"/><circle class="cls-5" cx="29.182" cy="108.958" r="1.131"/><circle class="cls-5" cx="35.742" cy="108.958" r="1.131"/><circle class="cls-5" cx="42.302" cy="108.958" r="1.131"/><circle class="cls-5" cx="48.862" cy="108.958" r="1.131"/><circle class="cls-5" cx="55.422" cy="108.958" r="1.131"/><circle class="cls-5" cx="61.982" cy="108.958" r="1.131"/><circle class="cls-5" cx="68.542" cy="108.958" r="1.131"/><circle class="cls-5" cx="-.451" cy="112.954" r="1.131"/><circle class="cls-5" cx="6.109" cy="112.954" r="1.131"/><circle class="cls-5" cx="12.669" cy="112.954" r="1.131"/><circle class="cls-5" cx="19.229" cy="112.954" r="1.131"/><circle class="cls-5" cx="25.789" cy="112.954" r="1.131"/><circle class="cls-5" cx="32.349" cy="112.954" r="1.131"/><circle class="cls-5" cx="38.909" cy="112.954" r="1.131"/><circle class="cls-5" cx="45.469" cy="112.954" r="1.131"/><circle class="cls-5" cx="52.029" cy="112.954" r="1.131"/><circle class="cls-5" cx="58.589" cy="112.954" r="1.131"/><circle class="cls-5" cx="65.149" cy="112.954" r="1.131"/><circle class="cls-5" cx="2.942" cy="116.272" r="1.131"/><circle class="cls-5" cx="9.502" cy="116.272" r="1.131"/><circle class="cls-5" cx="16.062" cy="116.272" r="1.131"/><circle class="cls-5" cx="22.622" cy="116.272" r="1.131"/><circle class="cls-5" cx="29.182" cy="116.272" r="1.131"/><circle class="cls-5" cx="35.742" cy="116.272" r="1.131"/><circle class="cls-5" cx="42.302" cy="116.272" r="1.131"/><circle class="cls-5" cx="48.862" cy="116.272" r="1.131"/><circle class="cls-5" cx="55.422" cy="116.272" r="1.131"/><circle class="cls-5" cx="61.982" cy="116.272" r="1.131"/><circle class="cls-5" cx="68.542" cy="116.272" r="1.131"/><circle class="cls-5" cx="-.451" cy="120.268" r="1.131"/><circle class="cls-5" cx="6.109" cy="120.268" r="1.131"/><circle class="cls-5" cx="12.669" cy="120.268" r="1.131"/><circle class="cls-5" cx="19.229" cy="120.268" r="1.131"/><circle class="cls-5" cx="25.789" cy="120.268" r="1.131"/><circle class="cls-5" cx="32.349" cy="120.268" r="1.131"/><circle class="cls-5" cx="38.909" cy="120.268" r="1.131"/><circle class="cls-5" cx="45.469" cy="120.268" r="1.131"/><circle class="cls-5" cx="52.029" cy="120.268" r="1.131"/><circle class="cls-5" cx="58.589" cy="120.268" r="1.131"/><circle class="cls-5" cx="65.149" cy="120.268" r="1.131"/><circle class="cls-5" cx="75.441" cy="43.132" r="1.131"/><circle class="cls-5" cx="82.001" cy="43.132" r="1.131"/><circle class="cls-5" cx="88.561" cy="43.132" r="1.131"/><circle class="cls-5" cx="95.121" cy="43.132" r="1.131"/><circle class="cls-5" cx="101.681" cy="43.132" r="1.131"/><circle class="cls-5" cx="108.241" cy="43.132" r="1.131"/><circle class="cls-5" cx="114.801" cy="43.132" r="1.131"/><circle class="cls-5" cx="121.36" cy="43.132" r="1.131"/><circle class="cls-5" cx="72.048" cy="47.129" r="1.131"/><circle class="cls-5" cx="78.608" cy="47.129" r="1.131"/><circle class="cls-5" cx="85.168" cy="47.129" r="1.131"/><circle class="cls-5" cx="91.728" cy="47.129" r="1.131"/><circle class="cls-5" cx="98.288" cy="47.129" r="1.131"/><circle class="cls-5" cx="104.848" cy="47.129" r="1.131"/><circle class="cls-5" cx="111.407" cy="47.129" r="1.131"/><circle class="cls-5" cx="117.967" cy="47.129" r="1.131"/><circle class="cls-5" cx="75.441" cy="50.446" r="1.131"/><circle class="cls-5" cx="82.001" cy="50.446" r="1.131"/><circle class="cls-5" cx="88.561" cy="50.446" r="1.131"/><circle class="cls-5" cx="95.121" cy="50.446" r="1.131"/><circle class="cls-5" cx="101.681" cy="50.446" r="1.131"/><circle class="cls-5" cx="108.241" cy="50.446" r="1.131"/><circle class="cls-5" cx="114.801" cy="50.446" r="1.131"/><circle class="cls-5" cx="121.36" cy="50.446" r="1.131"/><circle class="cls-5" cx="72.048" cy="54.443" r="1.131"/><circle class="cls-5" cx="78.608" cy="54.443" r="1.131"/><circle class="cls-5" cx="85.168" cy="54.443" r="1.131"/><circle class="cls-5" cx="91.728" cy="54.443" r="1.131"/><circle class="cls-5" cx="98.288" cy="54.443" r="1.131"/><circle class="cls-5" cx="104.848" cy="54.443" r="1.131"/><circle class="cls-5" cx="111.407" cy="54.443" r="1.131"/><circle class="cls-5" cx="117.967" cy="54.443" r="1.131"/><circle class="cls-5" cx="75.441" cy="57.76" r="1.131"/><circle class="cls-5" cx="82.001" cy="57.76" r="1.131"/><circle class="cls-5" cx="88.561" cy="57.76" r="1.131"/><circle class="cls-5" cx="95.121" cy="57.76" r="1.131"/><circle class="cls-5" cx="101.681" cy="57.76" r="1.131"/><circle class="cls-5" cx="108.241" cy="57.76" r="1.131"/><circle class="cls-5" cx="114.801" cy="57.76" r="1.131"/><circle class="cls-5" cx="121.36" cy="57.76" r="1.131"/><circle class="cls-5" cx="72.048" cy="61.757" r="1.131"/><circle class="cls-5" cx="78.608" cy="61.757" r="1.131"/><circle class="cls-5" cx="85.168" cy="61.757" r="1.131"/><circle class="cls-5" cx="91.728" cy="61.757" r="1.131"/><circle class="cls-5" cx="98.288" cy="61.757" r="1.131"/><circle class="cls-5" cx="104.848" cy="61.757" r="1.131"/><circle class="cls-5" cx="111.407" cy="61.757" r="1.131"/><circle class="cls-5" cx="117.967" cy="61.757" r="1.131"/><circle class="cls-5" cx="75.441" cy="65.074" r="1.131"/><circle class="cls-5" cx="82.001" cy="65.074" r="1.131"/><circle class="cls-5" cx="88.561" cy="65.074" r="1.131"/><circle class="cls-5" cx="95.121" cy="65.074" r="1.131"/><circle class="cls-5" cx="101.681" cy="65.074" r="1.131"/><circle class="cls-5" cx="108.241" cy="65.074" r="1.131"/><circle class="cls-5" cx="114.801" cy="65.074" r="1.131"/><circle class="cls-5" cx="121.36" cy="65.074" r="1.131"/><circle class="cls-5" cx="72.048" cy="69.07" r="1.131"/><circle class="cls-5" cx="78.608" cy="69.07" r="1.131"/><circle class="cls-5" cx="85.168" cy="69.07" r="1.131"/><circle class="cls-5" cx="91.728" cy="69.07" r="1.131"/><circle class="cls-5" cx="98.288" cy="69.07" r="1.131"/><circle class="cls-5" cx="104.848" cy="69.07" r="1.131"/><circle class="cls-5" cx="111.407" cy="69.07" r="1.131"/><circle class="cls-5" cx="117.967" cy="69.07" r="1.131"/><circle class="cls-5" cx="75.441" cy="72.388" r="1.131"/><circle class="cls-5" cx="82.001" cy="72.388" r="1.131"/><circle class="cls-5" cx="88.561" cy="72.388" r="1.131"/><circle class="cls-5" cx="95.121" cy="72.388" r="1.131"/><circle class="cls-5" cx="101.681" cy="72.388" r="1.131"/><circle class="cls-5" cx="108.241" cy="72.388" r="1.131"/><circle class="cls-5" cx="114.801" cy="72.388" r="1.131"/><circle class="cls-5" cx="121.36" cy="72.388" r="1.131"/><circle class="cls-5" cx="72.048" cy="76.384" r="1.131"/><circle class="cls-5" cx="78.608" cy="76.384" r="1.131"/><circle class="cls-5" cx="85.168" cy="76.384" r="1.131"/><circle class="cls-5" cx="91.728" cy="76.384" r="1.131"/><circle class="cls-5" cx="98.288" cy="76.384" r="1.131"/><circle class="cls-5" cx="104.848" cy="76.384" r="1.131"/><circle class="cls-5" cx="111.407" cy="76.384" r="1.131"/><circle class="cls-5" cx="117.967" cy="76.384" r="1.131"/><circle class="cls-5" cx="75.441" cy="79.702" r="1.131"/><circle class="cls-5" cx="82.001" cy="79.702" r="1.131"/><circle class="cls-5" cx="88.561" cy="79.702" r="1.131"/><circle class="cls-5" cx="95.121" cy="79.702" r="1.131"/><circle class="cls-5" cx="101.681" cy="79.702" r="1.131"/><circle class="cls-5" cx="108.241" cy="79.702" r="1.131"/><circle class="cls-5" cx="114.801" cy="79.702" r="1.131"/><circle class="cls-5" cx="121.36" cy="79.702" r="1.131"/><circle class="cls-5" cx="72.048" cy="83.698" r="1.131"/><circle class="cls-5" cx="78.608" cy="83.698" r="1.131"/><circle class="cls-5" cx="85.168" cy="83.698" r="1.131"/><circle class="cls-5" cx="91.728" cy="83.698" r="1.131"/><circle class="cls-5" cx="98.288" cy="83.698" r="1.131"/><circle class="cls-5" cx="104.848" cy="83.698" r="1.131"/><circle class="cls-5" cx="111.407" cy="83.698" r="1.131"/><circle class="cls-5" cx="117.967" cy="83.698" r="1.131"/><circle class="cls-5" cx="75.441" cy="87.016" r="1.131"/><circle class="cls-5" cx="82.001" cy="87.016" r="1.131"/><circle class="cls-5" cx="88.561" cy="87.016" r="1.131"/><circle class="cls-5" cx="95.121" cy="87.016" r="1.131"/><circle class="cls-5" cx="101.681" cy="87.016" r="1.131"/><circle class="cls-5" cx="108.241" cy="87.016" r="1.131"/><circle class="cls-5" cx="114.801" cy="87.016" r="1.131"/><circle class="cls-5" cx="121.36" cy="87.016" r="1.131"/><circle class="cls-5" cx="72.048" cy="91.012" r="1.131"/><circle class="cls-5" cx="78.608" cy="91.012" r="1.131"/><circle class="cls-5" cx="85.168" cy="91.012" r="1.131"/><circle class="cls-5" cx="91.728" cy="91.012" r="1.131"/><circle class="cls-5" cx="98.288" cy="91.012" r="1.131"/><circle class="cls-5" cx="104.848" cy="91.012" r="1.131"/><circle class="cls-5" cx="111.407" cy="91.012" r="1.131"/><circle class="cls-5" cx="117.967" cy="91.012" r="1.131"/><circle class="cls-5" cx="75.441" cy="94.33" r="1.131"/><circle class="cls-5" cx="82.001" cy="94.33" r="1.131"/><circle class="cls-5" cx="88.561" cy="94.33" r="1.131"/><circle class="cls-5" cx="95.121" cy="94.33" r="1.131"/><circle class="cls-5" cx="101.681" cy="94.33" r="1.131"/><circle class="cls-5" cx="108.241" cy="94.33" r="1.131"/><circle class="cls-5" cx="114.801" cy="94.33" r="1.131"/><circle class="cls-5" cx="121.36" cy="94.33" r="1.131"/><circle class="cls-5" cx="72.048" cy="98.326" r="1.131"/><circle class="cls-5" cx="78.608" cy="98.326" r="1.131"/><circle class="cls-5" cx="85.168" cy="98.326" r="1.131"/><circle class="cls-5" cx="91.728" cy="98.326" r="1.131"/><circle class="cls-5" cx="98.288" cy="98.326" r="1.131"/><circle class="cls-5" cx="104.848" cy="98.326" r="1.131"/><circle class="cls-5" cx="111.407" cy="98.326" r="1.131"/><circle class="cls-5" cx="117.967" cy="98.326" r="1.131"/><circle class="cls-5" cx="75.441" cy="101.644" r="1.131"/><circle class="cls-5" cx="82.001" cy="101.644" r="1.131"/><circle class="cls-5" cx="88.561" cy="101.644" r="1.131"/><circle class="cls-5" cx="95.121" cy="101.644" r="1.131"/><circle class="cls-5" cx="101.681" cy="101.644" r="1.131"/><circle class="cls-5" cx="108.241" cy="101.644" r="1.131"/><circle class="cls-5" cx="114.801" cy="101.644" r="1.131"/><circle class="cls-5" cx="121.36" cy="101.644" r="1.131"/><circle class="cls-5" cx="72.048" cy="105.64" r="1.131"/><circle class="cls-5" cx="78.608" cy="105.64" r="1.131"/><circle class="cls-5" cx="85.168" cy="105.64" r="1.131"/><circle class="cls-5" cx="91.728" cy="105.64" r="1.131"/><circle class="cls-5" cx="98.288" cy="105.64" r="1.131"/><circle class="cls-5" cx="104.848" cy="105.64" r="1.131"/><circle class="cls-5" cx="111.407" cy="105.64" r="1.131"/><circle class="cls-5" cx="117.967" cy="105.64" r="1.131"/><circle class="cls-5" cx="75.441" cy="108.958" r="1.131"/><circle class="cls-5" cx="82.001" cy="108.958" r="1.131"/><circle class="cls-5" cx="88.561" cy="108.958" r="1.131"/><circle class="cls-5" cx="95.121" cy="108.958" r="1.131"/><circle class="cls-5" cx="101.681" cy="108.958" r="1.131"/><circle class="cls-5" cx="108.241" cy="108.958" r="1.131"/><circle class="cls-5" cx="114.801" cy="108.958" r="1.131"/><circle class="cls-5" cx="121.36" cy="108.958" r="1.131"/><circle class="cls-5" cx="72.048" cy="112.954" r="1.131"/><circle class="cls-5" cx="78.608" cy="112.954" r="1.131"/><circle class="cls-5" cx="85.168" cy="112.954" r="1.131"/><circle class="cls-5" cx="91.728" cy="112.954" r="1.131"/><circle class="cls-5" cx="98.288" cy="112.954" r="1.131"/><circle class="cls-5" cx="104.848" cy="112.954" r="1.131"/><circle class="cls-5" cx="111.407" cy="112.954" r="1.131"/><circle class="cls-5" cx="117.967" cy="112.954" r="1.131"/><circle class="cls-5" cx="75.441" cy="116.272" r="1.131"/><circle class="cls-5" cx="82.001" cy="116.272" r="1.131"/><circle class="cls-5" cx="88.561" cy="116.272" r="1.131"/><circle class="cls-5" cx="95.121" cy="116.272" r="1.131"/><circle class="cls-5" cx="101.681" cy="116.272" r="1.131"/><circle class="cls-5" cx="108.241" cy="116.272" r="1.131"/><circle class="cls-5" cx="114.801" cy="116.272" r="1.131"/><circle class="cls-5" cx="121.36" cy="116.272" r="1.131"/><circle class="cls-5" cx="72.048" cy="120.268" r="1.131"/><circle class="cls-5" cx="78.608" cy="120.268" r="1.131"/><circle class="cls-5" cx="85.168" cy="120.268" r="1.131"/><circle class="cls-5" cx="91.728" cy="120.268" r="1.131"/><circle class="cls-5" cx="98.288" cy="120.268" r="1.131"/><circle class="cls-5" cx="104.848" cy="120.268" r="1.131"/><circle class="cls-5" cx="111.407" cy="120.268" r="1.131"/><circle class="cls-5" cx="117.967" cy="120.268" r="1.131"/></g><ellipse class="cls-6" cx="83.092" cy="39.798" rx="3.277" ry="5.244" transform="translate(-8.185 52.313) rotate(-33.4)"/><ellipse class="cls-6" cx="86.911" cy="47.615" rx="3.277" ry="5.244" transform="translate(-11.04 32.571) rotate(-19.985)"/><ellipse class="cls-6" cx="91.016" cy="55.329" rx="3.277" ry="5.244" transform="translate(-13.429 34.438) rotate(-19.985)"/><ellipse class="cls-6" cx="96.89" cy="62.399" rx="3.277" ry="5.244" transform="translate(-16.487 83.059) rotate(-43.11)"/><ellipse class="cls-6" cx="41.188" cy="38.65" rx="3.277" ry="5.244" transform="translate(-7.843 10.611) rotate(-13.416)"/><ellipse class="cls-6" cx="42.106" cy="47.302" rx="3.277" ry="5.244"/><ellipse class="cls-6" cx="43.327" cy="55.954" rx="3.277" ry="5.244"/><ellipse class="cls-6" cx="46.432" cy="64.606" rx="3.277" ry="5.244" transform="translate(-21.643 23.427) rotate(-23.125)"/><circle class="cls-6" cx="61.416" cy="27.637" r="23.638"/><polygon class="cls-5" points="60.509 64.259 67.27 73.331 78.633 51.664 60.509 64.259"/><polygon class="cls-5" points="59.631 64.002 53.391 72.147 43.614 52.721 59.631 64.002"/><rect class="cls-1" x="42.305" y="8.759" width="36.984" height="55.646" rx="18.492" ry="18.492" transform="translate(121.594 73.165) rotate(-180)"/><rect class="cls-3" x="42.305" y="8.759" width="36.984" height="55.646" rx="18.492" ry="18.492" transform="translate(121.594 73.165) rotate(-180)"/><path class="cls-3" d="m53.928,117.032c-2.623,0-5.077-1.638-5.993-4.253-1.159-3.31.585-6.932,3.895-8.091,29.345-10.272,30.552-25.496,30.556-25.647.091-3.506,3.006-6.286,6.511-6.183,3.506.09,6.274,3.006,6.183,6.511-.018.692-.329,6.984-5.668,14.688-6.637,9.576-17.87,17.185-33.387,22.617-.694.243-1.402.358-2.098.358Z"/><circle class="cls-6" cx="63.002" cy="34.773" r="3.845"/><circle class="cls-6" cx="47.847" cy="34.773" r="3.845"/><polygon class="cls-3" points="44.018 29.617 53.349 34.706 68.731 30.465 59.569 28.429 44.018 29.617"/><path class="cls-6" d="m59.267,19.833s-12.441,11.536-19.227,11.989l4.75-20.132,14.025-5.655,13.346,2.036,11.084,16.061-1.81,9.727s-20.811-5.429-22.168-14.025Z"/><path class="cls-4" d="m28.894,124.088h61.417v49.287c0,16.948-13.76,30.709-30.709,30.709h0c-16.948,0-30.709-13.76-30.709-30.709v-49.287h0Z" transform="translate(119.205 328.171) rotate(-180)"/></svg>