<?xml version="1.0" encoding="UTF-8"?><svg id="Layer_1" xmlns="http://www.w3.org/2000/svg" viewBox="0 0 160 300"><defs><style>.cls-1{fill:#748486;}.cls-1,.cls-2,.cls-3,.cls-4,.cls-5,.cls-6,.cls-7,.cls-8,.cls-9,.cls-10,.cls-11{stroke-width:0px;}.cls-1,.cls-8{opacity:.33;}.cls-2{fill:#ebc07c;}.cls-3{fill:#eb614a;}.cls-4{fill:#f5e7c9;}.cls-5{fill:#e5e5e4;}.cls-6{fill:#f3e6af;}.cls-7{fill:#efd97a;}.cls-8{fill:#777588;}.cls-9{fill:#242155;}.cls-10{fill:#fff;opacity:.35;}.cls-11{fill:#e98a4a;}</style></defs><rect class="cls-11" x="2.81" y="24.735" width="154.38" height="256.09"/><path class="cls-2" d="m104.46,245.995c-9.24,13.4-18.67,27.2-23.65,34.83H30.05l63.69-45.38c6.96-4.97,15.57,3.51,10.72,10.55Z"/><path class="cls-2" d="m60.516,59.567c9.24-13.4,18.67-27.2,23.65-34.83h50.76l-63.69,45.38c-6.96,4.97-15.57-3.51-10.72-10.55Z"/><polygon class="cls-7" points="157.19 39.935 157.19 155.385 2.81 265.625 2.81 150.175 157.19 39.935"/><polygon class="cls-6" points="157.19 61.083 157.19 154.896 2.81 244.476 2.81 150.663 157.19 61.083"/><path class="cls-3" d="m110.439,142.422c.163-2.437.292-4.887.35-7.324.071-2.428,0-4.858-.21-7.277-.089-1.148-.337-2.278-.735-3.359-.222-.536-.501-.84-.875-.91-.49-.038-.98.081-1.4.338-1.01.584-1.943,1.293-2.776,2.111-.886.805-1.749,1.668-2.601,2.531-2.437,2.554-4.665,5.283-6.998,8.059,1.389.703,2.722,1.51,3.989,2.414-3.06-1.369-6.228-2.484-9.47-3.335-3.168-.869-6.431-1.342-9.715-1.411-3.302.049-6.585.507-9.773,1.365-3.243.851-6.41,1.967-9.47,3.335,1.267-.905,2.6-1.712,3.989-2.414-2.239-2.752-4.572-5.505-6.974-8.059-.851-.863-1.703-1.726-2.589-2.531-.835-.815-1.767-1.524-2.776-2.111-.421-.254-.909-.372-1.4-.338-.373.07-.665.373-.875.91-.402,1.095-.65,2.242-.735,3.405-.216,2.419-.286,4.85-.21,7.277,0,2.437.175,4.887.338,7.324.233,3.382.548,6.764.921,10.135.551-1.541,1.234-3.032,2.041-4.455-2.322,4.755-3.375,10.031-3.056,15.313l.128,1.959c.07.653.21,1.295.303,1.936,0,.175.058.35.093.525,1.539,0,3.091.105,4.665.257,2.717.267,5.406.77,8.036,1.504,1.318.362,2.612.781,3.895,1.248,1.27.483,2.508,1.044,3.709,1.679-1.271-.455-2.566-.863-3.86-1.166s-2.601-.7-3.919-.968c-2.625-.57-5.281-.991-7.954-1.26-1.446-.14-2.892-.257-4.338-.315.187.781.42,1.563.618,2.333.14.408.292.816.443,1.166,1.539-.035,3.091-.035,4.723-.035,2.404.095,4.798.371,7.161.828,2.37.429,4.685,1.118,6.904,2.053-2.307-.558-4.643-.987-6.998-1.283-2.333-.292-4.665-.536-7.079-.595-1.469-.058-2.939-.07-4.408,0,.443,1.134.953,2.24,1.528,3.312,1.469-.187,2.951-.292,4.42-.35,2.134-.068,4.27.022,6.391.268,2.121.217,4.212.658,6.239,1.318-2.099-.303-4.21-.443-6.309-.548s-4.199-.128-6.286,0c-1.318,0-2.624.128-3.93.222.152.257.292.525.455.77,1.375,2.2,3.016,4.221,4.887,6.018.935.897,1.928,1.731,2.974,2.496,1.038.773,2.125,1.479,3.254,2.111,9.232,5.101,20.438,5.101,29.67,0,1.129-.632,2.216-1.337,3.254-2.111,1.044-.768,2.037-1.601,2.974-2.496,1.871-1.797,3.512-3.818,4.887-6.018.163-.245.303-.513.455-.77-1.306-.093-2.612-.175-3.93-.222-2.099-.082-4.187,0-6.286,0s-4.21.245-6.309.548c2.027-.66,4.119-1.101,6.239-1.318,2.121-.247,4.257-.336,6.391-.268,1.469,0,2.951.163,4.408.35.58-1.07,1.09-2.177,1.528-3.312h-4.397c-2.333,0-4.665.303-7.079.595-2.355.296-4.691.725-6.998,1.283,2.216-.933,4.527-1.622,6.893-2.053,2.351-.454,4.733-.73,7.126-.828h4.77c.152-.397.303-.805.432-1.166.21-.781.443-1.563.63-2.333-1.446,0-2.892.175-4.338.315-2.688.263-5.36.68-8.001,1.248-1.318.268-2.624.606-3.919.968s-2.589.758-3.86,1.166c1.2-.637,2.438-1.198,3.709-1.679,1.283-.467,2.577-.886,3.895-1.248,2.626-.733,5.311-1.237,8.024-1.504,1.539-.152,3.091-.233,4.665-.257,0-.175.07-.35.093-.525.093-.641.233-1.283.303-1.936l.128-1.959c.32-5.282-.733-10.558-3.056-15.313.802,1.43,1.485,2.924,2.041,4.467.385-3.324.7-6.718.921-10.1Z"/><path class="cls-9" d="m52.487,147.064c-2.324,4.759-3.377,10.038-3.056,15.325l.128,1.948c.07.653.21,1.295.303,1.936.64,3.865,2.061,7.559,4.175,10.858,1.375,2.2,3.016,4.221,4.887,6.018.932.901,1.925,1.735,2.974,2.496,1.035.777,2.122,1.483,3.254,2.111,9.228,5.117,20.442,5.117,29.67,0,1.132-.628,2.219-1.333,3.254-2.111,1.046-.764,2.04-1.598,2.974-2.496,1.871-1.797,3.512-3.818,4.887-6.018,2.099-3.306,3.518-6.997,4.175-10.858.093-.641.233-1.283.303-1.936l.128-1.948c.321-5.286-.732-10.566-3.056-15.325,2.639,4.678,3.976,9.978,3.872,15.348l-.07,2.018c0,.665-.175,1.33-.257,1.994-.186,1.334-.458,2.655-.816,3.954-.742,2.597-1.812,5.09-3.184,7.417-2.763,4.702-6.718,8.592-11.464,11.278-4.753,2.69-10.109,4.135-15.57,4.199-5.469-.06-10.833-1.504-15.593-4.199-14.784-8.383-20.093-27.085-11.919-41.985v-.023Z"/><path class="cls-9" d="m65.235,135.716h.14c-2.041-3.155-4.285-6.174-6.718-9.039-1.568-2.002-3.524-3.668-5.75-4.898-.651-.355-1.399-.494-2.134-.397-.206.055-.406.134-.595.233-.175.112-.339.241-.49.385l-.35.455-.233.478c-.482,1.196-.781,2.458-.886,3.744-.25,2.468-.355,4.949-.315,7.429,0,2.461.117,4.922.245,7.382.28,4.922.665,9.82,1.166,14.73h.257c0-.14.058-.268.093-.408s0-.373,0-.56c.037-.416.103-.829.198-1.236l.21-.921c.082-.379.207-.746.373-1.096-.385-3.499-.711-6.998-.956-10.555-.163-2.437-.292-4.887-.338-7.324-.067-2.444.015-4.89.245-7.324.086-1.164.334-2.31.735-3.405.21-.525.501-.84.875-.91.49-.028.977.09,1.4.338,1.011.587,1.944,1.301,2.776,2.123.886.805,1.738,1.656,2.589,2.531,2.542,2.647,4.898,5.481,7.207,8.362l.257-.117Z"/><path class="cls-9" d="m79.999,167.229s-5.073,0-5.073,2.577,5.073,5.621,5.073,5.621c0,0,5.073-3.102,5.073-5.621s-5.073-2.577-5.073-2.577Z"/><path class="cls-9" d="m84.14,181.609c-2.75,0-4.98-2.23-4.98-4.98h0v-2.671c0-.457.369-.829.827-.829s.829.369.829.827v2.697c.006,1.833,1.491,3.317,3.324,3.324.877-.001,1.717-.354,2.333-.98.351-.293.873-.246,1.166.106.256.307.256.753,0,1.061-.928.927-2.187,1.447-3.499,1.446Z"/><path class="cls-9" d="m75.836,181.609c-1.314,0-2.574-.524-3.499-1.458-.293-.351-.246-.873.106-1.166.307-.256.753-.256,1.061,0,.615.626,1.455.978,2.333.98,1.833-.006,3.317-1.491,3.324-3.324v-2.682c0-.457.369-.829.827-.829s.829.369.829.827v2.697c-.013,2.741-2.239,4.957-4.98,4.957Z"/><path class="cls-9" d="m89.761,171.497c1.199-.641,2.438-1.206,3.709-1.691,1.283-.455,2.577-.886,3.895-1.248,5.271-1.447,10.744-2.011,16.199-1.668,1.365,0,2.717.245,4.059.42.676.07,1.341.233,2.006.362l1.994.42c-2.706-.222-5.388-.432-8.082-.42-2.687-.033-5.374.091-8.047.373-2.689.267-5.36.688-8.001,1.26-1.318.268-2.624.606-3.919.968s-2.542.758-3.814,1.225Z"/><path class="cls-9" d="m89.936,174.11c2.218-.928,4.528-1.616,6.893-2.053,4.739-.905,9.586-1.089,14.38-.548,1.166.105,2.333.338,3.499.536s2.333.536,3.499.851c-2.333-.257-4.747-.513-7.126-.618-2.379-.105-4.735-.128-7.103,0-2.368.128-4.665.303-7.079.595-2.341.288-4.665.7-6.963,1.236Z"/><path class="cls-9" d="m89.866,176.734c2.029-.654,4.12-1.096,6.239-1.318,4.244-.495,8.538-.373,12.747.362,1.05.152,2.088.42,3.126.653,1.038.233,2.041.583,3.056.921-2.111-.292-4.199-.606-6.286-.805s-4.187-.35-6.286-.42c-2.099-.07-4.187,0-6.286,0s-4.21.303-6.309.606Z"/><path class="cls-9" d="m70.214,171.497c-1.271-.467-2.566-.875-3.86-1.166s-2.601-.7-3.919-.968c-2.625-.57-5.281-.991-7.954-1.26-2.673-.282-5.36-.407-8.047-.373-2.694,0-5.376.198-8.082.42.653-.148,1.318-.288,1.994-.42.665-.128,1.33-.292,2.006-.362,1.341-.175,2.694-.373,4.059-.42,5.455-.341,10.929.222,16.199,1.668,1.318.362,2.612.793,3.895,1.248,1.268.468,2.507,1.013,3.709,1.633Z"/><path class="cls-9" d="m70.04,174.11c-2.308-.552-4.644-.98-6.998-1.283-2.333-.292-4.665-.536-7.079-.595-2.414-.058-4.735-.093-7.103,0-2.368.093-4.735.362-7.126.618,1.166-.315,2.333-.606,3.499-.851,1.166-.245,2.333-.432,3.499-.536,4.79-.541,9.634-.357,14.368.548,2.382.448,4.709,1.151,6.939,2.099Z"/><path class="cls-9" d="m70.109,176.734c-2.099-.303-4.21-.432-6.309-.548-2.099-.117-4.199-.128-6.286,0-2.088.128-4.199.187-6.286.42-2.088.233-4.175.513-6.286.805,1.015-.338,2.029-.653,3.056-.921,1.026-.268,2.076-.501,3.126-.653,4.208-.742,8.502-.872,12.747-.385,2.119.211,4.21.641,6.239,1.283Z"/><path class="cls-9" d="m111.757,126.655c-.112-1.284-.41-2.546-.886-3.744l-.233-.478-.315-.455c-.146-.144-.307-.273-.478-.385-.189-.1-.388-.178-.595-.233-.739-.094-1.489.044-2.146.397-2.22,1.234-4.171,2.899-5.738,4.898-2.488,2.924-4.776,6.014-6.846,9.248l.362.117c2.333-2.951,4.77-5.831,7.359-8.56.851-.875,1.714-1.726,2.601-2.531.829-.825,1.762-1.538,2.776-2.123.423-.249.91-.367,1.4-.338.373.07.653.385.875.91.386,1.102.618,2.252.688,3.417.21,2.42.28,4.85.21,7.277-.058,2.437-.187,4.887-.35,7.324-.233,3.499-.56,7.103-.956,10.636.074.146.137.299.187.455,0,.128,0,.268.082.408.07.362.222.711.315,1.073s.152.816.245,1.225.117.653.152.991h.198c.501-4.91.886-9.808,1.166-14.73.128-2.461.233-4.922.245-7.382.04-2.476-.065-4.953-.315-7.417Z"/><path class="cls-9" d="m99.231,137.921c-3.06-1.369-6.228-2.484-9.47-3.335-3.184-.858-6.464-1.313-9.762-1.353-3.301.045-6.584.499-9.773,1.353-3.243.851-6.41,1.967-9.47,3.335,2.788-1.968,5.854-3.508,9.097-4.572,3.266-1.131,6.691-1.734,10.146-1.784,3.456.051,6.881.653,10.146,1.784,3.238,1.067,6.299,2.607,9.085,4.572Z"/><path class="cls-9" d="m137.776,143.822c-1.796-4.852-7.627-7.872-16.899-8.747l-.058,1.33c8.619.805,14.217,3.604,15.768,7.872,1.866,5.167-2.239,12.432-11.254,19.943-9.33,7.767-22.824,15.068-38.02,20.573-31.232,11.278-59.794,11.453-63.853.397-2.811-7.779,7.557-19.546,26.299-30.089-.072-.428-.011-.867.175-1.26l-.152-.222c-19.838,10.916-30.661,23.512-27.57,32.025,2.181,6.041,10.625,9.073,22.637,9.073,11.721,0,26.824-2.892,42.848-8.677,15.348-5.598,28.993-12.934,38.428-20.759,9.622-8.047,13.75-15.651,11.651-21.459Z"/><circle class="cls-9" cx="120.818" cy="135.74" r="4.175"/><path class="cls-9" d="m110.707,156.791c0,.175-.082.35-.128.525.038.059.069.121.093.187.113.22.169.464.163.711,0,.272-.023.54-.07.805,11.768,15.243,16.106,28.422,11.044,34.253-3.604,4.14-11.954,4.082-22.905-.152-11.313-4.362-24.258-12.677-36.399-23.244-12.141-10.566-22.159-22.299-27.99-32.9-5.831-10.263-6.998-18.52-3.394-22.66,2.986-3.429,9.225-4.012,17.552-1.656l.362-1.283c-8.98-2.542-15.523-1.831-18.917,2.064-4.059,4.665-2.939,13.249,3.137,24.177,5.925,10.741,16.024,22.555,28.328,33.273,12.304,10.718,25.413,19.045,36.842,23.547,7.814,2.962,14.228,3.919,18.893,2.834,2.108-.429,4.025-1.52,5.47-3.114,5.68-6.508.921-20.993-12.082-37.367Z"/><circle class="cls-9" cx="48.849" cy="112.03" r="4.175"/><path class="cls-9" d="m99.686,153.747c-1.717-1.092-3.63-1.836-5.633-2.193-3.382-.56-7.138-.198-7.464,1.563-.105.548.327,1.166,1.166,1.796.774.499,1.625.865,2.519,1.085.924.251,1.898.251,2.822,0,.338-.14.653-.397.303-.851h0c-.07-.034-.145-.057-.222-.07-.077-.017-.156-.017-.233,0-.304.177-.652.262-1.003.245-.54-.017-1.072-.127-1.574-.327h0c-.166-.077-.326-.167-.478-.268-.653-.443-.828-.956-.49-1.423h0c.676-.793,2.939-.875,4.735-.536h0c1.391.252,2.718.775,3.907,1.539,2.029,1.388,2.181,3.044.362,3.954h0c-2.333,1.038-5.971,1.096-9.867.163h-.082l-.676-.21c1.073.536,2.198.958,3.359,1.26,5.633,1.469,9.202-.21,10.1-.98,1.26-1.376.688-3.219-1.551-4.747Z"/><path class="cls-9" d="m97.936,156.371c.105-.548-.327-1.166-1.166-1.784-.769-.509-1.622-.88-2.519-1.096-.924-.251-1.898-.251-2.822,0-.327.14-.653.397-.292.851q.241.303,0,0c.067.04.143.064.222.07.077.01.156.01.233,0,.296-.184.643-.27.991-.245.54.004,1.074.111,1.574.315h0c.166.077.326.167.478.268.653.443.828.956.49,1.434h0c-.676.793-2.939.875-4.665.536h0c-1.391-.252-2.718-.775-3.907-1.539-2.029-1.388-2.181-3.044-.362-3.954h0c2.333-1.038,5.96-1.096,9.855-.163h.082l.676.198c-1.073-.497-2.195-.88-3.347-1.143-5.633-1.469-9.19.21-10.1.98-1.33,1.295-.746,3.114,1.481,4.665h0c1.725,1.086,3.647,1.823,5.656,2.169,3.359.56,7.114.198,7.441-1.563Z"/><circle class="cls-4" cx="100.059" cy="155.1" r="1.808"/><circle class="cls-4" cx="89.773" cy="149.933" r="1.096"/><path class="cls-9" d="m60.29,153.747c1.717-1.092,3.63-1.836,5.633-2.193,3.382-.56,7.138-.198,7.464,1.563.105.548-.327,1.166-1.166,1.796-.775.497-1.626.863-2.519,1.085-.924.251-1.898.251-2.822,0-.338-.14-.653-.397-.303-.851h0c.07-.034.145-.057.222-.07.077-.017.156-.017.233,0,.303.179.652.264,1.003.245.536-.015,1.065-.126,1.563-.327h0c.166-.077.326-.167.478-.268.641-.443.816-.956.49-1.423h0c-.676-.793-2.951-.875-4.735-.536h0c-1.391.252-2.718.775-3.907,1.539-2.029,1.388-2.181,3.044-.362,3.954h0c2.333,1.038,5.96,1.096,9.867.163h.082l.676-.21c-1.073.536-2.198.958-3.359,1.26-5.633,1.469-9.202-.21-10.1-.98-1.26-1.376-.676-3.219,1.563-4.747Z"/><path class="cls-9" d="m62.027,156.371c-.093-.548.338-1.166,1.166-1.784.766-.507,1.615-.878,2.507-1.096.928-.251,1.906-.251,2.834,0,.327.14.653.397.292.851h0c-.067.04-.143.064-.222.07-.077.011-.156.011-.233,0-.3-.186-.651-.271-1.003-.245-.536.005-1.066.112-1.563.315h0c-.166.077-.326.167-.478.268-.653.443-.828.956-.49,1.434h0c.676.793,2.939.875,4.665.536h0c1.395-.25,2.727-.773,3.919-1.539,2.029-1.388,2.181-3.044.362-3.954h0c-2.274-1.038-5.96-1.096-9.855-.163h-.082l-.688.198c1.078-.495,2.203-.878,3.359-1.143,5.633-1.469,9.19.21,10.1.98,1.33,1.295.746,3.114-1.481,4.665h0c-1.718,1.083-3.632,1.82-5.633,2.169-3.382.56-7.138.198-7.476-1.563Z"/><circle class="cls-4" cx="59.916" cy="155.1" r="1.808"/><circle class="cls-4" cx="70.203" cy="149.933" r="1.096"/><path class="cls-9" d="m57.84,142.772l.07.653c.031.349.305.627.653.665l.653.07h-.653c-.348.038-.622.316-.653.665l-.07.653v-.595c-.037-.351-.314-.628-.665-.665h-.653l.653-.07c.351-.037.628-.314.665-.665v-.711Z"/><path class="cls-9" d="m70.669,138.457l.128,1.166c.063.676.596,1.213,1.271,1.283l1.26.117-1.26.128c-.676.06-1.212.595-1.271,1.271l-.128,1.283-.128-1.26c-.06-.676-.595-1.212-1.271-1.271l-1.26-.128,1.26-.117c.684-.071,1.219-.621,1.271-1.306l.128-1.166Z"/><path class="cls-9" d="m92.408,161.479l.128,1.248c.063.676.596,1.213,1.271,1.283l1.26.117-1.26.128c-.674.064-1.207.597-1.271,1.271l-.128,1.26-.117-1.26c-.068-.672-.6-1.203-1.271-1.271l-1.26-.14,1.26-.117c.674-.074,1.204-.609,1.271-1.283l.117-1.236Z"/><path class="cls-9" d="m101.447,143.705v.63c.037.336.305.599.641.63l.63.07h-.63c-.334.035-.6.296-.641.63v.63-.63c-.041-.333-.307-.594-.641-.63h-.63l.63-.07c.336-.031.604-.294.641-.63v-.63Z"/><path class="cls-9" d="m57.84,160.779l.058.595c.036.319.288.57.606.606h.595l-.595.058c-.321.032-.575.286-.606.606l-.058.653v-.595c-.027-.323-.283-.579-.606-.606l-.595-.058h.595c.319-.036.57-.288.606-.606v-.653Z"/><polygon class="cls-5" points="2.812 280.828 15.075 300.305 80 300.305 80 280.828 2.812 280.828"/><polygon class="cls-5" points="157.188 280.828 144.924 300.305 80 300.305 80 280.828 157.188 280.828"/><polygon class="cls-5" points="2.812 24.737 14.535 11.941 80 11.941 80 24.737 2.812 24.737"/><polygon class="cls-5" points="157.188 24.737 145.465 11.941 80 11.941 80 24.737 157.188 24.737"/><path class="cls-5" d="m145.155,11.941H14.845c-3.382,0-6.123-2.741-6.123-6.123h0C8.722,2.436,11.463-.305,14.845-.305h130.31c3.382,0,6.123,2.741,6.123,6.123h0c0,3.382-2.741,6.123-6.123,6.123Z"/><path class="cls-8" d="m151.22,5.018c-.006-.044-.013-.088-.02-.132-.039-.254-.091-.503-.16-.746h0c-.73-2.565-3.086-4.446-5.885-4.446h-38.594c3.382,0,6.123,2.741,6.123,6.123,0,.997-.243,1.936-.667,2.768H14.845c-2.799,0-5.155-1.881-5.885-4.446-.152.534-.238,1.095-.238,1.678h0c0,3.382,2.741,6.123,6.123,6.123h130.31c3.382,0,6.123-2.741,6.123-6.123h0c0-.272-.024-.537-.058-.8Z"/><path class="cls-10" d="m17.203,112.896c-1.131,4.973-.99,10.2-.841,15.348.855,29.595,1.709,59.19,2.564,88.785.169,5.84,1.129,12.994,6.074,15.148,4.173,1.818,8.937-1.47,10.852-5.885,1.916-4.414,1.737-9.572,1.557-14.5-1.033-28.221-.821-56.473.636-84.624.248-4.796.501-9.805-1.25-14.242-3.732-9.458-17.134-10.836-19.592-.032Z"/><path class="cls-10" d="m23.36,69.295c-.39-.775-1.064-.497-1.574-.046-3.177,2.811-4.874,10.631-3.68,16.955,1.194,6.325,5.103,10.224,8.477,8.455,3.374-1.769,5.715-8.945,5.077-15.562-.638-6.616-4.161-11.699-7.64-11.021l-.661,1.218Z"/><polygon class="cls-1" points="145.155 11.941 105.698 11.941 115.762 24.737 115.762 280.828 107.495 300.305 144.924 300.305 157.188 280.828 157.188 24.737 145.155 11.941"/></svg>