<?xml version="1.0" encoding="UTF-8"?><svg id="Layer_1" xmlns="http://www.w3.org/2000/svg" viewBox="0 0 160 300"><defs><style>.cls-1{fill:#5078d1;}.cls-1,.cls-2,.cls-3,.cls-4,.cls-5,.cls-6,.cls-7,.cls-8,.cls-9,.cls-10,.cls-11{stroke-width:0px;}.cls-2{fill:#6dbf3d;}.cls-3{fill:#f4bd40;}.cls-4{fill:#8dd821;}.cls-5{fill:#ced5d0;}.cls-6{fill:#f7e946;}.cls-7{fill:#b0e825;}.cls-8{fill:#dba63b;opacity:.3;}.cls-9{opacity:.2;}.cls-9,.cls-10{fill:#fff;}.cls-10{opacity:.35;}.cls-11{fill:#777589;opacity:.33;}</style></defs><rect class="cls-1" x="2.812" y="25.042" width="154.376" height="256.091"/><polygon class="cls-5" points="2.812 281.133 15.076 300.61 80 300.61 80 281.133 2.812 281.133"/><polygon class="cls-5" points="157.188 281.133 144.924 300.61 80 300.61 80 281.133 157.188 281.133"/><polygon class="cls-5" points="2.812 25.042 14.535 12.246 80 12.246 80 25.042 2.812 25.042"/><polygon class="cls-5" points="157.188 25.042 145.465 12.246 80 12.246 80 25.042 157.188 25.042"/><path class="cls-5" d="m145.155,12.246H14.845c-3.382,0-6.123-2.741-6.123-6.123h0c0-3.382,2.741-6.123,6.123-6.123h130.31c3.382,0,6.123,2.741,6.123,6.123h0c0,3.382-2.741,6.123-6.123,6.123Z"/><path class="cls-11" d="m151.22,5.323c-.006-.044-.013-.088-.02-.132-.039-.254-.091-.503-.16-.746h0c-.73-2.565-3.086-4.446-5.885-4.446h-38.594c3.382,0,6.123,2.741,6.123,6.123,0,.997-.243,1.936-.667,2.768H14.845c-2.799,0-5.155-1.881-5.885-4.446-.152.534-.238,1.095-.238,1.678h0c0,3.382,2.741,6.123,6.123,6.123h130.31c3.382,0,6.123-2.741,6.123-6.123h0c0-.272-.024-.537-.058-.8Z"/><path class="cls-10" d="m17.204,87.359c-1.131,4.973-.99,10.2-.841,15.348.855,29.595,1.709,59.19,2.564,88.785.169,5.84,1.129,12.994,6.074,15.148,4.173,1.818,8.937-1.47,10.852-5.885,1.916-4.414,1.737-9.572,1.557-14.5-1.033-28.221-.821-56.473.636-84.624.248-4.796.501-9.805-1.25-14.242-3.732-9.458-17.134-10.836-19.592-.032Z"/><path class="cls-10" d="m23.361,43.758c-.39-.775-1.064-.497-1.574-.046-3.177,2.811-4.874,10.631-3.68,16.955,1.194,6.325,5.103,10.224,8.477,8.455,3.374-1.769,5.715-8.945,5.077-15.562-.638-6.616-4.161-11.699-7.64-11.021l-.661,1.218Z"/><path class="cls-3" d="m76.354,96.865c-26.32,3.628-37.071,33.994-37.781,59.194-.71,25.2,8.931,54.284,42.318,54.267,35.035-.017,49.218-19.416,47.198-53.331-2.282-38.309-20.942-64.374-51.735-60.13Z"/><path class="cls-6" d="m46.044,129.038l12.45,6.198,13.862-7.056,12.77,5.945,11.65-5.829,9.793,4.676,11.075-6.408,4.736,1.433c-.888-2.389-1.873-4.667-2.952-6.827l-.254.296-9.727-5.779-8.582,5.588-8.418-7.227-7.835,8.381-11.746-7.733-7.992,5.929-9.745-5.475-9.172,7.061c-1.351,2.958-2.503,6.058-3.468,9.239l3.555-2.41Z"/><path class="cls-6" d="m128.159,158.281c-2.926-2.392-7.572-6.152-8.372-6.569-1.184-.616-10.277,8.362-10.277,8.362l-10.895-6.648-12.629,6.859-10.559-7.172-13.27,7.364-12.515-5.113-11.02,7.022c.174,4.061.637,8.151,1.44,12.138l7.507-5.089,12.449,6.198,13.862-7.056,12.77,5.945,11.65-5.829,9.793,4.676,11.075-6.408,8.862,2.681c.278-3.575.319-7.364.127-11.361Z"/><path class="cls-6" d="m119.771,172.169c-1.184-.616-10.277,8.362-10.277,8.362l-10.896-6.648-12.628,6.859-10.559-7.172-13.27,7.364-12.515-5.113-7.952,5.068c1.499,4.84,3.589,9.402,6.373,13.427l8.409-5.194,9.137,5.438,8.352-6.823,10.815,7.982,7.172-7.505,8.491,6.01,9.891-7.035,8.924,8.133c3.731-4.794,6.264-10.683,7.679-17.585-2.851-2.32-6.449-5.206-7.145-5.568Z"/><path class="cls-6" d="m110.157,194.812l-8.582,5.588-8.418-7.227-7.835,8.381-11.746-7.733-7.992,5.929-9.745-5.475-4.879,3.756c6.626,7.454,16.299,12.302,29.935,12.296,16.08-.008,27.764-4.101,35.508-11.804l-6.245-3.711Z"/><path class="cls-6" d="m55.745,109.994l9.137,5.438,8.351-6.823,10.815,7.982,7.172-7.505,8.491,6.01,9.891-7.035,3.622,3.301c-8.818-11.03-21.289-16.644-36.868-14.497-10.814,1.491-18.997,7.496-24.938,15.801l4.327-2.672Z"/><path class="cls-6" d="m60.035,155.176l13.862-7.056,12.77,5.945,11.65-5.829,9.793,4.676,11.075-6.408,8.164,2.47c-.519-4.115-1.242-8.057-2.165-11.801-2.816-2.289-6.261-5.048-6.94-5.401-1.184-.616-10.277,8.362-10.277,8.362l-10.896-6.648-12.629,6.859-10.559-7.172-13.27,7.364-12.515-5.113-7.816,4.981c-.944,4.912-1.49,9.87-1.674,14.659l8.975-6.085,12.45,6.198Z"/><path class="cls-8" d="m128.088,156.995c-2.154-36.169-18.911-61.419-46.691-60.555,2.451,1.502,4.764,3.087,6.944,5.029,5.844,5.206,10.058,11.066,12.776,18.479,6.798,18.543,6.629,39.778-2.416,57.685-4.208,8.331-10.478,15.236-19.25,18.6-5.082,1.949-10.194,2.153-15.591,2.066-4.247-.069-7.782-.844-11.721-2.333-1.447-.547-2.959-1.4-4.478-2.211,6.559,9.823,17.134,16.579,33.229,16.571,35.035-.017,49.218-19.416,47.198-53.331Z"/><path class="cls-2" d="m82.712,106.75c-13.03.02-22.443-3.665-22.443-3.665,0,0-3.685-8.637-11.864-12.525-6.658-3.165-18.111-1.231-18.111-1.231,0,0,.647-6.204,9.358-11.105,6.84-3.849,15.267-1.112,15.267-1.112,0,0-4.948-4.617-6.783-9.614-1.835-4.996-.656-14.391-.656-14.391,0,0,8.095.19,13.383,4.279,6.094,4.712,9.848,9.96,9.848,9.96,0,0,.884-5.647,1.876-8.572,2.777-8.197,13.336-16.293,13.336-16.293,0,0,5.662,8.092,6.926,11.141,2.634,6.352,3.473,12.696,3.095,13.894-.378,1.198,2.79-3.495,6.461-5.852,7.497-4.812,17.299-3.296,17.299-3.296,0,0,1.273,5.639-2.617,14.092-2.187,4.753-4.937,7.573-4.937,7.573,0,0,5.523-1.566,12.399,1.429,6.246,2.72,7.894,13.099,7.894,13.099,0,0-10.019-2.642-15.096-1.728-13.179,2.374-12.992,10.614-12.992,10.614,0,0-4.134,3.279-21.643,3.305Z"/><path class="cls-4" d="m102.081,85.78c1.556-5.243,5.557-11.735,7.605-16.619-3.206.31-8.905,3.387-11.32,5.393-2.252,1.87-4.176,3.984-5.804,6.719-.479-1.652-1.787-5.793-2.015-7.569-.738-5.745-4.866-12.61-6.954-15.233-2.202,2.909-4.332,6.931-5.647,10.396-1.506,3.971-1.429,7.746-1.972,11.952-3.053-3.801-6.851-6.915-10.929-9.574-2.977-1.941-6.259-3.524-9.189-5.424.817,1.552,2.486,8.268,2.924,9.761.956,3.255,2.538,6.272,4.632,8.946-2.305-.711-11.776-.182-13.688.692,4.57,1.281,7.485,3.881,10.807,7.402,2.255,2.391,4.653,7.741,5.442,12.018,4.009.966,9.866,2.121,16.737,2.111,8.945-.014,14.579-.832,17.786-1.808.021-.97-.099-1.916.153-2.535.796-1.95,1.59-3.97,2.749-5.738,2.821-4.305,7.013-8.559,12.553-8.394-4.686-2.559-8.735-2.737-13.872-2.495Z"/><path class="cls-7" d="m106.537,90.139c-3.323.671-6.159,1.794-9.279,3.092.787-2.268.824-4.627,1.756-6.93,1.051-2.597,2.55-5.089,3.563-7.649-2.358,1.766-7.489,5.233-11.722,12.834.346-3.994-3.858-19.599-5.454-22.525-1.781,7.321-4.429,14.116-4.571,21.885-2.318-3.31-8.927-14.064-16.429-14.904,1.084,2.4,3.252,4.559,4.278,7.023.87,2.09,1.787,4.154,2.177,6.354-1.644-.479-3.388-1.133-5.079-1.504-1.73-.38-3.272-.126-4.941-.039,1.507,1.036,3.073,1.58,4.383,2.98,1.272,1.36,2.358,3.181,3.21,4.815,1.49,2.856,2.615,7.024,2.675,10.238,3.557.642,8.008.974,12.878.966,6.74-.01,11.542-.777,14.844-1.378.161-1.958.485-3.692.964-5.588.848-3.355,3.361-8.62,6.745-9.671Z"/><path class="cls-9" d="m62.108,121.292c-3.196-1.05-8.938.432-11.853,8.246-1.736,4.653-3.245,9.764-1.126,14.492,1.731,3.863,5.991,5.788,8.91,1.602,2.375-3.406,2.018-8.485,3.238-12.38.973-3.109,6.201-10.197.831-11.961Z"/><polygon class="cls-11" points="145.155 12.246 105.698 12.246 115.763 25.042 115.763 281.133 107.495 300.61 144.924 300.61 157.188 281.133 157.188 25.042 145.155 12.246"/><path class="cls-6" d="m49.761,236.327c.208.074.421.159.639.258.217.098.442.192.675.28.233.089.476.164.731.225.254.061.525.092.813.092.337,0,.677-.04,1.02-.12.343-.079.678-.198,1.006-.354.327-.157.642-.346.942-.57.3-.224.576-.483.827-.777.276-.313.505-.596.689-.85.184-.254.332-.481.446-.68.113-.199.194-.371.243-.515.049-.144.073-.268.073-.372,0-.153-.052-.286-.156-.4-.104-.113-.244-.207-.418-.28-.175-.073-.372-.127-.593-.161-.221-.033-.45-.05-.689-.05-.141,0-.306.005-.496.014-.19.01-.383.018-.579.028-.196.009-.386.017-.57.023-.184.006-.343.009-.478.009-.202,0-.412-.023-.63-.069-.217-.046-.43-.121-.639-.226-.208-.104-.401-.245-.579-.423-.178-.177-.325-.398-.441-.662-.037-.086-.071-.187-.101-.303-.031-.116-.046-.242-.046-.377,0-.147.011-.286.032-.418.021-.132.047-.259.078-.382.086-.306.228-.617.427-.933.199-.315.438-.623.717-.924.279-.3.582-.591.91-.873.327-.282.665-.547,1.011-.795.346-.248.686-.472,1.02-.67.334-.199.645-.369.933-.51.404-.196.816-.338,1.236-.427.42-.089.835-.133,1.245-.133.245,0,.478.032.699.096.221.064.415.158.584.28.168.123.302.274.4.455.098.181.147.388.147.62,0,.135-.016.248-.046.34-.031.092-.071.167-.119.225-.049.059-.103.1-.161.124-.059.025-.118.037-.179.037-.165,0-.317-.018-.455-.055-.138-.037-.271-.078-.4-.124-.129-.046-.257-.089-.386-.129-.129-.04-.27-.06-.423-.06-.453,0-.914.091-1.383.271-.468.181-.925.41-1.369.689-.445.279-.864.59-1.259.933-.395.343-.749.677-1.061,1.002-.166.172-.286.343-.363.515-.077.172-.115.334-.115.487,0,.227.098.404.294.533.196.129.435.193.717.193.165,0,.352-.003.561-.009.208-.006.421-.014.639-.023.217-.01.428-.018.634-.028.205-.009.388-.014.547-.014.38,0,.744.054,1.094.161.349.107.659.265.928.474s.486.467.648.776c.162.31.244.664.244,1.062,0,.245-.037.493-.11.744-.073.251-.175.504-.303.758-.129.254-.276.505-.441.754-.165.248-.34.492-.524.731-.331.429-.7.834-1.108,1.213-.408.38-.841.711-1.3.993-.46.282-.945.506-1.457.671-.511.165-1.037.248-1.576.248-.233,0-.472-.022-.717-.064-.245-.043-.487-.106-.726-.188-.239-.083-.464-.187-.676-.312-.211-.125-.397-.268-.556-.428-.159-.159-.286-.336-.381-.528-.095-.193-.143-.403-.143-.63,0-.11.017-.216.05-.317.034-.101.118-.152.253-.152Z"/><path class="cls-6" d="m61.893,234.333c.135-.558.311-1.14.528-1.746.217-.606.446-1.225.685-1.857.239-.631.475-1.273.708-1.925.233-.653.432-1.304.598-1.953.043-.159.08-.306.11-.441.031-.135.061-.279.092-.432.073-.159.173-.282.299-.368.125-.086.262-.129.409-.129.135,0,.262.022.382.064.119.043.223.112.312.207.089.095.159.216.211.363.052.147.078.322.078.524,0,.221-.034.472-.101.754-.239.613-.481,1.213-.726,1.801-.245.588-.483,1.164-.712,1.728-.23.564-.443,1.121-.639,1.673-.196.551-.365,1.097-.506,1.636-.012.043-.037.136-.073.28-.037.144-.075.317-.115.519-.04.202-.075.418-.105.648-.031.229-.046.452-.046.666,0,.147.009.286.028.418.018.132.049.247.092.345.043.098.101.175.175.23.073.055.165.083.276.083.233,0,.518-.121.855-.363.337-.242.701-.571,1.094-.988.392-.417.795-.904,1.209-1.461.413-.558.816-1.155,1.208-1.792.392-.637.757-1.293,1.094-1.967.337-.674.622-1.339.855-1.995.055-.116.122-.191.202-.225.08-.034.184-.05.313-.05.239,0,.44.072.602.216.162.144.244.329.244.556,0,.055-.006.107-.018.156-.012.049-.031.107-.055.175l-.129.377c-.098.288-.192.553-.281.795-.089.242-.161.471-.216.685-.08.306-.144.587-.193.841-.049.254-.088.494-.115.717-.028.224-.046.443-.055.657-.01.215-.014.432-.014.653,0,.086.008.211.023.377.015.165.038.348.069.547.031.199.072.401.124.606.052.205.113.394.184.565.07.172.153.311.248.418.095.107.204.161.326.161.19,0,.39-.078.602-.234.211-.156.424-.37.639-.643.214-.272.43-.593.648-.96.217-.368.429-.763.634-1.186.205-.423.401-.861.588-1.314.187-.453.359-.902.515-1.346.157-.444.294-.873.414-1.287.119-.414.216-.792.289-1.135.067-.324.125-.64.175-.946.049-.306.098-.613.147-.919.049-.306.102-.614.161-.924.058-.309.13-.626.216-.951.03-.116.076-.236.138-.358.061-.122.136-.234.225-.335.089-.101.185-.184.29-.248.104-.064.211-.096.322-.096.276,0,.462.075.561.225.098.15.147.4.147.749,0,.258-.023.558-.069.901-.046.343-.104.703-.174,1.08-.071.376-.149.758-.234,1.144-.086.386-.172.751-.257,1.094-.172.698-.398,1.423-.68,2.174-.282.75-.596,1.483-.942,2.196-.347.714-.714,1.386-1.103,2.018-.389.631-.78,1.173-1.172,1.627-.135.159-.294.322-.478.487-.184.165-.382.316-.593.45-.211.135-.426.247-.643.336-.218.088-.428.133-.63.133-.423,0-.777-.124-1.062-.372-.285-.248-.518-.579-.698-.993-.181-.414-.319-.885-.414-1.415-.095-.53-.164-1.077-.207-1.641-.343.509-.657.962-.942,1.36-.285.399-.575.766-.869,1.103-.22.251-.469.522-.744.814-.276.291-.569.56-.878.809-.309.248-.626.453-.951.616-.325.162-.643.244-.956.244-.361,0-.663-.063-.905-.189-.242-.125-.436-.299-.584-.519-.147-.221-.252-.481-.317-.781-.064-.3-.096-.625-.096-.974,0-.404.034-.821.101-1.25.067-.429.153-.858.257-1.287Z"/><path class="cls-6" d="m78.767,237.77c0-.214.031-.441.092-.68.208-.833.452-1.649.73-2.449.279-.799.531-1.594.758-2.385.227-.79.415-1.457.565-1.999.15-.542.283-1.008.4-1.397.116-.389.224-.724.322-1.007.098-.282.205-.561.322-.836.073-.165.155-.337.243-.515.089-.178.185-.341.29-.492.104-.15.213-.273.326-.368.113-.095.231-.143.354-.143.251,0,.443.041.574.124.132.082.213.158.244.225l.083.377c.092-.006.211-.023.358-.05.147-.028.295-.057.446-.088.15-.03.289-.061.418-.092.129-.03.227-.058.294-.083.404-.11.778-.205,1.121-.285.343-.08.669-.145.979-.198.309-.052.605-.09.887-.115.282-.025.567-.037.855-.037.282,0,.512.016.689.046.177.031.318.072.423.124.104.052.176.114.216.184.039.071.059.146.059.225,0,.073-.02.152-.059.234-.04.083-.106.161-.198.234-.092.073-.211.138-.358.193-.147.055-.331.092-.551.11-.055.012-.182.036-.381.069-.199.034-.415.071-.648.11-.233.04-.454.078-.662.115-.209.037-.352.065-.432.083h.009c-.037.006-.124.029-.262.069-.138.04-.305.086-.501.138-.196.052-.409.112-.639.179-.229.068-.456.133-.68.198-.224.064-.43.125-.62.184-.19.058-.343.106-.46.142-.374.147-.667.342-.878.583-.212.242-.379.513-.501.814-.025.055-.061.148-.11.28-.049.132-.103.282-.161.45-.059.169-.121.348-.189.538-.067.19-.132.371-.193.542-.062.172-.115.328-.161.469-.046.141-.078.245-.096.313-.018.061-.031.117-.037.165-.006.049-.009.086-.009.11,0,.037.009.055.028.055.092,0,.283-.041.574-.124.291-.083.631-.185,1.02-.308.389-.122.805-.254,1.25-.395.444-.141.869-.273,1.277-.395.408-.122.771-.225,1.089-.308.318-.082.548-.124.689-.124.214,0,.358.036.432.106.074.071.11.149.11.234,0,.221-.078.414-.234.579-.156.165-.351.31-.584.432-.073.037-.21.091-.409.161-.199.07-.414.142-.643.216-.23.074-.449.144-.657.211-.208.068-.358.117-.45.147-.601.233-1.089.424-1.466.574-.377.15-.682.273-.914.368-.233.095-.412.167-.538.216-.126.049-.242.091-.349.124-.107.034-.226.066-.354.096-.129.031-.306.073-.533.129-.055.129-.12.323-.193.584-.074.26-.144.53-.211.809-.068.279-.124.538-.17.776-.046.239-.069.404-.069.496,0,.11.015.192.046.243.031.052.067.088.11.106.043.018.086.028.129.028h.101c.294,0,.648-.043,1.062-.129.414-.086.823-.199,1.227-.34.386-.135.723-.282,1.011-.441.288-.159.559-.308.813-.446.254-.138.502-.254.745-.349.242-.095.507-.145.795-.152.061,0,.133.006.216.018.082.012.161.036.234.069.073.034.133.078.179.133.046.055.063.126.051.211-.025.178-.114.352-.267.524-.153.172-.346.337-.579.496-.233.159-.494.313-.781.46-.288.147-.582.286-.882.418-.3.132-.595.252-.882.359-.288.107-.546.2-.772.28-.564.196-1.112.34-1.645.432-.533.092-1.011.138-1.434.138-.466,0-.823-.088-1.071-.262-.248-.175-.372-.464-.372-.869Z"/><path class="cls-6" d="m90.109,237.77c0-.214.031-.441.092-.68.208-.833.452-1.649.731-2.449.279-.799.532-1.594.758-2.385.227-.79.415-1.457.565-1.999.15-.542.283-1.008.4-1.397.116-.389.223-.724.322-1.007.098-.282.205-.561.322-.836.073-.165.155-.337.243-.515.089-.178.185-.341.29-.492.104-.15.213-.273.326-.368.113-.095.231-.143.354-.143.251,0,.442.041.574.124.132.082.213.158.244.225l.083.377c.092-.006.211-.023.358-.05.147-.028.295-.057.446-.088.15-.03.289-.061.418-.092.129-.03.227-.058.294-.083.404-.11.778-.205,1.121-.285.343-.08.669-.145.979-.198.309-.052.605-.09.887-.115.282-.025.567-.037.855-.037.282,0,.512.016.689.046.177.031.318.072.423.124.104.052.176.114.216.184.04.071.059.146.059.225,0,.073-.02.152-.059.234-.04.083-.106.161-.198.234-.092.073-.211.138-.358.193-.147.055-.331.092-.551.11-.055.012-.182.036-.381.069-.199.034-.415.071-.648.11-.233.04-.454.078-.662.115-.209.037-.352.065-.432.083h.009c-.037.006-.124.029-.262.069-.138.04-.305.086-.501.138-.196.052-.409.112-.639.179-.229.068-.456.133-.68.198-.224.064-.431.125-.62.184-.19.058-.343.106-.46.142-.374.147-.667.342-.878.583-.212.242-.379.513-.501.814-.025.055-.061.148-.11.28-.049.132-.103.282-.161.45-.059.169-.121.348-.189.538-.067.19-.132.371-.193.542-.062.172-.115.328-.161.469-.046.141-.078.245-.097.313-.018.061-.031.117-.037.165-.006.049-.009.086-.009.11,0,.037.009.055.027.055.092,0,.283-.041.574-.124.291-.083.631-.185,1.02-.308.389-.122.805-.254,1.25-.395.444-.141.87-.273,1.277-.395.408-.122.77-.225,1.089-.308.318-.082.548-.124.689-.124.214,0,.358.036.432.106.073.071.11.149.11.234,0,.221-.078.414-.234.579-.156.165-.351.31-.584.432-.073.037-.21.091-.409.161-.199.07-.414.142-.643.216-.23.074-.449.144-.657.211-.208.068-.358.117-.45.147-.601.233-1.089.424-1.466.574-.377.15-.682.273-.914.368-.233.095-.412.167-.538.216-.126.049-.242.091-.349.124-.107.034-.225.066-.354.096-.129.031-.306.073-.533.129-.055.129-.12.323-.193.584-.073.26-.144.53-.211.809-.067.279-.124.538-.17.776-.046.239-.069.404-.069.496,0,.11.015.192.046.243.03.052.067.088.11.106.043.018.086.028.129.028h.101c.294,0,.648-.043,1.061-.129.414-.086.823-.199,1.227-.34.386-.135.723-.282,1.011-.441.288-.159.559-.308.813-.446.254-.138.502-.254.745-.349.242-.095.507-.145.795-.152.061,0,.133.006.216.018.082.012.161.036.234.069.073.034.133.078.179.133.046.055.063.126.051.211-.025.178-.113.352-.267.524-.154.172-.347.337-.579.496-.233.159-.494.313-.781.46-.288.147-.582.286-.882.418-.3.132-.595.252-.882.359-.288.107-.545.2-.772.28-.564.196-1.112.34-1.645.432s-1.011.138-1.434.138c-.466,0-.823-.088-1.07-.262-.249-.175-.372-.464-.372-.869Z"/><path class="cls-6" d="m105.402,236.97c.233-1.017.495-2.043.786-3.079.291-1.035.574-2.062.85-3.079.116-.423.219-.807.308-1.154.089-.346.164-.66.225-.942.061-.282.107-.538.138-.767.03-.23.046-.442.046-.639v-.124c0-.046-.003-.103-.009-.17-.061,0-.198.034-.409.101-.211.068-.46.156-.745.267-.284.11-.585.234-.901.372-.316.138-.608.277-.878.418-.215.11-.394.202-.538.276s-.268.13-.372.17c-.104.04-.199.067-.285.082-.086.015-.175.023-.267.023-.19,0-.354-.073-.492-.221-.138-.147-.207-.337-.207-.57,0-.135.014-.252.041-.354.028-.101.07-.191.129-.271.058-.08.136-.155.234-.225.098-.07.217-.142.358-.216,1.55-.809,3.119-1.402,4.706-1.778,1.587-.377,3.18-.565,4.779-.565.129,0,.282.003.46.009.178.006.36.017.547.032.187.016.369.037.547.065.178.027.334.059.469.096.141.043.263.132.368.267.104.135.156.279.156.432,0,.122-.011.242-.032.358-.022.116-.059.218-.115.303-.055.086-.127.155-.216.207-.089.052-.197.078-.326.078-.22-.024-.473-.055-.758-.092-.285-.037-.571-.055-.859-.055-.576,0-1.15.014-1.723.041-.573.027-1.16.109-1.76.243-.031.012-.051.045-.06.096-.009.052-.017.118-.023.198-.018.331-.046.622-.083.873-.037.251-.087.502-.152.754-.065.251-.143.523-.234.814-.092.291-.199.64-.322,1.048-.123.408-.265.894-.427,1.461-.162.567-.342,1.252-.537,2.054l-.441,1.783c-.104.411-.186.78-.243,1.107-.059.328-.109.651-.152.97-.025.104-.118.202-.281.294-.162.092-.354.138-.574.138-.129,0-.245-.035-.349-.105-.104-.07-.19-.161-.258-.271-.067-.11-.113-.231-.138-.363-.025-.132-.018-.262.018-.39Z"/><path class="cls-6" d="m29.758,256.595c.024-.11.06-.214.106-.313.046-.098.097-.208.152-.331.055-.122.113-.268.175-.437.061-.168.122-.378.184-.63l.359-1.47c.086-.355.175-.718.267-1.089.092-.371.199-.789.322-1.255.098-.374.216-.764.354-1.172.138-.408.282-.829.432-1.264.15-.435.302-.882.455-1.342.153-.46.291-.934.414-1.425.006-.018.009-.043.009-.073,0-.049-.016-.08-.046-.092-.031-.012-.071-.018-.12-.018-.153,0-.28-.023-.381-.069-.101-.046-.181-.106-.239-.179-.058-.073-.099-.157-.124-.253-.025-.095-.037-.194-.037-.299,0-.269.032-.485.096-.648.064-.162.147-.288.248-.377.101-.089.211-.153.331-.193.12-.04.236-.072.349-.097.113-.024.213-.05.299-.078.086-.027.147-.078.184-.152.061-.129.118-.265.17-.409.052-.144.118-.277.198-.4.079-.122.177-.223.294-.303.116-.08.27-.12.46-.12.135,0,.254.037.359.11.104.073.194.165.271.276.077.11.142.229.198.354.055.126.104.241.147.345.631.018,1.178.055,1.641.11.462.055.81.104,1.043.147.46.086.92.215,1.383.386.462.172.879.394,1.25.666.371.273.674.594.91.965.236.371.354.795.354,1.273,0,.245-.027.499-.083.763l-.064.322c-.049.257-.152.496-.308.717-.157.221-.333.42-.529.598-.545.502-1.143.924-1.792,1.264-.65.34-1.327.627-2.031.859-.705.233-1.425.429-2.16.588s-1.461.31-2.178.45l-.258.037c-.141.018-.224.071-.248.156-.123.423-.219.794-.289,1.112-.071.319-.137.624-.198.914-.061.291-.123.583-.184.873-.061.291-.138.614-.23.969-.031.117-.086.254-.166.414-.08.159-.175.309-.285.45-.11.141-.238.262-.381.363-.144.101-.296.152-.455.152-.11,0-.205-.031-.285-.092-.08-.061-.146-.139-.198-.234-.052-.095-.092-.198-.119-.308-.028-.11-.041-.214-.041-.313v-.106c0-.033.006-.066.018-.096Zm3.649-6.792c-.012.043-.029.097-.051.161-.021.065-.041.132-.06.202-.018.071-.034.135-.046.193-.012.058-.018.1-.018.124,0,.031.005.057.014.078.009.022.029.032.06.032.018,0,.077-.008.175-.023.098-.015.216-.035.354-.06.138-.024.286-.052.446-.083.159-.031.312-.061.46-.092.398-.086.824-.194,1.277-.326.453-.132.905-.281,1.356-.446.45-.165.88-.343,1.291-.533.41-.19.775-.392,1.094-.607.337-.227.606-.453.809-.68.202-.227.303-.469.303-.726,0-.153-.02-.29-.06-.409-.04-.12-.084-.228-.133-.326-.184-.3-.414-.536-.689-.708-.276-.172-.576-.3-.901-.386-.325-.086-.665-.141-1.02-.165-.356-.024-.705-.037-1.048-.037-.092,0-.231.006-.418.018-.187.012-.383.028-.588.046-.206.018-.395.041-.57.069-.175.027-.293.059-.354.096-.031.018-.057.049-.078.092-.021.043-.038.08-.05.11-.049.123-.116.293-.202.51-.086.217-.178.461-.276.73-.098.27-.201.555-.308.855-.107.301-.21.593-.308.878-.098.285-.188.551-.271.8-.082.248-.145.452-.188.611Z"/><path class="cls-6" d="m43.489,251.751c.055-.239.121-.504.198-.795.077-.291.159-.593.248-.905.089-.313.179-.628.271-.947.092-.318.182-.625.271-.919.088-.294.17-.568.243-.822.074-.254.138-.471.193-.648.116-.398.227-.798.331-1.2.104-.401.205-.823.303-1.264.122-.239.288-.409.496-.51.208-.101.435-.152.68-.152.196.104.351.247.464.427.114.181.17.385.17.611,0,.159-.026.342-.078.547-.052.205-.118.426-.197.662-.08.236-.169.484-.267.744-.098.261-.193.528-.285.804-.172.502-.343,1.005-.515,1.507-.172.503-.34,1.032-.505,1.59-.043.147-.089.294-.138.441-.049.147-.1.306-.152.478-.052.172-.109.363-.17.575-.061.211-.123.455-.184.73-.073.325-.138.651-.193.979-.055.328-.107.657-.156.988-.049.331-.104.665-.166,1.002-.061.337-.135.677-.22,1.02-.031.122-.084.231-.161.326-.077.095-.164.176-.262.244-.098.067-.202.119-.312.156-.11.037-.215.055-.313.055s-.192-.008-.28-.023c-.089-.016-.158-.051-.207-.106-.073-.08-.132-.168-.175-.266-.043-.098-.064-.202-.064-.313,0-.03.001-.06.005-.087.003-.028.007-.057.014-.087l1.112-4.844Z"/><path class="cls-6" d="m50.658,245.906c.037-.159.083-.329.138-.51.055-.181.129-.346.221-.496s.211-.276.358-.377c.147-.101.334-.152.561-.152.214,0,.406.06.574.179.169.119.32.24.455.363.159.104.313.316.46.634.147.319.299.711.455,1.176.156.466.324.993.505,1.581.181.588.38,1.204.598,1.847.217.643.461,1.3.73,1.971.27.671.576,1.325.919,1.962.055.098.119.213.193.344.074.132.148.256.225.372.077.116.147.215.212.294.064.08.112.12.142.12.018,0,.04-.046.065-.138.024-.092.052-.202.083-.331.03-.129.063-.26.096-.395.033-.135.066-.245.097-.331.116-.282.243-.605.381-.97.138-.364.291-.805.46-1.324.168-.517.354-1.132.556-1.843.202-.711.426-1.553.671-2.527.061-.239.127-.51.198-.814.07-.303.138-.612.202-.928.065-.316.121-.623.17-.924.049-.3.083-.561.101-.781,0-.037.003-.101.009-.193.006-.092.017-.196.032-.313.015-.116.035-.237.06-.363.024-.125.057-.241.097-.345.04-.104.09-.19.151-.257.061-.067.135-.101.221-.101s.192.012.317.037c.125.025.241.062.345.11.116.159.222.351.317.575.095.224.143.525.143.905,0,.239-.025.526-.073.86-.049.334-.112.692-.188,1.075-.077.383-.163.777-.257,1.181-.095.404-.192.792-.29,1.163-.098.371-.192.711-.28,1.02-.089.309-.164.565-.225.767-.11.356-.225.721-.345,1.098-.12.377-.251.772-.395,1.185-.144.414-.3.852-.468,1.314-.169.463-.357.957-.565,1.484-.092.239-.198.478-.317.717-.12.239-.256.455-.409.648-.153.193-.326.349-.519.469-.193.12-.409.179-.648.179-.141,0-.286-.02-.437-.06-.15-.04-.277-.121-.381-.244-.502-.582-.95-1.242-1.342-1.98-.392-.738-.743-1.51-1.052-2.316-.309-.806-.584-1.621-.823-2.445-.239-.824-.457-1.613-.653-2.367l-.055-.211c-.025-.086-.047-.173-.069-.262-.022-.089-.043-.17-.064-.243-.022-.074-.046-.133-.074-.179-.028-.046-.06-.069-.096-.069-.037,0-.083.068-.138.202-.055.135-.11.286-.165.455-.055.169-.106.333-.152.492-.046.159-.075.261-.088.303-.043.159-.107.388-.193.685-.086.297-.183.633-.29,1.006-.107.374-.224.769-.349,1.186-.126.417-.247.819-.363,1.209-.116.389-.227.749-.331,1.08-.104.331-.19.598-.257.8-.055.159-.123.365-.202.616-.08.251-.159.504-.239.758-.08.254-.153.485-.22.694-.068.209-.11.347-.129.414-.073.233-.183.409-.326.529-.144.119-.289.179-.437.179-.092,0-.184-.032-.276-.096-.092-.064-.173-.142-.244-.234-.07-.092-.129-.192-.174-.299-.046-.107-.069-.204-.069-.29,0-.049.015-.127.046-.234.031-.107.08-.29.147-.547l.239-.947,2.72-8.805Z"/><path class="cls-6" d="m62.67,256.346c0-.214.03-.441.092-.68.208-.833.452-1.65.73-2.45.279-.799.531-1.594.758-2.385.227-.79.415-1.457.565-1.999.15-.543.283-1.008.4-1.397.116-.389.223-.724.322-1.007.098-.282.205-.561.322-.836.074-.165.155-.337.243-.515.089-.177.185-.341.29-.492.104-.15.213-.273.326-.368.113-.095.231-.143.354-.143.251,0,.443.041.574.124.132.082.213.158.244.225l.083.377c.092-.006.211-.023.358-.05.147-.028.295-.057.446-.088.15-.03.289-.061.418-.092.129-.03.227-.058.294-.083.404-.11.778-.205,1.121-.285.343-.08.669-.146.979-.198.309-.052.605-.09.887-.115.282-.024.567-.037.855-.037.282,0,.511.015.689.046.177.031.318.072.423.124.104.052.176.114.216.184.04.071.06.146.06.225,0,.073-.02.152-.06.234-.04.083-.106.161-.198.234-.092.074-.211.138-.358.193-.147.055-.331.092-.551.11-.055.012-.183.036-.381.069-.199.034-.415.07-.648.11-.233.04-.454.078-.662.115-.209.037-.352.064-.432.083h.009c-.037.006-.124.029-.262.069-.138.04-.305.086-.501.138-.196.052-.409.112-.639.179-.229.067-.456.133-.68.198-.224.064-.43.125-.62.184-.19.058-.343.106-.46.142-.374.147-.667.342-.878.583-.211.242-.379.513-.501.814-.025.055-.061.149-.11.281-.049.132-.103.282-.161.45-.059.169-.121.348-.189.538-.067.19-.132.371-.193.542-.061.172-.115.328-.161.469-.046.141-.078.245-.096.312-.018.061-.031.117-.037.165-.006.049-.009.086-.009.11,0,.037.009.055.028.055.092,0,.283-.041.574-.124.291-.083.631-.186,1.021-.308.389-.122.805-.254,1.25-.395.444-.141.87-.273,1.277-.395.408-.122.771-.225,1.089-.308.318-.082.548-.124.689-.124.214,0,.358.036.432.106.074.071.11.149.11.234,0,.22-.078.414-.234.579-.156.166-.351.31-.584.432-.074.037-.21.091-.409.161-.199.07-.414.142-.643.216-.23.073-.449.144-.657.211-.208.067-.358.116-.45.147-.601.233-1.089.424-1.466.574-.377.15-.682.273-.915.368-.233.095-.412.167-.537.216-.126.049-.242.091-.349.124-.107.034-.225.066-.354.096-.129.031-.306.073-.533.129-.055.129-.12.323-.193.584-.074.261-.144.53-.211.809-.068.279-.124.538-.17.777-.046.239-.069.404-.069.496,0,.11.015.192.046.243.031.052.067.088.11.106.043.018.086.027.129.027h.101c.294,0,.648-.043,1.062-.129.414-.086.823-.199,1.227-.34.386-.135.723-.282,1.011-.441.288-.159.559-.308.813-.446.254-.138.502-.254.745-.349.242-.095.507-.145.795-.152.061,0,.133.006.216.018.082.012.161.036.234.069.073.034.133.078.179.134.046.055.063.126.051.211-.025.178-.113.352-.266.524-.153.172-.346.337-.579.496-.233.159-.494.312-.781.46-.288.147-.582.286-.882.418-.3.132-.594.252-.882.359-.288.107-.545.2-.772.28-.564.196-1.112.34-1.645.432-.533.092-1.011.138-1.434.138-.466,0-.823-.087-1.071-.262-.248-.175-.372-.464-.372-.869Z"/><path class="cls-6" d="m82.09,257.128c-.129,0-.242-.025-.34-.073-.098-.049-.179-.113-.244-.193-.064-.08-.113-.172-.147-.276-.034-.104-.05-.208-.05-.313,0-.092.024-.219.073-.381.049-.162.112-.345.188-.547.077-.202.161-.414.253-.634.092-.221.181-.432.266-.634.086-.202.159-.389.221-.561.061-.172.104-.306.129-.404.025-.11.055-.242.092-.395.037-.153.078-.32.124-.501.046-.18.092-.371.138-.57.046-.199.093-.4.143-.602-.086.018-.192.036-.317.051-.126.015-.259.029-.4.041-.202.018-.402.046-.597.083-.196.037-.397.078-.602.124-.206.046-.418.095-.639.147-.221.052-.457.106-.708.161-.368.08-.735.168-1.103.267-.368.098-.751.147-1.149.147-.123,0-.236-.032-.34-.097-.104-.064-.221-.112-.349-.142-.123.196-.239.406-.349.63-.11.224-.211.453-.303.689-.092.236-.175.469-.248.699-.073.23-.138.446-.193.648-.031.11-.057.253-.078.428-.022.174-.041.352-.06.533-.018.18-.037.354-.055.519-.018.166-.037.297-.055.395-.018.092-.055.183-.11.271-.055.089-.123.17-.202.244-.08.073-.168.133-.267.179-.098.046-.196.069-.294.069-.172,0-.311-.051-.418-.152-.107-.101-.193-.227-.257-.377-.064-.15-.109-.314-.133-.492-.025-.177-.037-.34-.037-.487,0-.374.046-.761.138-1.163.092-.401.216-.809.372-1.223.156-.413.34-.83.551-1.25.211-.419.439-.837.685-1.254.202-.374.453-.806.754-1.296.3-.49.635-.994,1.007-1.512.37-.518.772-1.025,1.204-1.521.432-.496.881-.939,1.347-1.328.466-.389.944-.703,1.434-.942.49-.239.977-.358,1.461-.358.508,0,.933.092,1.273.276.34.184.611.432.814.745.202.312.345.677.427,1.094.082.417.124.858.124,1.323,0,.411-.026.834-.078,1.268-.052.435-.116.861-.193,1.277-.077.417-.16.818-.249,1.204-.089.386-.17.735-.243,1.048l-.322,1.25c-.012.037-.036.11-.069.221-.034.11-.077.244-.129.4-.052.157-.11.325-.175.506-.064.181-.129.358-.193.533-.064.174-.126.335-.184.483-.059.147-.109.267-.152.358l.009-.009c-.043.159-.089.322-.138.487-.049.166-.117.314-.202.446-.086.132-.196.239-.331.322-.135.083-.31.124-.524.124Zm.469-11.507c-.276,0-.55.057-.822.17-.273.114-.541.262-.804.446-.264.184-.519.398-.768.643-.248.245-.484.496-.707.754-.224.257-.434.516-.63.777-.196.261-.374.501-.533.721-.025.037-.057.084-.097.143-.04.058-.08.123-.119.193-.04.071-.078.144-.115.22-.037.077-.068.146-.092.207h.947c.343,0,.735-.024,1.177-.073.441-.049.878-.107,1.309-.175.432-.067.829-.136,1.19-.207.361-.07.634-.124.818-.161.024-.08.047-.187.069-.322.022-.135.041-.285.06-.451.018-.165.032-.341.042-.528.009-.187.014-.378.014-.574,0-.159-.006-.341-.018-.547-.012-.205-.049-.4-.11-.583-.062-.184-.155-.339-.281-.464-.126-.125-.302-.188-.528-.188Z"/><path class="cls-6" d="m86.851,256.595c.024-.11.06-.214.105-.313.046-.098.097-.208.152-.331.055-.122.113-.268.175-.437.061-.168.122-.378.184-.63l.359-1.47c.086-.355.175-.718.267-1.089.092-.371.199-.789.322-1.255.098-.374.216-.764.354-1.172.138-.408.281-.829.432-1.264.15-.435.302-.882.455-1.342.153-.46.291-.934.413-1.425.006-.018.009-.043.009-.073,0-.049-.015-.08-.046-.092-.031-.012-.071-.018-.12-.018-.153,0-.28-.023-.381-.069-.101-.046-.181-.106-.239-.179-.058-.073-.1-.157-.124-.253-.025-.095-.037-.194-.037-.299,0-.269.032-.485.097-.648.064-.162.147-.288.248-.377.101-.089.212-.153.331-.193.12-.04.236-.072.349-.097.113-.024.213-.05.299-.078.086-.027.147-.078.184-.152.061-.129.118-.265.17-.409.052-.144.118-.277.197-.4.08-.122.178-.223.294-.303.116-.08.269-.12.46-.12.135,0,.254.037.358.11.104.073.194.165.271.276.076.11.142.229.197.354.055.126.104.241.147.345.631.018,1.178.055,1.641.11.462.055.81.104,1.043.147.46.086.92.215,1.383.386.462.172.879.394,1.25.666.37.273.674.594.91.965.236.371.354.795.354,1.273,0,.245-.028.499-.083.763l-.064.322c-.049.257-.152.496-.308.717-.156.221-.333.42-.528.598-.546.502-1.143.924-1.792,1.264-.65.34-1.327.627-2.031.859-.705.233-1.425.429-2.16.588-.735.159-1.461.31-2.178.45l-.257.037c-.141.018-.224.071-.248.156-.123.423-.219.794-.29,1.112-.071.319-.136.624-.198.914-.061.291-.123.583-.184.873-.061.291-.138.614-.23.969-.031.117-.086.254-.165.414-.08.159-.175.309-.285.45-.11.141-.238.262-.381.363-.144.101-.296.152-.455.152-.11,0-.205-.031-.285-.092-.08-.061-.146-.139-.198-.234-.052-.095-.092-.198-.119-.308-.028-.11-.041-.214-.041-.313v-.106c0-.033.006-.066.018-.096Zm3.649-6.792c-.012.043-.029.097-.051.161-.021.065-.041.132-.06.202-.018.071-.034.135-.046.193-.012.058-.018.1-.018.124,0,.031.005.057.014.078.009.022.029.032.06.032.018,0,.076-.008.175-.023.098-.015.216-.035.354-.06.138-.024.286-.052.446-.083.159-.031.313-.061.46-.092.398-.086.824-.194,1.278-.326.453-.132.905-.281,1.356-.446.45-.165.88-.343,1.291-.533.411-.19.775-.392,1.094-.607.337-.227.607-.453.809-.68.202-.227.303-.469.303-.726,0-.153-.02-.29-.059-.409-.04-.12-.085-.228-.133-.326-.184-.3-.414-.536-.689-.708-.276-.172-.576-.3-.901-.386-.325-.086-.665-.141-1.02-.165-.356-.024-.705-.037-1.048-.037-.092,0-.231.006-.418.018-.187.012-.383.028-.588.046-.206.018-.395.041-.57.069-.175.027-.293.059-.354.096-.031.018-.057.049-.078.092-.021.043-.038.08-.05.11-.049.123-.117.293-.202.51-.086.217-.178.461-.276.73-.098.27-.201.555-.308.855-.107.301-.21.593-.308.878-.098.285-.188.551-.271.8-.082.248-.145.452-.188.611Z"/><path class="cls-6" d="m99.231,256.595c.024-.11.06-.214.106-.313.046-.098.097-.208.152-.331.055-.122.113-.268.175-.437.061-.168.122-.378.184-.63l.359-1.47c.086-.355.175-.718.267-1.089.092-.371.199-.789.322-1.255.098-.374.216-.764.354-1.172.138-.408.281-.829.432-1.264.15-.435.302-.882.455-1.342.153-.46.291-.934.413-1.425.006-.018.009-.043.009-.073,0-.049-.015-.08-.046-.092-.031-.012-.071-.018-.12-.018-.153,0-.28-.023-.382-.069-.101-.046-.18-.106-.239-.179-.058-.073-.1-.157-.124-.253-.025-.095-.037-.194-.037-.299,0-.269.032-.485.097-.648.064-.162.147-.288.248-.377.101-.089.212-.153.331-.193.12-.04.236-.072.349-.097.113-.024.213-.05.299-.078.086-.027.147-.078.184-.152.061-.129.118-.265.17-.409.052-.144.118-.277.197-.4.08-.122.178-.223.294-.303.116-.08.27-.12.46-.12.135,0,.254.037.358.11.104.073.194.165.271.276.077.11.142.229.197.354.055.126.104.241.147.345.631.018,1.178.055,1.641.11.462.055.81.104,1.043.147.46.086.92.215,1.383.386.462.172.879.394,1.25.666.371.273.674.594.91.965.236.371.354.795.354,1.273,0,.245-.028.499-.083.763l-.064.322c-.049.257-.152.496-.308.717-.157.221-.333.42-.529.598-.545.502-1.143.924-1.792,1.264-.65.34-1.327.627-2.031.859-.705.233-1.425.429-2.16.588s-1.461.31-2.178.45l-.257.037c-.141.018-.224.071-.248.156-.123.423-.219.794-.289,1.112-.071.319-.137.624-.198.914-.061.291-.123.583-.184.873-.061.291-.138.614-.23.969-.031.117-.086.254-.165.414-.08.159-.175.309-.285.45-.11.141-.238.262-.381.363-.144.101-.296.152-.455.152-.11,0-.205-.031-.285-.092-.08-.061-.146-.139-.198-.234-.052-.095-.092-.198-.119-.308-.028-.11-.041-.214-.041-.313v-.106c0-.033.006-.066.018-.096Zm3.649-6.792c-.012.043-.029.097-.051.161-.021.065-.041.132-.06.202-.018.071-.034.135-.046.193-.012.058-.018.1-.018.124,0,.031.005.057.014.078.009.022.029.032.06.032.018,0,.076-.008.175-.023.098-.015.216-.035.354-.06.138-.024.286-.052.446-.083.159-.031.313-.061.46-.092.398-.086.824-.194,1.277-.326.453-.132.905-.281,1.356-.446.45-.165.88-.343,1.291-.533.41-.19.775-.392,1.094-.607.337-.227.606-.453.809-.68s.303-.469.303-.726c0-.153-.02-.29-.06-.409-.04-.12-.085-.228-.133-.326-.184-.3-.414-.536-.689-.708-.276-.172-.576-.3-.901-.386-.325-.086-.665-.141-1.02-.165-.356-.024-.705-.037-1.048-.037-.092,0-.231.006-.418.018-.187.012-.383.028-.588.046-.206.018-.395.041-.57.069-.175.027-.293.059-.354.096-.031.018-.057.049-.078.092-.021.043-.038.08-.05.11-.049.123-.116.293-.202.51s-.178.461-.276.73c-.098.27-.201.555-.308.855-.107.301-.21.593-.308.878-.098.285-.188.551-.271.8-.082.248-.145.452-.188.611Z"/><path class="cls-6" d="m112.796,252.284c.276-.846.539-1.657.791-2.436.251-.778.473-1.498.666-2.16.193-.662.346-1.247.46-1.755.113-.508.176-.913.189-1.213.073-.288.203-.518.391-.689.187-.172.402-.257.648-.257.147,0,.272.034.377.101.104.068.188.156.252.266.065.11.112.234.143.372.031.138.046.277.046.418,0,.104-.006.199-.018.285-.012.086-.028.169-.046.248-.141.564-.31,1.146-.505,1.746-.196.601-.397,1.209-.602,1.825-.206.615-.409,1.233-.611,1.852-.202.619-.383,1.225-.542,1.82l-.165.625c-.086.319-.159.622-.221.91-.061.288-.092.521-.092.698,0,.098.018.176.055.235.037.058.107.087.211.087.251,0,.545-.041.882-.124.337-.083.686-.184,1.048-.304.361-.119.722-.251,1.08-.395.359-.144.688-.28.988-.409.159-.067.295-.125.409-.175.113-.049.254-.109.423-.179.169-.07.394-.164.676-.28.282-.116.671-.279,1.167-.487.086-.031.161-.056.225-.078.064-.021.124-.032.179-.032.098,0,.182.018.253.055.07.037.125.086.165.147.04.061.069.132.087.211.018.08.028.159.028.239,0,.135-.011.253-.032.354-.022.101-.045.186-.069.253-.073.117-.168.222-.285.317-.116.095-.239.178-.368.248-.129.07-.254.13-.377.179-.123.049-.224.086-.303.11-.098.037-.229.086-.391.147-.162.061-.338.129-.528.202-.19.073-.386.148-.588.225s-.392.149-.57.216c-.178.068-.336.127-.473.179-.138.052-.234.087-.29.106-.264.098-.556.209-.878.331-.322.123-.642.239-.96.349-.319.11-.621.204-.905.28-.285.077-.522.115-.712.115-.233,0-.415-.018-.547-.055-.132-.037-.25-.087-.354-.152-.104-.064-.21-.142-.317-.234-.107-.092-.25-.193-.428-.303-.159-.098-.273-.233-.34-.404-.067-.172-.101-.355-.101-.551,0-.098.007-.211.023-.34.015-.129.035-.263.06-.404.024-.141.052-.279.083-.414.031-.135.064-.254.101-.358l.515-1.562Z"/><path class="cls-6" d="m123.117,256.346c0-.214.03-.441.092-.68.208-.833.451-1.65.73-2.45.279-.799.531-1.594.758-2.385.227-.79.415-1.457.565-1.999.15-.543.283-1.008.4-1.397.116-.389.224-.724.322-1.007.098-.282.205-.561.322-.836.073-.165.155-.337.243-.515.089-.177.185-.341.29-.492.104-.15.213-.273.326-.368.113-.095.231-.143.354-.143.251,0,.442.041.574.124.132.082.213.158.244.225l.083.377c.092-.006.211-.023.358-.05.147-.028.295-.057.446-.088.15-.03.29-.061.418-.092.129-.03.227-.058.294-.083.404-.11.778-.205,1.121-.285.343-.08.669-.146.979-.198.309-.052.605-.09.887-.115.282-.024.567-.037.855-.037.282,0,.511.015.689.046.178.031.319.072.423.124.104.052.176.114.216.184.04.071.06.146.06.225,0,.073-.02.152-.06.234-.04.083-.106.161-.198.234-.092.074-.211.138-.358.193-.147.055-.331.092-.552.11-.055.012-.182.036-.381.069-.199.034-.415.07-.648.11-.233.04-.454.078-.662.115-.209.037-.352.064-.432.083h.009c-.037.006-.124.029-.262.069-.138.04-.305.086-.501.138-.196.052-.409.112-.639.179-.23.067-.456.133-.68.198-.224.064-.43.125-.62.184-.19.058-.343.106-.46.142-.374.147-.666.342-.878.583-.212.242-.379.513-.501.814-.025.055-.061.149-.11.281-.049.132-.103.282-.161.45-.059.169-.122.348-.189.538-.068.19-.132.371-.193.542-.061.172-.115.328-.161.469-.046.141-.078.245-.096.312-.018.061-.031.117-.037.165-.006.049-.009.086-.009.11,0,.037.009.055.028.055.092,0,.283-.041.574-.124.291-.083.631-.186,1.02-.308.389-.122.805-.254,1.25-.395.444-.141.87-.273,1.277-.395.408-.122.771-.225,1.089-.308.318-.082.548-.124.689-.124.214,0,.358.036.432.106.073.071.11.149.11.234,0,.22-.078.414-.234.579-.157.166-.351.31-.584.432-.073.037-.21.091-.409.161-.199.07-.414.142-.643.216-.23.073-.449.144-.657.211-.209.067-.358.116-.45.147-.601.233-1.089.424-1.466.574-.377.15-.682.273-.915.368-.233.095-.412.167-.537.216-.126.049-.242.091-.349.124-.107.034-.225.066-.354.096-.129.031-.306.073-.533.129-.055.129-.119.323-.193.584-.073.261-.144.53-.211.809-.068.279-.124.538-.17.777-.046.239-.069.404-.069.496,0,.11.015.192.046.243.031.052.067.088.11.106.043.018.086.027.129.027h.101c.294,0,.648-.043,1.061-.129.414-.086.823-.199,1.227-.34.386-.135.723-.282,1.011-.441.288-.159.559-.308.813-.446.254-.138.503-.254.745-.349.242-.095.507-.145.795-.152.061,0,.133.006.216.018.082.012.161.036.234.069.073.034.133.078.179.134.046.055.063.126.051.211-.025.178-.113.352-.266.524-.153.172-.346.337-.579.496-.233.159-.493.312-.781.46-.288.147-.582.286-.882.418-.301.132-.594.252-.882.359-.288.107-.545.2-.772.28-.564.196-1.112.34-1.645.432-.533.092-1.011.138-1.434.138-.466,0-.823-.087-1.071-.262-.248-.175-.372-.464-.372-.869Z"/></svg>