<?xml version="1.0" encoding="UTF-8"?><svg id="Layer_1" xmlns="http://www.w3.org/2000/svg" viewBox="0 0 100 100"><defs><style>.cls-1{fill:#fdfbdd;stroke-width:0px;}</style></defs><path class="cls-1" d="m66.644,38.003l28.048,6.023c6.486,1.393,6.486,10.647,0,12.04l-28.048,6.023c-2.369.509-4.219,2.359-4.727,4.727l-6.023,28.048c-1.393,6.486-10.647,6.486-12.04,0l-6.023-28.048c-.509-2.369-2.359-4.219-4.727-4.727l-28.048-6.023c-6.486-1.393-6.486-10.647,0-12.04l28.048-6.023c2.369-.509,4.219-2.359,4.727-4.727l6.023-28.048c1.393-6.486,10.647-6.486,12.04,0l6.023,28.048c.509,2.369,2.359,4.219,4.727,4.727Z"/></svg>